<?xml version="1.0" encoding="UTF-8"?>
<svg version="1.1" xmlns="http://www.w3.org/2000/svg" width="500" height="500">
<path d="M0 0 C165 0 330 0 500 0 C500 165 500 330 500 500 C335 500 170 500 0 500 C0 335 0 170 0 0 Z " fill="#A5000C" transform="translate(0,0)"/>
<path d="M0 0 C1.62158083 0.8113248 1.62158083 0.8113248 3.27592087 1.63903999 C4.18826591 2.0904209 4.18826591 2.0904209 5.11904216 2.55092061 C7.14043791 3.55403457 9.15441648 4.57118745 11.1686821 5.5885334 C12.62253734 6.31370926 14.07682349 7.03802176 15.53150558 7.76153755 C19.46968882 9.72351872 23.40151429 11.69793504 27.33214283 13.67499876 C31.44879918 15.74339328 35.5706584 17.80137071 39.69181442 19.86078072 C46.60846882 23.31913468 53.52114292 26.78533981 60.43137741 30.25650215 C68.42179797 34.2701753 76.41779752 38.27254733 84.41700864 42.26866901 C92.11443023 46.11422853 99.80842266 49.96659727 107.5006752 53.82248497 C110.7739196 55.46319557 114.04824808 57.10171293 117.32344437 58.73852348 C121.17744037 60.66508238 125.02836639 62.59764499 128.87699127 64.5349102 C130.29051831 65.2452576 131.70506974 65.9535707 133.12070465 66.65970802 C135.05109151 67.62304705 136.97763258 68.5936787 138.90336227 69.56628609 C139.98290806 70.10792334 141.06245384 70.64956059 142.17471313 71.20761108 C144.55097211 72.5668007 146.21421527 73.54171302 147.83567429 75.72964668 C148.22043514 77.62929249 148.22043514 77.62929249 148.2344017 79.81086922 C148.25320892 81.05393585 148.25320892 81.05393585 148.27239609 82.32211494 C148.27024345 83.68049477 148.27024345 83.68049477 148.26804733 85.0663166 C148.27823898 86.0226046 148.28843063 86.97889259 148.29893112 87.96415901 C148.32915985 91.12953665 148.33834222 94.29461217 148.34739304 97.46011543 C148.36423238 99.65302227 148.3823816 101.84591941 148.40179062 104.03880501 C148.44937748 109.81407835 148.4791307 115.58931239 148.50522995 121.36471748 C148.53499164 127.25662183 148.58153701 133.14839062 148.62668991 139.04019356 C148.71282188 150.60327382 148.78012316 162.16638191 148.83567429 173.72964668 C149.59049088 174.13548988 150.34530746 174.54133308 151.12299728 174.95947456 C152.60861664 175.7629583 152.60861664 175.7629583 154.1242485 176.58267403 C155.10594009 177.11226723 156.08763168 177.64186043 157.0990715 178.18750191 C173.25688965 187.29284046 183.47319409 203.07696781 189.01145554 220.40933418 C190.28844862 225.9135001 190.125916 231.48422109 190.08567429 237.10464668 C190.09340866 238.17714668 190.10114304 239.24964668 190.10911179 240.35464668 C190.0610283 260.11696071 182.46800493 275.61240562 169.02317429 289.97964668 C152.66952081 305.46581756 133.95620261 309.36167392 112.14036179 309.06949043 C93.95888947 308.41918844 78.84842941 298.40017404 66.69504929 285.44839668 C62.13949373 280.33728557 62.13949373 280.33728557 60.83567429 277.72964668 C56.73416043 278.3478659 53.56629648 279.70256652 49.88718796 281.59707832 C48.71214203 282.19762535 47.5370961 282.79817238 46.32644272 283.4169178 C45.70384756 283.73844889 45.0812524 284.05997997 44.43979073 284.39125443 C42.47908848 285.4024667 40.51382825 286.40423121 38.54693222 287.40333748 C32.95715733 290.24390864 27.37306944 293.09533997 21.79929733 295.96719551 C18.38344208 297.72635889 14.95983723 299.46957031 11.53092003 301.203125 C10.23101984 301.86418302 8.93411861 302.53117478 7.6404438 303.20433426 C-5.27846579 309.92261214 -5.27846579 309.92261214 -12.16432571 308.72964668 C-14.8551703 307.67420209 -17.15778901 306.62855723 -19.66041946 305.24917793 C-20.34671936 304.88854759 -21.03301926 304.52791725 -21.74011612 304.15635872 C-23.17574338 303.40091341 -24.607892 302.63882236 -26.03657913 301.87033272 C-28.72805187 300.4274328 -31.44192095 299.03061731 -34.15785599 297.63447762 C-36.15166697 296.60881109 -38.14205911 295.57678065 -40.13161087 294.5428791 C-50.77956036 289.01332689 -61.4242515 283.51123662 -72.28932571 278.41714668 C-84.59384046 272.64248938 -96.64347655 266.37630428 -108.72511673 260.15347481 C-110.40013808 259.29079124 -112.07518657 258.42816038 -113.75026321 257.56558418 C-114.56593262 257.14553108 -115.38160202 256.72547798 -116.22198868 256.292696 C-123.03429193 252.78831633 -129.87059113 249.33491557 -136.72682571 245.91714668 C-137.66856644 245.4468 -138.61030716 244.97645332 -139.58058548 244.49185371 C-143.5940822 242.49148177 -147.61401225 240.50700164 -151.65260696 238.55777168 C-152.32026077 238.23268623 -152.98791458 237.90760078 -153.67580032 237.57266426 C-155.36401376 236.75233364 -157.05688204 235.94159968 -158.75026321 235.13199043 C-161.16432571 233.72964668 -161.16432571 233.72964668 -163.16432571 230.72964668 C-163.42438793 227.950984 -163.42438793 227.950984 -163.43848038 224.51140022 C-163.44845551 223.20886299 -163.45843063 221.90632576 -163.46870804 220.5643177 C-163.46960385 219.11755574 -163.47026742 217.67079362 -163.4707222 216.22403145 C-163.4783422 214.70300069 -163.48676942 213.18197379 -163.49594498 211.66095161 C-163.51791059 207.52668761 -163.52669144 203.39249758 -163.53177142 199.25818181 C-163.53541207 196.67629824 -163.54165054 194.09443414 -163.54877281 191.51255798 C-163.57327291 182.50833342 -163.58632075 173.50416654 -163.58986282 164.49991035 C-163.59350023 156.10133801 -163.62340861 147.70313065 -163.66526741 139.30466992 C-163.69993043 132.09779972 -163.71541056 124.89105073 -163.71610886 117.68409771 C-163.71690294 113.37799227 -163.72570141 109.07225861 -163.75410652 104.76623917 C-163.78021978 100.71708768 -163.78253075 96.66861802 -163.76645088 92.61942101 C-163.76463106 91.13269315 -163.77137521 89.64592669 -163.78726959 88.15928268 C-163.80763184 86.13124776 -163.79422592 84.1029572 -163.77905655 82.07487679 C-163.78106788 80.93943711 -163.7830792 79.80399744 -163.78515148 78.63415051 C-163.16432571 75.72964668 -163.16432571 75.72964668 -160.78392315 73.42524529 C-158.2146728 71.76223506 -155.65907335 70.26662231 -152.93434525 68.87295723 C-151.91623764 68.34949211 -150.89813004 67.82602699 -149.84917068 67.2866993 C-148.75949997 66.73548912 -147.66982925 66.18427895 -146.54713821 65.61636543 C-145.41662033 65.04255638 -144.28610245 64.46874733 -143.12132645 63.87755013 C-140.73413278 62.66981132 -138.34560731 61.46518525 -135.95485306 60.26455879 C-132.90134572 58.72956065 -129.85962079 57.17259178 -126.82005882 55.61020374 C-123.90371011 54.11729671 -120.97458788 52.64985376 -118.04713821 51.17886543 C-116.96151596 50.6175341 -115.87589371 50.05620277 -114.75737381 49.4778614 C-106.28780411 45.280295 -106.28780411 45.280295 -102.04664993 45.70157051 C-99.16432571 46.72964668 -99.16432571 46.72964668 -97.16432571 49.72964668 C-96.72682571 53.16714668 -96.72682571 53.16714668 -97.16432571 56.72964668 C-101.04562631 60.5093178 -105.71566128 62.70071075 -110.52760696 65.05777168 C-111.31958984 65.4516407 -112.11157272 65.84550972 -112.92755508 66.25131416 C-115.4412025 67.49978629 -117.95890552 68.73981825 -120.47682571 69.97964668 C-122.18868952 70.82804982 -123.90028116 71.67700237 -125.61159134 72.52652168 C-129.79271238 74.60060298 -133.97748948 76.66712831 -138.16432571 78.72964668 C-134.46647413 81.77720724 -130.35548274 83.83041861 -126.10963821 85.99527168 C-125.33047043 86.39292732 -124.55130264 86.79058296 -123.74852371 87.20028877 C-122.10399008 88.03634866 -120.45821867 88.86997775 -118.81129837 89.70132637 C-117.12992894 90.55356745 -115.4521646 91.41295854 -113.77809525 92.27945137 C-111.35461802 93.53381156 -108.9212695 94.76669856 -106.48463821 95.99527168 C-105.36872803 96.57948891 -105.36872803 96.57948891 -104.2302742 97.1755085 C-103.52289108 97.52627449 -102.81550797 97.87704048 -102.086689 98.23843575 C-101.16546753 98.70784584 -101.16546753 98.70784584 -100.22563553 99.18673897 C-95.40544486 100.45628064 -90.93358623 98.3636758 -86.66608047 96.22439766 C-85.59909424 95.69437645 -84.532108 95.16435524 -83.43278885 94.61827278 C-82.27773849 94.03434258 -81.12268814 93.45041237 -79.93263626 92.84878731 C-78.69235062 92.22889907 -77.45171515 91.60971034 -76.21075821 90.99116707 C-72.85212507 89.31455419 -69.49853516 87.62807658 -66.14582801 85.93965149 C-62.63634099 84.1742477 -59.12246639 82.41761965 -55.60910416 80.65994453 C-49.71460463 77.70947408 -43.82309594 74.75310515 -37.93361282 71.79263496 C-30.36621349 67.98875265 -22.79422953 64.19409365 -15.22066402 60.40250587 C-8.71376406 57.14491105 -2.20865799 53.88373995 4.29599357 50.62165833 C6.39008776 49.57157531 8.48436856 48.52186509 10.57864952 47.47215462 C13.86204862 45.82607369 17.14433167 44.17778765 20.42574501 42.52775192 C22.21043509 41.63087026 23.99609676 40.73592276 25.78178024 39.84102058 C26.83466736 39.31099937 27.88755447 38.78097816 28.97234726 38.23489571 C29.89279988 37.77253265 30.81325251 37.3101696 31.76159763 36.83379555 C33.76682017 35.89579718 33.76682017 35.89579718 34.83567429 34.72964668 C29.21512617 31.89401703 23.59145071 29.06466563 17.9655571 26.23965645 C16.05207019 25.27788433 14.13930377 24.31467738 12.22727585 23.35000801 C9.47883379 21.96365731 6.7278419 20.58248749 3.97629929 19.20230293 C3.12199326 18.76998863 2.26768723 18.33767433 1.38749313 17.8922596 C0.58696518 17.49192009 -0.21356277 17.09158058 -1.03834915 16.67910957 C-1.74006241 16.32603233 -2.44177567 15.97295509 -3.16475296 15.60917854 C-7.2254128 13.81336517 -7.2254128 13.81336517 -11.42824173 14.57486153 C-12.24993851 15.02555 -13.07163528 15.47623848 -13.91823196 15.94058418 C-14.8465181 16.43977364 -15.77480423 16.93896309 -16.73122025 17.4532795 C-18.21404495 18.27070625 -18.21404495 18.27070625 -19.72682571 19.10464668 C-21.79703223 20.21404906 -23.86867147 21.32078166 -25.94166946 22.42495918 C-26.98178177 22.98086739 -28.02189407 23.53677559 -29.09352493 24.1095295 C-33.61420493 26.49458535 -38.18302396 28.76522767 -42.78932571 30.97964668 C-43.95056961 31.55271553 -43.95056961 31.55271553 -45.13527298 32.13736153 C-52.04931121 35.43313262 -52.04931121 35.43313262 -56.16432571 34.72964668 C-58.53932571 32.66714668 -58.53932571 32.66714668 -60.16432571 29.72964668 C-60.24635696 26.32730293 -60.24635696 26.32730293 -59.16432571 22.72964668 C-56.54475504 20.81054729 -54.38315202 19.56736043 -51.47682571 18.22964668 C-49.75926366 17.39003639 -48.04182462 16.5501744 -46.32448196 15.71011543 C-45.36042435 15.24911446 -44.39636673 14.78811348 -43.40309525 14.31314278 C-40.39937054 12.84456458 -37.43419565 11.3217148 -34.47406387 9.76812935 C-31.79568075 8.36251277 -29.10926712 6.97265221 -26.42198563 5.58413887 C-25.08940219 4.89251699 -23.75946327 4.19577449 -22.43230057 3.49380684 C-20.54424819 2.49870221 -18.64539042 1.52794018 -16.74245071 0.56167793 C-15.09357864 -0.29333305 -15.09357864 -0.29333305 -13.41139603 -1.16561699 C-8.53474857 -2.82477712 -4.72507099 -1.89693165 0 0 Z " fill="#FDFAFA" transform="translate(236.16432571411133,96.27035331726074)"/>
<path d="M0 0 C14.75947315 6.88841717 29.34898369 14.09945964 43.91346979 21.38957214 C47.05400016 22.96112549 50.19552611 24.53068666 53.33688354 26.10058594 C58.5867972 28.72464183 63.83588047 31.35035282 69.08447266 33.97705078 C75.15197322 37.01354558 81.22093631 40.047102 87.2906276 43.07921505 C92.53078416 45.69702903 97.77016456 48.31639131 103.00889099 50.93706608 C106.1264058 52.49660238 109.24418737 54.05559885 112.36267471 55.6131897 C115.81730872 57.33880205 119.27031161 59.06766137 122.72314453 60.796875 C123.75568359 61.31213242 124.78822266 61.82738983 125.85205078 62.35826111 C126.78518097 62.82623611 127.71831116 63.29421112 128.67971802 63.77636719 C129.49479387 64.18409363 130.30986973 64.59182007 131.14964485 65.01190186 C133 66 133 66 134 67 C134.09622036 68.70825688 134.12187628 70.42052114 134.12025452 72.13148499 C134.12231651 73.79954948 134.12231651 73.79954948 134.12442017 75.50131226 C134.12082489 76.73201447 134.11722961 77.96271667 134.11352539 79.23071289 C134.11367142 80.51833023 134.11381744 81.80594757 134.1139679 83.13258362 C134.11425586 86.6737476 134.10835936 90.21487799 134.10139394 93.75603414 C134.09516017 97.45294988 134.09455658 101.14986631 134.09336853 104.8467865 C134.09025528 111.85203899 134.08204199 118.85727595 134.07201904 125.86252159 C134.0608577 133.83578876 134.0553474 141.80905665 134.05032361 149.78232968 C134.03985937 166.18822889 134.02226005 182.59411247 134 199 C130.12033324 198.38718041 127.05208086 197.21252755 123.54608154 195.45678711 C121.92242172 194.64913406 121.92242172 194.64913406 120.26596069 193.82516479 C119.08861359 193.23188385 117.91126648 192.63860291 116.69824219 192.02734375 C115.43831402 191.39777527 114.17812447 190.76872966 112.91769409 190.14016724 C109.50206285 188.43491508 106.09020787 186.72223128 102.67903805 185.00807571 C99.11009981 183.21608396 95.53791649 181.43058387 91.96612549 179.64428711 C85.97214485 176.6454517 79.98043613 173.64211831 73.99023438 170.63574219 C66.29317616 166.77275491 58.59241165 162.91721707 50.89045334 159.06401062 C44.27497214 155.75428275 37.66119914 152.44114656 31.04769993 149.12746048 C28.91796169 148.06053957 26.78798748 146.99409087 24.65798187 145.92770386 C21.31800587 144.25527472 17.97909946 142.5807289 14.64102554 140.90450668 C13.4130197 140.28823701 12.18467207 139.67264788 10.95596695 139.05777359 C9.28504251 138.22144236 7.61547234 137.38240698 5.94598389 136.54321289 C5.00948376 136.07347549 4.07298363 135.6037381 3.10810471 135.11976624 C1 134 1 134 0 133 C-0.09624593 131.27907347 -0.12187598 129.55416618 -0.12025452 127.83055115 C-0.12162918 126.71009399 -0.12300385 125.58963684 -0.12442017 124.43522644 C-0.12082489 123.19517349 -0.11722961 121.95512054 -0.11352539 120.67749023 C-0.11367142 119.38011932 -0.11381744 118.08274841 -0.1139679 116.74606323 C-0.11425586 113.17804071 -0.10835932 109.61005152 -0.10139394 106.04203677 C-0.09516021 102.3170938 -0.09455659 98.59215014 -0.09336853 94.86720276 C-0.09025527 87.80882637 -0.08204195 80.7504654 -0.07201904 73.69209582 C-0.06085774 65.65837029 -0.05534741 57.62464404 -0.05032361 49.5909127 C-0.03985934 33.06059943 -0.02226 16.53030168 0 0 Z " fill="#A5010D" transform="translate(87,187)"/>
<path d="M0 0 C0 25.74 0 51.48 0 78 C-7.59 78 -15.18 78 -23 78 C-42.10505064 81.48632311 -58.57728219 89.84142611 -70.4375 105.4375 C-81.30058302 121.60634146 -86.80988117 139.42523007 -83.31640625 158.7890625 C-82.8047294 160.95818065 -82.2567486 163.11939851 -81.65625 165.265625 C-81.01088258 167.95465592 -80.87944855 170.24740851 -81 173 C-82.15113281 173.60585938 -83.30226563 174.21171875 -84.48828125 174.8359375 C-85.24810303 175.23586914 -86.0079248 175.63580078 -86.79077148 176.04785156 C-88.49202165 176.94319437 -90.19335827 177.83837293 -91.89477539 178.73339844 C-96.28862316 181.04505841 -100.68119227 183.35906238 -105.0703125 185.6796875 C-109.70792094 188.13057988 -114.35099717 190.57079131 -119 193 C-119.64211426 193.33612305 -120.28422852 193.67224609 -120.94580078 194.01855469 C-122.62675182 194.89466474 -124.31316672 195.76026958 -126 196.625 C-127.36125 197.32496094 -127.36125 197.32496094 -128.75 198.0390625 C-131 199 -131 199 -134 199 C-134 155.44 -134 111.88 -134 67 C-112.16426716 55.50750903 -112.16426716 55.50750903 -102.39404297 50.63232422 C-100.72443008 49.79620354 -100.72443008 49.79620354 -99.02108765 48.94319153 C-96.04363879 47.45267771 -93.06533791 45.9638967 -90.08653021 44.47610235 C-86.94478429 42.90651805 -83.80403521 41.33494109 -80.66311646 39.76370239 C-75.41463552 37.13856124 -70.16532917 34.51507662 -64.91552734 31.89257812 C-58.8455872 28.86035367 -52.77712149 25.82519372 -46.7093724 22.78858745 C-41.47068552 20.16698035 -36.23122633 17.54692185 -30.99110901 14.92817509 C-27.87276614 13.36978275 -24.75469547 11.81085231 -21.63732529 10.25051498 C-18.18497465 8.52263615 -14.73100645 6.79800772 -11.27685547 5.07373047 C-10.24431641 4.55644882 -9.21177734 4.03916718 -8.14794922 3.50621033 C-6.74825394 2.80847755 -6.74825394 2.80847755 -5.32028198 2.09664917 C-4.50520613 1.68929976 -3.69013027 1.28195034 -2.85035515 0.862257 C-1 0 -1 0 0 0 Z " fill="#A5000C" transform="translate(370,187)"/>
<path d="M0 0 C9.69635453 6.60207668 16.32957513 14.38084436 21.65625 24.80859375 C22.11128906 25.69546875 22.56632812 26.58234375 23.03515625 27.49609375 C27.97991973 39.34974279 27.61823338 55.54531439 23.53125 67.62109375 C22.63113612 69.70965882 21.6765814 71.7760503 20.65625 73.80859375 C20.00462891 75.15244141 20.00462891 75.15244141 19.33984375 76.5234375 C11.93854978 90.20845114 -1.13669131 99.63304082 -15.87109375 104.15625 C-32.44576127 107.26982646 -48.00517767 104.45124642 -62.34375 95.80859375 C-73.79709197 87.25364852 -83.40072609 75.08387675 -86.34375 60.80859375 C-87.33745147 47.70808638 -88.01087206 34.49704956 -81.34375 22.80859375 C-80.80105469 21.82890625 -80.25835937 20.84921875 -79.69921875 19.83984375 C-71.32873839 5.78197154 -59.18570154 -2.81669372 -43.546875 -7.2734375 C-28.74461976 -10.85719605 -12.98643904 -7.65817949 0 0 Z " fill="#A5020D" transform="translate(386.34375,286.19140625)"/>
<path d="M0 0 C3.23101733 1.33457564 6.32718821 2.87166908 9.43359375 4.47265625 C10.31153091 4.9151622 11.18946808 5.35766815 12.0940094 5.81358337 C14.8800345 7.22052085 17.65875496 8.64124734 20.4375 10.0625 C22.33221603 11.02240527 24.22739379 11.98139971 26.12304688 12.93945312 C30.7541101 15.28245747 35.37867557 17.63784891 40 20 C37.07332062 22.32109184 34.11406433 24.07560681 30.78263855 25.75921631 C29.19928963 26.5627076 29.19928963 26.5627076 27.58395386 27.38243103 C26.43113922 27.96231277 25.27832458 28.54219452 24.09057617 29.13964844 C22.85983482 29.76210773 21.62924267 30.3848621 20.39878845 31.00788879 C16.36647073 33.04760037 12.32988874 35.07879138 8.29296875 37.109375 C6.9013385 37.8098959 5.50972492 38.51044993 4.11812782 39.21103668 C-1.66988192 42.12427434 -7.45893913 45.03541136 -13.2509203 47.94074631 C-21.54354389 52.10047145 -29.82975558 56.27239796 -38.10739499 60.46186614 C-43.93391641 63.40955438 -49.76727389 66.34340493 -55.60590953 69.26702332 C-59.09097393 71.01255646 -62.57279031 72.76394423 -66.04746437 74.5300827 C-69.31549524 76.19077853 -72.59167111 77.83413958 -75.87483788 79.46469688 C-77.64842713 80.35096304 -79.41307115 81.25506034 -81.17736816 82.15968323 C-90.91615386 86.95922988 -90.91615386 86.95922988 -97 85 C-99.27767944 84.17189026 -99.27767944 84.17189026 -101.26708984 83.17407227 C-102.40263809 82.61327721 -102.40263809 82.61327721 -103.56112671 82.04115295 C-104.35306427 81.63698654 -105.14500183 81.23282013 -105.9609375 80.81640625 C-106.7921109 80.40083969 -107.6232843 79.98527313 -108.47964478 79.55711365 C-110.22499876 78.68176789 -111.96791922 77.80155473 -113.70849609 76.91674805 C-116.38167273 75.55911109 -119.06308072 74.2189343 -121.74609375 72.88085938 C-123.44321844 72.02705486 -125.13985112 71.17227151 -126.8359375 70.31640625 C-128.04206192 69.71319298 -128.04206192 69.71319298 -129.27255249 69.09779358 C-130.01067169 68.72077805 -130.74879089 68.34376251 -131.50927734 67.95532227 C-132.48687515 67.46020897 -132.48687515 67.46020897 -133.48422241 66.95509338 C-135 66 -135 66 -136 64 C-135.38984826 63.69538503 -134.77969652 63.39077005 -134.15105534 63.07692432 C-119.27559287 55.65025575 -104.40125089 48.22134828 -89.52813816 40.78997517 C-82.33546568 37.1962124 -75.14242194 33.60319657 -67.94848633 30.01196289 C-61.67515199 26.88029366 -55.40253216 23.74719861 -49.13075107 20.61241978 C-45.8127092 18.95404825 -42.49432415 17.29637221 -39.17508125 15.64040565 C-35.46140113 13.7876213 -31.74932025 11.93165412 -28.03735352 10.07543945 C-26.40275681 9.26083755 -26.40275681 9.26083755 -24.73513794 8.42977905 C-19.35135035 5.73426471 -14.06103086 2.96727461 -8.88471222 -0.11085129 C-5.58709737 -1.6665636 -3.4040341 -1.05393816 0 0 Z " fill="#A5000C" transform="translate(321,155)"/>
<path d="M0 0 C0.99193359 0.53947266 0.99193359 0.53947266 2.00390625 1.08984375 C2.68324219 1.45207031 3.36257813 1.81429687 4.0625 2.1875 C4.55878906 2.46464844 5.05507813 2.74179688 5.56640625 3.02734375 C2.62746351 5.35339123 -0.35868749 7.13906811 -3.68650818 8.85816956 C-4.75023148 9.40947037 -5.81395477 9.96077118 -6.90991211 10.52877808 C-8.07200195 11.12586578 -9.2340918 11.72295349 -10.43139648 12.33813477 C-11.6720585 12.97865833 -12.91262095 13.61937475 -14.15309143 14.26026917 C-25.46229538 20.0951322 -36.80508021 25.86498159 -48.15594387 31.61830235 C-56.53898394 35.86857617 -64.90425967 40.15040893 -73.24957699 44.4742952 C-79.12786573 47.51633987 -85.02494385 50.51971495 -90.9369064 53.49577659 C-94.46363221 55.27253533 -97.97975619 57.06531234 -101.47628593 58.90088081 C-104.76880799 60.62849605 -108.08217487 62.30675066 -111.41698265 63.9511776 C-113.20766642 64.84922071 -114.97330803 65.79667132 -116.73751831 66.7456665 C-121.69968502 69.14187483 -124.69695059 70.50813854 -130.13981819 69.00126457 C-133.38696019 67.5177017 -136.41125244 65.92302274 -139.43359375 64.02734375 C-136.50691437 61.70625191 -133.54765808 59.95173694 -130.2162323 58.26812744 C-129.16066635 57.73246658 -128.1051004 57.19680573 -127.01754761 56.64491272 C-125.28832565 55.7750901 -125.28832565 55.7750901 -123.52416992 54.88769531 C-122.29342857 54.26523602 -121.06283642 53.64248165 -119.8323822 53.01945496 C-115.80006448 50.97974338 -111.76348249 48.94855237 -107.7265625 46.91796875 C-106.33493225 46.21744785 -104.94331867 45.51689382 -103.55172157 44.81630707 C-97.76371183 41.90306941 -91.97465462 38.99193239 -86.18267345 36.08659744 C-77.89004986 31.9268723 -69.60383817 27.75494579 -61.32619876 23.56547761 C-55.49967734 20.61778937 -49.66631986 17.68393882 -43.82768422 14.76032043 C-40.34261982 13.01478729 -36.86080344 11.26339952 -33.38612938 9.49726105 C-30.11809851 7.83656522 -26.84192264 6.19320417 -23.55875587 4.56264687 C-21.78516662 3.67638071 -20.0205226 2.77228341 -18.25622559 1.86766052 C-11.18958857 -1.61497634 -7.43508219 -2.97164601 0 0 Z " fill="#A60511" transform="translate(295.43359375,141.97265625)"/>
<path d="M0 0 C3.18315256 0.57346312 4.60367011 0.99021199 6.69677734 3.48583984 C7.38427734 6.67333984 7.38427734 6.67333984 6.69677734 10.48583984 C5.36357117 12.33706665 5.36357117 12.33706665 3.62524414 14.2421875 C2.98936371 14.94120178 2.35348328 15.64021606 1.69833374 16.3604126 C-1.43560261 19.6882997 -4.61661241 22.96168009 -7.84619141 26.19677734 C-8.53707352 26.89098785 -9.22795563 27.58519836 -9.93977356 28.30044556 C-11.38636044 29.75205378 -12.83426659 31.20234841 -14.28344727 32.65136719 C-16.5006121 34.87073913 -18.70962875 37.09801826 -20.91845703 39.32568359 C-22.33137922 40.7415366 -23.74477397 42.15691822 -25.15869141 43.57177734 C-25.81604782 44.23631927 -26.47340424 44.90086121 -27.15068054 45.58554077 C-27.76844864 46.20023224 -28.38621674 46.81492371 -29.02270508 47.44824219 C-29.56118576 47.98814789 -30.09966644 48.52805359 -30.65446472 49.08432007 C-33.3274604 51.35648885 -35.29336907 52.56687748 -38.83447266 52.28271484 C-45.7756384 50.04221198 -51.1544839 42.7178425 -56.24072266 37.67333984 C-56.82080078 37.0980957 -57.40087891 36.52285156 -57.99853516 35.93017578 C-63.21553932 30.69148573 -63.21553932 30.69148573 -63.55322266 26.04833984 C-63.30322266 22.48583984 -63.30322266 22.48583984 -62.24072266 20.54833984 C-58.91497534 18.72454293 -57.04832303 18.81049387 -53.30322266 19.48583984 C-51.07190459 21.26125009 -49.22292132 23.19898311 -47.30322266 25.30615234 C-44.5280637 28.33064198 -41.45364743 30.86048586 -38.30322266 33.48583984 C-35.35317769 32.1614636 -33.33217459 30.74274668 -31.09863281 28.41308594 C-30.49765778 27.79259369 -29.89668274 27.17210144 -29.27749634 26.5328064 C-28.63887665 25.86504181 -28.00025696 25.19727722 -27.34228516 24.50927734 C-25.9704817 23.10244947 -24.59806699 21.69621742 -23.22509766 20.29052734 C-21.0701666 18.07360512 -18.920209 15.85247999 -16.78076172 13.62060547 C-14.71056196 11.46577191 -12.62195173 9.33025964 -10.52978516 7.19677734 C-9.89521393 6.52496429 -9.2606427 5.85315125 -8.60684204 5.16098022 C-4.10018875 0.60305806 -4.10018875 0.60305806 0 0 Z " fill="#FCF8F9" transform="translate(384.30322265625,308.51416015625)"/>
<path d="M0 0 C3.4602926 1.44342059 6.79406088 3.11676172 10.140625 4.8046875 C11.10401794 5.28447052 12.06741089 5.76425354 13.05999756 6.25857544 C15.08916783 7.27180289 17.11633374 8.28905315 19.14160156 9.31005859 C22.24739542 10.87368871 25.36137815 12.42002275 28.4765625 13.96484375 C30.4484307 14.95209897 32.41980256 15.9403463 34.390625 16.9296875 C35.32392639 17.39228973 36.25722778 17.85489197 37.21881104 18.33151245 C38.08020691 18.76851471 38.94160278 19.20551697 39.82910156 19.65576172 C40.96777679 20.22748611 40.96777679 20.22748611 42.12945557 20.8107605 C44 22 44 22 46 25 C45.8684799 28.68256285 45.73329557 31.09748237 43.375 34 C39.8862081 35.46896501 37.69284744 34.7971508 34 34 C31.01238703 32.71835103 28.20805952 31.15262848 25.375 29.5625 C17.37770737 25.19014842 9.26443322 21.20845909 0.94287109 17.48852539 C-3.92312189 15.24813916 -7.66896429 13.26126334 -11 9 C-11.06682582 5.12410244 -10.83569448 2.99045271 -8.3125 0 C-5.04286761 -1.41389509 -3.48724572 -0.86229544 0 0 Z " fill="#FCF8F8" transform="translate(112,300)"/>
<path d="M0 0 C3.18798828 1.22167969 3.18798828 1.22167969 6.5703125 2.921875 C7.17382538 3.22313293 7.77733826 3.52439087 8.3991394 3.83477783 C9.66759762 4.47133652 10.93312634 5.11376315 12.19580078 5.76171875 C14.11930987 6.74708509 16.05260474 7.71067082 17.98828125 8.671875 C28.88056876 14.16715623 28.88056876 14.16715623 32 18 C32.42519574 21.46230815 32.63902633 23.8347167 30.9375 26.9375 C27.91301454 28.5960888 25.40692788 28.22352006 22 28 C18.69848633 26.77832031 18.69848633 26.77832031 15.33203125 25.078125 C14.72993332 24.77686707 14.12783539 24.47560913 13.50749207 24.16522217 C12.24453563 23.52957826 10.98497304 22.88714974 9.72875977 22.23828125 C7.81491177 21.25124384 5.890337 20.2882893 3.96289062 19.328125 C-6.96607157 13.79529625 -6.96607157 13.79529625 -10 10 C-9.93866496 6.5039028 -9.65265114 4.06485186 -7.8125 1.0625 C-5.10405492 -0.52520919 -3.11243418 -0.23505722 0 0 Z " fill="#FDF9F9" transform="translate(111,271)"/>
<path d="M0 0 C2.5 1.5625 2.5 1.5625 4 4 C3.9375 7.625 3.9375 7.625 3 11 C-0.69486103 13.46324069 -2.63293092 13.38991688 -7 13 C-8.9375 11.9375 -8.9375 11.9375 -10 10 C-10.36528977 6.5906288 -10.6140629 4.11976176 -8.9375 1.0625 C-5.8347167 -0.63902633 -3.46230815 -0.42519574 0 0 Z " fill="#FCF6F7" transform="translate(161,130)"/>
</svg>
