<?xml version="1.0" encoding="UTF-8"?>
<svg version="1.1" xmlns="http://www.w3.org/2000/svg" width="500" height="500">
<path d="M0 0 C165 0 330 0 500 0 C500 165 500 330 500 500 C335 500 170 500 0 500 C0 335 0 170 0 0 Z " fill="#A5000C" transform="translate(0,0)"/>
<path d="M0 0 C1.33196663 0.55876328 1.33196663 0.55876328 2.69084167 1.1288147 C5.60620364 2.35533525 8.51174369 3.60356599 11.41796875 4.8515625 C13.47776379 5.7218337 15.5383247 6.59029421 17.59960938 7.45703125 C21.85350262 9.24659758 26.10455691 11.04267706 30.35400391 12.84277344 C38.84570882 16.4308454 47.3813899 19.90963589 55.92028809 23.3835144 C60.42033329 25.21533373 64.91722434 27.05485603 69.4140625 28.89453125 C70.31315338 29.26230179 71.21224426 29.63007233 72.13858032 30.00898743 C82.30472459 34.16920361 92.46426836 38.34541107 102.61938477 42.5324707 C104.62463265 43.35901118 106.63015891 44.18487668 108.63598633 45.01000977 C114.63457578 47.47816617 120.62651131 49.96119319 126.60546875 52.4765625 C127.81702637 52.98622559 129.02858398 53.49588867 130.27685547 54.02099609 C131.27088379 54.4536377 132.26491211 54.8862793 133.2890625 55.33203125 C134.09786865 55.68289795 134.9066748 56.03376465 135.73999023 56.39526367 C137.60546875 57.4765625 137.60546875 57.4765625 139.60546875 60.4765625 C139.85386574 62.49063748 139.85386574 62.49063748 139.85156441 64.84375286 C139.8555465 65.74147527 139.8595286 66.63919769 139.86363137 67.56412381 C139.85780568 68.55146805 139.85198 69.53881229 139.84597778 70.55607605 C139.84854106 72.12800507 139.84854106 72.12800507 139.85115612 73.73169023 C139.85446309 77.26024154 139.84342738 80.78860473 139.83251953 84.31713867 C139.83195568 86.83971655 139.83227147 89.36229475 139.83340454 91.88487244 C139.83386069 97.32457582 139.8281701 102.7642181 139.81692886 108.20390892 C139.80068644 116.06881068 139.79546715 123.93368924 139.79295288 131.79860596 C139.7885738 144.5583774 139.77525892 157.31812329 139.75634766 170.07788086 C139.73799437 182.47403841 139.72383517 194.87018903 139.71533203 207.26635742 C139.71480658 208.03024012 139.71428114 208.79412282 139.71373977 209.58115347 C139.71112972 213.41326377 139.7086023 217.24537411 139.70611596 221.07748449 C139.68537682 252.8771959 139.649997 284.67687523 139.60546875 316.4765625 C140.29253906 316.44175781 140.97960937 316.40695312 141.6875 316.37109375 C142.58855469 316.34402344 143.48960937 316.31695312 144.41796875 316.2890625 C145.31128906 316.25425781 146.20460938 316.21945312 147.125 316.18359375 C149.60546875 316.4765625 149.60546875 316.4765625 151.40625 317.76953125 C153.40505472 320.61473537 152.96443524 323.12620857 152.60546875 326.4765625 C151.4227829 328.17171729 151.4227829 328.17171729 149.60546875 329.4765625 C147.14600372 329.85260999 147.14600372 329.85260999 144.15344238 329.85408592 C143.01373238 329.86190916 141.87402237 329.86973241 140.6997757 329.87779272 C139.44211143 329.87110055 138.18444717 329.86440839 136.88867188 329.85751343 C135.543532 329.86096827 134.19839495 329.86573166 132.85326385 329.87169516 C129.14884409 329.88425889 125.44465515 329.87801056 121.74023438 329.86873651 C117.7483562 329.86196823 113.75651863 329.87241617 109.76464844 329.88067627 C101.94139297 329.89403962 94.11822368 329.89112431 86.29496479 329.88243835 C79.9387421 329.87567242 73.58254362 329.87474034 67.22631836 329.8780098 C65.87107567 329.87869934 65.87107567 329.87869934 64.48845434 329.87940282 C62.65321413 329.88036197 60.81797392 329.88133461 58.98273373 329.8823206 C41.76009706 329.89088211 24.53750824 329.88102843 7.31487942 329.8649195 C-7.47369811 329.85151563 -22.262205 329.8538435 -37.05078125 329.86767578 C-54.21037714 329.88371816 -71.36993105 329.89005807 -88.52953339 329.88083899 C-90.3581492 329.87988331 -92.18676503 329.8789402 -94.01538086 329.8780098 C-94.91517371 329.87754697 -95.81496655 329.87708414 -96.74202585 329.87660729 C-103.09308279 329.87401337 -109.44411319 329.87839704 -115.79516602 329.88544846 C-123.53145085 329.89384877 -131.26764433 329.89161436 -139.00391865 329.87560622 C-142.95363203 329.86770363 -146.90319291 329.86466554 -150.85290527 329.87455368 C-154.46507521 329.88346024 -158.07695057 329.8786351 -161.68909359 329.86262102 C-163.62234203 329.8576557 -165.55561075 329.86750581 -167.4888382 329.87779272 C-168.6285482 329.86996947 -169.76825821 329.86214623 -170.94250488 329.85408592 C-171.93005013 329.85359887 -172.91759537 329.85311181 -173.93506622 329.85260999 C-176.39453125 329.4765625 -176.39453125 329.4765625 -178.2118454 328.17171729 C-180.19342449 325.33150129 -179.75197577 322.81271135 -179.39453125 319.4765625 C-178.1953125 317.76953125 -178.1953125 317.76953125 -176.39453125 316.4765625 C-173.9140625 316.18359375 -173.9140625 316.18359375 -171.20703125 316.2890625 C-170.30597656 316.31613281 -169.40492188 316.34320313 -168.4765625 316.37109375 C-167.44595703 316.42330078 -167.44595703 316.42330078 -166.39453125 316.4765625 C-166.40119308 315.43086594 -166.40785492 314.38516937 -166.41471863 313.30778503 C-166.47547573 303.463652 -166.52047788 293.61955689 -166.54996777 283.77527905 C-166.56563838 278.71395759 -166.58690212 273.65278722 -166.62084961 268.59155273 C-166.65339328 263.70918094 -166.67137374 258.82695467 -166.67916298 253.9444828 C-166.68471547 252.07970195 -166.69555787 250.21492926 -166.71172142 248.35021019 C-166.73342947 245.74265568 -166.73650098 243.13570618 -166.73510742 240.52807617 C-166.74589325 239.75339996 -166.75667908 238.97872375 -166.76779175 238.18057251 C-166.73764284 232.9833651 -166.73764284 232.9833651 -165.05683899 230.50068665 C-162.38585297 228.85513016 -160.45114802 229.03990296 -157.39453125 229.4765625 C-155.23150635 230.99932861 -155.23150635 230.99932861 -153.39453125 233.4765625 C-153.02041598 236.30139151 -152.88718955 238.72981091 -152.94042969 241.54980469 C-152.93984558 242.35993515 -152.93926147 243.17006561 -152.93865967 244.00474548 C-152.94144273 246.67808121 -152.97254435 249.35029697 -153.00390625 252.0234375 C-153.01136787 253.87859488 -153.01706118 255.73376014 -153.02105713 257.58892822 C-153.0363197 262.46846327 -153.07560689 267.34752103 -153.11987305 272.22686768 C-153.16081231 277.20716902 -153.17906527 282.18754759 -153.19921875 287.16796875 C-153.24210067 296.9377433 -153.31245563 306.70703851 -153.39453125 316.4765625 C-144.48453125 316.4765625 -135.57453125 316.4765625 -126.39453125 316.4765625 C-126.39453125 250.1465625 -126.39453125 183.8165625 -126.39453125 115.4765625 C-130.02453125 115.4765625 -133.65453125 115.4765625 -137.39453125 115.4765625 C-140.39453125 111.4765625 -140.39453125 111.4765625 -140.83203125 108.9765625 C-140.21927166 105.47507913 -139.28083592 104.57379234 -136.39453125 102.4765625 C-133.1602455 101.87462744 -129.95881535 101.9459819 -126.67724609 101.98208618 C-125.68026388 101.97725735 -124.68328167 101.97242852 -123.65608788 101.96745336 C-120.30561731 101.9561555 -116.9559054 101.97352247 -113.60546875 101.99072266 C-111.20745639 101.98857747 -108.80944504 101.98470078 -106.41143799 101.97921753 C-100.56848713 101.97051633 -94.72574185 101.98041712 -88.88283014 101.99891813 C-82.08015454 102.01968403 -75.27752792 102.0195458 -68.47482657 102.01857297 C-56.33798762 102.01757161 -44.20125405 102.03589788 -32.06445312 102.06494141 C-20.28448568 102.09311648 -8.50461098 102.10728295 3.27539062 102.10595703 C4.00090504 102.10587712 4.72641945 102.10579721 5.47391915 102.10571487 C6.56029943 102.10559381 6.56029943 102.10559381 7.66862679 102.1054703 C21.07503173 102.10409078 34.48139721 102.1158698 47.88778937 102.13377673 C52.63086232 102.13981112 57.37392803 102.14193606 62.11700439 102.14284134 C68.49945927 102.14434765 74.88183574 102.15703087 81.26425934 102.17717361 C83.61045991 102.18302668 85.95667174 102.18547373 88.30287933 102.18431854 C91.49808555 102.18334048 94.69301574 102.19461547 97.88818359 102.20913696 C98.82319513 102.20603976 99.75820667 102.20294255 100.7215519 102.1997515 C102.00472077 102.20942483 102.00472077 102.20942483 103.31381226 102.21929359 C104.42010262 102.22140687 104.42010262 102.22140687 105.54874229 102.22356284 C107.95292064 102.51930285 109.55041905 103.20647201 111.60546875 104.4765625 C113.00481888 107.27526277 112.8581228 109.38155042 112.60546875 112.4765625 C111.61546875 113.4665625 110.62546875 114.4565625 109.60546875 115.4765625 C106.30546875 115.4765625 103.00546875 115.4765625 99.60546875 115.4765625 C99.60546875 181.8065625 99.60546875 248.1365625 99.60546875 316.4765625 C108.51546875 316.4765625 117.42546875 316.4765625 126.60546875 316.4765625 C126.27546875 234.3065625 125.94546875 152.1365625 125.60546875 67.4765625 C96.57564666 55.56683019 96.57564666 55.56683019 67.54296875 43.6640625 C53.71765644 37.9939966 39.89910869 32.30757719 26.08621216 26.60733032 C24.08721283 25.7824607 22.08809143 24.95788682 20.08883667 24.13363647 C18.19228232 23.35160296 16.29604872 22.56879103 14.40016174 21.78514099 C12.59839145 21.04174608 10.79522806 20.30171731 8.99058533 19.56532288 C5.098309 17.96902083 1.25397005 16.33996161 -2.52294922 14.48535156 C-3.45988869 14.03834396 -3.45988869 14.03834396 -4.41575623 13.58230591 C-6.02401197 12.80576973 -7.61635805 11.99650457 -9.20678711 11.18408203 C-13.88792612 10.14510364 -17.06119211 11.68087437 -21.39453125 13.4765625 C-22.12725754 13.76229126 -22.85998383 14.04802002 -23.61491394 14.34240723 C-25.92962387 15.25220783 -28.22888362 16.1944621 -30.52734375 17.14453125 C-31.38450989 17.49602234 -32.24167603 17.84751343 -33.12481689 18.20965576 C-35.92420751 19.35834112 -38.7218705 20.51117119 -41.51953125 21.6640625 C-43.49809741 22.47691711 -45.47677757 23.28949426 -47.45556641 24.10180664 C-51.49637735 25.7610552 -55.53653568 27.42187788 -59.57617188 29.08398438 C-64.83133077 31.24578824 -70.08891406 33.4016174 -75.34765625 35.5546875 C-77.70984341 36.52220692 -80.07199858 37.48980438 -82.43414307 38.45742798 C-83.98989308 39.09470284 -85.54567917 39.73188966 -87.10150146 40.36898804 C-95.9823395 44.00674751 -104.85494199 47.66342328 -113.71463013 51.35243225 C-117.97981848 53.12832982 -122.2464459 54.90075816 -126.51300049 56.67337036 C-128.59027879 57.53783345 -130.66674567 58.40424912 -132.74237061 59.27267456 C-135.62971985 60.48070681 -138.51964533 61.68236924 -141.41015625 62.8828125 C-142.27696014 63.24758194 -143.14376404 63.61235138 -144.03683472 63.98817444 C-144.83324371 64.31756516 -145.62965271 64.64695587 -146.45019531 64.98632812 C-147.48953217 65.42023865 -147.48953217 65.42023865 -148.54986572 65.86291504 C-150.39453125 66.4765625 -150.39453125 66.4765625 -153.39453125 66.4765625 C-153.39084408 67.08009395 -153.38715691 67.68362539 -153.383358 68.30544567 C-153.29499797 82.99469135 -153.22881729 97.68392131 -153.18728256 112.37337017 C-153.16666243 119.47711929 -153.13855263 126.58069096 -153.09277344 133.68432617 C-153.04862748 140.53780108 -153.02540329 147.39109136 -153.01502228 154.24469948 C-153.00762289 156.86142697 -152.99317393 159.47814421 -152.97161102 162.09479332 C-152.94263831 165.75572015 -152.93857285 169.41588154 -152.94042969 173.0769043 C-152.91885803 174.70502045 -152.91885803 174.70502045 -152.89685059 176.36602783 C-152.93710752 183.68537994 -152.93710752 183.68537994 -155.23150635 187.65388489 C-157.39453125 189.4765625 -157.39453125 189.4765625 -160.45703125 190.0390625 C-163.39453125 189.4765625 -163.39453125 189.4765625 -165.05347443 187.76875305 C-166.65481633 185.03167233 -166.77614763 183.39640863 -166.78894043 180.23901367 C-166.80596512 178.64916153 -166.80596512 178.64916153 -166.82333374 177.02719116 C-166.82040314 175.86966339 -166.81747253 174.71213562 -166.81445312 173.51953125 C-166.82292267 172.29642242 -166.83139221 171.0733136 -166.84011841 169.81314087 C-166.85950884 166.46179694 -166.86526562 163.11100979 -166.8633709 159.75964737 C-166.86325119 156.96132188 -166.87181518 154.1630485 -166.88014841 151.36473751 C-166.89937903 144.76363078 -166.90226719 138.16265051 -166.89550781 131.56152344 C-166.88886313 124.75167227 -166.91174866 117.94236221 -166.94882154 111.13262081 C-166.97950389 105.28451126 -166.99088033 99.43657594 -166.98698473 93.58838749 C-166.98491608 90.0960618 -166.99041363 86.60415742 -167.01487732 83.11190796 C-167.04124815 79.21892006 -167.02742765 75.32664319 -167.00976562 71.43359375 C-167.02302887 70.27606598 -167.03629211 69.11853821 -167.04995728 67.92593384 C-166.96753131 60.13175547 -166.96753131 60.13175547 -164.08810425 56.83929443 C-163.19922516 56.3895929 -162.31034607 55.93989136 -161.39453125 55.4765625 C-160.45633041 54.97228729 -160.45633041 54.97228729 -159.49917603 54.45782471 C-158.89955048 54.21296326 -158.29992493 53.96810181 -157.68212891 53.71582031 C-156.98597473 53.42677322 -156.28982056 53.13772614 -155.5725708 52.83992004 C-154.82545837 52.5395433 -154.07834595 52.23916656 -153.30859375 51.9296875 C-152.51217468 51.60171677 -151.71575562 51.27374603 -150.89520264 50.93583679 C-148.27311715 49.85823562 -145.64641102 48.792417 -143.01953125 47.7265625 C-141.16977165 46.96894405 -139.32032966 46.21054974 -137.47119141 45.45141602 C-133.65384112 43.88579714 -129.83461235 42.32490248 -126.01367188 40.76806641 C-120.79815161 38.64265814 -115.58758192 36.5054001 -110.37890625 34.36328125 C-101.54432331 30.73121985 -92.70580789 27.10881834 -83.86627197 23.48883057 C-77.91203389 21.05035269 -71.95807904 18.6111864 -66.00488281 16.17016602 C-62.68106081 14.80739899 -59.35610761 13.44744798 -56.03027344 12.08959961 C-48.96938613 9.20318129 -41.92414211 6.29438671 -34.9296875 3.25 C-33.82874756 2.77481934 -32.72780762 2.29963867 -31.59350586 1.81005859 C-29.63371663 0.95989826 -27.67939606 0.09693768 -25.73266602 -0.78271484 C-24.45540649 -1.33499756 -24.45540649 -1.33499756 -23.15234375 -1.8984375 C-22.44223145 -2.21554688 -21.73211914 -2.53265625 -21.00048828 -2.859375 C-13.27343827 -4.82841903 -7.13026836 -3.11676385 0 0 Z " fill="#FEFDFD" transform="translate(263.39453125,87.5234375)"/>
<path d="M0 0 C66 0 132 0 200 0 C200 48.51 200 97.02 200 147 C195.38 147 190.76 147 186 147 C185.67 103.44 185.34 59.88 185 15 C180.86052647 13.96513162 177.10804759 13.84503066 172.88256836 13.83886719 C172.0675032 13.83390228 171.25243805 13.82893738 170.41267395 13.82382202 C167.72172193 13.80923906 165.03082876 13.80240665 162.33984375 13.796875 C160.4694468 13.79112259 158.59904987 13.78536487 156.72865295 13.77960205 C152.81055425 13.76910463 148.89247601 13.76325299 144.97436523 13.75976562 C139.94808071 13.75426808 134.92206532 13.730208 129.89586544 13.70179367 C126.03462422 13.68319904 122.17344844 13.6779635 118.31216621 13.67642975 C116.45855797 13.67339806 114.60495102 13.66535222 112.75138664 13.65224457 C110.16339234 13.63524208 107.57606417 13.63704933 104.98803711 13.64355469 C104.21964508 13.6343399 103.45125305 13.62512512 102.65957642 13.6156311 C99.78659281 13.638322 97.54961454 13.68243614 95.027771 15.13954163 C93.53257193 17.84613252 93.5984151 20.03880649 93.56762695 23.1237793 C93.54783279 24.38486008 93.52803864 25.64594086 93.50764465 26.94523621 C93.50087488 28.32156221 93.49442802 29.69788983 93.48828125 31.07421875 C93.47143621 32.48242261 93.4532862 33.89061141 93.43388367 35.29878235 C93.38635785 39.00260718 93.35656556 42.706371 93.33044434 46.41040039 C93.30065158 50.19104058 93.25411693 53.97147045 93.20898438 57.75195312 C93.12292206 65.16786445 93.05559019 72.58379102 93 80 C92.05452805 80.00586624 91.10905609 80.01173248 90.13493347 80.01777649 C81.23243304 80.0749456 72.33017824 80.14767645 63.42792797 80.23571491 C58.85097698 80.28047639 54.2741162 80.3197196 49.69702148 80.34643555 C45.28131581 80.37241113 40.86595619 80.41277227 36.45046425 80.46318626 C34.76437999 80.479894 33.07823583 80.4913839 31.39208031 80.49761391 C29.03339582 80.50721285 26.6756045 80.53521984 24.31713867 80.56762695 C23.61726837 80.56619186 22.91739807 80.56475677 22.19631958 80.5632782 C19.47503359 80.61629234 17.43768235 80.74054042 15.06970215 82.14428711 C13.51353724 84.84391268 13.59863566 87.01670708 13.56762695 90.1237793 C13.54783279 91.38486008 13.52803864 92.64594086 13.50764465 93.94523621 C13.50087488 95.32156221 13.49442802 96.69788983 13.48828125 98.07421875 C13.47143621 99.48242261 13.4532862 100.89061141 13.43388367 102.29878235 C13.38635785 106.00260718 13.35656556 109.706371 13.33044434 113.41040039 C13.30065158 117.19104058 13.25411693 120.97147045 13.20898438 124.75195312 C13.12292185 132.16788253 13.05713769 139.58378099 13 147 C8.71 147 4.42 147 0 147 C0 98.49 0 49.98 0 0 Z " fill="#A5020E" transform="translate(150,257)"/>
<path d="M0 0 C66 0 132 0 200 0 C200 4.62 200 9.24 200 14 C134 14 68 14 0 14 C0 9.38 0 4.76 0 0 Z " fill="#A80915" transform="translate(150,230)"/>
<path d="M0 0 C66 0 132 0 200 0 C200 4.62 200 9.24 200 14 C134 14 68 14 0 14 C0 9.38 0 4.76 0 0 Z " fill="#A80915" transform="translate(150,203)"/>
<path d="M0 0 C4.62 0 9.24 0 14 0 C14.04898437 1.62550781 14.09796875 3.25101562 14.1484375 4.92578125 C14.22346565 7.05470492 14.29901346 9.18361032 14.375 11.3125 C14.4059375 12.38435547 14.436875 13.45621094 14.46875 14.56054688 C14.50742187 15.58857422 14.54609375 16.61660156 14.5859375 17.67578125 C14.6173584 18.62364502 14.6487793 19.57150879 14.68115234 20.5480957 C14.8489051 23.2530269 14.8489051 23.2530269 17 26 C19.51829181 26.31710971 21.78689511 26.44413753 24.30859375 26.43359375 C25.03111832 26.4388356 25.75364288 26.44407745 26.49806213 26.44947815 C28.0270967 26.45590487 29.55618067 26.45455288 31.08520508 26.44604492 C33.42553846 26.43754345 35.76342423 26.46626755 38.10351562 26.49804688 C39.58854093 26.49965919 41.07357057 26.49908077 42.55859375 26.49609375 C43.2586705 26.50732773 43.95874725 26.51856171 44.68003845 26.53013611 C47.79867088 26.48540276 49.55974582 26.3916027 51.93310547 24.28051758 C53.1408378 21.69895517 53.42501438 19.85952846 53.51171875 17.015625 C53.54716797 16.08105469 53.58261719 15.14648438 53.61914062 14.18359375 C53.64169922 13.21550781 53.66425781 12.24742187 53.6875 11.25 C53.72166016 10.26644531 53.75582031 9.28289062 53.79101562 8.26953125 C53.87334309 5.84675142 53.93835225 3.4233942 54 1 C58.29 1 62.58 1 67 1 C67 18.49 67 35.98 67 54 C44.89 54 22.78 54 0 54 C0 36.18 0 18.36 0 0 Z " fill="#A70611" transform="translate(256,350)"/>
<path d="M0 0 C1.79244141 0.01740234 1.79244141 0.01740234 3.62109375 0.03515625 C5.41740234 0.04869141 5.41740234 0.04869141 7.25 0.0625 C8.17683594 0.07410156 9.10367188 0.08570313 10.05859375 0.09765625 C10.07841309 0.77868408 10.09823242 1.45971191 10.11865234 2.16137695 C10.21386358 5.24469542 10.32355841 8.32733274 10.43359375 11.41015625 C10.46453125 12.48201172 10.49546875 13.55386719 10.52734375 14.65820312 C10.56601563 15.68623047 10.6046875 16.71425781 10.64453125 17.7734375 C10.67595215 18.72130127 10.70737305 19.66916504 10.73974609 20.64575195 C10.90749885 23.35068315 10.90749885 23.35068315 13.05859375 26.09765625 C15.7539969 26.36451838 18.21706839 26.44583698 20.91015625 26.390625 C22.07120377 26.38425774 22.07120377 26.38425774 23.25570679 26.37776184 C25.73202052 26.36094623 28.20752533 26.3232902 30.68359375 26.28515625 C32.36066534 26.27011307 34.03774967 26.25642403 35.71484375 26.24414062 C39.82973956 26.21103346 43.94402944 26.15923262 48.05859375 26.09765625 C49.03176185 23.17815195 49.25154835 21.04320674 49.375 17.9921875 C49.4378418 16.51782227 49.4378418 16.51782227 49.50195312 15.01367188 C49.54126953 13.98951172 49.58058594 12.96535156 49.62109375 11.91015625 C49.68586914 10.35651367 49.68586914 10.35651367 49.75195312 8.77148438 C49.85803638 6.21369923 49.95881961 3.65569527 50.05859375 1.09765625 C54.34859375 1.09765625 58.63859375 1.09765625 63.05859375 1.09765625 C63.05859375 18.58765625 63.05859375 36.07765625 63.05859375 54.09765625 C40.94859375 54.09765625 18.83859375 54.09765625 -3.94140625 54.09765625 C-3.96203125 45.37328125 -3.98265625 36.64890625 -4.00390625 27.66015625 C-4.01301025 24.9022876 -4.02211426 22.14441895 -4.03149414 19.30297852 C-4.03441309 17.13167367 -4.0369617 14.96036829 -4.0390625 12.7890625 C-4.04417847 11.64981323 -4.04929443 10.51056396 -4.05456543 9.33679199 C-4.05468628 8.26086792 -4.05480713 7.18494385 -4.05493164 6.07641602 C-4.05715225 5.13709732 -4.05937286 4.19777863 -4.06166077 3.22999573 C-3.87276811 -0.11942741 -3.41358124 0.11333271 0 0 Z " fill="#A70612" transform="translate(179.94140625,349.90234375)"/>
<path d="M0 0 C4.62 0 9.24 0 14 0 C14.04898437 1.63710938 14.09796875 3.27421875 14.1484375 4.9609375 C14.22345639 7.098976 14.2990046 9.23699598 14.375 11.375 C14.4059375 12.45523437 14.436875 13.53546875 14.46875 14.6484375 C14.50742187 15.6796875 14.54609375 16.7109375 14.5859375 17.7734375 C14.6173584 18.72653809 14.6487793 19.67963867 14.68115234 20.66162109 C14.78555796 23.18895176 14.78555796 23.18895176 17 25 C19.47388875 25.2117572 21.83311124 25.30399471 24.30859375 25.30078125 C25.03111832 25.30506638 25.75364288 25.3093515 26.49806213 25.31376648 C28.02709912 25.31951237 29.55616344 25.32000812 31.08520508 25.31567383 C33.42511674 25.31251671 35.76376067 25.33595758 38.10351562 25.36132812 C39.58854007 25.36360139 41.07356792 25.36430449 42.55859375 25.36328125 C43.60870888 25.37709587 43.60870888 25.37709587 44.68003845 25.39118958 C47.47682226 25.36455272 49.52626133 25.29496484 51.93310547 23.79638672 C53.34892189 21.41250177 53.43174048 19.66177937 53.51171875 16.89453125 C53.54716797 15.91162109 53.58261719 14.92871094 53.61914062 13.91601562 C53.64169922 12.89185547 53.66425781 11.86769531 53.6875 10.8125 C53.72166016 9.77673828 53.75582031 8.74097656 53.79101562 7.67382812 C53.87351759 5.11626736 53.93843456 2.55815037 54 0 C58.29 0 62.58 0 67 0 C67 17.49 67 34.98 67 53 C44.89 53 22.78 53 0 53 C0 35.51 0 18.02 0 0 Z " fill="#A60410" transform="translate(256,284)"/>
<path d="M0 0 C4.3997323 3.14013152 7.49174804 6.83789983 9.625 11.8125 C10.83390692 19.08918973 9.5596997 24.60662515 5.48046875 30.7109375 C1.4113285 35.31977425 -4.42052204 37.45072719 -10.4375 38.1875 C-16.49755142 37.61035225 -22.05088704 35.53367099 -26.08984375 30.8046875 C-29.98214708 24.68982255 -31.41497356 18.91695739 -29.94921875 11.72265625 C-28.21945498 6.19377942 -25.1812003 2.96138985 -20.375 -0.1875 C-13.92347249 -3.34158012 -6.24789817 -3.70677541 0 0 Z " fill="#FDF9FA" transform="translate(313.375,139.1875)"/>
<path d="M0 0 C6.2913916 3.45409735 9.91854063 6.89458801 12.1875 13.75 C13.15383885 19.34305211 12.30445938 23.9643228 9.51953125 28.89453125 C5.87602839 33.96979184 1.36366679 37.46329859 -4.8125 38.75 C-11.47554894 39.35573172 -16.08052811 37.6127081 -21.5625 33.875 C-26.40931627 29.2974513 -27.91825158 24.50338503 -28.1875 18 C-28.11282655 11.66209115 -25.65171648 7.60341256 -21.25 3.1796875 C-15.28903919 -2.03615321 -7.37512853 -2.98246956 0 0 Z " fill="#FDF9FA" transform="translate(257.8125,138.25)"/>
<path d="M0 0 C5.14824595 2.92743397 8.51024951 6.55576378 11.1875 11.8125 C12.10937442 17.81236603 12.22316406 23.94439396 9.125 29.3125 C5.55914556 34.1041169 1.11169486 37.66662092 -4.8125 38.8125 C-11.1717434 39.34243695 -15.52434466 38.49269376 -20.8125 34.8125 C-24.99116975 30.95119757 -27.44304164 26.63205062 -28.18359375 20.98046875 C-28.31657668 15.01188192 -28.12282597 10.39946247 -24.484375 5.50390625 C-17.43049328 -1.63238063 -9.3834648 -2.92271855 0 0 Z " fill="#FDFAFA" transform="translate(204.8125,138.1875)"/>
<path d="M0 0 C4.62 0 9.24 0 14 0 C14 4.62 14 9.24 14 14 C9.38 14 4.76 14 0 14 C0 9.38 0 4.76 0 0 Z " fill="#AD1924" transform="translate(203,350)"/>
<path d="M0 0 C4.62 0 9.24 0 14 0 C14 4.29 14 8.58 14 13 C9.38 13 4.76 13 0 13 C0 8.71 0 4.42 0 0 Z " fill="#AB101C" transform="translate(283,351)"/>
<path d="M0 0 C4.29 0 8.58 0 13 0 C13 4.29 13 8.58 13 13 C8.71 13 4.42 13 0 13 C0 8.71 0 4.42 0 0 Z " fill="#A5020E" transform="translate(283,284)"/>
<path d="M0 0 C2.5 0.5 2.5 0.5 4.875 2.0625 C6.5 4.5 6.5 4.5 6.4375 8.0625 C5.11478599 12.91245136 5.11478599 12.91245136 2.5 14.5 C0.0625 14.9375 0.0625 14.9375 -2.5 14.5 C-4.8125 12.875 -4.8125 12.875 -6.5 10.5 C-7.11793165 6.79241009 -7.00197249 5.2064798 -4.8125 2.125 C-2.5 0.5 -2.5 0.5 0 0 Z " fill="#FAF1F1" transform="translate(103.5,289.5)"/>
<path d="M0 0 C1.9375 1.6875 1.9375 1.6875 3 4 C2.875 7.125 2.875 7.125 2 10 C-1.46923881 12.31282587 -2.92205575 12.42478586 -7 12 C-8.875 10.9375 -8.875 10.9375 -10 9 C-10.4375 5.5 -10.4375 5.5 -10 2 C-7.0239502 -1.66283052 -4.29996319 -1.37232868 0 0 Z " fill="#A90B17" transform="translate(307,151)"/>
<path d="M0 0 C3.37013879 0.67402776 4.51677007 1.7087875 6.5 4.5 C6.95319325 7.67235276 7.02990283 9.56487736 5.4375 12.375 C2.35928089 14.16235303 -0.02906068 13.93386742 -3.5 13.5 C-5.88460953 11.42308202 -6.3959746 10.09443084 -6.9375 7 C-6.20847934 2.83416768 -4.12966477 0.82593295 0 0 Z " fill="#A90B16" transform="translate(249.5,149.5)"/>
<path d="M0 0 C3.37013879 0.67402776 4.51677007 1.7087875 6.5 4.5 C6.95319325 7.67235276 7.02990283 9.56487736 5.4375 12.375 C2.35928089 14.16235303 -0.02906068 13.93386742 -3.5 13.5 C-5.88460953 11.42308202 -6.3959746 10.09443084 -6.9375 7 C-6.20847934 2.83416768 -4.12966477 0.82593295 0 0 Z " fill="#A80814" transform="translate(196.5,149.5)"/>
</svg>
