<?xml version="1.0" encoding="UTF-8"?>
<svg version="1.1" xmlns="http://www.w3.org/2000/svg" width="500" height="500">
<path d="M0 0 C165 0 330 0 500 0 C500 165 500 330 500 500 C335 500 170 500 0 500 C0 335 0 170 0 0 Z " fill="#A5000C" transform="translate(0,0)"/>
<path d="M0 0 C4.6142987 1.78104744 6.68814135 4.22516763 9.69921875 8.04296875 C10.83583376 9.4193565 11.97255491 10.79565662 13.109375 12.171875 C13.96039795 13.22205811 13.96039795 13.22205811 14.82861328 14.29345703 C16.89104148 16.82018586 19.01245411 19.29101394 21.14672852 21.75708008 C22.62946255 23.47207591 24.09859569 25.19800759 25.56640625 26.92578125 C27.57893114 29.28654989 29.62894999 31.60693898 31.70703125 33.91015625 C32.21991699 34.48878418 32.73280273 35.06741211 33.26123047 35.66357422 C34.23283014 36.75911372 35.21563714 37.84485668 36.21142578 38.91845703 C38.46023122 41.48101046 39.47942956 43.14298508 39.99609375 46.54296875 C39.51171875 49.35546875 39.51171875 49.35546875 38.43066406 51.01953125 C35.47311972 53.07852395 32.86736747 52.6404866 29.32421875 52.54296875 C28.05191406 52.51589844 26.77960938 52.48882812 25.46875 52.4609375 C24.00501953 52.40873047 24.00501953 52.40873047 22.51171875 52.35546875 C22.47714155 59.04555072 22.49721933 65.73390634 22.55444336 72.42382812 C22.5675442 74.69722797 22.56835316 76.97073447 22.55639648 79.24414062 C22.54132802 82.52189087 22.571157 85.79670823 22.609375 89.07421875 C22.58799217 90.58719543 22.58799217 90.58719543 22.56617737 92.1307373 C22.72141777 99.77958565 25.11931938 103.14327551 30.51171875 108.35546875 C47.6341489 132.60205287 54.63358321 161.14490576 51.08203125 190.64453125 C45.96404459 219.64645563 29.22899922 246.71309435 5.14819336 263.6875 C-17.94103093 279.34328445 -46.54915284 287.33260438 -74.36328125 282.60546875 C-76.07587678 282.20668255 -77.78399277 281.7883829 -79.48828125 281.35546875 C-80.69097656 281.11054688 -81.89367187 280.865625 -83.1328125 280.61328125 C-95.2015226 278.05374472 -105.93586834 273.17080894 -116.17578125 266.29296875 C-119.20249417 264.10695962 -119.20249417 264.10695962 -121.93237305 264.51782227 C-126.70284759 266.08124744 -129.78926829 269.83443755 -133.30078125 273.29296875 C-134.48317383 274.37674805 -134.48317383 274.37674805 -135.68945312 275.48242188 C-139.97039659 279.56573684 -139.97039659 279.56573684 -141.89208984 284.97705078 C-141.86029779 287.57630147 -141.86029779 287.57630147 -141.4831543 289.99829102 C-141.49436632 295.15315294 -145.62373485 298.74297998 -149.06396484 302.18994141 C-149.98857513 303.12085602 -150.91318542 304.05177063 -151.86581421 305.01089478 C-152.87252823 306.01402873 -153.8795028 307.01690126 -154.88671875 308.01953125 C-155.92449682 309.05865794 -156.96197796 310.09808125 -157.99917603 311.13778687 C-160.16971744 313.31127029 -162.34381797 315.48111213 -164.52050781 317.6484375 C-167.30357429 320.42011006 -170.07756495 323.20066513 -172.84894371 325.98401833 C-174.98835755 328.13067569 -177.13253257 330.27252641 -179.27815628 332.41297531 C-180.30263508 333.43612451 -181.3256429 334.46074888 -182.34711838 335.48689651 C-183.77782807 336.92271225 -185.21568225 338.35139807 -186.65380859 339.77978516 C-187.87600601 340.99959579 -187.87600601 340.99959579 -189.12289429 342.24404907 C-195.77826253 348.18484257 -202.61300784 349.90449833 -211.390625 349.73046875 C-218.80372788 348.83304394 -225.03105128 344.81530321 -230.015625 339.359375 C-235.08974628 332.45480148 -236.68725649 324.78537712 -235.48828125 316.35546875 C-232.43908097 305.20513875 -222.6207748 297.33683971 -214.72265625 289.45703125 C-213.3498349 288.08277481 -213.3498349 288.08277481 -211.94927979 286.68075562 C-210.02802458 284.75803845 -208.10500356 282.83711058 -206.18066406 280.91748047 C-203.71708626 278.45963954 -201.25808039 275.99728076 -198.80035019 273.53359413 C-196.44354435 271.17230999 -194.08294085 268.81483815 -191.72265625 266.45703125 C-190.84140076 265.57375153 -189.96014526 264.6904718 -189.05218506 263.78042603 C-188.23413391 262.96552704 -187.41608276 262.15062805 -186.57324219 261.31103516 C-185.85489197 260.59348053 -185.13654175 259.8759259 -184.39642334 259.1366272 C-182.48828125 257.35546875 -182.48828125 257.35546875 -179.48828125 255.35546875 C-177.62666689 255.43672339 -175.76761492 255.58615328 -173.9140625 255.77734375 C-168.70317478 255.86216302 -166.24876442 255.01836064 -162.34375 251.55859375 C-160.75605705 249.93801569 -159.20014782 248.28575109 -157.67578125 246.60546875 C-156.86302734 245.78046875 -156.05027344 244.95546875 -155.21289062 244.10546875 C-152.12236077 240.91029698 -152.12236077 240.91029698 -149.48828125 237.35546875 C-149.82750486 233.72368217 -151.74938615 231.15027867 -153.67578125 228.10546875 C-157.96692314 220.84218349 -160.9543849 213.39217741 -163.48828125 205.35546875 C-163.80804932 204.34734131 -163.80804932 204.34734131 -164.13427734 203.31884766 C-172.1344618 176.84401043 -168.51356889 146.41944683 -155.6171875 122.17578125 C-149.83162692 111.6532438 -142.86900152 102.86658212 -134.48828125 94.35546875 C-133.73160156 93.57429688 -132.97492188 92.793125 -132.1953125 91.98828125 C-109.3583595 69.89814771 -80.36472178 63.81210423 -49.6796875 64.05859375 C-41.47328153 64.26827379 -34.22853193 65.64093013 -26.48828125 68.35546875 C-25.49828125 68.68546875 -24.50828125 69.01546875 -23.48828125 69.35546875 C-23.48828125 63.74546875 -23.48828125 58.13546875 -23.48828125 52.35546875 C-26.86046875 52.44828125 -26.86046875 52.44828125 -30.30078125 52.54296875 C-36.85732027 52.72342395 -36.85732027 52.72342395 -39.4375 51.21875 C-41.02308866 48.40712995 -40.93158696 46.53049616 -40.48828125 43.35546875 C-38.8359375 40.96875 -38.8359375 40.96875 -36.55078125 38.66796875 C-33.29246968 35.26270379 -30.18766498 31.8451225 -27.23828125 28.16796875 C-21.99934435 21.69525761 -16.56315233 15.38869011 -11.02978516 9.16601562 C-9.44801751 7.35574689 -9.44801751 7.35574689 -8.00537109 5.31054688 C-4.36577165 0.44488826 -4.36577165 0.44488826 0 0 Z " fill="#FDF9FA" transform="translate(311.48828125,84.64453125)"/>
<path d="M0 0 C0 6.27 0 12.54 0 19 C-1.340625 18.5875 -2.68125 18.175 -4.0625 17.75 C-4.98417969 17.48058594 -5.90585937 17.21117187 -6.85546875 16.93359375 C-9.01416017 16.29269033 -11.16249881 15.61616903 -13.30078125 14.91015625 C-31.22879344 9.40439513 -49.99984668 10.73723005 -67.15234375 18.41015625 C-70.81189608 20.37690531 -70.81189608 20.37690531 -74 23 C-74.2500773 25.45809998 -74.2500773 25.45809998 -74 28 C-73.34 28.66 -72.68 29.32 -72 30 C-66.4621063 29.72310532 -62.91862219 28.6162884 -58 26 C-40.78890194 20.26296731 -21.3766071 21.32760265 -5 29 C-4.10466553 29.37987061 -3.20933105 29.75974121 -2.28686523 30.15112305 C0 32 0 32 0.48828125 35.35546875 C0.43027344 36.62003906 0.37226563 37.88460937 0.3125 39.1875 C0.26738281 40.45980469 0.22226562 41.73210937 0.17578125 43.04296875 C0.08876953 44.50669922 0.08876953 44.50669922 0 46 C-1.04454346 46.01458252 -2.08908691 46.02916504 -3.1652832 46.04418945 C-7.04014345 46.10215551 -10.91442151 46.17938774 -14.78881836 46.26245117 C-16.46580559 46.29570863 -18.14290497 46.32373808 -19.82006836 46.34643555 C-22.23079225 46.37996737 -24.64048762 46.43227978 -27.05078125 46.48828125 C-27.80087967 46.49467117 -28.55097809 46.5010611 -29.32380676 46.50764465 C-32.24856271 46.59029006 -34.46088304 46.6559512 -36.96484375 48.25390625 C-38.25592658 50.43169503 -38.42691795 51.9221548 -38.51171875 54.44921875 C-38.56489258 55.72055664 -38.56489258 55.72055664 -38.61914062 57.01757812 C-38.64169922 57.89865234 -38.66425781 58.77972656 -38.6875 59.6875 C-38.72166016 60.58017578 -38.75582031 61.47285156 -38.79101562 62.39257812 C-38.87345648 64.59492671 -38.94261551 66.79687938 -39 69 C-40.57467041 69.029729 -40.57467041 69.029729 -42.18115234 69.06005859 C-46.06893261 69.13602198 -49.95633403 69.22475298 -53.84375 69.31738281 C-55.52759329 69.35571104 -57.21151955 69.39055712 -58.89550781 69.421875 C-61.31345306 69.46744287 -63.73082528 69.52544923 -66.1484375 69.5859375 C-66.9036972 69.59748871 -67.65895691 69.60903992 -68.43710327 69.62094116 C-72.67825198 69.60330066 -72.67825198 69.60330066 -76 72 C-76.36952049 74.12860662 -76.36952049 74.12860662 -76.4140625 76.5703125 C-76.44967285 77.37742676 -76.4852832 78.18454102 -76.52197266 79.01611328 C-76.55597168 80.0420459 -76.5899707 81.06797852 -76.625 82.125 C-76.810625 87.013125 -76.810625 87.013125 -77 92 C-85.91 92 -94.82 92 -104 92 C-104 80.71161049 -104 80.71161049 -102.1875 74.8125 C-101.82527344 73.62269531 -101.46304688 72.43289062 -101.08984375 71.20703125 C-100.24511807 68.72129725 -99.35138345 66.37666954 -98.25 64 C-96.89501279 60.74803069 -96.667778 58.488331 -97 55 C-98.18424326 53.58422523 -98.18424326 53.58422523 -101.5625 53.9375 C-103.2640625 53.9684375 -103.2640625 53.9684375 -105 54 C-115.30741578 71.57329904 -116.99840001 93.40832433 -112 113 C-104.88537425 135.65853637 -90.66362955 153.05761017 -69.66796875 164.2421875 C-51.17042697 173.48845398 -29.77146562 175.01139252 -10.16015625 168.546875 C0.48716923 164.71807018 9.42739372 159.4377711 18 152 C18.83660156 151.35417969 19.67320312 150.70835937 20.53515625 150.04296875 C34.0353596 138.85341827 42.55695035 120.09509628 45 103 C45.31759722 97.9370105 45.37203278 92.87602553 45.4140625 87.8046875 C45.432812 86.36165304 45.45238811 84.9186291 45.4727478 83.47561646 C45.52367622 79.71108256 45.5635098 75.94651326 45.60089111 72.18182373 C45.64117981 68.32685882 45.69215756 64.47203611 45.7421875 60.6171875 C45.83848032 53.0782232 45.92303135 45.53918901 46 38 C58.08237182 49.61069702 62.83968185 70.47325062 63.265625 86.71875 C63.27084038 88.64583331 63.26560346 90.5729728 63.25 92.5 C63.25773438 93.45519531 63.26546875 94.41039062 63.2734375 95.39453125 C63.24650248 105.34702083 61.4524533 114.59894597 58.25 124 C57.85530518 125.16317749 57.85530518 125.16317749 57.45263672 126.34985352 C49.05868886 150.32434843 30.74678207 169.93620379 8.1171875 181.17578125 C-13.15536688 191.03775002 -39.7988432 194.20788428 -62.40625 187.32421875 C-78.43689771 181.41727356 -91.52303605 173.908836 -104 162 C-104.60199219 161.47277344 -105.20398438 160.94554687 -105.82421875 160.40234375 C-123.18792354 144.57668274 -131.86000042 119.70356272 -133.41015625 96.83984375 C-134.22117627 77.54915332 -129.72408484 59.60916179 -120 43 C-119.45601562 42.0203125 -118.91203125 41.040625 -118.3515625 40.03125 C-105.79683392 18.7188327 -84.48432853 3.95458656 -61 -3 C-59.50919922 -3.44666016 -59.50919922 -3.44666016 -57.98828125 -3.90234375 C-38.56038691 -8.89151898 -18.74698841 -6.24899614 0 0 Z " fill="#A6020E" transform="translate(288,166)"/>
<path d="M0 0 C3.83945182 1.51852477 5.67491055 3.77802738 8.1875 7 C12.04898732 11.86855295 16.10215686 16.4681163 20.34765625 21.00390625 C22 23 22 23 22 25 C20.88625 25.28875 19.7725 25.5775 18.625 25.875 C14.99708908 26.69241329 14.99708908 26.69241329 13 29 C12.69353427 31.48697353 12.69353427 31.48697353 12.74171448 34.43000793 C12.73488647 35.5835376 12.72805847 36.73706726 12.72102356 37.92555237 C12.72357651 39.19769089 12.72612946 40.46982941 12.72875977 41.78051758 C12.724374 43.12916377 12.71907239 44.47780724 12.71292114 45.82644653 C12.70140035 48.73642954 12.69596014 51.64633954 12.69503975 54.55634499 C12.69309933 59.16822041 12.67504307 63.77994545 12.65428162 68.39176941 C12.60506868 79.85741037 12.57430768 91.32309266 12.55297852 102.78881836 C12.5364047 111.68015312 12.51341492 120.57136 12.46995777 129.46260947 C12.44831557 134.035234 12.44011121 138.60761487 12.44235051 143.180287 C12.44066767 146.04572382 12.42652 148.91100578 12.40913773 151.77638626 C12.4009885 153.71211899 12.40741611 155.64789652 12.414505 157.58363342 C12.32483951 168.59264701 10.59142058 179.2069551 5.5 189.0625 C4.99811157 190.05540039 4.99811157 190.05540039 4.48608398 191.06835938 C0.78213738 198.00397645 -4.25910508 203.67277238 -10 209 C-10.33 209 -10.66 209 -11 209 C-11.00496522 207.60352706 -11.00496522 207.60352706 -11.01003075 206.17884254 C-11.09092767 183.55424565 -11.1832131 160.92971722 -11.28752708 138.30521584 C-11.33770671 127.36429882 -11.38414891 116.4233895 -11.421875 105.48242188 C-11.45475607 95.94928734 -11.49456555 86.41621161 -11.54279006 76.88314188 C-11.56809382 71.83273775 -11.58986353 66.78237282 -11.60334396 61.73192215 C-11.61612928 56.9828377 -11.6381451 52.23388743 -11.66738319 47.48487663 C-11.67648671 45.7377193 -11.68215562 43.99054035 -11.68421364 42.24336052 C-11.68751671 39.86607576 -11.70294024 37.48917599 -11.7215271 35.11196899 C-11.71959237 34.41353304 -11.71765763 33.71509708 -11.71566427 32.99549639 C-11.66640296 29.05598457 -11.66640296 29.05598457 -14 26 C-15.98821313 25.60235737 -17.98944339 25.26224651 -20 25 C-18.49993609 21.55220914 -16.49590738 19.17639467 -13.9375 16.4375 C-9.06400342 11.1288698 -4.51576133 5.61534388 0 0 Z " fill="#A60511" transform="translate(310,100)"/>
<path d="M0 0 C8.91 0 17.82 0 27 0 C27 31.35 27 62.7 27 95 C14 101 14 101 0 104 C0 69.68 0 35.36 0 0 Z " fill="#A5020E" transform="translate(261,223)"/>
<path d="M0 0 C3.52344644 1.6586188 5.79901878 3.56657308 8.546875 6.3515625 C9.81337891 7.62773437 9.81337891 7.62773437 11.10546875 8.9296875 C12.41451172 10.26386719 12.41451172 10.26386719 13.75 11.625 C14.63816406 12.5221875 15.52632812 13.419375 16.44140625 14.34375 C18.63216969 16.55807004 20.81812763 18.77692435 23 21 C21.49971277 24.49741457 19.48627169 26.77222695 16.81323242 29.46142578 C15.94860886 30.33558136 15.08398529 31.20973694 14.19316101 32.11038208 C13.24759308 33.05568858 12.30168732 34.00065726 11.35546875 34.9453125 C10.38359446 35.92107606 9.41194354 36.89706214 8.44050598 37.8732605 C6.40538196 39.91583679 4.36643796 41.95450652 2.32495117 43.99072266 C-0.28615798 46.5960368 -2.88572359 49.21253945 -5.48230457 51.83232307 C-7.48541145 53.85018588 -9.49542842 55.86105345 -11.50748253 57.8699913 C-12.46865769 58.83167868 -13.42748188 59.7957219 -14.38385963 60.76218033 C-15.72371643 62.11441984 -17.07418182 63.4561227 -18.42504883 64.79736328 C-19.18956863 65.56251251 -19.95408844 66.32766174 -20.74177551 67.11599731 C-25.33465241 70.94776535 -29.76967012 71.45031245 -35.56640625 71.3125 C-40.51642929 70.67686301 -43.10829083 67.96210726 -46.375 64.4375 C-48.63516327 59.65638538 -49.26208452 55.17047527 -48 50 C-43.79496234 43.16499352 -37.89368081 37.63247083 -32.2265625 32.03125 C-31.3028183 31.11033569 -30.3790741 30.18942139 -29.42733765 29.24060059 C-26.99545262 26.8162781 -24.55761898 24.39802772 -22.1184082 21.9810791 C-19.62082272 19.50411289 -17.12903242 17.02133114 -14.63671875 14.5390625 C-9.76340383 9.68706692 -4.88376688 4.84147446 0 0 Z " fill="#A60410" transform="translate(136,351)"/>
<path d="M0 0 C8.58 0 17.16 0 26 0 C26 26.4 26 52.8 26 80 C16.99467649 80 16.99467649 80 14.04296875 78.9765625 C13.40552734 78.76 12.76808594 78.5434375 12.11132812 78.3203125 C11.47646484 78.09085937 10.84160156 77.86140625 10.1875 77.625 C9.53330078 77.40328125 8.87910156 77.1815625 8.20507812 76.953125 C5.1538845 75.89346633 2.70322926 74.80215284 0 73 C-0.36076355 69.98812866 -0.36076355 69.98812866 -0.34057617 66.07177734 C-0.34101425 65.35947464 -0.34145233 64.64717194 -0.34190369 63.9132843 C-0.3398101 61.55389188 -0.31645325 59.19520609 -0.29296875 56.8359375 C-0.2873748 55.20212187 -0.28310375 53.56830122 -0.28010559 51.93447876 C-0.26864094 47.63039298 -0.23916008 43.32661002 -0.20599365 39.02264404 C-0.17532751 34.63232521 -0.16160767 30.24195753 -0.14648438 25.8515625 C-0.11429165 17.23422042 -0.06151075 8.61718274 0 0 Z " fill="#A5000C" transform="translate(223,247)"/>
<path d="M0 0 C8.58 0 17.16 0 26 0 C26 13.86 26 27.72 26 42 C11.4198944 32.2799296 3.73631793 17.78884963 0 1 C0 0.67 0 0.34 0 0 Z " fill="#A5010D" transform="translate(185,270)"/>
<path d="M0 0 C1.1055189 0.93590504 2.20935453 1.87379858 3.3125 2.8125 C4.23482422 3.59560547 4.23482422 3.59560547 5.17578125 4.39453125 C6.85424679 5.87172469 8.43882034 7.40039131 10 9 C8.5735422 12.2586636 6.83295838 14.4024854 4.3046875 16.890625 C3.58925781 17.59960938 2.87382812 18.30859375 2.13671875 19.0390625 C1.39035156 19.76867187 0.64398438 20.49828125 -0.125 21.25 C-1.25615234 22.36761719 -1.25615234 22.36761719 -2.41015625 23.5078125 C-4.26900772 25.3431342 -6.13237005 27.1736191 -8 29 C-9.1055189 28.06409496 -10.20935453 27.12620142 -11.3125 26.1875 C-11.92738281 25.66542969 -12.54226562 25.14335937 -13.17578125 24.60546875 C-14.85424679 23.12827531 -16.43882034 21.59960869 -18 20 C-16.5735422 16.7413364 -14.83295838 14.5975146 -12.3046875 12.109375 C-11.23154297 11.04589844 -11.23154297 11.04589844 -10.13671875 9.9609375 C-9.39035156 9.23132813 -8.64398438 8.50171875 -7.875 7.75 C-7.12089844 7.00492187 -6.36679688 6.25984375 -5.58984375 5.4921875 C-3.73099228 3.6568658 -1.86762995 1.8263809 0 0 Z " fill="#A6030F" transform="translate(170,330)"/>
<path d="M0 0 C3.0625 0.3125 3.0625 0.3125 5 1.4375 C6.0625 3.3125 6.0625 3.3125 5.9375 6.375 C5.0625 9.3125 5.0625 9.3125 2.0625 11.3125 C-3.49305556 10.75694444 -3.49305556 10.75694444 -4.9375 9.3125 C-5.125 5.875 -5.125 5.875 -4.9375 2.3125 C-2.9375 0.3125 -2.9375 0.3125 0 0 Z " fill="#FCF7F7" transform="translate(199.9375,199.6875)"/>
</svg>
