<?xml version="1.0" encoding="UTF-8"?>
<svg version="1.1" xmlns="http://www.w3.org/2000/svg" width="500" height="500">
<path d="M0 0 C165 0 330 0 500 0 C500 165 500 330 500 500 C335 500 170 500 0 500 C0 335 0 170 0 0 Z " fill="#A5000C" transform="translate(0,0)"/>
<path d="M0 0 C0 0.66 0 1.32 0 2 C-2.05848697 3.38552008 -4.12117034 4.66860257 -6.25 5.9375 C-23.14447829 16.42967855 -31.61461252 28.47855251 -38.00683594 47.10253906 C-38.87748683 49.63222551 -39.77318912 52.15203028 -40.671875 54.671875 C-41.23848771 56.2937446 -41.80364338 57.91612412 -42.3671875 59.5390625 C-42.6327243 60.28402985 -42.89826111 61.02899719 -43.17184448 61.79653931 C-44.7052076 66.32329696 -45.42330174 70.15769588 -45 75 C-42.97333762 78.70390021 -41.51955484 80.65363011 -38 83 C-28.8871587 85.33469488 -20.25448668 84.56391414 -12 80 C-7.88346982 77.12547115 -5.34910941 73.97006163 -2.5625 69.8125 C-2.17344482 69.24241211 -1.78438965 68.67232422 -1.38354492 68.08496094 C0.38197718 65.48652138 2.07705326 62.87257936 3.703125 60.18359375 C7.31289376 54.26547287 7.31289376 54.26547287 10.75 52.9375 C11.8225 52.958125 12.895 52.97875 14 53 C14.74032471 52.94183105 15.48064941 52.88366211 16.2434082 52.82373047 C23.04790518 52.43086882 26.34954452 53.80319794 31.4375 58.1875 C32.81835431 59.29963315 34.20261557 60.40754632 35.58984375 61.51171875 C36.66468018 62.37676025 36.66468018 62.37676025 37.76123047 63.25927734 C41.5423565 66.19923685 45.52164699 68.83663209 49.5 71.5 C56.12822405 75.97450048 62.57196193 80.6203832 68.92822266 85.47167969 C74.12608801 89.41130584 79.47142613 93.09906495 84.875 96.75 C102.41595338 108.62393007 102.41595338 108.62393007 106 114 C106.51152843 117.83646321 106.1457631 119.71408007 104.375 123.1875 C101.6999062 126.35537423 99.92816991 127.69061003 96 129 C90.97140276 128.65621409 87.83601277 127.66158994 83.75 124.75 C82.71617187 124.02683594 81.68234375 123.30367188 80.6171875 122.55859375 C80.04581055 122.15237793 79.47443359 121.74616211 78.88574219 121.32763672 C76.81777513 119.87170652 74.72821707 118.45130126 72.6328125 117.03515625 C63.59720545 110.92178299 54.67443933 104.67446438 45.87451172 98.22583008 C38.6992946 92.42529383 38.6992946 92.42529383 30 91 C28.69825864 92.09940315 28.69825864 92.09940315 28.625 94.80078125 C28.68802674 98.10637321 28.68802674 98.10637321 31.0625 100.16796875 C32.031875 100.83441406 33.00125 101.50085938 34 102.1875 C34.53689453 102.56495361 35.07378906 102.94240723 35.62695312 103.33129883 C37.40505395 104.57409825 39.20145085 105.78702499 41 107 C42.21988221 107.84211224 43.43861788 108.68588757 44.65625 109.53125 C47.2779762 111.34595397 49.90597751 113.15103722 52.5390625 114.94921875 C57.66201402 118.45040751 62.77492881 121.96555548 67.875 125.5 C69.18694336 126.39948364 69.18694336 126.39948364 70.52539062 127.31713867 C71.33943359 127.88279541 72.15347656 128.44845215 72.9921875 129.03125 C74.08055908 129.78245117 74.08055908 129.78245117 75.19091797 130.54882812 C77 132 77 132 79 135 C78.92294498 139.77741104 78.6530431 142.05011913 75.9375 146 C72.92425522 148.05157092 70.93472162 148.86842331 67.265625 148.58984375 C62.21436159 147.27477345 58.17076231 144.01907252 54 141 C53.01265869 140.29206299 53.01265869 140.29206299 52.00537109 139.56982422 C48.99685316 137.4113168 45.99359036 135.24591375 43.00024414 133.06640625 C29.37512895 121.42051638 29.37512895 121.42051638 14.375 115.3125 C12.06498035 115.7741514 12.06498035 115.7741514 11 117 C10.32916582 119.29969327 10.32916582 119.29969327 11 122 C13.05942087 124.24179905 15.50908453 125.89203984 18 127.625 C18.71824951 128.14352539 19.43649902 128.66205078 20.17651367 129.19628906 C22.43706571 130.81839088 24.71461909 132.41310668 27 134 C27.70979004 134.4940332 28.41958008 134.98806641 29.15087891 135.49707031 C32.51567054 137.83156668 35.8927029 140.14752283 39.27734375 142.453125 C42.66916688 144.76727857 46.03397466 147.11293105 49.375 149.5 C50.22835937 150.1084375 51.08171875 150.716875 51.9609375 151.34375 C54.50296282 153.40853685 55.83830075 155.12220406 56.4375 158.375 C56 161 56 161 54.0625 163.8125 C49.94692077 166.75219945 46.93153792 166.80477737 42 166 C38.77158537 164.62394856 36.00095792 162.74745677 33.125 160.75 C31.46522668 159.649162 29.80505836 158.54891938 28.14453125 157.44921875 C26.87730225 156.59529541 26.87730225 156.59529541 25.58447266 155.72412109 C21.38020236 152.91942085 17.09443874 150.24644735 12.8125 147.5625 C11.29788339 146.60593362 9.7835482 145.64892147 8.26953125 144.69140625 C7.55748535 144.24514893 6.84543945 143.7988916 6.11181641 143.33911133 C4.69201897 142.43881203 3.28282984 141.52158312 1.88427734 140.58862305 C-2.06323474 137.99359466 -5.23171138 136.34313969 -10 135.6875 C-11.423125 135.47673828 -11.423125 135.47673828 -12.875 135.26171875 C-13.926875 135.13216797 -13.926875 135.13216797 -15 135 C-15.17015625 134.40832031 -15.3403125 133.81664062 -15.515625 133.20703125 C-17.52346251 126.66019937 -19.54777749 122.16061551 -25.75 118.75 C-29.82774816 116.84909484 -33.53225993 116.31912429 -38 116 C-38.37125 114.205625 -38.37125 114.205625 -38.75 112.375 C-40.18268654 106.78258221 -42.42891796 103.24377328 -47 99.625 C-52.04921435 97.05152946 -57.50175891 97.1529934 -63 98 C-68.24301875 100.07341422 -71.8141173 103.35392107 -75 108 C-78 107 -78 107 -80.25 104.125 C-83.46874889 100.13988232 -87.07046084 98.37398372 -92.203125 97.71875 C-97.21892369 97.51402352 -101.81769149 98.03250838 -106 101 C-110.08489839 105.00153311 -113.60886619 109.40522302 -117 114 C-121.11526292 113.35826346 -124.30388435 111.13013842 -127.75 108.9375 C-128.35199219 108.56044922 -128.95398438 108.18339844 -129.57421875 107.79492188 C-131.05249143 106.86806837 -132.52666089 105.93467611 -134 105 C-133.52660035 97.12032922 -131.82871359 89.84677322 -129.75 82.25 C-127.46685122 73.696659 -125.28415853 65.14480653 -123.375 56.5 C-121.4962376 48.02325794 -119.39121258 39.63101705 -117.125 31.25 C-115.85976774 26.55177087 -114.78837503 21.81303096 -113.7734375 17.0546875 C-113.39058594 16.03761719 -113.39058594 16.03761719 -113 15 C-109.77192554 13.92397518 -108.15504914 14.26877382 -104.91064453 14.97949219 C-96.79232998 16.75165394 -88.92779361 17.2816383 -80.625 17.25 C-79.14737183 17.24504517 -79.14737183 17.24504517 -77.63989258 17.23999023 C-56.86960725 16.97716336 -39.26350923 11.20160072 -20 4 C-13.15779484 1.44698773 -7.37451157 -0.56727012 0 0 Z " fill="#FEFCFC" transform="translate(247,162)"/>
<path d="M0 0 C4.26664379 0.94553492 8.55177746 1.7888528 12.84008789 2.62939453 C13.8571582 2.83822266 14.87422852 3.04705078 15.92211914 3.26220703 C22.8949844 4.51911837 29.71181281 4.81079335 36.77758789 4.81689453 C37.67775635 4.8177002 38.5779248 4.81850586 39.50537109 4.81933594 C44.05661997 4.78105083 48.36296229 4.55137262 52.84008789 3.62939453 C55.58976359 10.25361326 57.2051125 16.97735004 58.77203369 23.96704102 C59.52708966 27.33259978 60.30044077 30.69393611 61.07446289 34.05517578 C61.22658234 34.71679718 61.37870178 35.37841858 61.53543091 36.06008911 C62.74251934 41.2793197 64.06231649 46.45982767 65.46508789 51.62939453 C67.57796477 59.42578004 69.4007258 67.27310457 71.14135742 75.16064453 C71.9832729 78.95804144 72.85253411 82.67034387 73.98461914 86.39501953 C74.83842312 89.62310033 75.0021084 92.30797409 74.84008789 95.62939453 C67.25184808 100.0296756 60.69236659 103.36051498 51.75415039 103.65673828 C47.80304272 102.26378745 45.82183927 99.77926713 42.98217773 96.76635742 C39.62866679 93.42087289 35.79489739 90.95690719 31.84008789 88.37939453 C25.70668077 84.28727687 19.69650301 80.10940346 13.84008789 75.62939453 C7.35517733 70.68244614 0.68619499 66.06537071 -6.0715332 61.50024414 C-11.42044611 57.86863678 -16.63149706 54.0951451 -21.78491211 50.19189453 C-22.45280762 49.69399414 -23.12070312 49.19609375 -23.80883789 48.68310547 C-26.45854879 46.70470831 -29.03827248 44.73673546 -31.51928711 42.54736328 C-38.58746963 36.69830527 -47.49791262 37.90963547 -56.15991211 38.62939453 C-59.58804192 38.95402804 -61.90366032 39.40830011 -65.15991211 40.62939453 C-65.87509093 42.27582748 -66.52987551 43.94853877 -67.15991211 45.62939453 C-68.65628274 48.20148535 -70.31262976 50.66049885 -71.97241211 53.12939453 C-72.39844727 53.78037109 -72.82448242 54.43134766 -73.26342773 55.10205078 C-77.5694365 61.55129235 -82.17315823 66.13601759 -89.15991211 69.62939453 C-96.46425994 69.86127859 -96.46425994 69.86127859 -100.15991211 68.62939453 C-100.39545531 63.38792962 -99.69778537 59.42149457 -97.96459961 54.48095703 C-97.73467316 53.82412933 -97.5047467 53.16730164 -97.26785278 52.49057007 C-96.78063308 51.10879852 -96.28785488 49.7289755 -95.78979492 48.35107422 C-95.04143396 46.27250891 -94.31842684 44.18632928 -93.59741211 42.09814453 C-85.45111933 18.96865527 -68.70820586 8.59022591 -47.49584961 -1.80419922 C-33.00284568 -8.60946219 -14.82306436 -3.32905992 0 0 Z " fill="#FEFDFD" transform="translate(312.159912109375,167.37060546875)"/>
<path d="M0 0 C5.98334045 0.75101239 11.81164576 1.96535293 17.6875 3.3125 C18.62400391 3.51294922 19.56050781 3.71339844 20.52539062 3.91992188 C24.26412595 4.78188584 27.39500003 5.64119049 30.70703125 7.60546875 C33.79796225 13.3297609 30.44876793 21.88651264 28.890625 27.890625 C28.5800415 29.11817757 28.5800415 29.11817757 28.26318359 30.37052917 C27.82359773 32.10541588 27.3813664 33.83963418 26.93664551 35.57321167 C26.00910662 39.18908805 25.09455297 42.80820792 24.17938232 46.42723083 C23.72889957 48.20828893 23.27777538 49.98918492 22.82598877 51.76991272 C21.2512603 57.98098444 19.71792974 64.20022656 18.25 70.4375 C18.06816162 71.20739258 17.88632324 71.97728516 17.69897461 72.77050781 C17.13110075 75.17997708 16.56543154 77.58995646 16 80 C14.94301266 84.50132004 13.87941049 89.00102252 12.8125 93.5 C12.56209961 94.57048584 12.31169922 95.64097168 12.05371094 96.74389648 C11.81555664 97.74622314 11.57740234 98.7485498 11.33203125 99.78125 C11.12296143 100.66876953 10.9138916 101.55628906 10.69848633 102.47070312 C9.65989758 106.23154878 8.78792528 109.21207472 6 112 C-1.13482755 111.66432743 -7.71896102 109.88956175 -14.5625 107.9375 C-15.57119141 107.65583984 -16.57988281 107.37417969 -17.61914062 107.08398438 C-20.08124548 106.39552851 -22.54137816 105.70077279 -25 105 C-24.33106775 98.37363583 -22.91692505 92.08276013 -21.3125 85.625 C-20.76062507 83.36875682 -20.20987593 81.11223802 -19.66015625 78.85546875 C-19.38059082 77.70868652 -19.10102539 76.5619043 -18.81298828 75.38037109 C-17.82123886 71.25671868 -16.87818687 67.12318353 -15.94116211 62.98681641 C-13.04275077 50.19940644 -9.9229478 37.47159283 -6.75 24.75 C-6.52944946 23.8627121 -6.30889893 22.97542419 -6.08166504 22.06124878 C-5.4478223 19.51409294 -4.81047822 16.96784101 -4.171875 14.421875 C-3.98250366 13.66042679 -3.79313232 12.89897858 -3.59802246 12.11445618 C-2.56287254 8.00943907 -1.39781612 4.00075506 0 0 Z " fill="#FEFCFC" transform="translate(93,157)"/>
<path d="M0 0 C0.2928186 1.26215332 0.2928186 1.26215332 0.59155273 2.54980469 C4.49420185 19.33719299 8.48377822 36.09773323 12.6875 52.8125 C13.07102789 54.33958345 13.45449201 55.86668292 13.83789062 57.39379883 C14.02367676 58.13376602 14.20946289 58.87373322 14.40087891 59.63612366 C14.58312012 60.36206223 14.76536133 61.08800079 14.953125 61.8359375 C15.22068604 62.90170265 15.22068604 62.90170265 15.49365234 63.98899841 C22.34444147 91.2933915 22.34444147 91.2933915 24 104 C20.35913431 105.01870185 16.71165837 106.01145435 13.0625 107 C12.04091797 107.28617187 11.01933594 107.57234375 9.96679688 107.8671875 C3.7929516 109.5240661 -1.6028077 110.51642319 -8 110 C-10.43609277 107.56390723 -10.7058044 105.95993267 -11.55078125 102.63671875 C-11.83445557 101.53312012 -12.11812988 100.42952148 -12.41040039 99.29248047 C-12.70809326 98.10283691 -13.00578613 96.91319336 -13.3125 95.6875 C-13.62372803 94.46434082 -13.93495605 93.24118164 -14.25561523 91.98095703 C-16.71978145 82.24746872 -19.07041637 72.48918809 -21.35986328 62.71337891 C-22.30124563 58.72309539 -23.26640476 54.7386349 -24.22998047 50.75366211 C-25.24480643 46.5479582 -26.24813775 42.3395516 -27.25048828 38.13085938 C-27.75228564 36.03475208 -28.25850972 33.93969983 -28.76904297 31.84570312 C-29.50232216 28.83703925 -30.22127468 25.82526226 -30.9375 22.8125 C-31.16115234 21.91023682 -31.38480469 21.00797363 -31.61523438 20.07836914 C-33.67401396 11.2925105 -33.67401396 11.2925105 -32 7 C-27.07110157 3.45379585 -20.71872577 2.5477525 -14.875 1.25 C-13.88628906 1.01667969 -12.89757812 0.78335938 -11.87890625 0.54296875 C-10.92628906 0.32769531 -9.97367187 0.11242187 -8.9921875 -0.109375 C-7.69837158 -0.40279785 -7.69837158 -0.40279785 -6.37841797 -0.70214844 C-3.92658704 -1.00919357 -2.32882847 -0.76662042 0 0 Z " fill="#FEFCFC" transform="translate(408,155)"/>
<path d="M0 0 C2.74776694 1.94354247 4.70264328 3.88533425 6 7 C6.58573241 14.53434866 3.34809721 19.20217827 -1.1875 24.875 C-2.46047798 26.52669472 -3.73258675 28.17905965 -5.00390625 29.83203125 C-5.66148926 30.67588379 -6.31907227 31.51973633 -6.99658203 32.38916016 C-9.01623148 35.02115275 -10.96753778 37.69186277 -12.90234375 40.38671875 C-13.52665283 41.25377441 -14.15096191 42.12083008 -14.79418945 43.01416016 C-15.99375023 44.6838515 -17.18906575 46.35660286 -18.37963867 48.03271484 C-18.92724854 48.78633301 -19.4748584 49.53995117 -20.0390625 50.31640625 C-20.51553223 50.98099854 -20.99200195 51.64559082 -21.48291016 52.33032227 C-23.99428868 55.09429358 -26.27388161 55.90730404 -29.9375 56.375 C-33.75758307 55.90723473 -35.30522616 54.69477384 -38 52 C-39.35396086 47.93811742 -40.05065652 44.19672019 -38.12890625 40.17871094 C-36.83225826 38.17315786 -35.44630857 36.27552307 -34 34.375 C-33.47543213 33.66005371 -32.95086426 32.94510742 -32.41040039 32.20849609 C-30.62595511 29.79086055 -28.81469104 27.39500499 -27 25 C-26.31019043 24.08025391 -25.62038086 23.16050781 -24.90966797 22.21289062 C-21.41712515 17.55616687 -17.90925197 12.911241 -14.37109375 8.2890625 C-13.79286865 7.53318848 -13.21464355 6.77731445 -12.61889648 5.99853516 C-8.85907085 1.35701311 -6.27023134 -0.96465098 0 0 Z " fill="#FDFBFB" transform="translate(193,269)"/>
<path d="M0 0 C3.51092615 2.51870789 4.76503126 4.2536287 6.0625 8.375 C5.93915632 15.5289334 0.40661075 21.32579387 -3.8125 26.8125 C-7.88997747 32.15954443 -11.82964507 37.54034008 -15.5 43.1796875 C-17.2023128 45.24551501 -18.49667188 46.08356003 -21 47 C-25.62144627 47 -27.46003226 46.48252436 -30.9375 43.375 C-33.38662387 39.36734276 -33.4944977 37.62673592 -33 33 C-31.66630528 30.59521858 -30.42648735 28.69218541 -28.75 26.5625 C-28.08750244 25.6821106 -28.08750244 25.6821106 -27.41162109 24.78393555 C-26.45841986 23.51957628 -25.4983611 22.26036365 -24.53222656 21.00585938 C-22.9270553 18.90450707 -21.36294509 16.77696115 -19.8046875 14.640625 C-18.74535543 13.19750266 -17.68547053 11.75478595 -16.625 10.3125 C-16.12581055 9.62937744 -15.62662109 8.94625488 -15.11230469 8.24243164 C-10.74664183 2.38941129 -7.86293414 -1.1035697 0 0 Z " fill="#FDFAFA" transform="translate(216,289)"/>
<path d="M0 0 C4.17196858 0.09102477 6.24612938 1.34449694 9.1875 4.375 C10.80130195 7.60260391 10.58685648 9.78079169 10.1875 13.375 C8.56836076 16.6580768 6.39566545 19.46562224 4.1875 22.375 C3.37030863 23.49421884 2.55395251 24.61404784 1.73828125 25.734375 C0.86890695 26.90752617 -0.00218574 28.07940588 -0.875 29.25 C-1.2860498 29.80961426 -1.69709961 30.36922852 -2.12060547 30.94580078 C-5.42811256 35.28254406 -8.39844347 37.9223644 -13.8125 38.9375 C-17.2711229 38.28900821 -18.83927922 37.12273708 -20.890625 34.25634766 C-22.67886996 30.60692613 -22.68091259 27.31207847 -21.8125 23.375 C-19.60236124 19.38424829 -16.82911762 15.95439904 -13.9375 12.4375 C-13.19113281 11.49326172 -12.44476563 10.54902344 -11.67578125 9.57617188 C-4.41173229 0.43394088 -4.41173229 0.43394088 0 0 Z " fill="#FDFAFA" transform="translate(234.8125,307.625)"/>
<path d="M0 0 C4.27430024 2.37461125 4.27430024 2.37461125 6 5 C7.01451756 9.42446579 6.75319937 13.45629658 4.7578125 17.54589844 C3.05357912 20.11742874 1.23597608 22.52594907 -0.6875 24.9375 C-1.62625977 26.19143555 -1.62625977 26.19143555 -2.58398438 27.47070312 C-6.42305266 32.47556178 -9.544218 36.26472723 -15.9375 37.625 C-19.95513697 36.80507409 -21.42323724 35.13394545 -23.8515625 31.921875 C-25.65739889 28.89986308 -25.82777594 27.44906641 -25 24 C-23.28245192 20.78361783 -21.17359955 17.92174278 -19 15 C-18.25363281 13.96359375 -17.50726563 12.9271875 -16.73828125 11.859375 C-7.25054834 -1.16008773 -7.25054834 -1.16008773 0 0 Z " fill="#FDFAFA" transform="translate(155,269)"/>
<path d="M0 0 C3.82472829 1.37333152 6.88428843 3.14127706 10.1875 5.5 C11.04730469 6.1084375 11.90710938 6.716875 12.79296875 7.34375 C15 9 15 9 17 11 C17.56823055 15.302317 17.46762853 17.3131706 15 20.9375 C11.96686726 23.02277876 9.97569055 23.83904271 6.26953125 23.640625 C1.54277692 22.30639486 -2.22184004 19.03491538 -6 16 C-5.70222656 15.41089844 -5.40445313 14.82179688 -5.09765625 14.21484375 C-2.80342116 9.58555087 -0.77811778 5.13557732 0 0 Z " fill="#FCF8F9" transform="translate(254,318)"/>
</svg>
