<?xml version="1.0" encoding="UTF-8"?>
<svg version="1.1" xmlns="http://www.w3.org/2000/svg" width="500" height="500">
<path d="M0 0 C165 0 330 0 500 0 C500 165 500 330 500 500 C335 500 170 500 0 500 C0 335 0 170 0 0 Z " fill="#A5000C" transform="translate(0,0)"/>
<path d="M0 0 C20.15584584 14.66142589 32.54263521 34.49097125 37.58203125 58.80859375 C40.5493637 81.46570226 35.60561939 104.80259206 22.203125 123.5078125 C20.50557526 125.70592179 18.76911336 127.85929205 17 130 C16.37609375 130.81855469 15.7521875 131.63710938 15.109375 132.48046875 C8.87441275 139.92778477 0.45754608 145.38033197 -8 150 C-8.65355469 150.36738281 -9.30710937 150.73476563 -9.98046875 151.11328125 C-29.30001483 161.4303172 -54.08976848 163.32221744 -75 157 C-98.47024847 148.65919222 -117.20009278 133.172243 -128.3125 110.75 C-129.2509736 108.51744884 -130.14493117 106.26580552 -131 104 C-131.36182373 103.07453369 -131.36182373 103.07453369 -131.73095703 102.13037109 C-139.23834094 82.26718748 -138.79095542 58.30334869 -130.234375 38.9375 C-121.34354217 19.72327316 -108.21472872 5.52937239 -90 -5 C-89.21753906 -5.49113281 -88.43507812 -5.98226562 -87.62890625 -6.48828125 C-60.94921694 -21.84931449 -24.58650762 -16.47057307 0 0 Z " fill="#FDF9FA" transform="translate(299,203)"/>
<path d="M0 0 C6.47229148 4.38086269 11.79084545 10.42357216 13.9375 18 C14.8800067 26.30584032 13.47056549 32.52238749 9.9375 40 C9.6075 40.99 9.2775 41.98 8.9375 43 C10.2059375 43.7734375 10.2059375 43.7734375 11.5 44.5625 C20.87492486 50.88615215 27.01143302 60.07075062 29.9375 71 C30.39767071 74.80063009 30.44751369 78.5497723 30.4375 82.375 C30.46585937 83.35210937 30.49421875 84.32921875 30.5234375 85.3359375 C30.54250369 92.50482333 29.03370873 98.05320591 24.9375 104 C17.41263183 111.2537837 10.00868448 112.30984246 -0.12109375 112.30078125 C-1.71486595 112.30720894 -1.71486595 112.30720894 -3.34083557 112.31376648 C-5.58244109 112.31949601 -7.8240652 112.32002021 -10.06567383 112.31567383 C-13.48486197 112.31251399 -16.90318432 112.33599066 -20.32226562 112.36132812 C-22.50520725 112.36360134 -24.68815118 112.36430451 -26.87109375 112.36328125 C-27.88795761 112.372491 -28.90482147 112.38170074 -29.95249939 112.39118958 C-38.17675777 112.33789022 -44.25109452 110.60021811 -50.37133789 104.85229492 C-56.25538925 98.40761502 -56.74804415 90.5334467 -56.625 82.1875 C-56.61186768 81.12305664 -56.59873535 80.05861328 -56.58520508 78.96191406 C-56.1987842 65.73232365 -51.80303281 57.7876839 -42.78125 48.49609375 C-40.31406691 46.23096445 -38.00108563 44.58108683 -35.0625 43 C-35.330625 42.484375 -35.59875 41.96875 -35.875 41.4375 C-36.266875 40.633125 -36.65875 39.82875 -37.0625 39 C-37.866875 37.5459375 -37.866875 37.5459375 -38.6875 36.0625 C-41.61486541 29.06684729 -40.98986071 20.65456365 -38.5 13.625 C-36.24414939 8.74919658 -33.281285 5.29292328 -29.0625 2 C-28.51207031 1.56558594 -27.96164063 1.13117188 -27.39453125 0.68359375 C-20.04420295 -3.97323676 -7.65083167 -3.87799887 0 0 Z " fill="#FDFAFA" transform="translate(143.0625,300)"/>
<path d="M0 0 C7.44684098 3.82333338 13.02141886 8.92704942 16.4609375 16.63671875 C19.19697264 25.63551323 17.61685168 33.28930409 13.40625 41.48828125 C13.0453125 42.13152344 12.684375 42.77476562 12.3125 43.4375 C12.89386719 43.70820313 13.47523438 43.97890625 14.07421875 44.2578125 C23.464421 49.20692433 29.37073912 58.23805745 32.48828125 68.19140625 C33.56570986 72.9299508 33.64334067 77.59556186 33.625 82.4375 C33.64111328 83.28828125 33.65722656 84.1390625 33.67382812 85.015625 C33.67988414 92.91266965 31.98776449 99.60008509 26.3125 105.4375 C18.79037821 111.16085354 12.21819935 111.7538158 3.0703125 111.7734375 C1.98797333 111.7800943 0.90563416 111.7867511 -0.20950317 111.79360962 C-2.49398098 111.80371274 -4.77848816 111.80842737 -7.06298828 111.80810547 C-10.54379259 111.81247651 -14.02332617 111.8488168 -17.50390625 111.88671875 C-19.72916236 111.89258792 -21.95442445 111.89655664 -24.1796875 111.8984375 C-25.21326385 111.91280853 -26.24684021 111.92717957 -27.31173706 111.94198608 C-34.78723714 111.8950997 -40.17078244 110.45627525 -45.89453125 105.54296875 C-46.42433594 104.91003906 -46.95414062 104.27710938 -47.5 103.625 C-48.04269531 102.99980469 -48.58539063 102.37460937 -49.14453125 101.73046875 C-53.267619 95.6032472 -54.21689433 90.49506556 -54.125 83.25 C-54.11742676 82.41355957 -54.10985352 81.57711914 -54.10205078 80.71533203 C-53.7773131 68.42507746 -49.41906407 58.74222048 -41.1875 49.6875 C-38.411964 47.1895176 -35.58349182 44.79470264 -32.6875 42.4375 C-32.97625 41.95023437 -33.265 41.46296875 -33.5625 40.9609375 C-37.55513783 33.33610831 -37.84894122 25.40788381 -36.21484375 17.0078125 C-33.75576183 9.4391412 -28.85161538 4.78968882 -22 1 C-14.46470149 -2.47854746 -7.78343047 -3.05206435 0 0 Z " fill="#FCF8F9" transform="translate(379.6875,300.5625)"/>
<path d="M0 0 C5.61579098 3.34810371 9.57558027 8.22270541 11.5625 14.4375 C12.26976862 21.69389229 12.14859894 28.01240607 8.5625 34.4375 C9.07039063 34.82679687 9.57828125 35.21609375 10.1015625 35.6171875 C17.4065358 41.55418827 23.75925678 49.69952598 24.765625 59.39428711 C24.86617848 61.55844932 24.88457722 63.70863191 24.875 65.875 C24.89111328 66.60009766 24.90722656 67.32519531 24.92382812 68.07226562 C24.92980371 74.72308938 23.13148009 79.17119543 19.3125 84.6875 C13.58797986 90.41202014 7.69594472 90.91133654 -0.02734375 90.94140625 C-0.93069962 90.95139145 -1.83405548 90.96137665 -2.76478577 90.97166443 C-4.66663054 90.98678508 -6.56855416 90.99389211 -8.47045898 90.9934082 C-11.36381119 90.99997461 -14.25373741 91.05453046 -17.14648438 91.11132812 C-19.00259254 91.12013111 -20.85871685 91.12608471 -22.71484375 91.12890625 C-23.57029282 91.1504628 -24.42574188 91.17201935 -25.30711365 91.19422913 C-31.87039466 91.12014289 -35.75074666 88.99114915 -40.4375 84.4375 C-46.90462738 76.65741148 -46.16267791 67.0269114 -45.4375 57.4375 C-43.86986187 48.54009442 -38.92333194 42.52266279 -32.4375 36.4375 C-31.4475 35.9425 -31.4475 35.9425 -30.4375 35.4375 C-31.09335189 31.82757621 -31.09335189 31.82757621 -32.4375 28.4375 C-33.7362326 13.26088186 -33.7362326 13.26088186 -29.00390625 7.0859375 C-21.13494519 -1.19511379 -11.28048867 -5.11557044 0 0 Z " fill="#FCF8F8" transform="translate(260.4375,86.5625)"/>
<path d="M0 0 C1.76904032 0.08990638 3.54118396 0.13012682 5.3125 0.125 C6.27671875 0.125 7.2409375 0.125 8.234375 0.125 C10.6504315 0.01579971 12.71789478 -0.34126873 15.0625 -0.875 C20.95096524 -1.0619354 24.49277574 1.37510349 29 5 C38.11210185 13.97325078 40.42617997 24.05559864 40.53125 36.51953125 C39.74976083 41.63943459 36.98974533 45.70412342 33 49 C30.19277684 49.93574105 28.3688623 50.15144714 25.45605469 50.20874023 C24.53789978 50.22803085 23.61974487 50.24732147 22.67376709 50.26719666 C18.47509869 50.3250977 14.27659817 50.37421409 10.07763672 50.4050293 C7.86621483 50.4266081 5.65487833 50.46070927 3.44384766 50.50756836 C0.24863706 50.57464248 -2.94480923 50.60204079 -6.140625 50.62109375 C-7.6144162 50.66283974 -7.6144162 50.66283974 -9.11798096 50.70542908 C-15.04322882 50.68776655 -18.33022253 49.81289205 -22.6552124 45.68128967 C-27.25181839 39.93448907 -26.6838414 33.04072196 -26.23828125 26.0390625 C-25.23171685 17.42551141 -20.48814405 9.60927194 -14 4 C-9.04992531 0.44479172 -6.06009458 -1.4895805 0 0 Z " fill="#A5020E" transform="translate(123,351)"/>
<path d="M0 0 C5.85482018 0.43331716 10.44295164 -0.1055517 16 -2 C21.51061397 -2.11979596 24.35217009 0.58502286 28.1796875 4.1796875 C30.37146762 6.37146762 32.2754377 8.41315655 34 11 C34.37125 11.54140625 34.7425 12.0828125 35.125 12.640625 C38.24729389 18.1480045 38.39296271 23.56517678 38.4375 29.75 C38.44749023 30.57838379 38.45748047 31.40676758 38.46777344 32.26025391 C38.40123911 36.95472597 38.15722669 40.28875679 35 44 C29.68342761 48.56357235 25.18626284 48.58788352 18.34375 48.53125 C17.32325562 48.5350769 16.30276123 48.53890381 15.25134277 48.54284668 C13.09968068 48.54556145 10.94798535 48.53823084 8.79638672 48.52148438 C5.51064183 48.50006936 2.22708346 48.5213017 -1.05859375 48.546875 C-3.15365064 48.54423165 -5.24870617 48.53910652 -7.34375 48.53125 C-8.81116638 48.54339539 -8.81116638 48.54339539 -10.30822754 48.55578613 C-16.17590795 48.47547022 -19.53108426 47.90367563 -24 44 C-26.97243548 39.55077311 -27.51649788 35.4914466 -27.4375 30.25 C-27.42992676 29.54552734 -27.42235352 28.84105469 -27.41455078 28.11523438 C-27.11845698 18.6834582 -23.55703087 10.77367286 -17 4 C-10.73724142 -1.27797852 -7.83106087 -2.61035362 0 0 Z " fill="#A5010D" transform="translate(364,353)"/>
<path d="M0 0 C1.875 1.125 1.875 1.125 3 3 C3.02734375 5.79296875 3.02734375 5.79296875 2 9 C-0.19352975 11.11206018 -2.72098954 12.60651934 -5.3125 14.1875 C-12.97361778 19.1572427 -19.55052947 24.55052947 -26 31 C-26.86109375 31.86109375 -27.7221875 32.7221875 -28.609375 33.609375 C-43.16258133 48.88572201 -53.11874807 67.50348097 -58 88 C-58.28617188 89.10472656 -58.57234375 90.20945312 -58.8671875 91.34765625 C-60.69055976 98.91030977 -61.42122954 106.205139 -61.53393555 113.95996094 C-61.62195896 117.20353396 -61.79289476 119.61356457 -63.33984375 122.5 C-65 124 -65 124 -68.0625 124.375 C-71 124 -71 124 -73 122 C-73.23256288 119.26663105 -73.3318124 116.67190883 -73.3125 113.9375 C-73.30621582 112.73335449 -73.30621582 112.73335449 -73.29980469 111.50488281 C-72.63698676 75.501177 -55.23292665 42.85786418 -30 18 C-9.67707594 -1.21596766 -9.67707594 -1.21596766 0 0 Z " fill="#FCF8F9" transform="translate(187,157)"/>
<path d="M0 0 C2.45802052 1.42559533 4.57380164 2.7965394 6.8125 4.5 C7.7247937 5.17494507 7.7247937 5.17494507 8.65551758 5.86352539 C14.06956613 9.92745139 19.11595168 14.31257198 24 19 C24.89332031 19.83015625 25.78664063 20.6603125 26.70703125 21.515625 C49.82598911 43.63222245 64.97129134 76.1146121 66.203125 108.17578125 C66.22395729 109.55461866 66.23958296 110.93354457 66.25 112.3125 C66.270625 113.01439453 66.29125 113.71628906 66.3125 114.43945312 C66.35105217 119.49460593 66.35105217 119.49460593 64.640625 121.95703125 C62.27804947 123.45895426 60.74135438 123.41120316 58 123 C55.83081576 121.36968267 55.08795407 120.44334258 54.55517578 117.7578125 C54.5189209 116.88898438 54.48266602 116.02015625 54.4453125 115.125 C54.36373901 113.66126953 54.36373901 113.66126953 54.28051758 112.16796875 C54.22919678 111.12253906 54.17787598 110.07710938 54.125 109 C52.33752651 82.49539868 42.5604648 57.15462437 25 37 C24.278125 36.15695313 23.55625 35.31390625 22.8125 34.4453125 C14.54879553 25.00517787 5.64559173 17.87718326 -4.83984375 11.1015625 C-8 9 -8 9 -10 7 C-9.75 3.4375 -9.75 3.4375 -9 0 C-5.78904571 -1.60547715 -3.44702422 -0.76521812 0 0 Z " fill="#FCF9F9" transform="translate(320,158)"/>
<path d="M0 0 C0.91974609 -0.01095703 1.83949219 -0.02191406 2.78710938 -0.03320312 C9.56261832 0.03986131 13.20969812 1.60368161 18.265625 6.23828125 C24.1909557 13.05892291 24.66805821 19.5642737 24.99609375 28.37890625 C24.28445569 32.43474553 22.64495948 35.04744695 19.4375 37.5625 C16.5541113 38.4161365 13.80350812 38.38210049 10.8125 38.32421875 C9.9879834 38.32758743 9.1634668 38.33095612 8.31396484 38.33442688 C6.57578271 38.33412871 4.83754712 38.31894306 3.09960938 38.28979492 C0.44497599 38.25011176 -2.20465924 38.26909301 -4.859375 38.29492188 C-6.55210264 38.28736219 -8.24481922 38.27640814 -9.9375 38.26171875 C-10.72721191 38.26870285 -11.51692383 38.27568695 -12.33056641 38.28288269 C-16.49890887 38.17653649 -18.14181465 37.88590894 -21.55786133 35.25976562 C-24.20466749 31.69845587 -24.36306982 28.65746032 -24.25 24.375 C-24.23783447 23.6212207 -24.22566895 22.86744141 -24.21313477 22.09082031 C-23.87421762 14.66175643 -21.54487175 9.39683848 -16.15698242 4.20922852 C-11.06837477 -0.04019202 -6.44500389 -0.16781502 0 0 Z " fill="#A5010D" transform="translate(249.5625,128.4375)"/>
<path d="M0 0 C4.03708576 0.2851166 7.08995369 1.1843654 10.87890625 2.58203125 C22.9522516 7.02448871 34.71663794 8.78864859 47.56640625 8.64453125 C48.87681885 8.63510498 50.18723145 8.62567871 51.53735352 8.6159668 C66.04870815 8.3911165 78.93142443 6.41432231 92.484375 1.2578125 C96.12899405 0.17681764 99.03494821 -0.04905313 102.81640625 0.26953125 C104.81640625 2.26953125 104.81640625 2.26953125 105.25390625 5.20703125 C104.81640625 8.26953125 104.81640625 8.26953125 102.94140625 9.89453125 C101.91015625 10.34828125 100.87890625 10.80203125 99.81640625 11.26953125 C99.11128906 11.58664062 98.40617187 11.90375 97.6796875 12.23046875 C91.23623362 14.99046671 84.66453535 16.81520278 77.81640625 18.26953125 C77.07801514 18.440896 76.33962402 18.61226074 75.57885742 18.78881836 C67.8073146 20.43013656 60.13455676 20.60869912 52.22924805 20.58520508 C50.01756146 20.58205073 47.80722501 20.60556941 45.59570312 20.63085938 C36.30379564 20.67212824 27.85864977 19.60696698 18.81640625 17.26953125 C17.36073555 16.92683491 15.90501696 16.5843418 14.44921875 16.2421875 C-1.2963757 12.1567493 -1.2963757 12.1567493 -5.18359375 8.26953125 C-5.37109375 5.33203125 -5.37109375 5.33203125 -5.18359375 2.26953125 C-3.18359375 0.26953125 -3.18359375 0.26953125 0 0 Z " fill="#FDFAFA" transform="translate(200.18359375,391.73046875)"/>
<path d="M0 0 C9.24 0 18.48 0 28 0 C26.79757903 10.8217887 24.90870981 19.70197702 20.125 29.4375 C19.79749756 30.11176025 19.46999512 30.78602051 19.13256836 31.48071289 C16.94610127 35.75166532 14.56067789 38.78050205 11 42 C9.66195313 41.16855469 9.66195313 41.16855469 8.296875 40.3203125 C7.11463883 39.58845201 5.93234407 38.85668616 4.75 38.125 C4.16347656 37.76019531 3.57695312 37.39539063 2.97265625 37.01953125 C0.0398891 35.20714706 -2.87857411 33.46799733 -6 32 C-5.80664062 31.23816406 -5.61328125 30.47632813 -5.4140625 29.69140625 C-4.59996138 26.46321318 -3.7982539 23.23214569 -3 20 C-2.79890625 19.20335937 -2.5978125 18.40671875 -2.390625 17.5859375 C-0.95695172 11.61229885 -0.5726702 6.29937223 0 0 Z " fill="#A60511" transform="translate(298,281)"/>
<path d="M0 0 C8.91 0 17.82 0 27 0 C27.804375 3.980625 28.60875 7.96125 29.4375 12.0625 C29.68943115 13.30394775 29.9413623 14.54539551 30.20092773 15.82446289 C31.28222565 21.20401778 32.31248724 26.55521501 33 32 C30.94047642 33.29662538 28.87762943 34.58735727 26.8125 35.875 C26.23435547 36.23980469 25.65621094 36.60460937 25.06054688 36.98046875 C21.79721967 39.0085252 18.61940638 40.70492051 15 42 C10.27761489 35.10819432 6.40283735 28.30325531 3.5625 20.4375 C3.19294189 19.44955444 3.19294189 19.44955444 2.81591797 18.44165039 C0.63362818 12.06306704 0.59753042 7.17036498 0 0 Z " fill="#A60410" transform="translate(174,281)"/>
<path d="M0 0 C4.2002771 0.90523213 7.57966461 2.90282094 11.25 5.0625 C11.8996875 5.43955078 12.549375 5.81660156 13.21875 6.20507812 C14.81505091 7.13234115 16.40787529 8.06558456 18 9 C17.27236343 14.52310804 16.14155049 19.82582285 14.81640625 25.23046875 C13.68614024 30.4491611 12.87783904 35.73296576 12 41 C3.09 41 -5.82 41 -15 41 C-15 34.951911 -14.74405878 30.8272584 -12.9375 25.3125 C-12.71852051 24.62768555 -12.49954102 23.94287109 -12.27392578 23.23730469 C-9.46729028 14.87356965 -5.46451199 6.95483345 0 0 Z " fill="#A6030F" transform="translate(189,229)"/>
<path d="M0 0 C9.54137063 12.19618714 13.4436743 25.8611955 15 41 C6.09 41 -2.82 41 -12 41 C-13.8125 31.125 -13.8125 31.125 -14.36254883 28.07861328 C-15.51713123 21.91003313 -17.07396959 15.97207407 -19 10 C-16.40275919 8.32234574 -13.79615063 6.65984649 -11.1875 5 C-10.44951172 4.52304688 -9.71152344 4.04609375 -8.95117188 3.5546875 C-8.23896484 3.10351562 -7.52675781 2.65234375 -6.79296875 2.1875 C-6.1383667 1.76855469 -5.48376465 1.34960938 -4.80932617 0.91796875 C-3 0 -3 0 0 0 Z " fill="#A5020E" transform="translate(311,229)"/>
<path d="M0 0 C4.96491205 2.64295965 8.22433612 5.95035212 10 11.27734375 C10.38758119 17.09106163 10.12512587 21.16350142 7 26.27734375 C2.97238336 30.05479786 -1.08379483 32.62737345 -6.6875 32.90234375 C-12.33240459 32.47946762 -15.63567976 29.82603158 -19.3125 25.65234375 C-22.93460963 20.55455982 -22.94624603 15.38215685 -22 9.27734375 C-17.29815993 1.0103722 -9.33614346 -3.37341121 0 0 Z " fill="#A60410" transform="translate(376,310.72265625)"/>
<path d="M0 0 C4.27023652 2.07516894 6.3979645 5.01718842 8.21484375 9.23046875 C9.65890654 13.95805525 9.40722922 17.85985575 7.74609375 22.56640625 C5.15644923 26.45087303 2.09795334 29.26547646 -2.12890625 31.37890625 C-7.73911731 32.00454222 -12.86934425 31.9982555 -17.65625 28.76171875 C-21.88765188 24.78846605 -23.36226419 20.00709922 -23.69140625 14.31640625 C-23.46852293 9.14232909 -21.74539978 6.00547358 -18.12890625 2.37890625 C-13.3053212 -2.01906835 -6.02345022 -1.75730016 0 0 Z " fill="#A5020E" transform="translate(137.12890625,309.62109375)"/>
<path d="M0 0 C10.89 0 21.78 0 33 0 C33 7.87782626 33 7.87782626 31.94140625 11.55078125 C31.72033203 12.33130859 31.49925781 13.11183594 31.27148438 13.91601562 C31.03751953 14.70685547 30.80355469 15.49769531 30.5625 16.3125 C30.33240234 17.12267578 30.10230469 17.93285156 29.86523438 18.76757812 C28.1760488 24.6479024 28.1760488 24.6479024 27 27 C23.41087618 26.43329624 19.86454066 25.75912831 16.3125 25 C10.92883223 23.98660371 5.45571811 23.49597437 0 23 C0 15.41 0 7.82 0 0 Z " fill="#A80814" transform="translate(255,281)"/>
<path d="M0 0 C10.89 0 21.78 0 33 0 C33.020625 3.609375 33.04125 7.21875 33.0625 10.9375 C33.071604 12.07695068 33.08070801 13.21640137 33.09008789 14.39038086 C33.09258545 15.28120361 33.09508301 16.17202637 33.09765625 17.08984375 C33.10289307 18.00628662 33.10812988 18.92272949 33.11352539 19.86694336 C33 22 33 22 32 23 C29.52006018 23.35512977 27.05146315 23.66200836 24.5625 23.9375 C18.30164692 24.66905187 12.15399059 25.60943482 6 27 C1.77881481 18.15561198 0 9.82025314 0 0 Z " fill="#A80915" transform="translate(212,281)"/>
<path d="M0 0 C1.1328125 2.73828125 1.1328125 2.73828125 2.125 6.3125 C2.45757812 7.46363281 2.79015625 8.61476562 3.1328125 9.80078125 C4.23210849 15.12394877 4.54860703 20.58328434 5 26 C-5.89 26 -16.78 26 -28 26 C-28 18.74 -28 11.48 -28 4 C-18.875 2.625 -18.875 2.625 -16.03466797 2.20556641 C-12.39253275 1.64314936 -9.07249338 1.02460481 -5.5703125 -0.1640625 C-3 -1 -3 -1 0 0 Z " fill="#A60510" transform="translate(283,244)"/>
<path d="M0 0 C0.70382813 0.19335938 1.40765625 0.38671875 2.1328125 0.5859375 C10.04810517 2.67326011 17.88269216 3.94474998 26 5 C26 12.26 26 19.52 26 27 C15.44 27 4.88 27 -6 27 C-4.22323462 8.34396355 -4.22323462 8.34396355 0 0 Z " fill="#A5020D" transform="translate(218,243)"/>
<path d="M0 0 C3.0717718 1.71077974 5.40485654 3.80971307 7 7 C7.52999351 10.78566792 7.83021253 14.44856036 5.98828125 17.890625 C2.90393346 21.70669494 0.54733952 22.7917043 -4.25 23.4375 C-8.60676051 22.92921127 -10.48449662 21.8902267 -13.60546875 18.91015625 C-16.09412249 15.50132801 -16.52533334 12.13607514 -16 8 C-12.31037675 0.75252576 -7.81987467 -1.34549803 0 0 Z " fill="#A60511" transform="translate(254,96)"/>
<path d="M0 0 C11.25 1.125 11.25 1.125 16.625 2.5625 C17.64851563 2.83191406 18.67203125 3.10132813 19.7265625 3.37890625 C20.47679687 3.58386719 21.22703125 3.78882813 22 4 C18.28496368 14.46621908 9.47378525 25.31572885 0 31 C0 20.77 0 10.54 0 0 Z " fill="#A90B16" transform="translate(255,314)"/>
<path d="M0 0 C9.52908743 4.76454372 15.48027619 14.17085753 21 23 C21.33 23.99 21.66 24.98 22 26 C14.14123324 29.06358704 9.02136053 29.30604919 0 30 C0 20.1 0 10.2 0 0 Z " fill="#A80A15" transform="translate(255,207)"/>
<path d="M0 0 C0 9.57 0 19.14 0 29 C-7.11461808 25.44269096 -11.39005636 19.72122718 -15.875 13.3125 C-16.26840576 12.75393311 -16.66181152 12.19536621 -17.06713867 11.61987305 C-18.97988559 8.81476274 -20.48879794 6.38877498 -21 3 C-19.57002103 2.47887968 -18.13024594 1.98465493 -16.6875 1.5 C-15.88699219 1.2215625 -15.08648437 0.943125 -14.26171875 0.65625 C-11 0 -11 0 0 0 Z " fill="#A6030F" transform="translate(244,315)"/>
<path d="M0 0 C0 9.9 0 19.8 0 30 C-5.79200054 30 -9.22151563 29.93958665 -14.5 28.5 C-15.5415625 28.2215625 -16.583125 27.943125 -17.65625 27.65625 C-18.4296875 27.4396875 -19.203125 27.223125 -20 27 C-20 17.03295624 -9.30397163 8.46365963 -2.7890625 1.70703125 C-1 0 -1 0 0 0 Z " fill="#A60511" transform="translate(244,207)"/>
<path d="M0 0 C4.1030686 1.2249741 7.36438139 2.67820521 10.875 5.125 C12.04675781 5.93324219 12.04675781 5.93324219 13.2421875 6.7578125 C14.11230469 7.37269531 14.11230469 7.37269531 15 8 C9.06009474 15.98345064 0.45890739 19.99317473 -8.4375 24 C-9.12360352 24.31501465 -9.80970703 24.6300293 -10.51660156 24.95458984 C-15.40853725 27.07475043 -15.40853725 27.07475043 -18.47265625 26.6875 C-18.97667969 26.460625 -19.48070312 26.23375 -20 26 C-19.31035156 25.29617188 -18.62070312 24.59234375 -17.91015625 23.8671875 C-10.83840188 16.49082315 -5.24607324 8.75640867 0 0 Z " fill="#A70713" transform="translate(287,323)"/>
<path d="M0 0 C1.5066567 2.09963805 2.82129012 4.15410729 4.125 6.375 C7.64348836 12.13232687 11.48087929 17.10956468 16.15234375 22.01171875 C18 24 18 24 20 27 C14.3017505 26.4697566 9.83032437 24.90621861 4.6875 22.4375 C3.94636963 22.08469971 3.20523926 21.73189941 2.44165039 21.3684082 C-3.57598992 18.40388849 -9.45992873 15.03088979 -14 10 C-14 9.01 -14 8.02 -14 7 C-12.1015625 5.4296875 -12.1015625 5.4296875 -9.625 3.875 C-8.81289062 3.35679687 -8.00078125 2.83859375 -7.1640625 2.3046875 C-3.34131737 0 -3.34131737 0 0 0 Z " fill="#A80814" transform="translate(213,323)"/>
<path d="M0 0 C12.54786868 1.79255267 24.61150606 8.65467205 34 17 C32.64625203 21.06124391 30.73741172 21.60315649 27.0625 23.6875 C25.98097656 24.31011719 24.89945312 24.93273437 23.78515625 25.57421875 C21 27 21 27 19 27 C17.73828125 25.12890625 17.73828125 25.12890625 16.3125 22.5625 C12.61423463 16.19426743 8.43926931 10.25549054 3.125 5.125 C1 3 1 3 0 0 Z " fill="#A80814" transform="translate(268,202)"/>
<path d="M0 0 C-0.6290625 0.64324219 -1.258125 1.28648437 -1.90625 1.94921875 C-8.85705345 9.28734107 -14.45651269 16.91302538 -19 26 C-24.80342274 24.51194289 -29.17590879 21.40902445 -34 18 C-32.49979489 13.67587939 -29.27918457 11.86121593 -25.5625 9.5625 C-24.94012451 9.16998047 -24.31774902 8.77746094 -23.67651367 8.37304688 C-6.74893697 -2.09449768 -6.74893697 -2.09449768 0 0 Z " fill="#A70713" transform="translate(232,203)"/>
</svg>
