<?xml version="1.0" encoding="UTF-8"?>
<svg version="1.1" xmlns="http://www.w3.org/2000/svg" width="500" height="500">
<path d="M0 0 C165 0 330 0 500 0 C500 165 500 330 500 500 C335 500 170 500 0 500 C0 335 0 170 0 0 Z " fill="#A5000C" transform="translate(0,0)"/>
<path d="M0 0 C2.59208781 1.70669581 4.52162973 3.80254211 6.5625 6.125 C7.68955968 7.329855 8.81845291 8.53299759 9.94921875 9.734375 C10.47950684 10.30865234 11.00979492 10.88292969 11.55615234 11.47460938 C13.22952155 13.24248405 15.00056424 14.82317955 16.875 16.375 C21.04652449 19.92752408 24.92177424 23.7711619 28.8125 27.625 C29.47169434 28.27130371 30.13088867 28.91760742 30.81005859 29.58349609 C38.51515052 37.27272168 38.51515052 37.27272168 39.5 42.8125 C38.34496084 50.17587466 32.72109008 55.71897773 27.59266663 60.7882843 C26.96376083 61.42187007 26.33485504 62.05545583 25.6868915 62.70824116 C23.59526395 64.81175503 21.49317409 66.90447606 19.39086914 68.99731445 C17.88202287 70.51022915 16.37381484 72.02378058 14.86619568 73.53791809 C10.78230348 77.63545491 6.68901719 81.72348381 2.59353948 85.80943704 C-1.69495193 90.09031992 -5.97610398 94.37853257 -10.25843811 98.66557312 C-17.44807285 105.86066073 -24.64399887 113.0494108 -31.84350586 120.23461914 C-40.16581669 128.54059203 -48.47724828 136.85733387 -56.78313535 145.17972785 C-63.91915091 152.32935673 -71.06099538 159.4731235 -78.20774561 166.6120221 C-82.47437033 170.87397109 -86.73894527 175.13791801 -90.99827385 179.40715981 C-95.00109515 183.41864659 -99.01118326 187.42272425 -103.02699852 191.42120171 C-104.49936071 192.88959741 -105.96917643 194.36055156 -107.43624496 195.83423615 C-109.43919926 197.84538881 -111.45116711 199.84707187 -113.46568298 201.84663391 C-114.04400137 202.43164447 -114.62231976 203.01665502 -115.21816295 203.61939317 C-119.40657068 207.7477118 -123.25832507 210.89845648 -129.375 211.125 C-137.3924801 208.63681652 -143.50648636 200.63911533 -149.32788086 194.80151367 C-150.11748199 194.01366486 -150.90708313 193.22581604 -151.72061157 192.41409302 C-154.30452697 189.83454476 -156.88480805 187.25139699 -159.46484375 184.66796875 C-161.26690813 182.86657848 -163.0691209 181.06533663 -164.87147522 179.26423645 C-168.63445003 175.50273129 -172.39566946 171.73948307 -176.15551758 167.97485352 C-180.50266112 163.62224558 -184.85342736 159.27328371 -189.20604604 154.92615145 C-193.4029305 150.73434512 -197.59700824 146.53973935 -201.78988838 142.34392738 C-203.57181894 140.56132849 -205.35449607 138.77947558 -207.13792229 136.99837303 C-209.62033038 134.51849212 -212.0995315 132.03544989 -214.57788086 129.55151367 C-215.68975014 128.44268074 -215.68975014 128.44268074 -216.82408142 127.31144714 C-217.83112122 126.30017761 -217.83112122 126.30017761 -218.85850525 125.26847839 C-219.44451476 124.68209186 -220.03052427 124.09570532 -220.63429165 123.49154949 C-223.40969338 120.46041254 -223.53321978 117.51202554 -223.45257568 113.53799438 C-222.91254453 110.5095594 -221.99854946 109.38032091 -219.91503906 107.14990234 C-219.27763794 106.4606366 -218.64023682 105.77137085 -217.98352051 105.06121826 C-217.32895874 104.38101624 -216.67439697 103.70081421 -216 103 C-215.1249884 102.08580292 -215.1249884 102.08580292 -214.2322998 101.15313721 C-212.45775787 99.32716743 -210.6627921 97.52400172 -208.859375 95.7265625 C-207.88608246 94.75183487 -207.88608246 94.75183487 -206.89312744 93.75741577 C-205.53642399 92.40003791 -204.17848145 91.04389746 -202.81933594 89.68896484 C-200.73775892 87.61279069 -198.66163395 85.53127037 -196.5859375 83.44921875 C-195.26073756 82.12467887 -193.93522785 80.80044882 -192.609375 79.4765625 C-191.68121979 78.54537094 -191.68121979 78.54537094 -190.73431396 77.59536743 C-189.86761078 76.73339249 -189.86761078 76.73339249 -188.98339844 75.85400391 C-188.47822693 75.34962799 -187.97305542 74.84525208 -187.45257568 74.32559204 C-184.15065082 71.31232026 -181.6209415 70.43139522 -177.15710449 70.5640564 C-169.58913782 72.09351715 -163.08623146 80.65076415 -157.90625 85.8984375 C-157.07411987 86.73339752 -156.24198975 87.56835754 -155.38464355 88.42861938 C-152.75165845 91.07271818 -150.1257485 93.72371669 -147.5 96.375 C-145.70619369 98.17884748 -143.91192739 99.98223764 -142.1171875 101.78515625 C-137.73945785 106.18482928 -133.36750155 110.59017473 -129 115 C-125.36856771 113.46714292 -123.06075889 111.3028493 -120.29394531 108.52099609 C-119.60701536 107.83451272 -119.60701536 107.83451272 -118.90620804 107.134161 C-117.37538673 105.60195255 -115.85183029 104.06272018 -114.328125 102.5234375 C-113.23103596 101.42250953 -112.13349023 100.32203648 -111.03552246 99.22198486 C-108.67326896 96.85341112 -106.31415832 94.48176598 -103.95739746 92.10772705 C-100.23130539 88.35459684 -96.49760288 84.60910086 -92.76269531 80.86474609 C-84.83587426 72.91572162 -76.91751482 64.95829223 -69 57 C-60.4526627 48.40864153 -51.90390995 39.8187219 -43.34536362 31.2385273 C-39.6321795 27.51537175 -35.92392868 23.78739161 -32.21936035 20.05566406 C-29.91477982 17.73617477 -27.60607225 15.42082753 -25.29621887 13.10659027 C-24.22538227 12.0320066 -23.15627754 10.9556939 -22.08903503 9.87754059 C-20.63262346 8.40670989 -19.17016648 6.94216387 -17.70605469 5.47900391 C-16.88901062 4.65751862 -16.07196655 3.83603333 -15.23016357 2.98965454 C-10.34882483 -1.3652627 -6.20328236 -1.83554286 0 0 Z " fill="#FDFBFC" transform="translate(376,133)"/>
<path d="M0 0 C6.59684111 5.011062 11.83337944 10.80410777 16.4375 17.6640625 C20.2583881 23.0591565 23.99817698 26.12393925 30.4375 27.8515625 C35.31699818 28.35717842 40.03947843 28.35600069 44.8515625 27.34375 C56.43130538 25.1397506 69.44036029 26.40936236 79.4375 32.8515625 C78.16829864 35.2482729 76.89719813 37.64394343 75.625 40.0390625 C75.26857422 40.71259766 74.91214844 41.38613281 74.54492188 42.08007812 C72.60253568 45.73318977 70.60738955 49.32634762 68.4375 52.8515625 C67.468125 52.5215625 66.49875 52.1915625 65.5 51.8515625 C59.94292816 50.27183038 54.55231747 50.55474601 48.875 51.3515625 C33.69940991 53.41957878 20.28145978 51.56710664 7.4375 42.8515625 C1.22138875 37.58967885 -3.47591521 31.72478104 -7.9765625 24.984375 C-11.21051005 20.63527313 -15.49432135 18.58674492 -20.5625 16.8515625 C-28.51154089 15.84216048 -35.47521224 16.04782956 -42.19140625 20.6796875 C-47.03633178 25.1175435 -50.7029725 30.56871011 -54.5625 35.8515625 C-60.59694208 43.73268926 -70.91694486 49.2341258 -80.515625 51.5703125 C-84.43741229 51.93232363 -88.31360279 51.99694074 -92.25 51.9765625 C-93.00861328 51.98042969 -93.76722656 51.98429687 -94.54882812 51.98828125 C-97.8102639 51.98252408 -100.44763748 51.88985001 -103.5625 50.8515625 C-112.00447936 49.95211264 -118.55817852 50.90733558 -125.5625 55.8515625 C-130.75551668 60.37486667 -134.08251711 66.05173362 -134.7734375 72.9609375 C-134.82484584 75.69586145 -134.6917746 78.29650253 -134.0703125 80.96484375 C-131.34946883 96.43179356 -133.45455945 110.46014322 -142.125 123.6015625 C-146.70762977 129.56943587 -152.43983423 133.5868091 -158.5625 137.8515625 C-164.07217793 142.05795967 -166.86492664 146.06126905 -168.5625 152.8515625 C-169.41715291 160.64658649 -167.84840592 167.35126906 -163.5625 173.9140625 C-160.30452896 177.487958 -156.19990965 180.0701837 -152.27734375 182.85546875 C-142.79751726 189.82552823 -136.23929652 199.31647832 -133.5625 210.8515625 C-133.21094304 214.65557173 -133.23053037 218.4098516 -133.3125 222.2265625 C-133.31765625 223.21011719 -133.3228125 224.19367188 -133.328125 225.20703125 C-133.40666991 232.38407222 -133.40666991 232.38407222 -134.5625 235.8515625 C-135.42467927 242.76313072 -134.16586286 248.88109691 -130.5625 254.8515625 C-125.91549704 260.04476171 -121.02324109 264.47342496 -113.84375 265.08203125 C-112.9259375 265.06785156 -112.008125 265.05367188 -111.0625 265.0390625 C-110.1446875 265.03261719 -109.226875 265.02617187 -108.28125 265.01953125 C-105.61085698 264.92260969 -105.61085698 264.92260969 -103.23828125 264.3515625 C-99.57829297 263.66765228 -95.95923214 263.6673248 -92.25 263.6640625 C-91.52876953 263.65181641 -90.80753906 263.63957031 -90.06445312 263.62695312 C-77.78873986 263.5939243 -65.54221964 268.55376555 -56.6875 277.1015625 C-52.86279756 281.23790737 -49.71104617 285.78656855 -46.48046875 290.390625 C-43.22319197 294.5700229 -39.62754526 297.16321408 -34.5625 298.8515625 C-25.61907614 299.6656583 -17.89101497 299.46691813 -10.5625 293.8515625 C-8.82670562 291.98009684 -7.40209036 290.07943245 -5.98046875 287.9609375 C1.54281357 276.76927785 12.59007262 266.98446711 26.078125 264.125 C33.28338329 263.28995351 40.62369623 263.57263274 47.8359375 264.22265625 C59.65808622 265.30890886 59.65808622 265.30890886 70.4375 260.8515625 C75.48751662 256.3842401 79.16539376 250.94191196 79.765625 244.125 C79.73984375 242.83851563 79.7140625 241.55203125 79.6875 240.2265625 C79.67203125 238.93492187 79.6565625 237.64328125 79.640625 236.3125 C79.47920571 233.5621636 79.10589166 231.47331585 78.4375 228.8515625 C77.3534808 214.06625143 80.72758923 201.98691249 89.4375 189.8515625 C93.67498667 185.24388648 98.43964682 181.83737189 103.6875 178.4765625 C108.97411976 174.80392634 111.7783806 171.10644263 113.4375 164.8515625 C114.31567248 157.92863611 114.88680463 151.20085672 110.9375 145.1640625 C110.24140625 144.32294922 110.24140625 144.32294922 109.53125 143.46484375 C108.4375 141.8515625 108.4375 141.8515625 108.4375 137.8515625 C109.72265625 136.11230469 109.72265625 136.11230469 111.5 134.3984375 C112.13164062 133.7796875 112.76328125 133.1609375 113.4140625 132.5234375 C114.41566406 131.57210937 114.41566406 131.57210937 115.4375 130.6015625 C116.43910156 129.62703125 116.43910156 129.62703125 117.4609375 128.6328125 C119.11118018 127.02971961 120.77001791 125.43668416 122.4375 123.8515625 C130.31472245 127.5937733 133.31328193 135.25681045 136.45703125 143.01953125 C140.82884589 155.6472827 138.60203381 167.94179324 133.4375 179.8515625 C128.84662046 188.67122404 122.04538746 195.18371932 113.8125 200.6015625 C107.75615067 204.89744311 104.64748668 209.78685098 102.4375 216.8515625 C101.88166316 221.00922205 101.52597473 225.02851195 103.4375 228.8515625 C105.01880573 245.57937518 103.17737078 258.82210796 92.6640625 272.34765625 C85.44595172 280.46486504 76.17326089 286.5852739 65.4375 288.8515625 C63.88606455 288.94108463 62.33135834 288.98217807 60.77734375 288.984375 C59.90142578 288.98566406 59.02550781 288.98695313 58.12304688 288.98828125 C56.76276367 288.98248047 56.76276367 288.98248047 55.375 288.9765625 C54.46427734 288.98042969 53.55355469 288.98429687 52.61523438 288.98828125 C51.74060547 288.98699219 50.86597656 288.98570312 49.96484375 288.984375 C49.16812256 288.98324707 48.37140137 288.98211914 47.55053711 288.98095703 C45.4375 288.8515625 45.4375 288.8515625 42.4375 287.8515625 C34.09580588 286.96279753 27.26573136 287.73633691 20.4375 292.8515625 C17.80218841 295.65758254 15.64996394 298.70891777 13.4375 301.8515625 C4.43641187 312.97650289 -5.13367485 320.19844062 -19.5625 322.8515625 C-34.89823082 324.4267813 -47.2195043 321.38080538 -59.5625 311.8515625 C-63.7876349 307.78724588 -67.29369434 303.25858648 -70.75 298.5390625 C-75.2884302 292.42310309 -80.14138109 289.44598931 -87.5625 287.8515625 C-91.71422826 287.50609923 -95.74093046 287.45515877 -99.82421875 288.34375 C-113.76118014 290.92835054 -125.41309235 288.44271962 -137.375 280.9765625 C-148.89233011 272.78553711 -155.85806928 261.7909711 -158.5625 247.8515625 C-159.1405029 241.46675658 -159.12937509 235.08233924 -157.5625 228.8515625 C-156.66158932 217.1130088 -156.66158932 217.1130088 -161.5625 206.8515625 C-165.73477625 202.55411796 -170.3878825 198.97480437 -175.1875 195.4140625 C-184.14615896 188.48436811 -189.81634455 179.07072735 -192.17578125 167.96484375 C-194.02555359 153.07324217 -192.02981221 140.98424302 -183.546875 128.38671875 C-179.25082865 122.89826584 -173.91030691 118.80632008 -168.3125 114.7265625 C-162.78241241 110.65060152 -159.40703431 106.61485495 -157.5625 99.8515625 C-157.2860084 96.59118604 -157.2860084 96.59118604 -157.375 93.2890625 C-157.38466797 91.64744141 -157.38466797 91.64744141 -157.39453125 89.97265625 C-157.48281434 86.94470682 -157.48281434 86.94470682 -158.0546875 84.390625 C-160.59958846 71.66612022 -157.87227208 60.00160749 -151.25 49.0390625 C-144.18634068 38.6522048 -134.3979797 30.93045368 -122.18359375 27.27734375 C-114.09284052 25.96304852 -105.59193135 26.42410804 -97.5625 27.8515625 C-88.80198667 28.57580208 -81.37922869 27.44924128 -74.4375 21.7890625 C-71.51551424 19.05764103 -69.2921451 16.16576347 -67.0625 12.8515625 C-52.57133361 -8.57720928 -21.62965157 -14.07313868 0 0 Z " fill="#FEFCFC" transform="translate(276.5625,92.1484375)"/>
<path d="M0 0 C1.11102333 0.94930195 2.22161661 1.89910723 3.33203125 2.84912109 C3.95053955 3.3779892 4.56904785 3.9068573 5.20629883 4.45175171 C7.52683392 6.45474114 9.78425709 8.50657012 12 10.625 C13.175625 11.72714844 13.175625 11.72714844 14.375 12.8515625 C16 15 16 15 15.93177128 16.78152084 C14.56245913 20.04175276 12.19781057 22.20415269 9.71665955 24.644104 C9.160442 25.20288482 8.60422445 25.76166564 8.03115183 26.33737922 C6.16186172 28.21161848 4.2820361 30.0749207 2.40209961 31.93847656 C1.06142345 33.2783067 -0.27859284 34.6187974 -1.61799622 35.9598999 C-5.25989315 39.60265917 -8.91097972 43.23608126 -12.56375051 46.86793232 C-16.37812386 50.66357863 -20.18402883 54.46769654 -23.99082947 58.27093506 C-31.20257797 65.47335143 -38.4219412 72.66808499 -45.64405197 79.86010909 C-53.86505597 88.04760549 -62.07756441 96.24360066 -70.28936017 104.44033098 C-87.18345161 121.30304693 -104.0882167 138.15502876 -121 155 C-125.22142465 153.06558523 -128.10074202 150.16605372 -131.32910156 146.89794922 C-131.95391418 146.27342865 -132.57872681 145.64890808 -133.22247314 145.00546265 C-135.28330069 142.9432435 -137.33695653 140.8740341 -139.390625 138.8046875 C-140.81936725 137.37221453 -142.24855215 135.94018293 -143.67816162 134.50857544 C-147.43742017 130.74168516 -151.19063357 126.96882707 -154.94262695 123.19470215 C-158.77322817 119.34363269 -162.60950595 115.49822729 -166.4453125 111.65234375 C-173.96911378 104.10710066 -181.48654202 96.55554189 -189 89 C-188.05893615 87.8921646 -187.11643273 86.78555197 -186.17333984 85.67944336 C-185.64864105 85.06306503 -185.12394226 84.44668671 -184.58334351 83.81163025 C-182.37254722 81.28208097 -180.01599944 78.92118864 -177.625 76.5625 C-176.75101563 75.69753906 -175.87703125 74.83257812 -174.9765625 73.94140625 C-174.32429687 73.30074219 -173.67203125 72.66007812 -173 72 C-167.477409 76.59297382 -162.40236746 81.49453287 -157.36328125 86.609375 C-155.71823155 88.26705867 -154.07304525 89.9246068 -152.42773438 91.58203125 C-149.85834085 94.17632725 -147.29058151 96.77220186 -144.7253418 99.37060547 C-142.23401962 101.89206365 -139.73657002 104.40732196 -137.23828125 106.921875 C-136.47155594 107.70205994 -135.70483063 108.48224487 -134.91487122 109.28607178 C-134.19699936 110.00732239 -133.4791275 110.728573 -132.73950195 111.47167969 C-131.79854424 112.42382355 -131.79854424 112.42382355 -130.83857727 113.39520264 C-127.66479038 116.16543422 -125.61369023 116.9682574 -121.375 117.1875 C-117.3908971 116.55353108 -115.33445611 114.82078873 -112.41140747 112.10353088 C-111.53246952 111.28718737 -110.65353157 110.47084385 -109.74795914 109.62976265 C-105.11805175 105.19899898 -100.56508475 100.6958939 -96.04248047 96.15600586 C-94.98704686 95.10028938 -93.93139142 94.04479463 -92.87553406 92.98950195 C-90.04132982 90.15558178 -87.21019486 87.31861397 -84.37964773 84.48104167 C-81.40929956 81.50439422 -78.43607305 78.53062449 -75.46316528 75.55653381 C-69.84805393 69.93832837 -64.23549405 64.31758131 -58.62387192 58.69589096 C-52.22914282 52.28994065 -45.83153559 45.88686797 -39.43369842 39.48402202 C-26.28595262 26.32585543 -13.1417819 13.16412292 0 0 Z " fill="#A5010D" transform="translate(370,160)"/>
</svg>
