<?xml version="1.0" encoding="UTF-8"?>
<svg version="1.1" xmlns="http://www.w3.org/2000/svg" width="500" height="500">
<path d="M0 0 C165 0 330 0 500 0 C500 165 500 330 500 500 C335 500 170 500 0 500 C0 335 0 170 0 0 Z " fill="#A5000C" transform="translate(0,0)"/>
<path d="M0 0 C13.51559931 10.17034429 23.52230377 25.13260645 26 42 C27.68342449 60.69135608 23.06297484 77.68203484 12 93 C12.67804688 93.3403125 13.35609375 93.680625 14.0546875 94.03125 C21.06028304 97.67959338 27.0218168 101.85554124 33 107 C33.82371094 107.68964844 34.64742187 108.37929688 35.49609375 109.08984375 C47.10851424 119.10804739 55.14266117 130.43897819 62 144 C62.74056641 145.45986328 62.74056641 145.45986328 63.49609375 146.94921875 C70.30693165 161.82273079 75.65253587 181.96672222 71.11328125 198.1640625 C68.19230846 204.74352945 63.96790321 208.44117803 57.3490181 211.04145908 C53.57727206 212.12099129 50.39666569 212.26029624 46.4743042 212.27415466 C45.73711033 212.27939134 44.99991646 212.28462802 44.24038339 212.29002339 C41.78096824 212.30497252 39.32176207 212.30572741 36.86230469 212.30639648 C35.09441275 212.31402144 33.32652412 212.32244951 31.55863953 212.33161926 C26.76301535 212.35353895 21.96745492 212.36235985 17.17178631 212.36744571 C14.17290939 212.37109249 11.1740491 212.37733426 8.17517853 212.3844471 C-2.29484285 212.40893352 -12.76481474 212.4219916 -23.23486328 212.42553711 C-32.98130948 212.42917098 -42.72744051 212.45905788 -52.47379041 212.50094169 C-60.85192859 212.53567851 -69.2299625 212.55108614 -77.60817218 212.55178314 C-82.60745637 212.55257485 -87.60641943 212.56126435 -92.60562897 212.58978081 C-97.31060874 212.61601933 -102.01500245 212.61813446 -106.7200222 212.60212517 C-108.44127624 212.60031523 -110.16256442 212.6069601 -111.88374519 212.62294388 C-122.40569693 212.71465453 -131.47713438 212.38125368 -139.4375 204.625 C-139.953125 203.75875 -140.46875 202.8925 -141 202 C-141.5775 201.05125 -142.155 200.1025 -142.75 199.125 C-148.62623479 184.11154298 -142.02688542 162.03149385 -135.87109375 147.92919922 C-125.8994746 125.8451929 -108.80082653 103.91340284 -86 94 C-85.34 94 -84.68 94 -84 94 C-84.60328125 93.10539062 -85.2065625 92.21078125 -85.828125 91.2890625 C-90.38745268 84.42961063 -94.39798937 77.87344148 -97 70 C-97.53173828 68.75089844 -97.53173828 68.75089844 -98.07421875 67.4765625 C-101.34589628 55.19051607 -100.72433639 38.37689427 -95 27 C-94.59910156 26.10023438 -94.19820312 25.20046875 -93.78515625 24.2734375 C-86.03052438 8.31462989 -72.01081652 -2.18838069 -56 -9 C-37.5279898 -15.14943461 -15.85542061 -10.54939053 0 0 Z " fill="#FDF9FA" transform="translate(286,206)"/>
<path d="M0 0 C2.93580552 1.3846175 5.78960356 2.85901948 8.65234375 4.38476562 C21.11501517 10.86261571 37.38896629 11.23598861 50.87011719 7.4597168 C56.65726282 5.59150892 62.0563412 3.25495324 67.10546875 -0.1796875 C69.77982026 -1.33765413 71.24186357 -0.84705249 74 0 C96.46694271 10.11362374 113.67200281 28.79409626 122.75390625 51.51171875 C127.09947156 63.67657712 130.38516949 75.97191943 129 89 C126.90784488 92.67930728 125.98851981 93.6704934 122 95 C119.65275207 95.10099536 117.30268451 95.13942399 114.95327759 95.14717102 C113.87054127 95.15268605 113.87054127 95.15268605 112.76593149 95.1583125 C110.34085471 95.16934879 107.91582079 95.17319304 105.49072266 95.17700195 C103.75457116 95.18326652 102.01842102 95.18991332 100.28227234 95.19691467 C95.56119512 95.21432202 90.84012802 95.2248752 86.11902666 95.2331202 C83.17063121 95.23826978 80.2222389 95.24434545 77.27384567 95.25063133 C68.05224002 95.26968067 58.83064238 95.28391368 49.60902083 95.2922433 C38.95771176 95.30202288 28.30661012 95.32836225 17.65537417 95.36874419 C9.42600247 95.39887585 1.19669034 95.41370927 -7.03273547 95.41702431 C-11.94970628 95.4193777 -16.86645542 95.42837586 -21.78336716 95.45348549 C-26.40778191 95.47672039 -31.03182831 95.48101799 -35.65628624 95.47072411 C-37.35383642 95.47022756 -39.05140446 95.47658303 -40.74889946 95.49028015 C-43.06614687 95.50793261 -45.38206271 95.500927 -47.6993103 95.48774719 C-48.99606375 95.49013555 -50.29281719 95.4925239 -51.6288662 95.49498463 C-55.56726355 94.91670852 -57.2060265 93.77846476 -60 91 C-64.67573051 81.64853899 -59.72668116 65.90896917 -56.8125 56.5625 C-49.68449226 35.5894514 -34.96282656 16.60148085 -16 5 C-15.04609375 4.40960938 -14.0921875 3.81921875 -13.109375 3.2109375 C-4.85426163 -1.62293905 -4.85426163 -1.62293905 0 0 Z " fill="#A5010D" transform="translate(216,310)"/>
<path d="M0 0 C10.23876445 7.91021601 18.63499835 18.49736143 21.12109375 31.5703125 C22.75080589 48.51931872 19.09754303 62.10028328 8.5859375 75.4921875 C-0.04813882 85.02564677 -11.59359932 90.20910273 -24.29296875 91.04296875 C-39.27472445 91.32564339 -51.90707503 87.9205871 -63.171875 77.48046875 C-68.26359837 72.12827768 -71.87220808 66.63148481 -74.6640625 59.8046875 C-74.92155273 59.23484131 -75.17904297 58.66499512 -75.44433594 58.07788086 C-77.77550839 52.56802586 -78.20744976 47.56449606 -78.1640625 41.6171875 C-78.15761719 40.69244629 -78.15117187 39.76770508 -78.14453125 38.81494141 C-77.80943597 26.19375416 -73.04584492 16.1957945 -64.6640625 6.8046875 C-59.2938216 1.73326764 -53.54738721 -2.46571822 -46.6640625 -5.1953125 C-45.56191406 -5.64197266 -45.56191406 -5.64197266 -44.4375 -6.09765625 C-30.01660393 -11.19429216 -12.65481352 -8.45055654 0 0 Z " fill="#A5010D" transform="translate(277.6640625,216.1953125)"/>
<path d="M0 0 C3.0625 0.5625 3.0625 0.5625 4.98828125 2.80078125 C8.12327016 7.84382923 9.5822025 13.67942035 11.3125 19.3125 C11.67601562 20.46105469 12.03953125 21.60960938 12.4140625 22.79296875 C15.0625 31.24606438 15.0625 31.24606438 15.0625 33.5625 C16.53058105 33.53893433 16.53058105 33.53893433 18.02832031 33.51489258 C21.66609438 33.4605143 25.30383264 33.42612152 28.94189453 33.39770508 C30.51519822 33.38263636 32.08846002 33.36217755 33.66162109 33.33618164 C35.92556096 33.29971262 38.18894457 33.28275492 40.453125 33.26953125 C41.15431458 33.25404739 41.85550415 33.23856354 42.57794189 33.22261047 C45.6466929 33.22155751 47.76604993 33.40097119 50.48339844 34.8815918 C52.0625 36.5625 52.0625 36.5625 52.9375 39.75 C51.53000095 45.88267444 47.04946999 48.0809135 42.0625 51.5625 C40.83532524 52.45832093 39.61014392 53.35687749 38.38671875 54.2578125 C28.66377141 61.3620762 28.66377141 61.3620762 25.0625 62.5625 C25.3706665 63.43986816 25.67883301 64.31723633 25.99633789 65.22119141 C27.13853369 68.49394262 28.26824601 71.77046979 29.38989258 75.05029297 C29.87685255 76.46605105 30.36865756 77.88015264 30.86547852 79.29248047 C31.58084125 81.32878885 32.27827911 83.37051719 32.97265625 85.4140625 C33.39683838 86.63947754 33.82102051 87.86489258 34.25805664 89.12744141 C35.11207374 92.77418512 35.15311341 94.99221378 34.0625 98.5625 C31.0625 100.5625 31.0625 100.5625 27.76953125 100.4765625 C23.58221058 99.44407247 20.97253067 97.6567589 17.75 94.9375 C16.61944289 94.03266176 15.48792191 93.1290266 14.35546875 92.2265625 C13.80165527 91.77829102 13.2478418 91.33001953 12.67724609 90.86816406 C10.33507769 88.97431517 7.97178573 87.12036463 5.5625 85.3125 C4.8096875 84.72984375 4.056875 84.1471875 3.28125 83.546875 C1.07244751 82.27450374 1.07244751 82.27450374 -1.29248047 83.30175781 C-3.95174782 84.56929119 -6.12285892 85.98383822 -8.4765625 87.75 C-9.30414063 88.36617188 -10.13171875 88.98234375 -10.984375 89.6171875 C-11.83515625 90.25914062 -12.6859375 90.90109375 -13.5625 91.5625 C-15.26267209 92.83379985 -16.96317874 94.10465244 -18.6640625 95.375 C-19.41252441 95.93832031 -20.16098633 96.50164062 -20.93212891 97.08203125 C-25.67185419 100.58114181 -25.67185419 100.58114181 -29.5 100.3125 C-32.9375 99.5625 -32.9375 99.5625 -34.9375 97.5625 C-34.72454841 89.85920771 -31.86436442 82.78280047 -29.375 75.5625 C-28.94526298 74.29841503 -28.51622069 73.03409365 -28.08789062 71.76953125 C-27.04455272 68.69813202 -25.9942602 65.62930152 -24.9375 62.5625 C-25.51709473 62.28704346 -26.09668945 62.01158691 -26.69384766 61.7277832 C-28.8812094 60.59173559 -30.82293149 59.33720504 -32.8359375 57.91796875 C-33.56296875 57.40556641 -34.29 56.89316406 -35.0390625 56.36523438 C-35.78929687 55.83220703 -36.53953125 55.29917969 -37.3125 54.75 C-38.055 54.22857422 -38.7975 53.70714844 -39.5625 53.16992188 C-51.77040661 44.53164167 -51.77040661 44.53164167 -52.5625 39.9375 C-51.9375 36.5625 -51.9375 36.5625 -50.37402344 34.86987305 C-47.04278783 33.08242148 -44.01015297 33.18822372 -40.328125 33.26953125 C-39.60131531 33.27377609 -38.87450562 33.27802094 -38.12567139 33.28239441 C-35.81256496 33.2991387 -33.50034145 33.33678115 -31.1875 33.375 C-29.61589803 33.39005242 -28.04428236 33.40373985 -26.47265625 33.41601562 C-22.62726585 33.44902805 -18.78253244 33.50077944 -14.9375 33.5625 C-14.67839844 32.30179688 -14.41929687 31.04109375 -14.15234375 29.7421875 C-12.93483504 24.27464178 -11.26677823 18.99908805 -9.5 13.6875 C-9.05043945 12.28371094 -9.05043945 12.28371094 -8.59179688 10.8515625 C-8.29466797 9.954375 -7.99753906 9.0571875 -7.69140625 8.1328125 C-7.42658447 7.32602051 -7.1617627 6.51922852 -6.88891602 5.68798828 C-5.27560027 2.08379869 -3.8958172 0.74600755 0 0 Z " fill="#FCF8F8" transform="translate(249.9375,81.4375)"/>
<path d="M0 0 C3.39820014 3.56926432 4.9090031 6.94223056 6.359375 11.61328125 C6.94912109 13.4840332 6.94912109 13.4840332 7.55078125 15.39257812 C7.95076082 16.69914531 8.35049742 18.00578689 8.75 19.3125 C9.16435526 20.63898758 9.57971037 21.96516327 9.99609375 23.29101562 C11.00726563 26.52441406 12.00815557 29.76063101 13 33 C14.52137573 33.02187378 14.52137573 33.02187378 16.07348633 33.04418945 C19.83654029 33.10216253 23.59899521 33.17939459 27.36157227 33.26245117 C28.99005409 33.29570536 30.61865131 33.32373584 32.24731445 33.34643555 C34.58855361 33.37997357 36.92873486 33.43228585 39.26953125 33.48828125 C39.99775589 33.49467117 40.72598053 33.5010611 41.47627258 33.50764465 C46.50837174 33.65402121 46.50837174 33.65402121 48.95800781 35.37792969 C50.48075766 37.74839595 50.4378472 39.24113757 50 42 C43.74366551 50.28830637 32.50033277 56.15647866 24 62 C24.61052569 67.26149668 25.79637832 72.0338735 27.4375 77.0625 C27.76331055 78.0844043 27.76331055 78.0844043 28.09570312 79.12695312 C29.077419 82.19592077 30.08636399 85.25048526 31.13671875 88.296875 C32.13699673 91.42896714 32.43529209 93.73530935 32 97 C30.375 98.9375 30.375 98.9375 28 100 C21.74913724 99.90557609 17.76470072 96.30820079 13 92.6875 C11.43816064 91.52385236 9.87567404 90.36107285 8.3125 89.19921875 C7.57773437 88.64927246 6.84296875 88.09932617 6.0859375 87.53271484 C3.44679343 85.59351231 0.74671018 83.78272055 -2 82 C-4.83276719 83.34274898 -7.34939535 84.85768525 -9.8984375 86.6796875 C-10.62546875 87.19660156 -11.3525 87.71351563 -12.1015625 88.24609375 C-12.85179687 88.78363281 -13.60203125 89.32117188 -14.375 89.875 C-17.24543899 91.92317782 -20.11886298 93.96689313 -23 96 C-23.58789307 96.41548096 -24.17578613 96.83096191 -24.78149414 97.2590332 C-27.16734017 98.90468433 -28.78860795 99.96558734 -31.6875 100.4375 C-34 100 -34 100 -35.8125 98.9375 C-37.61560431 95.99559297 -37.43695525 93.3187706 -37 90 C-35.53202193 84.78233071 -33.60893819 79.71951286 -31.75585938 74.62890625 C-31.39169922 73.59378906 -31.02753906 72.55867188 -30.65234375 71.4921875 C-30.31195068 70.55745605 -29.97155762 69.62272461 -29.62084961 68.65966797 C-28.91339277 65.62898184 -28.9655424 63.92948614 -30 61 C-31.53698528 59.32992263 -31.53698528 59.32992263 -33.5703125 58.0625 C-34.3025 57.55976563 -35.0346875 57.05703125 -35.7890625 56.5390625 C-36.94535156 55.77722656 -36.94535156 55.77722656 -38.125 55 C-39.62765008 53.97923425 -41.13025473 52.95840162 -42.6328125 51.9375 C-44.77388566 50.49360818 -46.916665 49.0546096 -49.07666016 47.63916016 C-53.87587179 44.39996869 -53.87587179 44.39996869 -55.125 40.375 C-55 37 -55 37 -53.9753418 35.30737305 C-50.92661565 33.28958433 -47.79908215 33.63198427 -44.26953125 33.70703125 C-43.51911057 33.71127609 -42.76868988 33.71552094 -41.99552917 33.71989441 C-39.60081974 33.7366755 -37.20695466 33.7743251 -34.8125 33.8125 C-33.1881632 33.82754765 -31.5638132 33.84123591 -29.93945312 33.85351562 C-25.95931052 33.88657695 -21.97979837 33.93835406 -18 34 C-17.82404297 33.33427979 -17.64808594 32.66855957 -17.46679688 31.98266602 C-15.65896129 25.23691398 -13.67555913 18.57343037 -11.5 11.9375 C-11.20480469 11.00228516 -10.90960938 10.06707031 -10.60546875 9.10351562 C-10.31285156 8.21212891 -10.02023437 7.32074219 -9.71875 6.40234375 C-9.46029297 5.60304443 -9.20183594 4.80374512 -8.93554688 3.98022461 C-7.05359865 -0.00319972 -4.03750083 -0.68932941 0 0 Z " fill="#FDFAFB" transform="translate(354,120)"/>
<path d="M0 0 C3.5 1 3.5 1 5.09106445 3.68847656 C6.39941944 6.76359821 7.52936003 9.80115789 8.54296875 12.984375 C8.89423828 14.08394531 9.24550781 15.18351563 9.60742188 16.31640625 C9.96384766 17.44949219 10.32027344 18.58257812 10.6875 19.75 C11.05552734 20.89855469 11.42355469 22.04710937 11.80273438 23.23046875 C14.5 31.7276061 14.5 31.7276061 14.5 34 C16.02137573 33.97643433 16.02137573 33.97643433 17.57348633 33.95239258 C21.33610087 33.89809681 25.09868078 33.86365149 28.86157227 33.83520508 C30.49021223 33.82011757 32.11881156 33.79964494 33.74731445 33.77368164 C36.08815535 33.73729551 38.42845919 33.7202738 40.76953125 33.70703125 C41.86186821 33.68380547 41.86186821 33.68380547 42.97627258 33.66011047 C48.00977874 33.65843436 48.00977874 33.65843436 50.45800781 35.36425781 C51.97410584 37.74426174 51.93877838 39.23527023 51.5 42 C45.24366551 50.28830637 34.00033277 56.15647866 25.5 62 C26.22570611 69.34905204 28.69101379 76.03392701 31.06054688 82.99414062 C34.0668123 92.08762673 34.0668123 92.08762673 33.5 97 C32.4375 98.9375 32.4375 98.9375 30.5 100 C23.66759178 99.91251718 19.6742606 96.73444777 14.375 92.6875 C13.58996094 92.10548828 12.80492187 91.52347656 11.99609375 90.92382812 C8.79622084 88.54146069 5.68537261 86.16394374 2.6953125 83.51953125 C0.68495106 81.77124568 0.68495106 81.77124568 -1.36401367 82.21411133 C-3.90814745 83.15016878 -5.70874451 84.41903731 -7.87109375 86.0546875 C-9.10375977 86.97701172 -9.10375977 86.97701172 -10.36132812 87.91796875 C-11.21146484 88.56378906 -12.06160156 89.20960938 -12.9375 89.875 C-14.62217936 91.14524567 -16.30833414 92.41353738 -17.99609375 93.6796875 C-18.74044678 94.24413574 -19.4847998 94.80858398 -20.25170898 95.39013672 C-27.7394695 100.75166271 -27.7394695 100.75166271 -32.5 100 C-34.15380859 98.72558594 -34.15380859 98.72558594 -35.5 97 C-35.32295099 88.79136423 -32.53463385 81.50086025 -29.8515625 73.8203125 C-29.53703125 72.88445312 -29.2225 71.94859375 -28.8984375 70.984375 C-28.60630371 70.14616211 -28.31416992 69.30794922 -28.01318359 68.44433594 C-27.40479194 65.54651615 -27.54403006 63.80005934 -28.5 61 C-30.02100566 59.36163931 -30.02100566 59.36163931 -32.03515625 58.1328125 C-33.12098999 57.39816772 -33.12098999 57.39816772 -34.22875977 56.64868164 C-34.99889404 56.1458667 -35.76902832 55.64305176 -36.5625 55.125 C-38.1165475 54.06668054 -39.66865731 53.00550978 -41.21875 51.94140625 C-42.3325 51.18174561 -42.3325 51.18174561 -43.46875 50.40673828 C-45.912777 48.71413208 -48.26832313 46.95353347 -50.5625 45.0625 C-51.15160156 44.57910156 -51.74070312 44.09570312 -52.34765625 43.59765625 C-54.01430824 41.28694214 -53.91300654 39.7780124 -53.5 37 C-52.47363281 35.36230469 -52.47363281 35.36230469 -50.5 34 C-47.77093638 33.73843739 -45.2753901 33.65078869 -42.55078125 33.70703125 C-41.77816452 33.71127609 -41.00554779 33.71552094 -40.20951843 33.71989441 C-37.74349008 33.73667817 -35.27828104 33.77432853 -32.8125 33.8125 C-31.13998577 33.82754729 -29.46745872 33.84123562 -27.79492188 33.85351562 C-23.69629922 33.88658054 -19.59828849 33.93835972 -15.5 34 C-15.30639893 32.2044165 -15.30639893 32.2044165 -15.10888672 30.37255859 C-14.37636894 24.53983165 -12.49463451 19.18029394 -10.625 13.625 C-10.27308594 12.53316406 -9.92117187 11.44132813 -9.55859375 10.31640625 C-9.03845703 8.75599609 -9.03845703 8.75599609 -8.5078125 7.1640625 C-8.03819092 5.74794678 -8.03819092 5.74794678 -7.55908203 4.30322266 C-5.81019294 0.49985251 -4.07307334 0 0 0 Z " fill="#FDFAFA" transform="translate(149.5,120)"/>
<path d="M0 0 C2.73988168 2.73988168 3.43239425 5.95085641 4.5625 9.5625 C5.68229288 14.13405325 5.68229288 14.13405325 8 18 C9.48638992 18.15655027 10.97949127 18.25066943 12.47265625 18.31640625 C13.37177734 18.35830078 14.27089844 18.40019531 15.19726562 18.44335938 C16.14279297 18.48267578 17.08832031 18.52199219 18.0625 18.5625 C19.4865918 18.62727539 19.4865918 18.62727539 20.93945312 18.69335938 C23.29281353 18.79979276 25.64628354 18.90181008 28 19 C24.7500014 22.39079277 21.45405186 25.16883725 17.625 27.875 C13.76629333 30.74093961 13.76629333 30.74093961 12.625 35.1875 C13.0368482 36.47414986 13.50658718 37.74237104 14 39 C14.6917427 41.31123442 15.37891826 43.62383872 16.0625 45.9375 C16.70321254 47.95996273 17.34735571 49.98135603 18 52 C13.783849 50.08092437 10.3684945 47.29501162 6.73046875 44.4609375 C3.1437214 42.54184807 1.02369212 42.4465227 -3 43 C-5.41211992 44.43531103 -7.32037648 45.7308604 -9.4375 47.5 C-9.97826172 47.92925781 -10.51902344 48.35851562 -11.07617188 48.80078125 C-12.39622913 49.85215429 -13.69989563 50.92405156 -15 52 C-15.66 51.67 -16.32 51.34 -17 51 C-16.71125 50.14277344 -16.4225 49.28554687 -16.125 48.40234375 C-15.75375 47.25894531 -15.3825 46.11554688 -15 44.9375 C-14.62875 43.81214844 -14.2575 42.68679687 -13.875 41.52734375 C-12.91604404 37.66155252 -12.34644364 34.94856967 -13 31 C-15.03667479 28.75430995 -17.42762809 27.26419514 -20 25.6875 C-22.37017528 24.16610371 -24.68879276 22.61253873 -27 21 C-27 20.34 -27 19.68 -27 19 C-17.1 18.505 -17.1 18.505 -7 18 C-4.59318822 12.02446731 -2.23737955 6.04092479 0 0 Z " fill="#A80B16" transform="translate(351,146)"/>
<path d="M0 0 C2.73988168 2.73988168 3.43239425 5.95085641 4.5625 9.5625 C5.68229288 14.13405325 5.68229288 14.13405325 8 18 C9.48638992 18.15655027 10.97949127 18.25066943 12.47265625 18.31640625 C13.37177734 18.35830078 14.27089844 18.40019531 15.19726562 18.44335938 C16.14279297 18.48267578 17.08832031 18.52199219 18.0625 18.5625 C19.4865918 18.62727539 19.4865918 18.62727539 20.93945312 18.69335938 C23.29281353 18.79979276 25.64628354 18.90181008 28 19 C28 19.66 28 20.32 28 21 C25.90349049 22.58271704 23.81323795 24.05502431 21.625 25.5 C17.09157646 28.46852905 17.09157646 28.46852905 13 32 C13.30705884 38.90882395 15.88827864 45.46839674 18 52 C13.783849 50.08092437 10.3684945 47.29501162 6.73046875 44.4609375 C3.1437214 42.54184807 1.02369212 42.4465227 -3 43 C-5.41211992 44.43531103 -7.32037648 45.7308604 -9.4375 47.5 C-9.97826172 47.92925781 -10.51902344 48.35851562 -11.07617188 48.80078125 C-12.39622913 49.85215429 -13.69989563 50.92405156 -15 52 C-15.66 51.67 -16.32 51.34 -17 51 C-16.566875 49.83984375 -16.566875 49.83984375 -16.125 48.65625 C-15.75375 47.6146875 -15.3825 46.573125 -15 45.5 C-14.62875 44.4790625 -14.2575 43.458125 -13.875 42.40625 C-12.4052563 36.73599045 -12.4052563 36.73599045 -13 31 C-14.98977855 28.51351267 -17.37830596 26.84150667 -20 25.0625 C-22.3379457 23.38125526 -24.66941629 21.6914568 -27 20 C-27 19.67 -27 19.34 -27 19 C-17.1 18.505 -17.1 18.505 -7 18 C-4.59318822 12.02446731 -2.23737955 6.04092479 0 0 Z " fill="#A80A16" transform="translate(148,146)"/>
<path d="M0 0 C0.66 0 1.32 0 2 0 C2.34933594 1.13179688 2.69867188 2.26359375 3.05859375 3.4296875 C3.51813895 4.91148631 3.97777931 6.39325562 4.4375 7.875 C4.66759766 8.62136719 4.89769531 9.36773437 5.13476562 10.13671875 C6.35379647 14.15091601 6.35379647 14.15091601 8 18 C14.93 18.33 21.86 18.66 29 19 C25.48022006 22.51977994 22.68948416 25.09115077 18.6875 27.8125 C17.80449219 28.41707031 16.92148437 29.02164063 16.01171875 29.64453125 C15.34785156 30.09183594 14.68398438 30.53914063 14 31 C14.45918362 36.78571366 15.36311919 41.64504821 17.4765625 47.0546875 C18 49 18 49 17 52 C16.14277344 51.3503125 15.28554688 50.700625 14.40234375 50.03125 C13.24803116 49.18663103 12.0930471 48.34292921 10.9375 47.5 C10.37611328 47.07074219 9.81472656 46.64148438 9.23632812 46.19921875 C5.10238301 43.22277827 2.23025056 42.15185126 -3 43 C-5.41211992 44.43531103 -7.32037648 45.7308604 -9.4375 47.5 C-9.97826172 47.92925781 -10.51902344 48.35851562 -11.07617188 48.80078125 C-12.39622913 49.85215429 -13.69989563 50.92405156 -15 52 C-16.49317842 47.52046475 -14.480541 44.48296705 -12.8125 40.203125 C-11.80471966 36.23014481 -11.78324066 33.93106862 -13 30 C-15.09935206 27.79323244 -17.49178504 26.23829326 -20.0625 24.625 C-22.38372512 23.09556304 -24.69434253 21.55297187 -27 20 C-27 19.67 -27 19.34 -27 19 C-19.74 18.67 -12.48 18.34 -5 18 C-4.54625 16.14375 -4.0925 14.2875 -3.625 12.375 C-2.57902772 8.18119645 -1.46951385 4.06942297 0 0 Z " fill="#A80B16" transform="translate(249,108)"/>
</svg>
