<?xml version="1.0" encoding="UTF-8"?>
<svg version="1.1" xmlns="http://www.w3.org/2000/svg" width="500" height="500">
<path d="M0 0 C165 0 330 0 500 0 C500 165 500 330 500 500 C335 500 170 500 0 500 C0 335 0 170 0 0 Z " fill="#A5000C" transform="translate(0,0)"/>
<path d="M0 0 C1.28721215 -0.00935994 1.28721215 -0.00935994 2.60042858 -0.01890898 C5.48104876 -0.03488655 8.36082835 -0.02221616 11.24145508 -0.00964355 C13.30449925 -0.01506255 15.36753956 -0.02218396 17.43057251 -0.03088379 C23.0379596 -0.04914641 28.64505288 -0.0420374 34.25244522 -0.02936745 C40.11491958 -0.01925504 45.97736843 -0.02862823 51.83984375 -0.03491211 C61.6856743 -0.04219364 71.53138492 -0.0325875 81.37719727 -0.0135498 C92.76758148 0.00821983 104.15767933 0.00116882 115.5480566 -0.02085543 C125.31969374 -0.03899498 135.09124457 -0.0415748 144.8628931 -0.03110075 C150.70253762 -0.02485789 156.54204744 -0.024052 162.38168335 -0.0372467 C167.87123424 -0.0487835 173.36041516 -0.040819 178.84992599 -0.01766968 C180.86716471 -0.012371 182.88443446 -0.01391607 184.90166092 -0.02272034 C187.65052152 -0.03361362 190.39818859 -0.01998774 193.14697266 0 C194.3510516 -0.01338433 194.3510516 -0.01338433 195.57945538 -0.02703905 C199.09706987 0.02274613 201.1839014 0.22828032 204.07781982 2.30561066 C206.66189999 6.11059093 205.94835311 10.16952254 205.25418091 14.49975586 C204.84072953 16.54422412 204.36282688 18.5621132 203.85864258 20.58605957 C203.68344589 21.31991882 203.50824921 22.05377808 203.32774353 22.80987549 C202.77225308 25.12802291 202.20435458 27.44291488 201.63598633 29.75793457 C201.25820868 31.32544442 200.88124836 32.89315148 200.50512695 34.46105957 C199.21739452 39.81570081 197.91170401 45.16566177 196.57348633 50.50793457 C197.67983429 50.49794182 197.67983429 50.49794182 198.80853271 50.48774719 C205.80964886 50.4272674 212.81067227 50.3817748 219.81197739 50.35249805 C223.41016672 50.33693982 227.00813754 50.31588544 230.60620117 50.28161621 C234.08810783 50.24866641 237.56980628 50.23100787 241.05185699 50.22330284 C243.00581233 50.21518214 244.95968564 50.19182185 246.91351318 50.16804504 C266.94569301 50.16432552 286.63109657 58.16815151 301.19848633 72.01184082 C314.73793879 86.24162721 323.12196704 104.03967309 323.20874023 123.84875488 C322.78860609 136.60820469 319.57410863 149.25585309 316.96894836 161.71337891 C315.93103291 166.69590054 314.96343923 171.68580311 314.06567383 176.69543457 C313.84290771 177.93744629 313.6201416 179.17945801 313.390625 180.45910645 C312.98113725 182.76709945 312.57487408 185.0756677 312.17236328 187.3848877 C311.98891357 188.40518066 311.80546387 189.42547363 311.61645508 190.47668457 C311.46200928 191.35775879 311.30756348 192.23883301 311.1484375 193.14660645 C310.5663871 195.53709116 309.8472312 197.40578981 308.57348633 199.50793457 C304.48222939 201.88639839 300.36241223 201.74741981 295.76098633 201.63293457 C295.06811523 201.62391113 294.37524414 201.6148877 293.66137695 201.60559082 C291.96526238 201.58219614 290.26932762 201.54633098 288.57348633 201.50793457 C288.4265332 202.12539551 288.27958008 202.74285645 288.12817383 203.37902832 C285.15296742 214.61299734 279.02742376 222.71948227 269.57348633 229.50793457 C258.80845696 235.64915478 246.00688507 236.46371869 234.07348633 233.38293457 C229.03463465 231.55218031 224.77469276 228.80607794 220.57348633 225.50793457 C219.95602539 225.02840332 219.33856445 224.54887207 218.70239258 224.05480957 C212.8161133 218.86334722 209.52865403 211.65782361 206.57348633 204.50793457 C206.57348633 203.51793457 206.57348633 202.52793457 206.57348633 201.50793457 C172.58348633 201.50793457 138.59348633 201.50793457 103.57348633 201.50793457 C102.91348633 204.47793457 102.25348633 207.44793457 101.57348633 210.50793457 C96.80150196 220.9330936 88.91808505 227.84374522 78.57348633 232.50793457 C68.1117231 236.15594894 55.27918357 236.37622247 45.02661133 231.89465332 C34.45906051 225.92095819 25.9732404 217.30708107 22.57348633 205.50793457 C22.57348633 204.18793457 22.57348633 202.86793457 22.57348633 201.50793457 C21.24957886 201.54721069 21.24957886 201.54721069 19.89892578 201.58728027 C16.60937053 201.67273732 13.32100211 201.73529202 10.03076172 201.78259277 C8.60967342 201.80766604 7.18871319 201.84173456 5.76806641 201.88513184 C3.71981171 201.94611315 1.6732675 201.97421219 -0.37573242 201.99621582 C-2.22171021 202.03549194 -2.22171021 202.03549194 -4.10498047 202.07556152 C-8.36077655 201.34827553 -9.80295547 199.86895835 -12.42651367 196.50793457 C-13.05151367 193.00793457 -13.05151367 193.00793457 -12.42651367 189.50793457 C-9.83286663 186.20673846 -8.38505741 184.67639887 -4.19677734 183.94030762 C-2.41364136 183.97958374 -2.41364136 183.97958374 -0.59448242 184.01965332 C0.69780273 184.0357666 1.99008789 184.05187988 3.3215332 184.06848145 C4.6763679 184.11025183 6.03118561 184.15257648 7.38598633 184.19543457 C8.76029499 184.22053388 10.13464749 184.24334421 11.5090332 184.26379395 C14.86496608 184.32266996 18.21866723 184.40487037 21.57348633 184.50793457 C21.75306885 183.84624268 21.93265137 183.18455078 22.11767578 182.50280762 C25.36100293 171.05435466 31.74280261 162.05516418 42.16333008 156.00402832 C52.53069953 150.66049429 63.94358627 149.73925711 75.33129883 152.37902832 C87.58279318 156.79593822 95.56073043 164.12462638 101.67114258 175.56262207 C103.1674518 178.80578531 103.57348633 180.87312908 103.57348633 184.50793457 C118.42348633 184.50793457 133.27348633 184.50793457 148.57348633 184.50793457 C149.23348633 180.54793457 149.89348633 176.58793457 150.57348633 172.50793457 C151.37785665 168.70858628 152.2053238 164.92464771 153.07617188 161.14099121 C153.31881271 160.07391434 153.56145355 159.00683746 153.81144714 157.90742493 C154.60761845 154.41019156 155.40880114 150.91412849 156.21020508 147.41809082 C156.77375762 144.94886472 157.33705133 142.47957953 157.90010071 140.01023865 C159.08064038 134.83620057 160.26344112 129.66268735 161.44824219 124.48962402 C162.65029167 119.24117029 163.84994462 113.99217728 165.046875 108.74255371 C177.00332941 56.30403536 177.00332941 56.30403536 182.21728516 35.07995605 C183.23212584 30.94747606 184.20422752 26.80661975 185.1582489 22.65968323 C185.4244488 21.50339952 185.69064871 20.3471158 185.96491528 19.15579319 C186.16574372 18.28199985 186.36657217 17.4082065 186.57348633 16.50793457 C185.5721957 16.51254354 184.57090508 16.5171525 183.53927231 16.52190113 C159.19497252 16.63281429 134.85070544 16.715023 110.50620651 16.76699543 C98.73345724 16.79279586 86.96087469 16.82798165 75.18823242 16.88513184 C64.9292427 16.93491035 54.6703737 16.96721219 44.41126657 16.97837704 C38.97722956 16.98490518 33.54353799 17.00028651 28.10961151 17.03658485 C22.99767818 17.07045648 17.88623342 17.08100537 12.77419853 17.07347298 C10.89560989 17.07485148 9.01700535 17.08483643 7.13851357 17.10396194 C4.577557 17.12876256 2.01845608 17.12288823 -0.5425415 17.10920715 C-1.28962506 17.12377136 -2.03670861 17.13833557 -2.80643106 17.15334111 C-6.54928779 17.09912165 -8.11996611 16.79622812 -10.88801193 14.19301128 C-12.90701864 10.66933123 -13.00832103 8.50786017 -12.42651367 4.50793457 C-9.15529272 -0.23846255 -5.32779412 -0.05922282 0 0 Z " fill="#FEFCFC" transform="translate(128.426513671875,132.4920654296875)"/>
<path d="M0 0 C8.06813979 -0.11690574 16.13591377 -0.20521873 24.20469666 -0.25906086 C27.95317942 -0.28492925 31.70107424 -0.31989724 35.44921875 -0.37719727 C67.34807194 -0.85209261 67.34807194 -0.85209261 80 5 C81.33635498 5.59929321 81.33635498 5.59929321 82.69970703 6.21069336 C95.60265499 12.37543516 105.66968157 24.97684105 111 38 C114.66158609 48.39655167 114.39650485 57.26545235 112.35546875 67.9765625 C112.18501541 68.90487885 112.01456207 69.83319519 111.83894348 70.78964233 C111.29591911 73.73619973 110.74179322 76.68054411 110.1875 79.625 C109.82676606 81.57669221 109.46673442 83.52851436 109.10742188 85.48046875 C107.16242365 96.00551825 105.13992958 106.51280554 103 117 C100.69 117 98.38 117 96 117 C95.70867187 116.2265625 95.41734375 115.453125 95.1171875 114.65625 C90.25803309 102.30971929 83.58799212 92.66475278 71.1875 87.0625 C61.4621031 83.63934165 49.19399273 83.03930448 39.375 86.5625 C27.16218949 92.60507523 19.96624468 101.57449537 15 114 C14.505 115.485 14.505 115.485 14 117 C0.8 117 -12.4 117 -26 117 C-25.36631643 111.93053146 -24.70864763 107.21843785 -23.64453125 102.26953125 C-23.50643036 101.62520645 -23.36832947 100.98088165 -23.2260437 100.31703186 C-22.75914813 98.14790291 -22.28623741 95.9801444 -21.8125 93.8125 C-21.64714752 93.05108704 -21.48179504 92.28967407 -21.31143188 91.50518799 C-17.71333362 74.95397811 -13.94011976 58.44179437 -10.15844345 41.93175888 C-9.68990333 39.88549611 -9.22205138 37.83907693 -8.75430298 35.79263306 C-7.86418884 31.90006769 -6.96954836 28.00855662 -6.07421875 24.1171875 C-5.80882294 22.95695572 -5.54342712 21.79672394 -5.26998901 20.60133362 C-3.67329151 13.68604944 -1.92519328 6.83123417 0 0 Z " fill="#A5010C" transform="translate(321,200)"/>
<path d="M0 0 C5.61974086 3.76642207 10.26971235 8.32603333 12 15 C13.13009862 24.00850045 12.39456916 31.53278059 7 39 C2.58176213 44.02513868 -4.30370518 47.32772876 -10.91015625 48.2734375 C-18.46248917 48.62980893 -24.4513338 46.18248114 -30.08203125 41.1328125 C-35.97857427 34.75213227 -38.69408379 28.58279524 -38.40625 19.83984375 C-37.28528169 12.00384414 -33.14231209 6.24631369 -27.03515625 1.40625 C-18.49697246 -4.49345473 -9.17868612 -4.58934306 0 0 Z " fill="#A6030F" transform="translate(204,303)"/>
<path d="M0 0 C6.87212208 3.08671948 10.91786211 7.80247223 14.14453125 14.51171875 C16.22088463 20.84366125 16.1868169 28.61027942 13.26171875 34.65625 C8.83316198 42.38865071 3.27270237 46.06860513 -4.98828125 49.15625 C-12.60960169 50.74776103 -18.6048015 48.2867369 -24.98828125 44.15625 C-29.90222612 40.09690424 -32.97303602 35.2019857 -34.98828125 29.15625 C-35.7821477 20.3716622 -35.06899442 14.05705806 -29.375 7.21875 C-21.28990399 -1.38623023 -11.40130806 -3.21919286 0 0 Z " fill="#A5020E" transform="translate(385.98828125,301.84375)"/>
<path d="M0 0 C1.55449608 -0.01292336 1.55449608 -0.01292336 3.14039612 -0.02610779 C6.56325308 -0.04879573 9.98529327 -0.04202371 13.40820312 -0.03295898 C15.78804773 -0.03819304 18.16789025 -0.04446872 20.54772949 -0.05174255 C25.5343604 -0.06215184 30.52070604 -0.05757704 35.50732422 -0.04296875 C41.90010038 -0.02577484 48.2919783 -0.04928205 54.68465424 -0.08445835 C59.59859177 -0.10640901 64.51231357 -0.10499652 69.42628479 -0.09669304 C71.78342169 -0.09587236 74.14057424 -0.10275793 76.49766541 -0.11746407 C79.79197579 -0.13486725 83.08466151 -0.12040123 86.37890625 -0.09765625 C87.84095238 -0.11519455 87.84095238 -0.11519455 89.33253479 -0.13308716 C93.94243604 -0.06826941 96.02643962 0.03192145 99.79870605 2.88539124 C101.68945312 5.53344727 101.68945312 5.53344727 102.25195312 8.53344727 C101.51825285 12.44651538 100.66838274 13.85379792 97.68945312 16.53344727 C94.23327192 17.29319606 90.8195025 17.20584296 87.29296875 17.16455078 C86.23567062 17.17170609 85.1783725 17.17886139 84.08903503 17.18623352 C80.59081948 17.20315523 77.09387912 17.18369627 73.59570312 17.16235352 C71.16719456 17.16318189 68.73868604 17.16564006 66.31018066 17.16966248 C61.2191481 17.17252288 56.12855489 17.15779481 51.03759766 17.13037109 C44.50689424 17.09628866 37.97697668 17.10230465 31.44623566 17.12103367 C26.43110589 17.13159459 21.41615946 17.12267395 16.40104675 17.10764885 C13.99285934 17.10245995 11.58465283 17.10295738 9.1764679 17.1091938 C5.81253793 17.11463478 2.4497387 17.09430503 -0.9140625 17.06689453 C-2.41191032 17.07668335 -2.41191032 17.07668335 -3.9400177 17.08666992 C-10.68080738 16.99311931 -10.68080738 16.99311931 -13.92492676 14.62510681 C-15.41123277 12.38145712 -15.87826408 11.20465696 -15.87304688 8.53344727 C-15.89496094 7.87344727 -15.916875 7.21344727 -15.93945312 6.53344727 C-13.65798404 -0.72190784 -6.19587451 -0.04148316 0 0 Z " fill="#FEFEFE" transform="translate(64.310546875,266.466552734375)"/>
<path d="M0 0 C1.33723114 -0.01051392 1.33723114 -0.01051392 2.70147705 -0.02124023 C5.64765593 -0.03884221 8.59287389 -0.02718963 11.5390625 -0.01367188 C13.58642766 -0.01636615 15.63379157 -0.02024804 17.68115234 -0.02526855 C21.97180363 -0.03116659 26.26212181 -0.02259067 30.55273438 -0.00390625 C36.05437738 0.01888331 41.55523988 0.00576189 47.05685425 -0.01819611 C51.28448372 -0.03264572 55.51192795 -0.0280519 59.73956299 -0.01768494 C61.76816907 -0.01501534 63.79679193 -0.01829556 65.82537842 -0.02760315 C68.66008088 -0.03775484 71.49351695 -0.02228697 74.328125 0 C75.16772766 -0.00809692 76.00733032 -0.01619385 76.87237549 -0.02453613 C80.48912648 0.02818207 82.70771455 0.18806481 85.68115234 2.33508301 C87.89137028 5.58800418 87.77042408 7.67728814 87.1640625 11.51757812 C85.187305 14.19429803 83.60232524 16.17059802 80.26266289 16.97628975 C77.93023959 17.16207678 75.64606577 17.18177383 73.30639648 17.14868164 C71.98357666 17.1594146 71.98357666 17.1594146 70.6340332 17.17036438 C67.72554371 17.1872425 64.81859736 17.16785571 61.91015625 17.14648438 C59.88664116 17.14731308 57.86312613 17.14977252 55.83961487 17.15379333 C51.60193585 17.15665063 47.36478558 17.14195519 43.12719727 17.11450195 C37.69393431 17.08039772 32.26161548 17.08644538 26.82830715 17.10516453 C22.65127179 17.11572921 18.47445639 17.10680186 14.29744148 17.09177971 C12.29396276 17.08659501 10.2904611 17.08708318 8.2869854 17.09332466 C5.48826499 17.09877126 2.69089997 17.07842056 -0.10766602 17.05102539 C-0.93634689 17.05755127 -1.76502777 17.06407715 -2.61882019 17.07080078 C-6.27275547 17.0099412 -8.39447215 16.8529129 -11.34825134 14.60923767 C-12.95973209 12.3435252 -13.37890318 11.26738145 -13.3359375 8.51757812 C-13.35140625 7.52757812 -13.35140625 7.52757812 -13.3671875 6.51757812 C-11.57556211 -0.22736453 -5.92006745 -0.05709169 0 0 Z " fill="#FEFEFE" transform="translate(78.8359375,216.482421875)"/>
<path d="M0 0 C0.69451767 -0.0049649 1.38903534 -0.00992981 2.104599 -0.01504517 C4.4072264 -0.0296756 6.70978488 -0.03647077 9.01245117 -0.04199219 C10.61187238 -0.04774361 12.21129356 -0.05350134 13.81071472 -0.05926514 C17.16743288 -0.06977811 20.52412707 -0.0756186 23.88085938 -0.07910156 C28.17837341 -0.08458218 32.47556995 -0.10859949 36.7729845 -0.13707352 C40.07843443 -0.15571589 43.3838082 -0.16090638 46.68930626 -0.16243744 C48.27331971 -0.16546169 49.85733188 -0.17348257 51.44129372 -0.18662262 C53.66032519 -0.2037145 55.87858531 -0.20179546 58.09765625 -0.1953125 C59.35959305 -0.19895813 60.62152985 -0.20260376 61.92170715 -0.20635986 C65.50613965 0.19025811 67.38801059 0.99865773 70.24291992 3.16113281 C71.78878868 6.25287033 71.53651514 8.75542834 71.24291992 12.16113281 C69.37583487 14.52610721 67.92230561 15.82143997 65.24291992 17.16113281 C62.99260444 17.27376946 60.73890369 17.3205256 58.48583984 17.33813477 C57.79132217 17.34470596 57.0968045 17.35127716 56.38124084 17.35804749 C54.07862239 17.37778739 51.77606919 17.38944477 49.47338867 17.39941406 C48.68711908 17.40348959 47.90084949 17.40756512 47.09075356 17.41176414 C42.92883186 17.43262822 38.76694316 17.44692824 34.60498047 17.45629883 C30.30737173 17.4673618 26.01028099 17.50175893 21.71285534 17.54147053 C18.407405 17.56762433 15.10207829 17.57598955 11.79653358 17.57958031 C10.21250219 17.58444981 8.62847645 17.59607425 7.04454613 17.6146183 C4.82534206 17.63898401 2.60748065 17.63805025 0.38818359 17.63110352 C-0.8737532 17.63696976 -2.13569 17.642836 -3.43586731 17.64888 C-7.37200957 17.0708254 -9.00810459 15.99523404 -11.75708008 13.16113281 C-12.81958008 9.72363281 -12.81958008 9.72363281 -12.75708008 6.16113281 C-9.10515625 0.36842605 -6.58578835 0.03570147 0 0 Z " fill="#FEFDFD" transform="translate(94.757080078125,165.8388671875)"/>
</svg>
