<?xml version="1.0" encoding="UTF-8"?>
<svg id="Layer_2" data-name="Layer 2" xmlns="http://www.w3.org/2000/svg" viewBox="0 0 1380.4 983.97">
  <defs>
    <style>
      .cls-1 {
        fill: #bc1213;
      }

      .cls-2 {
        fill: #b50807;
      }

      .cls-3 {
        fill: #bb1112;
      }

      .cls-4 {
        fill: #b8090b;
      }

      .cls-5 {
        fill: #ba0d0d;
      }

      .cls-6 {
        fill: #b80b0c;
      }

      .cls-7 {
        fill: #b70909;
      }

      .cls-8 {
        fill: #ba1111;
      }

      .cls-9 {
        fill: #f8dcdb;
      }

      .cls-10 {
        fill: #ba0708;
      }

      .cls-11 {
        fill: #b80809;
      }

      .cls-12 {
        fill: #b80506;
      }

      .cls-13 {
        fill: #b60606;
      }

      .cls-14 {
        fill: #bd0103;
      }

      .cls-15 {
        fill: #b70707;
      }

      .cls-16 {
        fill: #b60a0a;
      }

      .cls-17 {
        fill: #bf0003;
      }

      .cls-18 {
        fill: #b60706;
      }

      .cls-19 {
        fill: #d34c4b;
      }

      .cls-20 {
        fill: #b90c0c;
      }

      .cls-21 {
        fill: #b80808;
      }

      .cls-22 {
        fill: #980002;
      }

      .cls-23 {
        fill: #b60a0b;
      }

      .cls-24 {
        fill: #bc1616;
      }

      .cls-25 {
        fill: #ba0a0a;
      }

      .cls-26 {
        fill: #b60506;
      }

      .cls-27 {
        fill: #f29d87;
      }

      .cls-28 {
        fill: #b80605;
      }

      .cls-29 {
        fill: #b60909;
      }

      .cls-30 {
        fill: #bb0f10;
      }

      .cls-31 {
        fill: #b80a0a;
      }

      .cls-32 {
        fill: #b50003;
      }

      .cls-33 {
        fill: #b70708;
      }

      .cls-34 {
        fill: #e87665;
      }

      .cls-35 {
        fill: #b81615;
      }

      .cls-36 {
        fill: #b70d0d;
      }

      .cls-37 {
        fill: #ca1b1a;
      }

      .cls-38 {
        fill: #b70706;
      }

      .cls-39 {
        fill: #bc0103;
      }

      .cls-40 {
        fill: #f7dbdb;
      }

      .cls-41 {
        fill: #ce3638;
      }

      .cls-42 {
        fill: #b70a09;
      }

      .cls-43 {
        fill: #b80707;
      }

      .cls-44 {
        fill: #b70808;
      }

      .cls-45 {
        fill: #be0003;
      }

      .cls-46 {
        fill: #01292d;
      }

      .cls-47 {
        fill: #d55553;
      }

      .cls-48 {
        fill: #b90b0b;
      }

      .cls-49 {
        fill: #ba100f;
      }

      .cls-50 {
        fill: #b90708;
      }

      .cls-51 {
        fill: #b80b0a;
      }

      .cls-52 {
        fill: #b50909;
      }

      .cls-53 {
        fill: #b70606;
      }

      .cls-54 {
        fill: #890002;
      }

      .cls-55 {
        fill: #b60808;
      }

      .cls-56 {
        fill: #8b0002;
      }

      .cls-57 {
        fill: #960002;
      }

      .cls-58 {
        fill: #8a0003;
      }

      .cls-59 {
        fill: #bb0a0a;
      }

      .cls-60 {
        fill: #ba0b0b;
      }

      .cls-61 {
        fill: #f8dbdb;
      }

      .cls-62 {
        fill: #d45755;
      }

      .cls-63 {
        fill: #f29d88;
      }

      .cls-64 {
        fill: #bc0003;
      }

      .cls-65 {
        fill: #b80d0d;
      }

      .cls-66 {
        fill: #b90c0d;
      }

      .cls-67 {
        fill: #b70b0c;
      }

      .cls-68 {
        fill: #e5807e;
      }

      .cls-69 {
        fill: #870002;
      }

      .cls-70 {
        fill: #b91010;
      }

      .cls-71 {
        fill: #bb0b0b;
      }

      .cls-72 {
        fill: #b80807;
      }

      .cls-73 {
        fill: #b70908;
      }

      .cls-74 {
        fill: #b60a09;
      }

      .cls-75 {
        fill: #d55653;
      }

      .cls-76 {
        fill: #b60504;
      }

      .cls-77 {
        fill: #e98e8a;
      }

      .cls-78 {
        fill: #b50707;
      }

      .cls-79 {
        fill: #8e0002;
      }
    </style>
  </defs>
  <g id="Layer_1-2" data-name="Layer 1">
    <g>
      <path class="cls-17" d="M911.3,519.46c6.37-25.37,13.7-50.45,23.73-74.66,6.5-15.69,13.7-30.94,28.45-40.9,9.63-6.5,20.09-11.48,30.59-16.35,18.55-8.6,37.59-16.05,56.5-23.81,2.83-1.16,5.06-2.59,7.17-4.88,3.11-3.38,6.93-6.11,10.45-9.12,2.48.2,1.92,2.49,2.7,3.87,2.87,17.25,7.11,34.12,14.05,50.24,2.17,5.04,2.3,5.06,5.95.93,5-5.67,11.22-9.81,17.56-13.81,19.58-12.35,38.13-26.04,54.51-42.5,4.7-4.72,8.86-9.89,12.78-15.26.97-1.33,1.62-2.94,3.35-3.55,5.3-2.71,9.64-.42,12.66,3.52,4.58,5.98,11.63,10.09,13.76,18.03.33,1.22,2.46,2.06,3.88,2.88,24.32,14.01,49.89,25.62,74.79,38.51,14.74,7.64,29.32,15.6,41.47,27.13,17.53,16.64,27.04,37.68,32.28,60.81,6.66,29.37,11.23,59.1,15.21,88.94,1.73,12.96,3.8,25.87,5.76,38.8.9,5.92.9,5.97-5.2,6.05-1.16.02-2.32.14-3.48.21-5.33,2.35-11.12,1.96-16.64,2.14-25.53.86-50.78,4.04-75.96,7.94-3.12.48-6.21,1.3-9.41,1.14-1.5.08-2.98.32-4.46.5-6.57.79-8.53-.57-8.98-7.29-1.05-15.42-2.65-30.79-3.45-46.24-.68-13.14-.83-26.27-.67-39.39.11-8.9.64-17.83,1.61-23.91-7.94,23.17-8.47,49.93-7.53,76.76.45,12.79,2.52,25.48,4.04,38.19.48,3.98,2.98,5.15,6.56,5.36,4.46.26,9-.69,13.39.84,2.04,1.3,2.39,3.48,2.9,5.57,2.09,8.73,3.93,17.52,6.47,26.14,1.09,3.7,1.85,7.5,1.32,11.32-.61,4.43,1.38,5.81,5.47,6.19,13.41,1.23,26.84,2.48,40.01,5.47,2.84.64,5.9.92,8.47,3.26-1.47,2.14-3.45,2.09-5.35,1.9-15.38-1.53-30.75-3.24-46.16-4.38-16.74-1.23-33.45-2.81-50.16-4.38-14.9-1.4-29.74-3.35-44.59-5.27-4.22-.55-7.31-2.43-9.93-5.86-6.35-8.32-11.74-17.37-19.18-24.85-6.03-6.07-13.13-10.71-20.22-15.36-5.73-3.76-12.21-3.96-18.76-3.73-2.52-.69-2.85-3.09-3.72-4.96-9.55-20.5-17.71-41.6-26.8-62.3-3.34-7.61-6.95-15.1-10.07-22.81-2.7-6.66-8.11-9.39-14.98-9.66-5.16-.21-10.33-.24-15.48-.03-8.01.32-15.91-1.4-23.91-1.17-1.86.05-3.6-.61-5.2-1.58-2.13-1.47-4.49-2.11-7.05-2.1-12.96.04-25.87-1.64-38.84-1.05-3.51.16-6.98-.2-10.31-1.41-3.19-1.16-3.79-3.78-3.92-6.77-.25-5.65.34-11.23.91-16.83.21-2.11.32-4.29-.49-7.56-2.75,8.78-5.96,16.33-7.47,24.44-.42,2.27-.57,4.65-2.65,6.22-4.03,1.53-8.11.67-12.22.41-7.85-.5-15.78-1.78-23.46,1.2-1.04.24-1.69-.19-1.99-1.19Z"/>
      <path class="cls-17" d="M26.26,784.03c-.02-99.17-.03-198.35-.13-297.52,0-2.73.92-3.92,3.25-5.17,68.38-36.8,136.7-73.7,205.03-110.58,2.04-1.1,4.35-1.84,6.11-3.26,7.52-6.07,14.08-4.91,22.53-.29,67.82,37.1,135.98,73.59,204.03,110.27,1.72.93,3.36,2.01,5.04,3.03,2.83,2.46,3.59,5.51,3.58,9.26-.12,44.23-.08,88.45-.08,132.68,0,7.03-.35,7.44-7.65,7.49-13.65.08-27.3,0-40.94.04-7.06.02-7.23.19-7.24,7.3-.02,31.92.02,63.85-.05,95.77,0,2.9.74,6.06-1.77,8.48-.13-17.12-.36-34.25-.37-51.37-.02-53.42,0-106.84.19-160.26.01-3.89-1.07-4.53-4.68-4.53-107.62.1-215.24.11-322.86-.01-4.09,0-5.17.87-5.17,5.08.14,82.88.1,165.76.1,248.63,0,1.66-.04,3.33-.06,4.99-1.82,1.92-4.24,1.71-6.53,1.71-15.27.06-30.55.06-45.82,0-2.29,0-4.71.2-6.53-1.72Z"/>
      <path class="cls-61" d="M26.26,784.03c19.63,0,39.25,0,58.88,0,2.31-.99.99-2.97.99-4.39.07-81.4.06-162.79.06-244.19q0-9.02,8.93-9.02c104.64,0,209.29,0,313.93,0q7.1,0,7.1,6.84c0,91.22-.05,182.44.13,273.65,0,5.15-1.38,6.3-6.38,6.29-134.47-.14-268.94-.14-403.41,0-4.92,0-6.93-.98-6.4-6.26.51-5.11.1-10.31.11-15.47.01-5.99,1.09-7.16,7.28-7.31,6.26-.16,12.52-.1,18.78-.14Z"/>
      <path class="cls-17" d="M1276.23,776.24c-.08.29-.09.58-.02.87.91,4.34-.26,8.78.64,13.12.41,22.28.77,44.57,1.26,66.85.32,14.46.73,28.93,1.26,43.38.31,8.43.47,8.42-6.46,11.5-2.09,1.98-4.84,2.04-7.43,2.51-26.71,4.84-53.63,7.57-80.72,9.31-13.62.87-27.34,1.54-40.83,1.26-19.26-.4-38.55-.25-57.83-1.23-28.78-1.46-57.36-4.29-85.86-8.31-12.03-1.7-23.87-4.44-35.8-6.67-.2-.77-.15-1.79-1.26-1.82-6.3-.19-4.9-4.12-4.46-8.22,1.05-9.72,1.59-19.49,2.38-29.23,1.23-15.19,2.52-30.37,3.74-45.56,1.12-13.87,2.12-27.75,3.28-41.62,1.2-14.36,2.51-28.7,3.78-43.05,1.66-1.89,3.91-1.75,6.02-1.48,12.56,1.61,25.24,1.13,37.83,1.47,17.27.47,34.57.8,51.82,1.49,25.05,1,50.14,1.56,75.15,3.67,2.82.24,5.65.15,8.48.11,9.02-.12,10.88-1.62,12.89-10.34,1.79-3.17,4.29-1.65,6.53-.83,11.26,4.1,22.01,9.4,32.94,14.3,22.19,9.95,45.1,17.96,68.22,25.45,1.72.56,4.17.36,4.48,3.08Z"/>
      <path class="cls-45" d="M446.98,832.06v2.02c-4.86,2.6-10.13,1.53-15.17,1.38-12.9-.38-12.95-.82-13.19-13.83-.25-13.61.56-27.22-.39-40.83-.57-8.23,5.7-17.36,13.33-20.38,1.55-.61,3.27-1.51,4.78-.45,3.24,2.27,5.65.64,8.05-1.34,2.85-2.35,6.03-3.3,9.75-2.89,3.6.39,6.97-.29,9.65-3.06,1.22-1.26,2.87-1.64,4.54-1.86,3.18-.42,6.07-1.61,8.92-3.07,5-2.56,10.22-2.63,15.47-.74,1.05.38,2.6,1.59,3.06.27,1.58-4.47,5.79-2.9,8.56-4.37,6.34-3.38,13.24-4.52,19.98-6.02,7.41-1.64,13.81-5.64,20.96-7.68,5.08-1.45,10.09-2.53,14.18-6.45,1.97-1.89,5.04-.45,7.63.63-1.31-6.44.63-8.76,6.8-8.08,1.87.21,2.93.06,4.14-1.6,2.4-3.3,6.49-3.83,10.03-5.1,1.97-.71,3.36.9,4.37,2.62.34-1.57.71-3.12,2.57-3.31,1.47-.15,1.91,1.14,2.35,2.2.98,2.34,2.53,2.35,4.4,1.19,2.26-1.4,4.75-3.18,7.03-3.59,5.25-.95,9.28-3.78,13.71-6.21,1.74-.95,3.04-1.52,3.54-3.49.61-2.38,1.85-3.79,4.71-2.95,3.88,1.14,6.72-.13,10.27-2.55,4.05-2.77,8.97-5.57,14.11-6.05,5.8-.55,9.16-4.32,12.86-7.76,2.7-2.5,4.93-5.01,9.28-4.77,2.71.15,4.29-2.94,5.43-5.22,1.74-3.47,3.64-6.7,6.62-9.25,1.29-1.11,2.01-2.66,2.43-4.29,1.05-4.15,3.64-7.45,6.04-10.84.85-1.21,1.79-2.61,3.62-1.98,1.76.6,2.69,2.07,2.74,3.83.25,8.91,1.07,17.76.91,26.74-.2,11.06-.95,22.24.91,33.29.06,29.79.15,59.58.12,89.37,0,3.01.03,4.73,4.03,4.72,4.06,0,4-1.86,4-4.81-.06-36.62.3-73.24-.18-109.85-.21-15.84,4.53-16.65,16.68-16.42,14.99.29,29.99.21,44.99.01,13.76-.18,24.23,5.1,31.59,16.95,9.34,15.03,19.26,29.72,28.61,44.74,3.96,6.35,9.18,10.67,16.08,13.32,8.31,3.2,16.55,6.59,24.8,9.94,9.22,3.74,13.54,10.65,13.45,20.53-.09,10.15.04,20.31-.06,30.46-.02,2.32.28,3.95,2.64,5.2,2.45,1.29,3.57,3.73,3.43,6.7-.15,3.16,0,6.32-.04,9.49-.07,5.64-3.53,9.36-9.21,9.49-6.83.16-13.66-.04-20.49.09-2.32.04-3.18-.66-3.27-3.06-.77-20.34-17.28-40.87-40.07-45.59-31.16-6.46-59.28,16.38-61.05,45.8-.05.88.42,2.04-.88,2.54-2.22-1.43-4.56-.17-6.82-.19-33.98-.25-67.96,0-101.94-.21-16.31-.1-32.64.04-48.97.13-15.47.09-30.95,0-46.42,0-5.46,0-6.32-.78-7.32-5.98-.56-2.91-.98-5.87-2.72-8.41-.59-.16-.77-.54-.58-1.11-.09-4.5-2.89-7.63-5.5-10.85-1.06-.87-2.11-1.75-2.51-3.14-3.55-6.32-9.16-10.57-15.2-14.07-5.12-2.97-11.05-4.16-16.75-5.73-.84-.23-1.63.03-2.25.67-5.69-.06-11.41-.53-17.02.89-7.02-.19-12.75,3.37-18.11,7.05-6.53,4.48-12.71,9.63-15.78,17.4-.06.75-.04,1.55-.98,1.84-3.46,5.48-5.7,11.31-5.26,17.93Z"/>
      <path class="cls-27" d="M1276.23,776.24c-14.54-5.05-29.12-9.98-43.61-15.17-21.26-7.61-41.34-18.03-62.29-26.36-1.66-.66-3.28-1.68-5.21-1.47-14.86-.76-29.99.55-44.23-5.25-18.68-7.61-36.63-16.74-54.08-26.83-3.22-1.86-6.02-4.2-7.82-7.51-1.07-1.97-1.7-4.21-.18-6.12,1.66-2.1,3.82-1.13,5.93-.43,11.49,3.81,22.76,8.24,34.34,11.8-12.31-3.94-24.34-8.71-36.67-12.58-4.67-1.46-8.87-3.76-13.06-6.13-2.77-1.57-4.22-4.17-4.48-7.38-.38-4.66,1.97-7.25,6.69-7.27,3.36-.01,6.56,1.03,9.8,1.77,14.39,3.28,28.62,7.14,42.59,11.96,1.19.41,2.42.73,2.63.92-12.86-4.71-26.91-8.66-41.17-11.96-5.65-1.31-11.41-2.38-16.38-5.69-1.67-1.11-3.33-2.22-4.63-3.77-4.3-5.08-2.69-10.78,3.65-12.97,1.93-.66,3.91-.95,5.91-.55,19.21,3.83,38.59,6.95,58.17,13.81-6.99-2.66-13.25-4.09-19.41-5.84-6.4-1.82-12.99-2.8-19.42-4.46-4.86-1.25-9.62-2.74-13.89-5.45-3.6-2.28-5.99-5.43-5.39-9.92.62-4.67,4.45-5.78,8.25-6.76,6.03-1.57,11.94.06,17.83.87,11.89,1.64,23.52,4.58,35.19,7.32,5.3,1.25,5.5.88,3.78-4.39-.46-1.41-1.21-2.78-.45-4.31,5.47-2.3,11.05-1.47,15.89,1.06,11.25,5.85,21.77,12.88,29.61,23.14,4.94,6.47,9.81,13.01,14.44,19.71,2.05,2.96,4.47,4.52,8.01,4.94,18.8,2.25,37.59,4.68,56.46,6.31,24.34,2.11,48.67,4.43,73.01,6.64,5.28.48,10.58.88,15.9,1.07-11.92-3.95-24.33-5.19-36.69-6.67-5.11-.61-10.23-1.17-15.35-1.76-1.27-.15-2.94.06-2.53-2.06,2.47-12.72-3.94-24-5.89-36-.61-3.75-1.72-7.42-2.61-11.13-1.58-2.18-2.83-4.39-.71-6.94,13.01-1.61,25.88-4.06,38.93-5.5,13.88-1.53,27.75-3.08,41.69-3.57,7.14-.25,14.24-1.63,21.42-.78,2.61,7.79,2.88,15.96,3.79,24,2.1,18.45,4.42,36.91,5.57,55.44,1.24,20.19,2.32,40.52-6.29,59.84-8.26,18.54-22.04,27.75-42.59,27.68-18.36-.06-36.49-1.64-54.46-5.26Z"/>
      <path class="cls-32" d="M705.95,706.21c-1.69-1.67-1.78-3.78-1.87-5.99-.3-8.11.54-16.23-.77-24.37-.61-3.77.58-7.89,1.05-11.8.33-2.74.25-5.26-.47-7.74-.87-3.02-2.01-5.85-.89-9.12.57-1.67-.23-3.53-2-4.09-1.82-.58-1.8,1.51-2.52,2.47-2.67,3.6-5.18,7.24-6.03,11.83-.37,2-2.11,3.34-3.73,4.55-1.78,1.33-3.21,2.98-3.66,5.16-.84,4.08-4.82,5.79-6.64,9.12-.28.52-1.04,1.11-1.59.3-2.71-3.94-5.41.18-5.97,1.03-5,7.49-12.43,10.28-20.72,11.7-1.41.24-2.63.56-2.75,2.28-.02.33,0,.66,0,1-4.29-1.61-6.09,3.17-9.24,3.64-2.73.41-5.94,3.49-8.91-.4-.66-.87-2.07,1.12-2.1,2.53-.05,3.22-.32,5.85-4.82,4.24-2.24-.8-2.2,2.06-3.4,2.81-1.88,1.18-2.49,7.52-6.46,1.96-.67-.94-1.69-.5-2.07.22-2,3.82-6.41,3.81-9.51,5.88-4.57,3.04-4.38-2.14-5.35-4.77-3.15,1.16-1.77,4.48-3.37,6.59-1.52-6.31-1.44-6.1-7.97-3.67-3.33,1.24-7.03,1.55-5.85,6.59-2.62-.16-4.06-2.33-6.48-1.99-1.79.25-3.26.7-4.2,2.23-1.01,1.66-.18,2.83,1.22,3.75,1.21.79,1.47,1.84.6,2.95-1.2,1.53-2.23.54-3.35-.31-3.09-2.33-5.69-2.5-8.5.95-2,2.45-4.64,4.19-8.63,3.71-3.21-.39-6.96,1.67-9.35,3.26-5.97,3.99-12.86,4.12-19.14,6.47-4.71,1.76-10.24,1.1-14.31,4.91-.92.86-2.26,1.27-3.74.79-2.69-.87-4.87-1.12-4.99,2.97-.07,2.23-2.01,3.17-3.98,1.6-5.19-4.14-10.6-2.85-15.74-.42-3.19,1.51-7.02,1.73-9.64,3.4-6.19,3.94-12.69,4.95-19.68,5.21-1.25.05-2.39,1.69-3.69,2.39-2.72,1.46-4.75,5.78-8.8,1.06-1.64-1.91-5.32.59-6.9,2.19-2.08,2.1-4.52,3.94-6.3,6.21-2.17,2.78-3.8,5.92-3.72,9.97.27,15.64.1,31.29.12,46.94,0,5.74,3.15,8.04,9.07,8.33,6.3.3,12.53.49,18.75-.63.41,1.58-.36,2.01-1.81,2.01-6.81-.03-13.62.15-20.42-.07-4.62-.15-6.93-3.15-6.95-8.45-.07-19.57-.13-39.15-.12-58.72,0-9.11.2-18.22.31-27.33.06-24.61.12-49.23.16-73.84.02-11.64.12-23.29-.07-34.93-.06-3.55,1.18-4.53,4.6-4.5,15.82.15,31.64-.05,47.45.15,3.9.05,5.11-1.02,5.1-5.03-.14-44.74-.18-89.48.1-134.22.02-3.72-2.97-5.5-3.2-8.65,3.35.7,4.21,2.74,4.2,6.09-.12,44.44-.09,88.88-.1,133.32q0,8.16,8.01,8.75c1.82.34,3.65.17,5.48.17,65.22,0,130.44,0,195.65.03,1.97,0,3.99-.43,5.91.4,10.95,1.77,14.89,11.65,14.85,19.84-.08,19.04-.12,38.07-.18,57.11Z"/>
      <path class="cls-22" d="M1118.62,626.11c1.46,3.5,2.93,7,4.57,10.91-5.16.53-9.53-1.16-13.93-2.21-12.61-3.01-25.26-5.69-38.14-7.22-3.52-.42-7-.13-10.39.78-6.16,1.66-7.66,6.35-3.59,11.3,3.1,3.78,7.61,5.35,12.08,6.57,9.28,2.53,18.69,4.6,27.97,7.11,6.14,1.66,12.26,3.48,17.81,6.9-8.3-2.16-16.55-4.58-24.92-6.42-11.99-2.64-24.06-4.93-36.12-7.22-5-.95-9.69,1.03-10.53,4.51-1.13,4.66,1.81,7.41,5.33,9.7,6.56,4.26,14.16,5.55,21.53,7.48,12.84,3.37,25.67,6.74,37.96,11.89.93.39,1.9.61,2.89,2.08-5.14-1.61-9.79-3.04-14.43-4.52-13.93-4.43-28.09-7.95-42.45-10.72-3.31-.64-6.72-.99-7.99,2.74-1.28,3.77.07,7.35,3.67,9.44,5.9,3.42,12.21,5.99,18.64,8.26,11.08,3.9,22.16,7.79,33.24,11.68l-.38,1.18c-4.84-1.57-9.69-3.09-14.51-4.71-7.7-2.59-15.38-5.25-23.07-7.87-1.57-.54-3.45-1.42-4.56.23-.93,1.36-.36,3.16.37,4.76,1.32,2.88,3.62,4.8,6.23,6.28,19.33,11.01,38.91,21.56,59.87,29.23,6.94,2.54,14.3,2.84,21.64,2.99,5.97.12,11.96.02,17.73,1.99-.16,10.39-2.81,13.24-13.38,12.88-18.37-.61-36.72-1.43-55.06-2.84-8.92-.69-17.91-.55-26.84-.78-14.43-.37-28.85-1.7-43.31-1.33-14.45.37-28.85-1.51-43.31-1.1-3.73.11-7.5-1.28-11.35-.74-6.27-.81-9.92-4.95-12.82-10.05-1.85-.78-2.57-2.5-3.4-4.12-9.16-17.84-18.2-35.73-27.71-53.39-.93-1.73-2.03-3.48-1.45-5.62,3-2.32,4.04.55,5.14,2.21,1.45,2.2,2.35,4.77,4.1,6.82,1.09,1.28,2.23,2.68,4.15,2.18,1.84-.48,1.79-2.23,1.9-3.69.17-2.22.92-4.21,2.11-6.05,2.49-3.85,3.19-7.92,1.88-12.37-1.35-4.6,2.63-7.65,3.67-11.59.67-2.51,2.39-4.69,1.9-7.56-.24-1.39.74-2.46,1.66-3.48,4.58-5.07,8.61-10.54,11.84-16.57,2.03-3.79,3.62-7.87,7.16-10.67.92-.73,1.54-1.9,1.61-3.04.46-7.87,5.06-14.38,7.43-21.61,2.43-7.43,5.22-15.44,11.92-20.8,1.6-1.28,2.48-3.1,3.01-5.07.76-2.79-.15-4.74-3.14-4.96-5.14-.39-9.98-2.65-15.26-2.25-1.55.12-4.07.26-4.19-1.61-.14-2.07,2.37-1.65,3.9-1.92.49-.09.99-.08,1.5-.1,11.98.29,23.96-.69,35.93.73,5.81.69,8-2.65,5.72-8.05-.97-2.3-2.58-4.28-3.51-6.61-1.36-3.4-.8-5.87,3.26-6.62,1.17.69,2.4,1.03,3.79,1.02,10.94-.09,21.85,1.9,32.79.92,12.94-1.16,20.7,3.84,25.7,16.32,11.01,27.49,23.32,54.47,35.09,81.66.39.9.71,1.83,1.07,2.75Z"/>
      <path class="cls-61" d="M469.15,176.33c1.4,52.47-44.02,99.19-102.05,97.33-50.36-1.61-96.34-41.64-93.85-101.46,2.1-50.54,40.81-93.56,97.38-93.98,56.78-.42,98.47,43.3,98.53,98.11Z"/>
      <path class="cls-61" d="M703.28.04c52.73-1.47,100.07,43.35,99.25,99.77-.74,51.12-44.57,98.78-104.3,95.04-49.42-3.09-94.92-42.24-92.87-101.8C607.06,43.69,647.11-1.01,703.28.04Z"/>
      <path class="cls-27" d="M1179.08,329.66c-5.95,11.44-15.21,20.08-24.53,28.59-14.03,12.81-29.44,23.83-45.55,33.84-7.55,4.69-14.54,9.94-19.97,17.04-1.68,2.2-2.51,2.03-3.58-.51-7.46-17.62-13.2-35.72-15.52-54.79-1.23-3.55.64-5.87,2.92-8.3,10.56-11.24,20.53-22.98,29.71-36.25-12.2,6.18-24.12,11.31-36.98,13.9-2.15.43-4.24.49-6.39.32-10.82.31-21.63.25-32.32-1.68-10.96-1.98-14.07-5.21-14.64-16.08-.86-16.47.21-32.93,2.29-49.26.56-4.36-.53-5.94-4.25-7.07-4.17-1.27-8.04-3.22-10.91-6.69-3.32-4-3.23-6.64.51-10.31,7.71-7.58,15.44-15.06,21.92-23.85,4.75-6.43,4.89-13.33,5.1-20.61.3-10.64,4.03-20.43,8.17-30.07,1.77-.86,3.22.18,4.66.88,16.67,8.1,32.9,17.05,49.45,25.39,1.64.83,3.23,1.73,3.84,3.65.51,7.78,2.46,14.98,7.55,21.21,3.17,3.87,4.14,8.6,3.87,13.62-.15,2.81-.25,5.67.23,8.47.48,2.82,1.03,5.73,4.28,6.75,3.4,1.07,6.59.59,9.33-1.85,2.4-2.14,3.88-4.96,5.65-7.57,3.91-5.79,8.97-9.81,16.35-9.93,9.9-.16,17.32,6.98,18.12,16.87.97,12.03-3.52,21.85-11.83,30.06-2.87,2.84-3.21,5.08-1.44,8.68,6.82,13.78,16.41,24.91,29.83,32.6-1.08,8.09,1.52,15.51,4.13,22.94Z"/>
      <path class="cls-17" d="M1092.35,187.68c-13.41-7.96-27.55-14.52-41.3-21.82-5.26-2.79-10.67-5.31-16.01-7.95-13.08-7.06-26.32-13.84-39.2-21.27-12.05-6.95-24.19-13.94-33.81-24.3-5.37-5.78-9.45-12.27-10.58-20.34-.36-2.58.12-4.95.66-7.37.4-1.77,1.34-2.83,3.46-2.7,12.76.75,25.63.24,38.19,3.07,7.34,1.66,13.34,6.4,19.91,9.8,14.65,7.57,29.26,15.22,43.71,23.16,3.18,1.75,5.11,1.15,7.71-.74,10.86-7.88,21.97-15.38,35.05-19.24,18.36-5.42,36.39-3.24,54.13,2.72,19.62,6.59,38.02,15.48,52.68,30.61,11.49,11.86,16.88,26.55,19.1,42.62,3.54,25.66-6.09,48.34-15.99,70.97-.5,1.13-1.24.8-2.02.74-2.23-.06-4.15-1.02-6.09-1.98-34.82-17.39-69.63-34.83-104.47-52.2-1.92-.96-4.02-1.69-5.13-3.77Z"/>
      <path class="cls-40" d="M615.89,232.63c25.87-.05,47.17,5.77,65.4,20.33,13.04,10.42,22.65,23.58,29.15,39.11,6.75,16.1,8.18,33.01,6.41,49.82-2.92,27.79-15.83,50.64-38.49,67.54-20.66,15.41-44.23,21.1-69.51,18.95-20.93-1.78-39.79-9.31-55.93-23.37-18.69-16.29-30.32-36.63-33.47-60.9-4.04-31.17,4.23-58.98,26.7-81.99,19.94-20.42,44.16-29.81,69.73-29.49Z"/>
      <path class="cls-57" d="M964.42,908.84c1.3-2.29,3.41-1.06,4.87-.71,14.17,3.33,28.52,5.76,42.92,7.59,13.76,1.75,27.58,3.16,41.41,4.42,26.32,2.4,52.7,2.27,79.06,3.18,15.13.52,30.23,0,45.22-.67,30.69-1.38,61.33-4.21,91.52-10.53,1.12-.23,2.32-.1,3.49-.14.72,22.6,1.35,45.2,2.23,67.8.15,3.73-1.19,4.2-4.47,4.2-101.74-.09-203.47-.07-305.21-.06-2.34,0-4.52.51-4.32-3.36,1.22-23.89,2.22-47.8,3.29-71.7Z"/>
      <path class="cls-32" d="M978.38,545.27c-1.44.15-2.88.29-4.32.44,6.79-.61,13.02,2.5,19.63,2.78,3.55.15,5.02,2.28,3.91,5.81-.4,1.26-.58,2.81-1.42,3.68-4.61,4.72-7.81,10.15-10.84,16.05-2.05,4.01-3.62,8.09-4.94,12.25-.94,2.97.04,6.26-4.11,8.07-1.5.65-.07,4.8-1,7.4-.86,2.41-1.51,4.5-3.83,6.05-3.65,2.44-4.06,7.06-6.28,10.52-3.47,5.42-6.9,10.81-11.58,15.3-.57.54-1.45,1.45-1.31,1.93,1.79,6.31-3.11,10.38-5.06,15.41-.48,1.23-1.19,2.28-.46,3.74,2.32,4.64.86,8.97-1.5,13.05-1.36,2.34-2.59,4.57-2.23,7.42.2,1.52,0,3.17-1.71,3.77-1.8.64-3.62.51-5.07-1.02-2.18-2.31-3.95-4.89-5.13-7.86-.74-1.88-1.18-4.18-4.08-3.75-1.99.25-2.49-1.41-3.12-2.64-6.33-12.53-12.6-25.09-19.23-37.47-.48-.9-.6-1.88-.51-2.89-3.36-9.13-8.49-17.4-12.83-26.04-10.15-20.2-20.56-40.27-30.79-60.43-4.84-9.53-1.71-14.62,8.91-14.42,11.98.23,23.96.49,35.92,1.13,3.52.19,5.13-.99,5.88-4.09.26.32.53.65.79.97,3.02,4.6,5.01,9.74,7.37,14.67,2.3,4.78,5.56,7.04,10.95,6.9,13.99-.37,27.93,1.58,41.94,1.02,2.16-.09,4.83-.62,6.03,2.25Z"/>
      <path class="cls-46" d="M1092.35,187.68c16.52,8.14,33.06,16.24,49.55,24.44,21.11,10.5,42.18,21.07,63.26,31.64,1.02.51,1.92,1.24,2.88,1.86-11.03,20.37-22.06,40.73-33.09,61.1-4.88-.13-8.16-3.44-11.46-6.25-9.23-7.87-16.02-17.63-21.06-28.65-1.02-2.22-.83-3.47,1.13-5.28,8.61-7.94,14.28-17.3,13.6-29.65-.45-8.19-4.29-14.02-11.41-16.3-7.24-2.32-14.55.07-19.37,6.52-1.88,2.52-3.37,5.33-5.22,7.87-2.24,3.08-5.1,5.08-9.21,4.98-5.22-.13-7.68-2.05-8.35-7.17-.24-1.8-.33-3.66-.2-5.47.61-8.32-1.47-15.64-6.95-22.15-4.21-5-4.36-11.28-4.1-17.5Z"/>
      <path class="cls-17" d="M459.14,837.35c-.01-20.8,17.49-38.23,38.4-38.22,21.12,0,38.55,17.17,38.6,38.01.05,21.74-16.99,38.89-38.67,38.9-21.29,0-38.32-17.18-38.33-38.69Z"/>
      <path class="cls-17" d="M850.19,837.38c.79,18.55-14.15,37.93-37.23,38.57-20.88.58-38.72-16.8-38.86-37.13-.16-21.98,16.24-39.42,37.11-39.72,22.66-.32,40.17,18.88,38.98,38.28Z"/>
      <path class="cls-63" d="M904.21,623.3c6.18,9.72,10.68,20.33,16.11,30.45,2.24,4.19,4.5,8.36,6.75,12.55,4.89,9.68,9.77,19.36,14.68,29.03,5.75,11.32,11.54,22.63,17.31,33.95-6.66,5.83-14.8,5.78-22.64,4.62-25.96-3.84-41.53-22.04-42.53-48.4-.76-20.16,3.33-39.55,8.52-58.8.32-1.19.33-2.72,1.79-3.39Z"/>
      <path class="cls-34" d="M1059.18,323.51c12.98-2.74,25.57-6.65,37.44-12.65,2.48-1.25,4.87-2.69,8.24-4.55-2.7,7.39-7.42,12.28-11.51,17.46-6.77,8.58-13.77,17-21.62,24.63-1.67,1.62-1.68,3.48-1.82,5.44-1.19-1.11-.23-3.12-1.73-4.1-1.14-7.53-2.81-14.91-5.83-21.95-.74-1.73-1.55-3.27-3.18-4.28Z"/>
      <path class="cls-32" d="M546.93,821.17c2.5,1.9,2.78,4.79,3.18,7.53.67,4.52,2.92,6.48,7.72,6.45,29.24-.15,58.49-.07,87.73-.07,35.74,0,71.48,0,107.21,0,2.15,0,4.41.37,6.28-1.05,3.75-2.85,1.29,1.29,2.06,1.79-1.49.09-2.97.25-4.46.25-67.38.01-134.75-.01-202.13.09-3.73,0-5.72-.29-5.56-4.86.12-3.35-1.3-6.75-2.04-10.12Z"/>
      <path class="cls-45" d="M691.28,629.26c-67.73.02-135.47.04-203.2.05-1.31,0-2.68.28-3.84-.65,29.79-.07,59.59-.17,89.38-.2,37.12-.03,74.25-.01,111.37.02,2.11,0,4.33-.54,6.29.78Z"/>
      <path class="cls-32" d="M504.12,786.95c-.84-1.88.34-2.01,1.63-1.71,12.59,2.88,24.15,7.61,32.31,18.31.63.83,1.28,1.56.27,2.53-9.05-10.57-20.26-17.31-34.21-19.12Z"/>
      <path class="cls-32" d="M453.22,812.29c-.27-3.55,2.28-5.65,4.21-8.03,7.25-8.95,16.74-14.41,27.69-17.55.93-.27,1.51.42,1.98,1.13-14.82,3.28-25.6,12.14-33.88,24.45Z"/>
      <path class="cls-3" d="M427.17,406.27c-.7,1.62-1.46,3.39-3.65,3.22-1.84-.14-3.08-1.65-3.09-3.28,0-1.95,1.44-3.34,3.54-3.19,1.78.12,2.9,1.32,3.2,3.25Z"/>
      <path class="cls-1" d="M784.95,481.56c-2.16-.3-3.36-1.53-3.47-3.23-.12-1.81,1.13-3.09,3.01-3.21,2.15-.14,3.5,1.11,3.43,3.21-.07,1.81-1.59,2.68-2.97,3.23Z"/>
      <path class="cls-70" d="M805.4,137.91c-1.68-.2-2.88-1.38-2.76-3.2.12-1.76,1.25-3.07,3.33-2.84,1.88.21,3.18,1.29,3.07,3.19-.12,1.86-1.41,2.89-3.64,2.85Z"/>
      <path class="cls-66" d="M452.5,391.52c-1.81-.32-3.28-1.24-3.33-3.36-.05-1.99,1.37-2.94,3.14-2.97,1.79-.04,3.11.87,3.15,2.91.04,1.91-1,2.99-2.96,3.43Z"/>
      <path class="cls-6" d="M957.08,206.16c-.47,1.9-1.67,3.18-3.45,3.13-1.8-.05-3.07-1.35-2.97-3.29.1-1.88,1.28-3.22,3.2-3.05,1.77.16,2.85,1.5,3.22,3.21Z"/>
      <path class="cls-49" d="M199.14,316.75c-2.1.23-3.3-1.08-3.41-2.78-.11-1.68.91-3.2,2.98-3.28,1.94-.08,3.28.92,3.41,2.82.12,1.89-1.03,3.04-2.98,3.24Z"/>
      <path class="cls-8" d="M572.04,116.94c-2.2,0-3.36-1.35-3.56-2.96-.22-1.71.83-3.12,2.83-3.25,2.11-.13,3.62.85,3.58,3-.03,1.71-1.15,2.99-2.85,3.2Z"/>
      <path class="cls-5" d="M473.4,128.82c2.32.24,3.43,1.62,3.36,3.33-.06,1.75-1.25,2.97-3.35,2.85-2-.12-3.28-1.13-3.1-3.05.17-1.76,1.6-2.77,3.08-3.13Z"/>
      <path class="cls-42" d="M525.21,120.37c-.02,2.27-1.01,3.44-2.94,3.5-1.94.06-3.03-1.12-3.17-3-.15-2.02.93-2.95,2.95-2.99,1.98-.04,3.09.77,3.16,2.48Z"/>
      <path class="cls-74" d="M212.2,300.08c-.31,2.16-1.66,2.87-3.52,2.84-1.94-.04-3.27-.91-2.95-3.03.27-1.8,1.43-3.19,3.35-3,1.75.17,2.91,1.41,3.11,3.19Z"/>
      <path class="cls-30" d="M712.48,390.65c-.13,1.5-1.08,2.85-3.01,2.72-1.78-.12-3.18-1.43-3.15-3.2.03-1.71,1.16-3.09,3.19-3.01,1.95.08,2.97,1.15,2.97,3.49Z"/>
      <path class="cls-48" d="M159.56,386.29c-.37,2.19-1.19,3.42-3.25,3.32-1.95-.09-3.11-1.19-3.05-3.06.06-1.86,1.31-2.89,3.22-2.95,2.11-.07,2.69,1.37,3.08,2.69Z"/>
      <path class="cls-35" d="M897.88,175.62c-1.84-.34-3.06-1.32-3.03-3.26.02-1.91,1.17-3.23,3.05-3.14,1.72.08,3.2,1.16,3.17,3.13-.03,1.92-1.51,2.77-3.19,3.27Z"/>
      <path class="cls-16" d="M760.13,436.55c-.38,1.81-1.31,3.08-3.33,2.98-2.06-.1-2.89-1.4-2.77-3.35.1-1.8,1.09-2.68,2.9-2.67,2.04,0,3.01,1.08,3.21,3.05Z"/>
      <path class="cls-50" d="M470.3,380.9c-.18,1.85-1.38,2.8-3.28,2.67-1.96-.12-2.93-1.35-2.85-3.29.08-2.07,1.44-2.84,3.31-2.79,2.06.05,2.85,1.33,2.83,3.41Z"/>
      <path class="cls-11" d="M770.18,449.78c.03,1.76-.98,2.86-2.93,2.92-1.95.07-3.11-.98-3.11-2.96,0-1.91,1.12-3.08,3.02-3.18,1.96-.1,3.03.95,3.03,3.21Z"/>
      <path class="cls-13" d="M776.24,466.56c-1.77.1-3-.75-3.11-2.77-.1-1.96.94-3.09,2.91-3.26,2.03-.18,3.16.94,3.28,2.83.12,1.87-.75,3.18-3.08,3.2Z"/>
      <path class="cls-59" d="M486.08,373.48c-.71,1.93-1.52,3.33-3.48,3.31-1.9-.02-3.25-1.14-3.24-2.94.02-1.96,1.33-3.27,3.48-3.23,2.04.04,2.45,1.76,3.23,2.86Z"/>
      <path class="cls-55" d="M871.16,158.01c-.39,2.32-1.73,3.37-3.5,3.28-1.84-.1-2.95-1.4-2.81-3.38.14-1.95,1.27-3.2,3.21-2.9,1.7.26,2.85,1.5,3.1,3.01Z"/>
      <path class="cls-67" d="M929.12,188.47c-.1,1.96-1.03,3.27-3,3.3-1.98.04-2.99-1.21-3.03-3.17-.04-1.8.93-2.83,2.68-2.91,1.9-.09,3.18.74,3.36,2.78Z"/>
      <path class="cls-4" d="M792,496.58c-2.55-.04-3.71-1.49-3.64-3.06.08-1.83,1.43-3.27,3.64-3.05,1.95.19,3.01,1.61,2.84,3.3-.17,1.64-1.32,2.99-2.84,2.82Z"/>
      <path class="cls-15" d="M800.15,509.16c-.06,2.39-1.08,3.34-3.09,3.31-2.05-.03-2.98-1.11-2.94-3.07.04-1.99,1.15-2.95,3.11-2.94,2.05,0,2.92,1.13,2.92,2.7Z"/>
      <path class="cls-73" d="M837.57,148.9c-2.36-.04-3.44-.96-3.47-2.96-.03-1.97.91-3.05,2.92-3.06,1.9,0,3.12.81,3.08,2.88-.04,1.89-.91,3.06-2.53,3.14Z"/>
      <path class="cls-43" d="M175.2,356.73c-.27,1.89-1.33,2.91-3.27,2.9-2.07,0-2.94-1.19-2.87-3.12.07-1.97,1.11-2.96,3.14-2.88,2.03.07,2.92,1.16,3.01,3.11Z"/>
      <path class="cls-71" d="M436.94,393.6c2.7-.11,3.76,1.3,3.95,2.9.21,1.78-1.02,3.05-2.91,3.22-2.16.2-3.59-1.12-3.54-3.04.04-1.53,1.22-2.98,2.51-3.08Z"/>
      <path class="cls-36" d="M538.49,121.05c-2.05-.05-3.16-1.38-3.03-3.13.13-1.67,1.3-3.04,3.31-3,2.09.04,3.02,1.69,3.03,3.26,0,1.73-1.32,2.94-3.31,2.87Z"/>
      <path class="cls-44" d="M558.15,115.49c-.06,1.99-.98,3.22-2.9,3.38-1.93.17-3.11-.79-3.24-2.79-.13-1.95.68-3.14,2.74-3.24,1.94-.1,3.07.82,3.4,2.65Z"/>
      <path class="cls-21" d="M809.17,541.55c.07,2.62-.9,3.78-2.85,3.83-1.92.04-3.04-1.09-3.19-2.98-.17-2.03.94-2.98,2.91-3.05,1.99-.07,3.05.86,3.13,2.21Z"/>
      <path class="cls-38" d="M278.12,229.8c-2.09-.15-3.23-1.27-3.31-3.13-.08-1.95,1.11-3.05,3.07-3.06,1.88,0,3.28.84,3.22,2.89-.06,1.88-1.41,2.82-2.98,3.31Z"/>
      <path class="cls-24" d="M244.44,260.65c.05,2.34-1.05,3.69-2.84,3.75-1.7.06-3.21-1-3.39-2.95-.19-2.06,1.37-3.05,3.01-3.28,1.85-.25,3.04.9,3.22,2.47Z"/>
      <path class="cls-76" d="M192.35,327.69c-.19,1.94-1.15,3.04-3.19,2.97-1.97-.07-3.08-.99-2.99-3.08.08-2,1.07-2.99,3.12-2.98,2.1,0,2.94,1.16,3.07,3.09Z"/>
      <path class="cls-48" d="M587.48,114.99c-1.6-.11-2.56-1.16-2.44-3.14.12-1.97,1.31-3.02,3.18-2.87,1.83.15,2.94,1.39,2.88,3.29-.07,1.99-1.31,2.82-3.62,2.72Z"/>
      <path class="cls-70" d="M411.11,419.82c-2.41.13-3.63-1.07-3.71-2.86-.08-1.82,1.26-3.15,3.08-3.29,1.94-.15,3.23,1.28,3.29,3,.06,1.68-.91,3.17-2.66,3.15Z"/>
      <path class="cls-31" d="M149.86,404.65c-1.4-.04-2.66-.85-2.65-2.87.01-1.9,1.11-3.09,2.99-3.15,1.9-.06,3.01,1.05,3.08,2.99.07,1.97-.89,3.03-3.42,3.02Z"/>
      <path class="cls-52" d="M722.13,397.56c1.84.21,3.06.99,3.05,3.04-.01,1.97-.94,2.99-2.97,2.99-1.94,0-3.12-.81-3.08-2.86.03-1.93,1.14-2.92,3-3.18Z"/>
      <path class="cls-20" d="M820.98,136.84c2.57.07,3.63,1.49,3.71,3.15.09,1.83-1.21,2.93-3.21,2.92-2.05,0-3.18-1.27-3.2-3.04-.01-1.81,1.29-2.91,2.7-3.03Z"/>
      <path class="cls-10" d="M222.2,286.52c-.18,1.78-.87,3.11-2.92,3.22-1.96.11-3.14-.8-3.23-2.8-.08-1.87.65-3.18,2.76-3.23,1.92-.05,3.07.84,3.38,2.81Z"/>
      <path class="cls-23" d="M882.92,161.89c1.47.61,3.05,1.32,3.1,3.23.05,1.93-1.21,3.02-3.08,3.07-1.93.05-3.08-1.07-3.11-3.02-.04-1.94,1.18-2.91,3.09-3.29Z"/>
      <path class="cls-65" d="M183.3,342.12c-.12,2.03-1.46,3.1-3.18,3-1.65-.09-3.06-1.13-2.95-3.19.1-1.99,1.42-3.05,3.16-3.03,1.81.02,2.86,1.35,2.98,3.22Z"/>
      <path class="cls-25" d="M253.51,251.96c-1.83-.14-3.33-.75-3.31-2.89.02-1.93,1.22-3.13,3.07-3.26,1.95-.14,3.19,1.14,3.3,2.99.11,1.91-1.08,3.03-3.06,3.15Z"/>
      <path class="cls-2" d="M812.19,558.57c.16,2.13-1.09,3.05-2.96,3.09-1.87.03-3.12-.96-3.12-2.99,0-1.99,1.22-3.08,3.04-3.17,1.95-.1,2.96,1.13,3.04,3.08Z"/>
      <path class="cls-60" d="M970.08,215.67c-.4,1.75-1.2,3.03-3.24,3.15-1.88.11-2.92-1.08-3.13-2.58-.25-1.8.71-3.22,2.73-3.42,2.04-.2,2.9,1.24,3.63,2.86Z"/>
      <path class="cls-72" d="M802.02,528.61c-1.66-.05-2.9-.89-2.89-2.9,0-1.94,1.26-3.05,3.03-3.19,1.94-.15,2.92,1.03,3.01,3.01.09,2.06-.91,3-3.14,3.09Z"/>
      <path class="cls-29" d="M855.77,151.89c-.6,1.53-1.27,3.03-3.31,2.97-1.95-.06-3.14-1.43-3.2-3.08-.06-1.73,1.15-2.98,3.17-3,2.07-.02,2.74,1.43,3.34,3.1Z"/>
      <path class="cls-6" d="M943.13,197.07c.18,2.1-1.27,3.14-2.89,3.24-1.68.1-3.1-.93-3.16-2.97-.06-2,1.23-3.18,2.92-3.24,1.65-.06,3.15.87,3.13,2.97Z"/>
      <path class="cls-53" d="M498.29,364.61c2.01.24,3.22,1.32,3.18,3.22-.04,1.9-1.21,2.97-3.22,2.94-2.01-.02-3.15-1.04-3.06-3.02.09-1.9,1.33-2.89,3.1-3.14Z"/>
      <path class="cls-15" d="M229.82,270.71c1.94.13,3.31,1.19,3.25,3.06-.06,1.78-1.25,2.98-3.29,2.98-1.9,0-2.79-1.21-2.89-2.79-.11-1.85.86-3.15,2.93-3.25Z"/>
      <path class="cls-7" d="M265.28,234.51c1.9.04,3.09.89,3.11,2.91.03,1.98-1.24,3.1-2.97,3.18-1.81.09-3.08-1.2-3.17-3-.09-1.86,1.11-2.93,3.02-3.09Z"/>
      <path class="cls-33" d="M979.77,222.65c2.09,0,3.3,1.13,3.22,3.01-.08,1.82-1.45,3-3.3,3.05-1.76.05-2.7-1.12-2.77-2.84-.07-1.96.86-3.13,2.85-3.22Z"/>
      <path class="cls-44" d="M493.13,128.32c-.44,1.9-1.58,2.85-3.49,2.71-2.01-.14-2.93-1.37-2.76-3.26.17-1.9,1.45-3.05,3.31-2.76,1.68.26,2.9,1.42,2.95,3.31Z"/>
      <path class="cls-43" d="M517.14,362.61c-.36,1.79-1.5,2.94-3.31,2.93-1.93,0-2.9-1.29-2.86-3.2.04-2.01,1.19-2.95,3.15-2.88,1.96.07,2.9,1.2,3.03,3.15Z"/>
      <path class="cls-12" d="M167.2,371.5c-.37,1.71-1.34,3.03-3.25,3.06-2.01.03-2.95-1.25-2.89-3.21.06-1.77.96-2.75,2.79-2.78,1.95-.03,3.13.83,3.35,2.94Z"/>
      <path class="cls-78" d="M749.15,423.58c-.09,2.55-1.44,3.13-3.33,3.04-1.83-.09-2.72-1.22-2.64-2.88.09-1.87,1.35-3.12,3.19-3.08,1.86.05,2.97,1.24,2.79,2.91Z"/>
      <path class="cls-18" d="M509.15,124.1c.09,2.09-1.14,2.98-2.99,3.02-1.89.04-3.09-.86-3.02-2.93.07-1.91,1.15-3.16,2.97-3.18,1.81-.02,2.94,1.17,3.04,3.09Z"/>
      <path class="cls-28" d="M811.28,572.3c2.55.05,3.2,1.5,3.05,3.33-.13,1.61-.98,2.78-2.87,2.75-2.13-.04-3.03-1.63-3.11-3.22-.09-1.84,1.23-2.96,2.92-2.86Z"/>
      <path class="cls-29" d="M912.17,177.29c1.43.28,2.67.9,2.93,2.68.3,2.1-1.05,3.35-2.69,3.59-1.75.26-3.14-.92-3.36-2.89-.24-2.17,1.29-2.84,3.12-3.38Z"/>
      <path class="cls-26" d="M737.99,411.56c-.66,1.53-1.34,3.02-3.35,3-2.1-.03-2.92-1.46-2.81-3.21.09-1.51.96-2.73,2.81-2.77,2.06-.04,2.74,1.38,3.36,2.99Z"/>
      <path class="cls-32" d="M446.98,832.06c-1.85-7.03.88-12.72,5.26-17.93-2.33,5.81-4.42,11.69-5.26,17.93Z"/>
      <path class="cls-51" d="M606.02,111.76c.27,2.08-.64,2.42-2.02,2.29-1.74-.16-2.84-1.1-2.76-2.82.09-1.8,1.23-3.4,3.07-3.15,2.23.31.63,2.94,1.71,3.67Z"/>
      <path class="cls-32" d="M540.84,809.21c3.57,2.74,6.83,5.63,5.5,10.85-1.83-3.62-3.67-7.23-5.5-10.85Z"/>
      <path class="cls-27" d="M1276.84,790.24c-1.22-4.33-.88-8.73-.64-13.12,1.28,4.32,1.02,8.72.64,13.12Z"/>
      <path class="cls-9" d="M978.38,545.27c-16.09-.6-32.18-1.48-48.28-1.66-5.84-.06-9.43-1.92-11.45-7.33-2-5.36-6.25-9.79-6.56-15.86,1.81-2.47,4.23-3.22,7.26-3.09,9.89.41,19.78.62,29.68.91,4.35-2.31,8.66-1.5,12.97.16,16.72,1.54,33.52,1.12,50.27,1.92,3.16.15,5.88.55,7.92,3.13-3.11,1.47-3.67,3.49-1.76,6.46,1.51,2.36,2.73,4.92,3.9,7.48,2.48,5.41.34,8.86-5.58,8.76-12.79-.21-25.57-.58-38.36-.88Z"/>
      <path class="cls-79" d="M1268.17,624.4c-.75,2.42,1.04,4.57.71,6.94-4.99-.02-9.99-.03-14.98-.05-4.07-.02-6.3-1.85-6.85-6.09-3.09-24.19-5.12-48.45-3.93-72.83.83-17.07,4.39-33.71,9.56-49.99.12-.39.6-.67,1.45-1.58-.47,8.41-.75,16.13-1.35,23.83-1.14,14.57-1.15,29.13.02,43.7.64,7.92.23,15.88,1.16,23.82,1.08,9.19,1.33,18.47,2.25,27.67.58,5.75,1.39,6.07,7.02,4.96,1.61-.32,3.29-.27,4.94-.39Z"/>
      <path class="cls-54" d="M1204.56,358.6c-2.19,11.01-5.75,21.45-11.25,31.14-8.01,14.13-18.7,26.11-30.27,37.38-2.89,2.82-5.23,4.02-9.42,1.42-12.68-7.87-25.79-15.05-38.6-22.7-2.32-1.39-3.34-1.11-4.78.95-2.6,3.74-3.84,8.08-5.84,12.08-.58,1.16-1.08,2.84-2.74,2.3-1.81-.59-1.69-2.17-1.03-3.74,1.35-3.2,2.42-6.55,4-9.63,4.04-7.92,6.79-8.76,14.33-4.18,10.4,6.32,21.79,10.62,32.55,16.19,3.06,1.58,5.37.35,7.78-1.33,15.59-10.83,27.15-25.17,36.13-41.68,3.24-5.95,6.09-12.12,9.12-18.18Z"/>
      <path class="cls-69" d="M1054.2,366.65c-3.69,8.48-6.43,17.25-8.81,26.16-1.3,4.86-.96,9.87-2.19,14.7-.49,1.93.09,2.97,2.72,2.39,4.75-1.05,9.25-2.77,13.62-4.69,6.03-2.64,11.05-1.6,16.29,2.13,3.38,2.41,5.5,6.1,9.35,8.03,1.57.79-.2,2.91-.72,4.28-3.87,10.05-8.36,19.86-11.58,30.16-5.59,17.9-10.14,35.98-9.81,54.94.01.83.07,1.7-.14,2.48-.35,1.29-.98,2.78-2.56,2.49-1.36-.25-1.24-1.76-1.28-2.93-.25-6.98.19-13.9,1.33-20.8,3.35-20.36,8.63-40.27,18.23-58.5,3.49-6.62.66-8.69-2.71-12.82-5.6-6.86-11.39-8.77-19.2-3.92-3.79,2.36-8.04,3.99-12.05,6-3.09,1.54-4.91.86-5.91-2.63-1.58-5.52-.68-10.93.78-16.16,2.95-10.56,7.64-20.48,12.26-30.4.29-.62.58-1.23.87-1.85.51.32,1.02.65,1.53.97Z"/>
      <path class="cls-56" d="M962,518.4c-4.32-.05-8.64-.1-12.97-.16,1.56-10.02,5.12-19.47,8.3-29.03.41-1.25.3-3.57,2.24-3.39,2.49.23,1.4,2.58,1.5,4.03.5,7.79-1.56,15.48-1.06,23.29.13,2.05.12,3.95,2,5.25Z"/>
      <path class="cls-56" d="M1096.03,443.81c.14,3.82-3.36,7.67-6.98,7.66-3.33-.01-7.43-3.52-7.65-6.54-.27-3.73,4.01-8.36,7.7-8.33,3.4.03,6.79,3.56,6.93,7.22Z"/>
      <path class="cls-58" d="M1079.76,491.46c-3.81.13-7.41-3.17-7.66-7.03-.25-3.97,2.4-6.72,6.72-6.95,4.69-.25,7.18,2.25,7.24,7.28.05,3.98-2.37,6.57-6.3,6.7Z"/>
      <path class="cls-17" d="M339.07,783.94c-33.6-.03-67.2-.05-100.8-.08-3.78-1.49-3.61-4.88-3.67-7.99-.17-8.98-.06-17.95-.06-26.93,0-21.28-.03-42.56.03-63.84,0-2.91-.62-6.08,2.02-8.4,4.31-1.59,8.8-.58,13.2-.83,4.74-.27,9.55.58,14.24-.8,3.18-.21,6.41-.99,9.37.95,1.8,2.51,1.29,5.42,1.33,8.2.09,6.32.03,12.63.04,18.95,0,3.13,1.38,4.52,4.52,4.49,4.82-.06,9.65-.08,14.48,0,3.36.06,4.83-1.38,4.82-4.75-.02-6.65-.06-13.3.03-19.95.03-2.29-.28-4.72,1.71-6.52,21.79.03,43.57.05,65.36.08,3.87,0,6.66,1.65,6.65,5.74-.08,32.89-.28,65.78-.45,98.67-3.12-1.52-2.3-4.48-2.3-6.93,0-17.74-.3-35.48.14-53.22.06-2.32.03-4.64-.03-6.96-.17-9.08.07-18.17-.09-27.25-.1-5.71-1.05-6.66-6.67-6.77-5.46-.11-10.92-.16-16.38.02-4.73.15-5.14.85-4.21,5.86.43,28.23.7,56.47.21,84.69-.08,4.56.61,9.8-3.47,13.55Z"/>
      <path class="cls-17" d="M225.26,568.51c12.95.02,25.9.04,38.85.06,2.05.37,3.18,1.57,3.45,3.66.19,1.49.24,2.97.24,4.47.01,30.19.04,60.38-.04,90.57,0,3.16.8,6.9-3.44,8.45-2.27.61-4.59.55-6.91.55-22.52-.03-45.03.98-67.56.67-1.81-.02-3.65-.12-5.43.4-5.39.88-10.82.46-16.23.4-1.99-.02-3.98-.33-5.08-2.38-2.52-1.62-3.08-4.03-3.08-6.87.05-30.89.02-61.79.07-92.68,0-5.58,1.88-7.36,7.53-7.36,12.47,0,24.94.07,37.41.11-.01.17.03.45-.04.48-5.7,2.36-5.62,7.14-5.34,12.19.24,4.3,0,8.63.06,12.94.08,5.18.46,5.55,5.79,5.63,4.32.06,8.64.08,12.96,0,5.42-.11,6.06-.69,6.14-6.02.11-6.64.02-13.28.03-19.92,0-1.8-.36-3.66.61-5.36Z"/>
      <path class="cls-17" d="M223.11,783.98c-33.96.04-67.92.05-101.88.19-3.02.01-4.2-1.48-4.78-3.93-.26-1.11-.18-2.31-.18-3.47,0-30.44,0-60.87,0-91.31,0-7.12,2.05-9.16,9.15-9.13,10.48.04,20.97.14,31.45.22,2.09,1.51,1.78,3.8,1.81,5.9.09,6.63.21,13.27-.05,19.89-.15,3.78,1.07,5.53,5.04,5.37,4.47-.18,8.97-.17,13.44,0,4.13.15,5.6-1.76,5.53-5.68-.1-5.97-.05-11.94,0-17.91.02-2.14-.17-4.33.88-6.33,3.79-1.05,2.86,2.16,2.93,3.7.34,6.77.12,13.56.15,20.35.04,7.93,1.43,9.94,9.24,11.44,7.06,1.36,13.71,3.74,20.22,6.65,2.65,1.19,4.96,1.71,7.04-1.03.7-.92,1.91-1.44,2.84.06.88,1.87.83,3.87.83,5.85.03,16.71.06,33.43-.03,50.14-.02,3.41.35,7.14-3.63,9.04Z"/>
      <path class="cls-62" d="M264.22,675.3c2.15-.98,1.85-2.95,1.85-4.74.04-32.26.04-64.52.1-96.78,0-2.08-.11-3.97-2.07-5.21,10.15-.03,20.29-.09,30.44-.06,5.58.02,7.51,1.91,7.52,7.47.03,30.75,0,61.5.03,92.24,0,2.8-.55,5.27-2.87,7.08-.72,1.48-2.02,2.19-3.55,2.29-6.72.46-13.44.51-20.15-.03-1-.08-1.81-.73-2.65-1.25-2.91,0-5.81-.02-8.72-.03-.34-.24-.44-.46-.31-.67.13-.2.25-.3.38-.3Z"/>
      <path class="cls-19" d="M339.07,783.94c1.65-4.77,1.77-9.77,1.81-14.69.17-19.08.12-38.16.16-57.25.02-8.9.05-17.8.08-26.7-.48-1.06-1.07-2.4.38-2.88,1.19-.39,1.57,1.04,1.68,1.95.74,5.6.44,11.23.28,16.84-.12,4.33.52,7.74,5.08,9.56,1.97.78,3.29,2.73,4.88,4.17,2.74,2.47,5.78,4.38,9.36,5.43,3.25.96,5.52.58,6.02-3.41.18-1.45-.17-3.54,2.3-3.7.06,20.77.11,41.55.21,62.32,0,1.78-.53,3.66.57,5.35-1,2.94-3.46,3.22-6.01,3.2-8.93-.05-17.87-.13-26.8-.2Z"/>
      <path class="cls-75" d="M223.11,783.98c1.39-1.94,2.01-4.06,2-6.5-.09-19.71-.09-39.42-.12-59.13-1.49-1.63-1.37-3.68-1.4-5.65-.16-10.94.24-21.89-.24-32.83-.15-3.37,1.3-4.71,4.39-4.05,3.14.67,6.79-1.94,9.48,1.45-1.66,1.46-.99,3.42-.99,5.17-.02,31.13.03,62.26-.01,93.39,0,2.91.3,5.62,2.05,8.02-5.05.04-10.11.08-15.16.12Z"/>
      <path class="cls-47" d="M225.26,568.51c1.75,10.04.42,20.15.69,30.23.05,1.81-1.2,2.59-2.97,2.59-7.31,0-14.61-.02-21.92.06-2.13.02-2.94-.82-2.93-2.95.07-8.79.08-17.59.03-26.38-.01-2.26,1.09-2.84,3.08-2.79,1.29.03,2.68.35,3.79-.7,6.74-.02,13.48-.04,20.23-.06Z"/>
      <path class="cls-68" d="M272.87,676.3c6.88,0,13.76,0,20.65.04,1.98,0,3.94.01,5.71-1.04.36.38.73.76,1.09,1.14-.01,9.48-.19,18.96.05,28.44.09,3.59-1.06,4.53-4.5,4.39-6.32-.26-12.66-.22-18.97,0-3.13.1-3.95-1.04-3.92-4.02.1-9.64-.05-19.29-.1-28.93Z"/>
      <path class="cls-77" d="M184.21,677.28c-.08,8.96-.31,17.93-.16,26.89.06,3.72-.74,5.41-4.94,5.13-5.96-.39-11.97-.29-17.94-.05-3.35.13-4.58-.6-4.44-4.31.34-9.45.14-18.92.16-28.38,2.02-.71,4.46.79,6.23-1.19,5.11,1.72,10.39.57,15.58.91,1.79.12,3.59.17,5.38.24.28.12.4.28.35.46-.05.2-.12.3-.2.3Z"/>
      <path class="cls-61" d="M776.98,738.24c-9.49,0-18.97.04-28.46-.01-5.75-.03-8.11-2.41-8.12-8.21-.02-11.8.01-23.61.06-35.41.03-5.82.92-6.76,6.57-6.76,10.98,0,21.97.12,32.95.05,3.66-.02,6.22,1.13,8.16,4.44,7.37,12.56,14.99,24.98,22.44,37.49,3.07,5.15,1.33,8.32-4.64,8.39-9.65.11-19.31.03-28.96.03Z"/>
      <path class="cls-39" d="M371.89,120.87c24.91.77,45.97,10.21,63.23,28.17.58.6,1.15,1.21,1.64,1.88,2.09,2.85,2.01,5.8-.69,7.97-2.52,2.03-5.12,1.46-7.45-1.04-11.62-12.49-25.72-20.65-42.54-24.03-22.59-4.54-42.67,1.29-60.91,14.64-3.07,2.25-5.93,4.84-8.64,7.52-2.72,2.7-5.48,4.66-9.06,1.8-2.63-2.1-2.08-6.52,1.14-9.65,9.99-9.71,21.34-17.39,34.52-22.08,9.26-3.29,18.82-5.27,28.76-5.19Z"/>
      <path class="cls-64" d="M323.05,171.71c-.1-1.35.73-2.82,2.02-4.28,23.69-26.93,68.31-27.27,92.74-.68,2.44,2.65,3.52,5.5.72,8.33-2.97,3.02-5.83,1.94-8.63-.78-8.54-8.3-18.5-13.85-30.48-15.5-17.91-2.48-32.95,3.39-45.93,15.45-.97.9-1.91,1.92-3.05,2.52-3.45,1.8-7.23-.54-7.39-5.05Z"/>
      <path class="cls-14" d="M371.15,184.72c-7.37-.3-14.17,2.77-20.07,8.01-2.75,2.44-5.66,4.07-8.61.84-2.96-3.24-1.52-6.3,1.24-9.08,14.66-14.76,39.66-15.34,55.03-1.22.97.89,1.95,1.88,2.55,3.02,1.43,2.73,1.58,5.52-1.19,7.54-2.46,1.79-4.93,1.48-7.16-.71-5.84-5.76-12.89-8.52-21.79-8.4Z"/>
      <path class="cls-45" d="M371.48,199.74c7.51.07,12.68,5.57,12.62,13.44-.06,7.6-5.38,13.32-12.4,13.33-7.96.01-13.46-5.43-13.48-13.34-.02-7.89,5.52-13.5,13.26-13.44Z"/>
      <path class="cls-17" d="M661.02,77.57c.07-21.63,15.84-39.29,36.32-41.47,21.92-2.34,41.93,11.23,46.72,31.68,2.44,10.41.98,20.45-3.29,30.06-8.84,19.91-20.03,38.44-33.77,55.38-3.69,4.55-3.93,4.53-7.47.07-14.07-17.74-25.96-36.79-34.73-57.71-2.52-6.01-4.11-12.24-3.78-18.02Z"/>
      <path class="cls-17" d="M652.53,314.34c-1.95,5.76-4.96,9.33-10.85,9.51-6.49.2-10.06-3.37-11.99-9.51-2.2,7.16-5.58,10.24-10.93,10.29-5.34.06-8.52-2.75-11.12-10.2-1.93,5.9-5.17,9.87-11.59,9.59-5.87-.26-9.46-3.49-11.24-9.56-1.21,3.29-2.44,5.79-5.06,7.45-2.56,1.63-5.27,1.93-8.12,1.65-6.8-.67-12.8-6-14.46-12.66-1.39-5.58-.26-10.86,1.88-16,3.69-8.85,7.51-17.65,11.18-26.5.87-2.1,2.04-2.9,4.41-2.89,28.99.08,57.99.07,86.98-.02,2.14,0,3.31.6,4.12,2.55,3.87,9.3,7.95,18.52,11.73,27.86,2.3,5.69,2.74,11.61.59,17.5-1.43,3.9-4.14,6.77-7.84,8.64-7.75,3.9-14.4,1.2-17.7-7.72Z"/>
      <path class="cls-45" d="M618.3,386.85c-15.99,0-31.97-.09-47.96.07-3.13.03-4.27-.54-4.23-3.98.19-17.47.05-34.93.18-52.4,0-.97-1.17-4.05,1.27-2.98,2.48,1.09,7.51-3.07,7.52,3.22.04,14.31.12,28.61-.07,42.92-.04,3.3.9,4.11,4.13,4.08,9.92-.11,9.93.03,9.92-9.68,0-7.99.09-15.97-.06-23.95-.05-2.59.68-3.5,3.35-3.39,4.82.2,9.66.23,14.48,0,2.81-.13,3.3,1.01,3.27,3.47-.11,9.98.04,19.96-.11,29.94-.04,2.78.71,3.62,3.57,3.59,14.99-.14,29.98-.16,44.96.04,3.25.04,3.78-1.05,3.75-3.95-.14-13.97.09-27.95-.14-41.92-.06-3.55.91-4.41,4.33-4.25,2.93.14,4.79-.15,4.72,3.96-.27,17.13-.2,34.27-.05,51.4.03,3.08-.8,3.91-3.88,3.88-16.32-.15-32.64-.07-48.96-.08Z"/>
      <path class="cls-17" d="M638.31,340.81q11.8.01,11.77,11.84c-.02,8.91-.02,8.95-9.13,8.91-4.81-.02-11.03,1.6-14.04-.77-3.19-2.51-.32-9.05-1.07-13.72-.88-5.51,1.49-6.97,6.47-6.29,1.96.27,3.99.04,5.99.05Z"/>
      <path class="cls-61" d="M497.64,820.79c9.72-.05,17.51,7.64,17.44,17.21-.07,9.14-8,16.99-17.25,17.09-9.43.1-17.62-7.84-17.72-17.18-.1-9.41,7.74-17.07,17.54-17.12Z"/>
      <path class="cls-40" d="M829.39,838.28c-.24,9.49-8.01,17.01-17.4,16.81-9.43-.2-17.24-8.47-16.93-17.92.31-9.42,8.11-16.6,17.75-16.35,9.59.26,16.82,7.86,16.58,17.45Z"/>
      <path class="cls-37" d="M184.21,677.28c-.16-.23-.21-.49-.15-.76,1.14-1.75,2.94-1.24,4.53-1.25,25.21,0,50.43.01,75.64.03-.07.32-.09.64-.07.97-5.43,2.04-11.06.6-16.59.94-3.44.21-6.9.06-10.35.06-3.52-2.17-7.37-.62-11.06-.93-1.66-.14-1.36,1.07-1.35,2.37.14,13.21.14,26.42.18,39.63-4.28,5.65-4.08,5.18-11.47,1.97-5.07-2.2-10.23-4.74-15.97-5.12-3.55-.23-6.64-1.9-9.78-3.32-2.32-1.04-2.61-3.14-2.6-5.45.06-8.15.04-16.3-.02-24.45-.01-1.59.56-3.37-.94-4.69Z"/>
      <path class="cls-41" d="M371.11,713.27c-.3.56-.84,1.11-.87,1.69-.49,9.3-1.7,8.76-10.02,6.1-3.33-1.07-6.05-3.31-8.55-5.78-1.52-1.5-3.05-3.63-4.89-4.03-4.55-1.01-4.83-3.76-4.69-7.55.26-6.75.07-13.51.07-20.38-.41.25-.79.34-.85.53-.15.46-.15.97-.2,1.47-2.04-6.37-1.59-7.07,4.55-7.07,6.63,0,13.26.09,19.89-.01,4.03-.06,5.66,1.78,5.62,5.73-.11,9.77-.06,19.54-.07,29.31Z"/>
      <path class="cls-9" d="M703.26,94.31c-10.25.07-18.08-7.28-18.18-17.07-.1-10.11,7.66-18.13,17.71-18.3,9.45-.16,17.88,8.04,18.1,17.6.23,9.64-7.77,17.69-17.63,17.76Z"/>
    </g>
  </g>
</svg>