<?xml version="1.0" encoding="UTF-8"?>
<svg id="Layer_2" data-name="Layer 2" xmlns="http://www.w3.org/2000/svg" viewBox="0 0 950.51 782.2">
  <defs>
    <style>
      .cls-1 {
        fill: #a00a16;
      }

      .cls-2 {
        fill: #fefdfd;
      }

      .cls-3 {
        fill: #730e14;
      }

      .cls-4 {
        fill: #f0bebb;
      }

      .cls-5 {
        fill: #750e14;
      }

      .cls-6 {
        fill: #ad0a12;
      }

      .cls-7 {
        fill: #db8f92;
      }

      .cls-8 {
        fill: #f9eff0;
      }

      .cls-9 {
        fill: #9d0b16;
      }

      .cls-10 {
        fill: #c41a17;
      }

      .cls-11 {
        fill: #d2575f;
      }

      .cls-12 {
        fill: #fbbc90;
      }

      .cls-13 {
        fill: #fbbd90;
      }

      .cls-14 {
        fill: #9c0b17;
      }

      .cls-15 {
        fill: #01292d;
      }

      .cls-16 {
        fill: #f9f0f1;
      }

      .cls-17 {
        fill: #e2a4a4;
      }

      .cls-18 {
        fill: #db9194;
      }

      .cls-19 {
        fill: #b7050b;
      }

      .cls-20 {
        fill: #fefefe;
      }

      .cls-21 {
        fill: #fabc90;
      }

      .cls-22 {
        fill: #b6050b;
      }

      .cls-23 {
        fill: #a10a15;
      }

      .cls-24 {
        fill: #9c0b16;
      }

      .cls-25 {
        fill: #820a15;
      }

      .cls-26 {
        fill: #9c0a16;
      }

      .cls-27 {
        fill: #d57f81;
      }

      .cls-28 {
        fill: #f9b88d;
      }
    </style>
  </defs>
  <g id="Layer_1-2" data-name="Layer 1">
    <g>
      <path class="cls-22" d="M840.99,371.64c13.72,5.92,28.18,9.79,42.09,15.18,8.68,3.36,15.36,9.04,20.87,16.39,15.73,20.97,24.78,44.98,31.81,69.87,6.19,21.92,10.37,44.3,14.51,66.68.57,3.09.28,4.33-3,4.29-1.11-.01-2.22.59-3.33.92-1.6,1.74-3.82,1.92-5.93,2.28-7.71,1.32-15.33,3.18-23.1,4.16-4.27.54-6.27,2.39-6.63,6.98-1.59,20.06-2.77,40.15-3.94,60.24-.95,16.28-.44,32.64-2.11,48.83-1.25,12.13-.03,24.24-1.12,36.32-.07.61-.14,1.23-.21,1.84-4.32,5.71-11.16,7.12-17.21,9.48-21.53,8.38-44.12,12.5-66.98,15.07-12.38,1.39-24.81,2.53-37.29,2.09-32.3-1.13-63.76-6.65-94.04-18.25-1.54-.59-3.19-1.04-4.14-2.59-1.65-5.05-.74-10.24-.82-15.36-.09-6.15-.33-12.31.2-18.46.64-3.27.84-6.58.91-9.93.46-20.96,1.61-41.89,2.71-62.83.74-14.12,2.25-28.21,2.26-42.36,0-1.63.17-3.29-.38-5.45-5.24,5.26-9.45,10.76-14.03,15.94-2.01,2.27-4.13,4.85-7.4,1.59-14.53-19.97-27-41.28-40.17-62.14-.73-1.15-1.11-2.39-1.32-3.71-.59-1.58-1.84-2.78-.23-4.86,21.57-27.88,41.96-56.72,67.22-81.57,24.01-23.63,52.67-39.04,84.82-48.35,1.27-.37,2.52-.83,3.78-1.24,5.97-4.26,13.15-4.57,19.91-4.97,11.53-.68,23.16-1.12,34.66.92,2.74.48,5.67.55,7.64,3.02Z"/>
      <path class="cls-9" d="M212.94,625.94c-32.65-.06-65.3-.11-97.95-.18-5.66-.01-11.41.5-16.97-.29-15.69-2.22-24.54-12.71-24.56-28.84-.07-59.98-.03-119.95-.02-179.93,0-26.16-.06-52.31.03-78.47.04-12.57,4.96-19.47,15.46-21.83,2.56-.58,5.29-.51,7.94-.51,119.62-.03,239.25-.03,358.87-.04,14.27,0,21.03,6.72,21.04,21.13.03,37.49,0,74.97,0,112.46,0,7.5-.01,14.99-.02,22.49-.63,1.2.1,2.67-.75,3.85-1.66.41-1.93-.96-2.27-1.96-4.08-11.97-9.51-23.32-15.75-34.3-.91-1.61-1.35-3.38-1.41-5.25-.49-7.67-.2-15.33-.22-23-.04-21.99-.01-43.99-.02-65.98q0-8.73-8.96-8.75c-.33,0-.67,0-1,0-114.47,0-228.93,0-343.4,0q-9.32,0-9.33,9.23c0,72.14,0,144.29,0,216.43q0,9.03,9.09,9.04c114.63,0,229.26,0,343.9,0,9.69,0,9.59-.01,9.73-9.54.1-6.82-.62-13.66.51-20.44.56-1.72,1.9-2.42,3.45-1.77,6.32,2.63,12.67,5.25,17.59,10.29.12.66.11-.18.14.48.75,16.61,1.49,33.3-.23,49.82-1.81,17.44-13.58,27.13-31.15,27.31-13.14.13-26.28.03-39.42.03-24.78,0-49.57,0-74.35,0-2.49,0-5,.17-7.44-.44-1.14-.43-2.28-1.02-1.71-2.49.76-1.92,2.57-.8,4.26-1.16-6.14-2.17-12.14-1.4-18.08-1.17-4.19.16-7.63-.73-9.32-5.3-2.82,4.24-6.96,4.01-10.96,3.55-2.3-.26-4.53-.82-6.9-.63-2.22.18-4.99-.23-5.03-2.84-.05-3.22,2.76-3.12,5.22-2.74.44.07.96.33,1.26-.34-.81-1.11-2.2-1.32-3.32-1.96-3.03-1.75-4.32-3.82-2.42-7.36,1.15-2.14,3.42-4.86.02-6.98-3.24-2.02-6.67-1.67-9.93.28-.28.17-.51.42-.74.67-1.53,1.61-2.81,4.91-5.26,3.48-2.41-1.4-4.15-4.73-3.82-7.61.33-2.9,2.65-5.39,5.54-6.6,1.66-.69,3.11.74,4.54,1.56,5.36,3.07,9.94,2.38,14.12-2.19,1.91-2.09,4.7-3.51,6.45-1.22,4.23,5.56,9.06,5.39,14.84,2.51-2.09-1.39-3.23-3.69-4.53-5.91-2.01-3.42-5.52-4.35-8.38-1.73-3.86,3.53-7.58,3.38-11.88,1.27-1.94-.95-3.79-2.13-5.86-2.77-2.45-.76-5.01-1.82-5.08,2.58-.03,2.17-1.9,2.96-3.86,3.19-2.08.25-2.39-1.35-2.84-2.79-.41-1.31-.94-2.76-2.58-2.54-1.59.21-1.16,1.78-1.25,2.86-.25,3.08-2.55,3.89-4.92,3.9-5.19.02-7.58,3.94-10.32,7.18-1.96,2.32-3.49,4.52-6.91,5.08-3.38.55-2.36,3.92-2.06,5.99.26,1.79,2.26,2.54,3.91,1.03,1.88-1.72,3.74-1.15,5.53-.25,3.98,2.01,7.91,1.64,12.12.67,3.07-.7,5.89-.67,8.74-3.05,1.86-1.55,5.47,1.45,7.75,3.17,2.1,1.58,1.61,4.29.37,6.42-1.33,2.29-3,4.39-4.61,6.5-.93,1.22-2.27,2.33-3.85,1.82-3.66-1.18-7.23-.32-10.86-.07-5.67.39-7.47-1.05-9.89-7.92-1.04,5.02-4.09,7.34-8.21,7.45-3.71.1-7.69.88-11.07-1.78-2.24-1.76-3.97-.66-5.52,1.24-1.67,2.04-2.76,4.6-5.22,5.95Z"/>
      <path class="cls-4" d="M682.08,676.92c-.09,11.47-.18,22.94-.28,34.41.19,1.29.33,2.56-.9,3.48-224.74,0-449.48,0-674.21.12-4.69,0-5.82-1.36-5.78-5.86.09-8.96-.36-17.94-.88-26.9-.23-3.97.74-5.47,5.12-5.46,54.98.16,109.95.11,164.93.12,1.59-1.51,3.62-1.59,5.62-1.59,63.42,0,126.84-.16,190.26.07.33,0,.67.03,1,.04,3.16-.27,6.32-.14,9.48-.15,98.69,0,197.38-.01,296.07.03,3.25,0,6.72-.77,9.58,1.69Z"/>
      <path class="cls-11" d="M232.51,0c67.98,0,135.97,0,203.95,0,10.05,0,11.6,1.55,11.6,11.53,0,83.98,0,167.96.01,251.93,0,10.67-1.3,12.06-12.07,12.07-53.15.04-106.31.05-159.46.05-82.65,0-165.29-.01-247.94-.04-1.99,0-4.02.02-5.98-.29-3.56-.56-5.63-2.68-5.78-6.4-.06-1.5-.04-3-.04-4.5,0-83.98,0-167.96.02-251.93C16.82,1.4,18.17,0,29.06,0,96.87,0,164.69,0,232.51,0Z"/>
      <path class="cls-15" d="M750.01,236.1c-7.26-10.15-12.9-20.98-13.27-33.79-.32-11.05,5.3-15.75,15.76-12.25,20.72,6.94,42.03,7.89,63.56,7.82,10.3-.03,20.64-1.01,30.89.97,10.93,2.11,18.35,8.25,21.7,18.92.8,2.57,2.07,4.19,4.31,5.67,7.83,5.15,9.23,13.6,9.91,21.89,1.86,22.63-5.72,42.86-16.83,62.04-4.09,7.07-8.85,13.68-14.71,19.45-3.02,2.97-6.4,5.29-10.48,6.51-1.15,1.41-2.73,1.76-4.45,1.87-12,.76-23.6-.95-34.57-5.96-8.38-3.83-14.13-10.31-18.03-18.59-1.69-3.61-1.55-6.56,1.66-9.34,3.74-3.24,5.33-7.49,5.1-12.48-.25-5.55-3.12-9.17-8.38-10.25-4.88-1-8.43.89-10.88,5.82-1.27,2.56-1.6,6.16-5.94,5.28-3.38-.69-5.56-3.67-5.73-8.35-.3-8.31-.95-16.58-1.88-24.84-.84-7.48-4.76-13.75-7.75-20.38Z"/>
      <path class="cls-21" d="M476.77,548.93c-6.5-2.53-12.1-6.93-18.79-9.09-1.21.07-2.31-.39-3.34-.92-10.78-5.61-21.86-10.62-32.63-16.25-1.53-.8-4.75-1.45-2.3-4.57,6.54-1.4,13.17-.41,19.75-.66,3.13-.12,6.28.05,9.42-.05,9.16-.31,13.03-4.11,13.69-13.35.08-3.35-.59-6.6-1.27-9.84-3.79-18.18-7.57-36.36-11.5-54.51-.52-2.39-1.42-4.82-.47-7.33,3.98-1.99,5.53-1.35,8.48,3.44,1.25,4.34,4.26,7.75,6.22,11.73,4.39,8.94,8.41,18.03,11.62,28.18.5-1.71.81-2.75,1.11-3.8-.35,7.77,1.84,15.51.39,23.27-.69,3.69,1.58,4.54,4.23,5.45,23.08,7.91,46.54,14.49,70.25,20.15,14.65,3.5,29.41,6.59,44.13,9.8,2.07.45,4.2.84,6.09-.96,7.21-6.88,14.85-13.31,21.34-20.92,9.53,14.93,19.01,29.89,28.6,44.78,4.21,6.54,8.62,12.94,12.94,19.41-14.25,11.74-28.12,24.03-45.21,31.72-6.79,3.06-13.92,3.18-21.09,1.94-13.26-2.28-25.5-7.69-37.74-12.94-25.75-11.04-50.47-24.15-74.86-37.9-3.3-1.86-6.88-3.4-9.07-6.77Z"/>
      <path class="cls-15" d="M680.91,714.81c.3-1.16.6-2.32.9-3.48,19.02,7.16,38.51,12.57,58.58,15.83,26.26,4.26,52.6,4.68,78.98,1.32,20.96-2.67,41.67-6.51,61.6-13.82,6.87-2.52,13.48-5.63,19.94-9.05,1,17.78,1.95,35.57,3.01,53.35.36,5.98.73,11.99,1.63,17.9.61,4,.06,5.36-4.49,5.35-51.82-.18-103.64-.11-155.46-.12-20.66,0-41.32-.1-61.98.08-3.86.03-5.27-.39-5.03-4.95,1.07-20.79,1.6-41.6,2.33-62.4Z"/>
      <path class="cls-24" d="M366.88,676.82c-1.49.11-2.98.32-4.47.32-62.95,0-125.9-.03-188.85-.06-1.16,0-2.32-.16-3.48-.25,0-1.99-.16-4,.04-5.97.66-6.4,5.61-10.62,12.76-10.72,8.8-.12,17.6-.17,26.4.04,3.08.07,3.97-.77,3.86-3.86-.21-6.13.03-12.28.08-18.41,6.22-2.88,12.79-1.65,19.17-1.21,5,.35,9.96.68,14.94.29,12.97-1.01,25.93-.38,38.9-.26,8.81.09,17.62.77,26.43.46,2.85-.1,5.66-.02,8.38.73.46-.38.56-.85.55-1.35q-.17-9.18-9.57-9.19c-30.31,0-60.61.01-90.92-.02-2.79,0-5.71.48-8.18-1.46,0,0,.01.04.01.04.94-4.06,4.14-6.61,6.71-9.47,1.5-1.67,3.24.03,4.74,1.19,3,2.32,12.95,2.16,15.71-.08,1.23-1,.47-2.04.3-3.16-.31-1.99,1.27-2.61,2.74-2.89,1.54-.29,1.9,1.18,2.19,2.23,1.58,5.86,3.44,7.2,9.5,5.89,2.84-.61,5.46-1.23,8.21.18,2.63,1.35,4.01-.93,4.51-2.53,1.11-3.52,7.04-5.73,3.61-10.19-1.24-1.61-4.58-1.82-6.51-3.56-.12-.11-.82.12-.84.25-.81,5.34-4.77,2.43-7.4,3.35-5.26,1.84-9.64,1.69-14.34-.72-1.03-.53-2.3-1.9-3.33.06-.96,1.83-2.06,3.27-4.15,1.38-1.68-1.53-4.68-2.61-2.23-5.81,1.28-1.66.21-3.48.02-5.25,5.77,1.35,7.94.1,9.61-5.55.23-.76.12-2.14,1.08-1.89,5.36,1.36,3.67-2.2,3.19-5.36,2.84,1.38,5.38,2.04,8.12,1.2,1.86-.57,3.01-1.34,2.42-3.49-.42-1.5-1.73-3.45,1.16-3.74,2.2-.22,4.35.11,5.01,2.91.29,1.23-1.15,3.84,2.16,3.05,2.77-.66,2.2-1.78,1.72-4.23-.56-2.89,2.87-2.97,4.88-2.33,3.59,1.13,7.19,2.51,10.43,4.39,3.18,1.84,5.29.76,7.51-1.33,4.43-4.16,9.07-3.16,11.45,2.51,1.18,2.81,4.09,4.2,6.15,7.41-2.85-.62-4.67.17-6.65.88-4.02,1.42-8.12,1.39-10.78-3.18-1.67-2.87-4.38-2.73-6.28-.15-.9,1.22.17,3.96-2.39,3.73-4.19-.38-8.44,2.82-12.64-.65-3.25-2.68-7.94-1.09-8.87,3.08-.59,2.64,2.25,4.66,3.23,7.11.45,1.13,2.5-1.65,3.48-3.08,2.7-3.93,11.68-4.29,14.64-.6,1.55,1.93.68,3.5-.35,5.42-3.22,5.99-2.88,6.77,3.44,8.92,1.81.62,3.35,1.29,2.51,3.36-1.03,2.53-2.53.86-4,.15-1.62-.79-3.61-.86-4.1,1.21-.37,1.58,1.77,2.42,2.74,2.12,5.07-1.57,9.94,2.1,15.02.29,1.57-.56,2.98-.57,2.33-2.74-.24-.79-.64-1.66.48-2.06.96-.35,1.72.23,1.96,1.05,2.27,7.96,8.64,5.29,13.97,5.53,5.2.24,10.97-1.68,15.09,3.38-1.63,2.63-4.96-2.17-6.15,1.68,1.56,1.79,1.5,3.99,1.51,6.15.04,6.66-.02,13.32.02,19.98.04,6.07.36,6.36,6.6,6.43,6.49.07,12.99-.25,19.47.14,8.9.53,14.86,5.72,16.05,13.65.25,1.65.57,3.32-.76,4.72Z"/>
      <path class="cls-17" d="M587.94,328.92c32.31-.04,64.62-.06,96.93-.17,2.9-.01,4.15.7,4.12,3.89-.18,19.82-.18,39.63-.24,59.45-1.86,1.51-4.1,1.21-6.23,1.21-29.48.03-58.96.03-88.44,0-2.14,0-4.36.28-6.28-1.09-1.69-2.15-1.44-4.72-1.45-7.19-.04-16.32-.04-32.64,0-48.96,0-2.47-.24-5.05,1.6-7.13Z"/>
      <path class="cls-12" d="M750.01,236.1c7.48,7.24,8.85,16.83,9.86,26.43.61,5.78.55,11.64.76,17.46.1,2.71.26,5.47,2.59,7.26,2.04,1.57,4.19,3.88,5.81-.84,2.84-8.3,7.43-11.17,13.94-9.35,7.19,2,10.7,8.51,8.91,16.56-.87,3.91-2.93,7.21-6.24,9.3-2.51,1.58-2.26,3.25-1.44,5.41,3.97,10.47,11.54,17.37,21.81,21.26,11.25,4.25,22.92,5.46,34.85,3.74-2,12.78.13,25.54.13,38.3-20.82-4.56-41.55-4.01-62.21,1.03-1.91-4.27.03-8.55.11-12.81.07-3.8-.85-5.03-4.92-5.21-8.46-.39-16.87-1.52-23.64-7.67-5.53-5.02-7.98-11.29-8.4-18.54-.35-5.97-.18-11.95-.7-17.93-.42-4.83-2.35-8.03-6.28-10.59-4.26-2.78-5.06-5.58-1.88-8.47,7.35-6.69,10.56-14.95,11.48-24.6.99-10.37,2.69-20.67,5.47-30.74Z"/>
      <path class="cls-26" d="M587.94,328.92c0,20.97.01,41.95.02,62.92,1.52,1.06,3.23.54,4.85.54,19.15.04,38.29.03,57.42.02.87.11,2.21-.18,1.64,1.45-.4,1.12-1.47,1.75-2.46,2.3-4.25,2.39-6.21,6.04-6.34,10.85-.04,1.43-.09,2.97-1.28,4.09-3.31-.12-6.63-.35-9.94-.36-24.95,0-49.91.03-74.86.05-1.18-.93-1.12-2.32-1.35-3.61-1.4-7.89-6.18-12.59-12.97-12.78-6.63-.18-11.54,4.31-13.39,12.29-.26,1.12-.31,2.32-1.33,3.11q-10.91-.06-10.82-11.15c.02-2.83.12-5.67.03-8.5-.08-2.68.96-4.7,2.79-6.65,9.92-10.48,16.61-22.8,20.09-36.78.78-3.14,2.23-4.71,5.34-5.55,14.25-3.86,28.15-8.92,42.55-12.26Z"/>
      <path class="cls-13" d="M901.1,703.76c-.67-16.79-.07-33.57.28-50.36.49-23.61,1.94-47.17,3.52-70.72.63-9.45,1.39-18.89,1.99-28.34.12-1.93.67-3.12,2.74-3.44,11.47-1.77,22.74-4.74,34.31-5.94,2.03,7.76,2.01,15.79,2.74,23.68.89,9.59,1.11,19.25,1.43,28.9.6,18.01-6.07,33.04-17.07,46.68-7.88,9.77-17,18.28-26.6,26.28-2.02,1.68-2.65,3.38-2.71,5.91-.24,9.11.86,18.26-.63,27.34Z"/>
      <path class="cls-19" d="M616.43,201.89c24.76.12,39.92,19.31,35.26,45.1-4.19,23.23-16.82,41.59-33.99,57.21-1.59,1.45-2.47,1.42-3.99-.06-18.19-17.64-31-38.01-33.33-63.94-1.97-21.81,13.55-38.42,36.06-38.31Z"/>
      <path class="cls-25" d="M212.93,625.89c35.12-.02,70.24.02,105.36-.12,3.74-.02,5.12,1.07,4.77,4.81-.28,2.96-.06,5.97-.06,8.82-36.7-2.46-73.26-.56-109.78-1.49-.1-4-.2-8.01-.3-12.01Z"/>
      <path class="cls-5" d="M641.8,411.09c-1.42-8.75,2.5-14.51,10.19-18.14,2.24-1.15,4.63-.28,6.94-.54,1.3.12,2.39.76,3.5,1.37,1.79,1.29,3.75,2.34,5.33,3.91,1.7,2.03,2.48,4.49,3.2,6.97.39,2.2.56,4.38-.93,6.3-1.87,7.9-7.08,12.73-13.78,12.79-7.13.06-12.48-4.62-14.45-12.66Z"/>
      <path class="cls-3" d="M527.95,409.81c.09-8.86,3.66-13.67,10.33-16.07,7.76-2.79,19.14,3.9,18.69,14.08-.04.99.01,1.99.03,2.98-2.84,8.58-7.11,12.33-14.11,12.42-7.41.1-11.72-3.77-14.93-13.41Z"/>
      <path class="cls-26" d="M661.96,394.85c-.7-.63-1.39-1.26-2.09-1.88,9.61-.98,19.22-.82,28.84-.07-1.96,3.69.09,7.35.06,11.03-.95,1.17.58,3.44-1.17,3.89-1.97.51-2.63-1.54-3.33-2.98-.68-1.41-1.38-2.31-2.87-.85-2.12,2.08-4.41,1.41-6.17-.21-2.03-1.87-3.56-.72-5.3.13-1-2-2-3.99-3-5.99-.89-2.27-2.32-3.65-4.97-3.07Z"/>
      <path class="cls-14" d="M669.93,403.9c1.3-3.03,2.56-5.2,5.64-1.23,1.16,1.5,3.45,2.98,5.22.25,2.48-3.83,3.49-2.36,4.34.99.31,1.2,1.14,2.26,1.94,3.78.71-1.57,1.21-2.67,1.7-3.77.35,6.8.35,6.77-6.36,6.8-4.13.02-8.25.16-12.38.24-.03-2.35-.07-4.71-.1-7.06Z"/>
      <path class="cls-14" d="M688.71,392.89c-9.61.02-19.22.05-28.84.07-2.63,0-5.26-.01-7.89-.02-19.63-.02-39.26-.02-58.89-.09-1.74,0-3.71.7-5.14-1.02,23.28.1,46.57.22,69.85.29,10.31.03,20.63-.03,30.94-.05.1.28.08.55-.04.81Z"/>
      <path class="cls-16" d="M418.97,518.92c5.46,4.73,12.35,6.79,18.64,9.98,6.88,3.48,13.91,6.68,20.37,10.94-.01,9.16-.28,18.33.08,27.48.18,4.41-1,5.49-5.45,5.48-71.13-.16-142.27-.12-213.4-.12-47.31,0-94.62-.05-141.93.1-4.15.01-5.2-1.05-5.19-5.18.13-75.96.13-151.93.01-227.89,0-3.87.91-4.95,4.89-4.94,118.78.11,237.56.09,356.33.1,2.4,0,4.76-.77,4.73,3.49-.24,32.48-.19,64.96-.24,97.44-2.41-1.84-4.46-4.45-8.06-3.73-2.58-.96-2.28-3.47-2.74-5.45-1.65-6.96-2.83-14.03-4.61-20.96-2.45-9.53-6.17-12.32-15.9-12.34-10.32-.02-20.64-.03-30.96,0-12.95.04-16.46,4.39-14.15,16.96,1.2,6.53,3.5,12.86,3.66,19.58-.28,2.16-1.94,2.28-3.63,2.6-3.56.69-4.43,3.07-3.58,6.34.34,1.29.69,2.6,1.4,3.72,2.37,3.76,4.16,7.2.93,11.75-1.68,2.37.6,5.39,1.83,7.9,1.47,2.99,3.06,5.82,1.89,9.43-.65,2.02.79,3.8,1.8,5.52,3.3,5.61,7.44,10.52,12.14,15,1.58,3.86,1.93,8.02,2.86,12.03,2.11,9.1,5.37,12.1,14.7,13.43,1.3.19,2.67.17,3.59,1.35Z"/>
      <path class="cls-16" d="M43.91,260.9q-11.68,1.15-11.68-10.28c0-76.63.05-153.26-.09-229.89,0-4.47.97-5.79,5.67-5.79,129.77.14,259.54.13,389.32-.01,4.7,0,5.67,1.33,5.66,5.79-.15,77.96-.14,155.92-.16,233.88q0,6.65-6.48,6.65c-43.98,0-87.96,0-131.94,0-3.33,0-6.65-.15-9.98-.23-.97.54-1.3-.02-1.48-.85,11.07-11.01,17.77-25.13,26.59-37.73,13.9-19.86,27.68-39.82,41.39-59.81,1.32-1.92,2.74-3.78,2.91-6.24-.1-3.42,1.6-5.9,3.84-8.33,7.31-7.92,16.31-13.66,24.91-19.93,4.57-3.33,9.35-6.41,13.41-10.39,5.42-5.32,6.31-11.38,2.61-16.57-3.81-5.34-10.97-7-17.42-3.69-6.23,3.19-11.93,7.29-17.73,11.19-2.77,1.86-5.59,3.65-8.83,4.59-4.44,1.28-7.15-.55-7.59-5.16-.35-3.7.87-7.25,1.26-10.88.17-1.61.92-3.56-1.18-4.34-1.84-.69-3.15.71-4.19,2.03-2.83,3.58-4.79,7.57-5.45,12.16-1.24,8.74-2.64,17.45-4.99,25.97-.56,2.04-.74,4.35-3.03,5.46-2.55.17-4.14,1.62-5.56,3.67-15.2,21.85-31.42,42.93-47.56,64.08-3.95,5.17-5.34,5.49-11.41,2.93-14.86-6.27-29.58-12.91-43.95-20.17-13.42-6.78-27.66-9.07-42.21-10.85-5.74-.7-11.6-.89-17.1-3.02-1.67-1.97-2.11-3.91.11-5.81,2.73-1.12,5.59-.88,8.37-.43,3.56.58,6.99-.03,10.39-.83,5.62-1.32,8.56-4.66,9.28-10.38.85-6.73.4-13.44-2.25-19.66-5.47-12.88-4.65-26.4-4.82-39.86-.03-2.3,1.44-3.59,2.78-5.07,6.01-6.63,5.81-14.11-.51-20.37-8.53-8.46-18.94-12.06-30.6-9.89-6.9,1.29-13.57.42-20.35.45-23.51.09-40.08,20.04-35.8,43.23.85,4.59,1.72,9.17,2.76,13.72,1.48,6.47-.3,11.83-5.02,16.34-.72.69-1.36,1.48-2.15,2.09-6.1,4.65-9.16,10.35-6.92,18.25,2.39,8.41,6.5,14.98,15.94,16.49.82.13,1.63.35,2.44.55,2.54,1.36,6.07-.55,8.13,2.42-.8,2.52-3.21,2.69-5.16,3.36-8.05,2.74-15.8,6.22-23.64,9.48-15.49,6.44-23.67,19.3-29.87,33.91-4.52,10.65-6.84,21.91-9.08,33.19-.32,1.6-.09,3.38-1.57,4.58Z"/>
      <path class="cls-22" d="M161.95,174.7c13.17,1.79,26.35,3.46,39.5,5.43,5.97.89,11.24,3.97,16.67,6.41,15.9,7.12,31.79,14.25,47.57,21.62,4.08,1.9,6.36,1.7,9.33-2.32,16.37-22.2,33.47-43.88,49.08-66.64,1.46-2.13,2.75-2.57,4.77-1.12,9.44,5.25,18.65,10.8,26,18.92.5,1.77-.91,2.73-1.71,3.92-20.71,30.86-42.73,60.83-62.52,92.31-1.88,2.99-4.18,5.59-7.61,6.9-3.21,2.08-6.73,1.34-10.15.98-17.29-1.8-32.95-8.72-48.6-15.64-5.89-2.61-6.53-2.2-6.93,4.35-.23,3.71,1.16,7.67-1.42,11.09-57.34,0-114.67-.01-172.01-.02,2.4-21.58,8.48-41.84,21.64-59.48,5.13-6.88,12.59-10.72,20.17-14.11,8.91-3.99,17.96-7.69,27.33-10.51,6.74-4.09,13.33-2.57,19.69.81,3.22,1.71,6.19,3.83,9.74,4.92,6.95,2.12,11.37.84,15.89-4.71,1.01-1.24,1.56-3.04,3.58-3.12Z"/>
      <path class="cls-8" d="M215.92,260.92c.21-5.3.56-10.61.57-15.91,0-3.98.87-4.71,4.72-2.76,14.66,7.4,29.85,13.51,45.96,17.06,5.23,1.15,10.46,2.82,15.86.83.4.29.79.58,1.19.88-2.2,1.14-4.58.77-6.87.68-19.15-.8-38.3-.31-57.46-.47-1.32-.01-2.65-.2-3.97-.3Z"/>
      <path class="cls-6" d="M384.12,430.74c-1.53-7.47-3-14.96-4.61-22.42-2.16-10.02,2.6-16.34,12.87-16.49,12.14-.18,24.28-.15,36.42-.05,7.41.06,12.36,3.63,14.22,10.82,2.52,9.75,4.51,19.64,6.73,29.47,4.27,20.32,8.57,40.64,12.79,60.98.74,3.56,1.92,7.09,1.41,10.82-4.68,6.74-10.66,10.23-19.33,9.57-8.73-.66-17.55-.05-26.33-.18-10.37-.14-17.14-5.79-19.25-15.85-.47-2.23-.63-4.58-2.32-6.36-2.01-1.77-2.51-4.22-2.98-6.67-2.93-15.47-6.15-30.87-9.3-46.3-.5-2.47-.4-4.89-.31-7.34Z"/>
      <path class="cls-10" d="M397,490.87c3.12.79,2.34,3.73,2.86,5.7,2.83,10.77,8.41,15.28,19.54,15.28,9.3,0,18.62-.25,27.91.1,5.09.19,9.05-1.14,12.25-5.11,1.1-1.37,2.27-2.96,4.38-2.99.45,9.46-4.71,14.9-14.22,14.95-10.25.05-20.5.07-30.75.11-2.94-.39-5.93.3-8.88-.68-5.37-1.79-8.58-5.5-9.91-10.84-1.28-5.14-2.3-10.34-3.44-15.51-.26-.43-.16-.76.26-1.02Z"/>
      <path class="cls-9" d="M248.96,591.34c1.65.68,2.62.23,3.6-.53.92-.72,1.75-2.53,3.2-1.04,1.18,1.21,1.71,2.9.87,4.57-.66,1.3-1.14,2.37-1.11,4.04.12,6.01-.58,6.39-6.42,5.06-.6-.14-1.48-.33-1.84-.03-1.54,1.27-2.74.98-3.63-.62-.92-1.66.2-2.82,1.33-3.8,1.37-1.19,3.24-1.41.71-4.06-1.69-1.77.8-3.92,3.29-3.58Z"/>
      <path class="cls-9" d="M277.05,601.43c1.49.12,1.92,1.03,1.81,2.06-.16,1.51-1.12,2.38-2.71,2.18-1.07-.13-1.94-.82-1.79-1.95.2-1.58,1.71-1.79,2.69-2.29Z"/>
      <path class="cls-27" d="M539.75,367.93c2.4-5.8,4.84-11.37,6.56-17.22.82-2.78,4.1-2.43,6.35-3.17,10.04-3.31,10.06-3.25,10.05,7.05q-.02,13.01-13.27,13.33c-3.1.07-6.2.01-9.69.01Z"/>
      <path class="cls-20" d="M597.86,236.3c.19-10.3,8.2-17.84,18.83-17.71,9.85.12,18.32,8.91,18.14,18.81-.19,10.08-8.7,18.57-18.49,18.46-10.26-.12-18.67-9.03-18.48-19.56Z"/>
      <path class="cls-7" d="M663.16,408.48c-.01,4.57-3.48,8.39-7.54,8.29-3.68-.09-7.3-4.06-7.41-8.13-.12-4.29,3.55-8.46,7.5-8.52,4.11-.07,7.46,3.69,7.45,8.36Z"/>
      <path class="cls-14" d="M661.96,394.85c5.28-1.82,5.74-1.54,4.97,3.07-1.66-1.02-3.31-2.04-4.97-3.07Z"/>
      <path class="cls-18" d="M550,408.41c-.1,4.42-3.84,8.35-7.72,8.11-3.81-.23-7.18-4.08-7.22-8.22-.03-4.32,3.61-8.32,7.61-8.34,4.02-.03,7.42,3.9,7.32,8.45Z"/>
      <path class="cls-14" d="M674.32,394.77c-1.61,1.28-3.2,1.45-5.3.17,2.09-1.51,3.7-1.01,5.3-.17Z"/>
      <path class="cls-22" d="M222.2,508.42c-16.33,0-32.66-.02-48.99,0-8.61.02-15.19-3.47-19.06-11.25-3.34-6.7-2.45-13.24,1.75-19.34,1.93-2.8,4.47-4.99,7.62-6.26,2.26-.91,2.24-2.08,1.58-4.19-8.69-27.74-17.33-55.5-25.79-83.31-1.07-3.5-2.62-4.8-6.22-4.36-3.32.41-6.67.03-9.63-1.82-2.46-1.54-3.95-3.73-3.31-6.69.63-2.94,2.76-4.45,5.73-4.67,1.83-.14,3.66-.17,5.49-.19,15.08-.14,16.89.9,20.99,15.47,1.53,5.46,3.98,7.6,9.69,8.25,36.63,4.19,73.37,5.83,110.2,5.8,3.01,0,4.59.78,6.16,3.5,4.55,7.87,11.49,12.35,20.76,12.56,2.55.06,3.1.53,2.19,3.12-6.51,18.66-12.77,37.42-19.31,56.07-2.51,7.16-7.77,10.47-15.86,10.47-29.66.02-59.32-.03-88.98-.03-1.99,0-4.04-.08-5.96.34-3.79.82-5.61,3.44-5.39,7.28.21,3.81,2.28,6.18,6.13,6.69,1.64.21,3.33.09,4.99.09,30.33,0,60.65,0,90.98.02,1.98,0,4.01.07,5.94.46,3.74.76,6.73,2.58,6.22,7-.5,4.34-3.91,4.92-7.43,4.93-10.66.01-21.33-.03-31.99-.05-6.17,0-12.33,0-18.5,0,0,.03,0,.07,0,.1Z"/>
      <path class="cls-22" d="M280.96,387.04c-.06-10.19,7.63-18.18,17.66-18.34,9.95-.16,18.34,8.24,18.36,18.38.01,9.69-8.1,18.09-17.52,18.15-10.2.06-18.44-8.04-18.5-18.19Z"/>
      <path class="cls-1" d="M267.94,528.34c-.02,8.2-6.7,15.08-14.77,15.19-7.97.11-14.73-6.82-14.73-15.12,0-8.21,6.74-14.86,14.98-14.76,8.02.1,14.54,6.69,14.52,14.69Z"/>
      <path class="cls-23" d="M187.16,528.49c.01,8.43-6.2,14.81-14.61,15.01-7.68.18-14.42-6.65-14.5-14.67-.08-8.56,6.57-15.33,14.97-15.24,7.92.09,14.12,6.63,14.14,14.91Z"/>
      <path class="cls-28" d="M397,490.87c-.09.34-.17.68-.26,1.02-6.11-3.84-9.4-10.05-13.19-15.82-.7-1.07-1.71-2.87-1.29-3.6,2.73-4.78-.83-8.06-2.45-11.78-1.52-3.48-2.74-6.89.74-9.94,1.39-1.22.68-2.34.02-3.5-.97-1.73-2.12-3.38-2.92-5.18-3.4-7.63-1.54-10.83,6.47-11.34,3.69,14.1,5.79,28.53,8.96,42.74,1.3,5.8,1.64,11.82,3.92,17.4Z"/>
      <path class="cls-15" d="M105.36,175.22c-13.46-1.29-18.92-8.59-20.82-23.09-.66-5.04,1.68-9.66,5.96-12.49,9.41-6.2,11-14.33,7.94-24.7-3.52-11.94-3.71-23.91,2.95-35.2,8.08-13.7,25.08-21.04,41.32-17.44,2.41.53,4.45.36,6.77-.18,13.96-3.22,26.4-.43,36.66,9.96,7.17,7.26,6.93,15.74-.55,22.64-.97.89-2,1.42-1.83,3.15.86,8.61-.04,17.28,1,25.91.69,5.72,3.37,10.74,4.7,16.21,1.37,5.68,2.52,11.36,1.81,17.23-.87,7.17-5.35,11.67-12.49,12.8-5.67.89-11.29.02-16.92-.28-3.92-4.85-3.08-10.39,2.52-13.65,7.23-4.21,12.62-9.83,14.83-18.01,3.14-11.62,1-23.14-1.12-34.62-.44-2.39-2.29-2.66-4.26-2.15-7.86,2.03-15.18.49-22.2-3.2-2.33-1.22-4.12-.72-5.45,1.6-3.95,6.93-9.62,11.11-17.78,12.2-5.57.74-8.11,7.68-4.34,11.87,3.14,3.48,4.28,7.42,4.95,11.71,1.18,7.56,2.51,15.1,2.39,22.81-.17,11.52-5.69,17.31-17.11,17.3-2.96,0-5.98.06-8.95-.4Z"/>
      <path class="cls-21" d="M105.36,175.22c3.82-.13,7.68.01,11.46-.45,8.26-1.01,13.07-6.46,13.28-14.79.26-10.22-1.81-20.19-3.53-30.18-.22-1.26-.53-2.6-1.94-3.3-5.01-2.48-3.68-6.75-3.03-10.86.7-4.46,3.93-5.24,7.61-5.47,7.81-.5,12.98-4.82,16.05-11.66,1.55-3.44,3.23-4.07,6.38-2.06,7.47,4.76,15.57,5.47,23.99,3.22,1.67-.45,3-1.35,3.53,1.44,2.2,11.64,4.34,23.26,1.99,35.13-1.75,8.84-6.8,15.39-14.44,20.02-6.23,3.77-7.06,6.06-4.84,13.51-1.4,1.67-.86,3.31.08,4.94-7.61,11.68-15.49,13.41-27.19,5.49-6.83-4.62-14.01-5.27-21.72-3.4-2.24-2.07-5.37.16-7.69-1.58Z"/>
      <path class="cls-13" d="M354.87,157.01c-8.67-6.31-17.33-12.62-26-18.92,3.72-7.88,4.83-16.42,6.1-24.89.99-6.6,1.83-13.17,6.18-18.63,1.81-2.27,3.83-4.8,7.01-3.35,3.01,1.37,1.56,4.17,1.12,6.61-.58,3.25-1.09,6.56-1.15,9.85-.08,4.44,1.71,5.59,5.93,4.4,4.76-1.35,8.38-4.67,12.49-7.13,5.95-3.57,11.2-8.39,18.17-10.11,5.85-1.44,12.3,1.28,15.34,6.45,3.19,5.43,2.67,11.27-1.9,16-6.15,6.37-13.77,10.92-20.88,16.08-6.73,4.88-13.42,9.74-19.22,15.79-2.24,2.34-3.67,4.61-3.18,7.87Z"/>
      <path class="cls-20" d="M411.96,397.03c5.33,0,10.66-.07,15.99.01,5.88.1,8.93,2.67,10.08,8.3,6.21,30.44,12.41,60.89,18.62,91.33,1.79,8.76-1.01,11.93-10.15,11.81-9.32-.11-18.65-.09-27.97,0-7.34.07-12.08-3.51-13.54-10.67-6.2-30.27-12.37-60.55-18.52-90.83-1.16-5.72,2.02-9.73,8.02-9.91,5.82-.17,11.65-.04,17.48-.04Z"/>
      <path class="cls-20" d="M200.56,458.58c-3.5,0-6.99,0-10.49,0-3.1,0-5.02-1.29-5.37-4.6-.77-7.28-1.82-14.53-2.4-21.82-.34-4.32,2.35-7.08,7.18-7.09,7.48-.03,14.97.4,22.44.88,3.17.2,5.01,2.1,5.31,5.52.65,7.5-.19,14.97-.5,22.44-.14,3.3-2.25,5-5.69,4.92-3.49-.07-6.99-.02-10.49-.02,0-.08,0-.15,0-.23Z"/>
      <path class="cls-2" d="M225.47,446.28c1.54-6.36,3.24-13.64,5.11-20.87.66-2.57,2.64-3.29,5.09-2.58,6.85,1.99,13.69,4.03,20.54,6.05,2.58.76,3.36,2.55,2.77,5-1.62,6.78-3.27,13.56-4.96,20.33-.74,2.98-2.53,3.98-5.6,3.03-6.34-1.96-12.75-3.7-19.12-5.6-2.16-.64-4.06-1.65-3.83-5.36Z"/>
    </g>
  </g>
</svg>