<?xml version="1.0" encoding="UTF-8"?>
<svg id="Layer_2" data-name="Layer 2" xmlns="http://www.w3.org/2000/svg" viewBox="0 0 971.87 886.85">
  <defs>
    <style>
      .cls-1 {
        fill: none;
      }

      .cls-2 {
        fill: #a00000;
      }

      .cls-3 {
        fill: #d09584;
      }

      .cls-4 {
        fill: #720000;
      }

      .cls-5 {
        fill: #6b0000;
      }

      .cls-6 {
        fill: #955854;
      }

      .cls-7 {
        fill: #700;
      }

      .cls-8 {
        fill: #d09a95;
      }

      .cls-9 {
        fill: #81464d;
      }

      .cls-10 {
        fill: #f4e6db;
      }

      .cls-11 {
        fill: #001b1e;
      }

      .cls-12 {
        fill: #fbd5b2;
      }

      .cls-13 {
        fill: #4e181d;
      }

      .cls-14 {
        fill: #965b57;
      }

      .cls-15 {
        fill: #71363f;
      }

      .cls-16 {
        fill: #efb499;
      }

      .cls-17 {
        fill: #945a5a;
      }

      .cls-18 {
        fill: #8a4f52;
      }

      .cls-19 {
        fill: #905351;
      }

      .cls-20 {
        fill: #c94c46;
      }

      .cls-21 {
        fill: #905856;
      }

      .cls-22 {
        fill: #3e0c15;
      }

      .cls-23 {
        fill: #fde8ba;
      }

      .cls-24 {
        fill: #f28e61;
      }

      .cls-25 {
        fill: #935859;
      }

      .cls-26 {
        fill: #8d4e4c;
      }

      .cls-27 {
        fill: #e49881;
      }

      .cls-28 {
        fill: #653336;
      }

      .cls-29 {
        fill: #9f0000;
      }

      .cls-30 {
        fill: #f2e3d8;
      }

      .cls-31 {
        fill: #703e3f;
      }

      .cls-32 {
        fill: #e59a82;
      }

      .cls-33 {
        fill: #f4e7db;
      }

      .cls-34 {
        fill: #692f3b;
      }

      .cls-35 {
        fill: #d36e67;
      }

      .cls-36 {
        fill: #9d0202;
      }

      .cls-37 {
        fill: #d19886;
      }

      .cls-38 {
        fill: #780000;
      }

      .cls-39 {
        fill: #a76964;
      }

      .cls-40 {
        fill: #c64741;
      }

      .cls-41 {
        fill: #c94840;
      }

      .cls-42 {
        fill: #874746;
      }

      .cls-43 {
        fill: #7e4a47;
      }

      .cls-44 {
        fill: #683537;
      }

      .cls-45 {
        fill: #97595b;
      }

      .cls-46 {
        fill: #f5ac8a;
      }

      .cls-47 {
        fill: #9e655e;
      }

      .cls-48 {
        fill: #fce8c4;
      }

      .cls-49 {
        fill: #6c2a30;
      }

      .cls-50 {
        fill: #915451;
      }

      .cls-51 {
        fill: #d4816c;
      }

      .cls-52 {
        fill: #975d5a;
      }

      .cls-53 {
        fill: #d36e68;
      }

      .cls-54 {
        fill: #ecaa91;
      }

      .cls-55 {
        fill: #cc8f7f;
      }

      .cls-56 {
        fill: #fde7c2;
      }

      .cls-57 {
        fill: #b1746d;
      }

      .cls-58 {
        fill: #cc8c7c;
      }

      .cls-59 {
        fill: #d09a96;
      }

      .cls-60 {
        fill: #01292d;
      }

      .cls-61 {
        fill: #fef8f3;
      }

      .cls-62 {
        fill: #efb498;
      }

      .cls-63 {
        fill: #fce4bf;
      }

      .cls-64 {
        fill: #8a474c;
      }

      .cls-65 {
        fill: #e2beac;
      }

      .cls-66 {
        fill: #905558;
      }

      .cls-67 {
        fill: #4a171c;
      }

      .cls-68 {
        fill: #c84940;
      }

      .cls-69 {
        fill: #8b4f4c;
      }

      .cls-70 {
        fill: #d09995;
      }

      .cls-71 {
        fill: #cc8b7a;
      }

      .cls-72 {
        fill: #fdecc5;
      }

      .cls-73 {
        fill: #a56764;
      }

      .cls-74 {
        fill: #ecab92;
      }

      .cls-75 {
        fill: #9a5e5d;
      }

      .cls-76 {
        fill: #722e30;
      }

      .cls-77 {
        fill: #cb8b7a;
      }

      .cls-78 {
        fill: #6c0000;
      }

      .cls-79 {
        fill: #f2e2d6;
      }

      .cls-80 {
        fill: #d36f68;
      }

      .cls-81 {
        fill: #a00001;
      }

      .cls-82 {
        fill: #9d0203;
      }

      .cls-83 {
        fill: #cd8c7b;
      }

      .cls-84 {
        fill: #d46e67;
      }

      .cls-85 {
        fill: #804244;
      }

      .cls-86 {
        fill: #e4c4b4;
      }

      .cls-87 {
        fill: #9b0007;
      }

      .cls-88 {
        fill: #f5a884;
      }

      .cls-89 {
        fill: #c7473f;
      }

      .cls-90 {
        fill: #905452;
      }

      .cls-91 {
        fill: #d46f68;
      }

      .cls-92 {
        fill: #a06963;
      }

      .cls-93 {
        fill: #733e3e;
      }

      .cls-94 {
        fill: #83444a;
      }

      .cls-95 {
        fill: #a16360;
      }

      .cls-96 {
        fill: #f6ab89;
      }

      .cls-97 {
        fill: #6b252c;
      }

      .cls-98 {
        fill: #9c0007;
      }

      .cls-99 {
        fill: #ca8979;
      }

      .cls-100 {
        fill: #955b5c;
      }

      .cls-101 {
        fill: #e6967b;
      }
    </style>
  </defs>
  <g id="Layer_1-2" data-name="Layer 1">
    <g>
      <path class="cls-60" d="M683.07,885.79c.29.35.57.7.86,1.06h-92.98c-1.55-1.44-1.99-3.36-2.44-5.32-3.08-13.23-5.56-26.59-8.92-39.76-.85-3.34-1.82-6.7-1.25-9.12,0,.1.57,1.63-1.72,1.06-2.19-4.17-.93-8.82-1.9-13.21-2.83-12.84-5.69-25.67-8.38-38.54-4.11-19.71-8.32-39.4-13.85-58.78-1.42-4.96-3.35-9.73-5.07-14.58,7.12,30.2,9.49,61.05,13.2,91.73,3.19,26.42,5.2,52.97,8.48,79.38.31,2.48.71,5-1.15,7.14h-86.98c-.45-46.9-.24-93.79,1.1-140.67.74-25.91,1.99-51.81,3.05-77.72.07-1.64.44-3.26.67-4.89,1.29,1.17.26,2.81.86,4.26.05.52.86-.27.24-.03-.24.09-.37-.01-.38-.32-.06-2.32-.05-4.64-.01-6.96.07-4.32,1.01-5.41,5.44-4.75,23.94,3.53,48.13,2.86,72.16,4.74,9.62.75,18.99,3.55,28.28,6.07,9.95,2.7,20.14,4.88,29.61,8.97,17.67,7.64,31.63.57,44.83-10.31,2.44-2.01,4.33-4.62,6.84-6.57,1.63-1.27,2.65-1.06,2.76,1.3.49,10.95,1.66,21.87.43,32.85-.88,7.92-.48,15.91-1.32,23.86-.59,5.58-1.56,11.16-1.16,16.87,1.2,16.89,1.54,33.83,2.22,50.74.51,12.59.97,25.21,1.99,37.76,1.06,13.03,1.32,26.1,2.62,39.12.68,6.73.67,13.58,1.22,20.36.12,1.43-.6,3,.64,4.27Z"/>
      <path class="cls-46" d="M971.87,512.93c-49.58.04-99.16.08-148.74.11-20.12.01-40.24,0-60.86,0,2.11,8.64,4.09,16.95,3.8,25.64-.12,3.55-2.74,6.76-1.17,10.43-3.57,9.56-9.76,17.52-15.81,25.53-2.48,3.29-5.09,6.49-7.44,9.9-13.7,15.69-10.93,9.84-11.12,30.1-.19,20.46,0,40.92-.09,61.38-.01,2.5.77,5.45-2.24,7.07-2.47-2.01-1.76-4.86-1.76-7.41-.07-23.57-.04-47.13-.06-70.7,0-1.11.46-2.3-.31-3.37-6.41,5.25-10.97,12.51-18.48,16.46-5.42,2.58-9.11,7.4-13.92,10.79-5.39,3.8-10.52,7.96-15.76,11.97-3.41-.63-4.2-3.05-3.73-5.95.8-4.95-1.1-8.7-3.62-12.94-2.94-4.95-5.35-10.78-3.21-17.04.44-1.28.96-2.5.17-3.81-.63-1.83.34-3.2,1.35-4.52,4.34-5.62,7.7-11.91,11.97-17.58,7.27-11.9,13.32-24.5,20.68-36.35,4.38-7.05,5.21-14.12,2.16-21.81-4.79-12.07-10.81-23.5-17.41-34.66-1.39-2.35-3.62-4.49-2.9-7.68,1.2-2.13,3.44-2.52,5.47-3.13,17.2-5.15,34.3-10.62,51.38-16.17,1.87-.61,3.75-1.5,5.8-.63,2.29,1.92,2.93,4.72,3.87,7.34,3.28,9.18,5.96,18.54,8.68,27.9,1.56,3.35,2.49,6.92,3.27,10.47,1.01,4.6,3.61,6.42,8.17,5.99,1.65-.16,3.33-.02,4.99-.02,62.59,0,125.18,0,187.76.03,3.1,0,6.39-.64,9.11,1.63v1Z"/>
      <path class="cls-35" d="M728.92,321.87c-.05,20.78-.08,41.55-.16,62.33,0,1.93.64,4-.75,5.78-3.75-.79-3.61-4.36-4.51-6.88-3.65-10.31-7.36-20.57-12.61-30.22-1.21-2.22-3.71-3.95-2.98-7.01.05-.33.1-.65.15-.98.69-1.6.36-3.29.37-4.94.02-88.63.02-177.26,0-265.89,0-1.65.29-3.33-.33-4.95-.08-21.47-.12-42.94-.26-64.4-.02-2.89,1.34-3.79,3.97-3.75,4.16.07,8.34.23,12.48-.07,3.65-.26,4.49,1.24,4.47,4.6-.12,16.64-.04,33.29-.05,49.94-.01,20.64-.05,41.28-.06,61.92,0,.62.27,1.24.41,1.87,2.08,2.41,1.5,5.36,1.54,8.13.14,10.32-.74,9.96,10.24,9.96,73.81,0,147.63,0,221.44.03,3.26,0,6.73-.72,9.61,1.66v1c-18.14-.03-36.29-.09-54.43-.08-61.11.03-122.23.1-183.34.09-3.29,0-5.45-.06-5.44,4.51.14,51.62.05,103.24.04,154.86,0,.83.15,1.65.23,2.48,2.58,6.67,2.6,13.34,0,20.01Z"/>
      <path class="cls-87" d="M936.02,683.74c11.95.05,23.9.1,35.85.16v21c-10.13-.06-20.26-.13-30.39-.17-70.86-.28-141.72-.55-212.58-.83-2.87-5.62-1.64-11.51-1.02-17.31.25-2.33,2.37-2.9,4.47-3.03,2.77-.17,5.6.19,8.3-.77.65-.13,1.3-.21,1.96-.24,62.26-.49,124.52-.34,186.78-.32,2.29,0,4.71-.25,6.63,1.52Z"/>
      <path class="cls-87" d="M728.92,321.87c0-6.67,0-13.34,0-20.01,3.62-.03,7.24-.07,10.87-.1,2.67-1.9,5.63-2.55,8.89-2.46,7.47.19,14.94-.19,22.41.2,23.86.08,47.72,0,71.57.04,2.65,0,5.3-.12,7.94.24,1.13.22,2.21.69,3.39.7,17.51.22,35.04-.36,52.53.97.52.04.96-.22,1.41-.4h.01c6.9-1.65,13.9-.7,20.84-.68,12.31.04,24.61.14,36.92.17,2.14,0,4.37-.23,6.15,1.41v20c-69.84-.02-139.68-.03-209.53-.05-11.14,0-22.28-.03-33.42-.04Z"/>
      <path class="cls-98" d="M971.87,139c-52.74.01-105.47.02-158.21.04-26.62.01-53.24-.04-79.86.16-4.02.03-5.19-1.15-4.93-5.03.34-4.97.14-9.98.17-14.97,4.61-.08,9.21-.16,13.82-.25,2.58-2.11,5.68-1.56,8.63-1.58,4.49-.04,8.98-.19,13.47.12,17.98-.4,35.96-.19,53.94-.12,8.67.03,17.25-1.15,25.92-1.18,9.84-.03,19.59,1.41,29.42,1.19,1.69-.04,3.31.32,4.72,1.35,5.24.02,10.48.03,15.72.05,4.98-2.65,10.35-.98,15.54-1.42,1.8-.15,3.62-.07,5.43.13,3.83-.15,7.66-.26,11.5-.02,12.39.17,24.78-.4,37.16-.15,2.62.05,5.34-.29,7.55,1.67v20Z"/>
      <path class="cls-62" d="M936.82,176.06c11.68-.02,23.37-.04,35.05-.07v124.97c-11.11,1.08-22.25.22-33.38.46-1.9.04-2.55-1.28-2.91-2.83-.49-2.13-.39-4.31-.39-6.47,0-35.81-.01-71.62,0-107.44,0-2.32-.18-4.67.56-6.94.26-.62.62-1.19,1.07-1.69Z"/>
      <path class="cls-87" d="M971.87,511.93c-7.48.1-14.96.28-22.45.28-60.59,0-121.18-.08-181.78.08-4.38.01-6-1.37-6.79-5.45-.91-4.69-2.56-9.24-3.9-13.85,1.99-1.99,4.57-1.25,6.94-1.49.62-.03,1.24-.03,1.86-.01,11.72.05,23.45,0,35.17.03,2.16,0,4.29-.07,6.35-.78,5.99-.46,11.99-.22,17.99-.22,38.99-.03,77.97-.03,116.96.01,2.61,0,5.39-.57,7.65,1.42,7.33.6,14.66.58,21.99-.01v20Z"/>
      <path class="cls-62" d="M971.87,119.01l-44.92-.17c.52-3.57,3.36-3.27,5.73-3.1,3.35.24,4.48-1.32,4.5-4.34.01-1.83.05-3.65.05-5.48,0-32.54-.02-65.08.03-97.63,0-2.76-.56-5.71,1.57-8.09,11.02-.06,22.03-.12,33.05-.17v118.98Z"/>
      <path class="cls-53" d="M936.83,176.97c.02,39.43.09,78.85-.04,118.28-.01,4.34.8,6.09,5.64,5.87,9.8-.43,19.63-.14,29.44-.15v1c-19.19-.07-38.39-.13-57.58-.21-2.13,0-4.32.36-6.34-.71.04-.39.07-.78.11-1.18.63-1.78.32-3.63.32-5.44.02-37.24.01-74.49.02-111.73,0-6.06.12-6.27,6.07-6.16,7.45.15,14.92-.58,22.36.43Z"/>
      <path class="cls-11" d="M567.95,886.85c-1.27-12.66-2.55-25.31-3.81-37.97-1.07-10.69-2.06-21.39-3.2-32.07-1.15-10.84-2.45-21.66-3.67-32.49-1.11-9.85-2.02-19.73-3.36-29.55-2.03-14.89-3.88-29.83-7.93-44.37-.54-1.95-2.43-4.88-.09-5.72,2.37-.85,2.94,2.69,3.57,4.5,7.21,20.85,12.06,42.31,16.5,63.89,3.33,16.2,6.82,32.37,10.45,48.5.93,4.15,0,8.31.74,12.4,1.97,2.67,1.51,5.78,1.21,8.69-1.25,12.41-2.35,24.85-4.35,37.18-.41,2.55-.27,5.45-3.06,7.01h-3Z"/>
      <path class="cls-2" d="M707.91,345.86c8.19,11.7,12.64,25.09,17.36,38.37.7,1.98,1.08,4.2,2.74,5.75,2.27,10.75,6.94,20.7,10.42,31.04.76,2.24.88,4.83,2.69,6.68.84.57,1.58,1.25,1.91,2.22,2.49,7.35,5.62,14.49,7.27,22.1.8,3.67.15,6.61-4.41,6.98-20.67,6.62-41.54,12.59-61.98,19.93-1.07,1.12-2.4,1.8-3.88,2.22-4.44.68-5.61-3-7.19-5.72-6.52-11.24-11.84-23.09-16.95-35.02-4.11-9.61-7.95-19.33-11.65-29.1,3.67,10.58,8.26,20.81,11.8,31.45,6.67,20.06,12.95,40.23,19.49,60.33.53,1.64,1.25,3.26-1.21,3.98-17.28.67-34.56.12-51.84.3-3.49.03-6.98-.02-10.47.04-9.72.32-19.43.33-29.15,0-21.63-.07-43.26-.06-64.89,0-8.62.45-17.25.27-25.88.12-5.43-.09-6.5-1.35-6.55-7.05-.1-11.95-.01-23.9-.05-35.84-.52-24.41.42-48.77,2.39-69.12-1.19,10.26-2.12,24.55-3.3,38.8-.59,7.11-1.36,14.23-1.29,21.39.02,1.99-.53,3.95-1.53,5.73-.99,1.44-2.5,1.6-3.96,1.25-8.01-1.88-15.82-4.42-23.37-7.72-.76-.33-1.2-1.11-1.66-1.79-5.18-1.41-4.97-4.2-3.16-8.69,10.84-26.86,19.43-54.55,26.93-82.46,6.6-24.55,22.91-37.62,45.61-44.88,3.27-1.05,5.21-2.64,6.52-5.8,2.71-6.49,6.73-12.16,12.12-16.77,1.49-1.28,2.84-2.86,5.12-2.59,1.35.88,1.83,2.31,2.23,3.74,3.06,10.96,3.6,22.08,2,33.32-.14,1-.54,1.9-1.22,2.65-2.5,1.82-3.6.07-4.5-1.87-4.93-10.66-4.94-10.77-15.8-5.24-2.1,1.07-2.15.98-4.58-.34.37,1.44,1.37,1.78,2.68,1.45.65-.16,1.15-.7,1.76-.91,3.56-1.23,7-5.68,10.85-2.21,4.53,4.09,7.28,9.55,6.24,16.06-1.35,8.39-4.4,16.38-5.81,24.78-1.16,6.88-1.38,13.87-2.37,18.3,1.36-8.33,1.77-19.33,5.15-29.75,3.18-9.81,6.76-19.49,12.65-28.11.92-1.35,1.17-3.11,1.86-4.62,1.9-4.19,3.99-4.66,7.04-1.23,3.1,3.49,6.24,6.92,9.47,10.29,3.47,3.62,7.58,6.53,11.07,10.1,2.63,2.69,5.11,2.71,7.89.55,6.59-5.1,12.52-10.93,18.36-16.84,7.26-7.35,13.85-15.28,19.71-23.8.78-1.14,1.89-1.86,3.27-2.13,14.99,8.18,30.05,16.24,44.94,24.59,11.37,6.37,20.44,15.52,29.08,25.12Z"/>
      <path class="cls-16" d="M265.92,499.04c18.46-.09,36.92-.13,55.38-.3,4.73-.04,4.76,2.89,4.76,6.31-.04,37.59-.03,75.18-.02,112.76,0,1.33.04,2.66.06,3.99-3.15,2.76-6.97,1.48-10.51,1.67-5.52.28-5.91.48-5.95,6.06-.05,8.48.03,16.95-.03,25.43-.03,3.81,1.57,5.41,5.36,5.34,5.48-.09,10.97-.09,16.45,0,3.65.06,5-1.62,4.99-5.14-.03-8.64-.08-17.29.03-25.93.03-2.59-.38-5.44,2.4-7.16,20.31-.06,40.61-.11,60.92-.21,4.7-.02,5.28,2.86,5.28,6.62-.05,25.8,0,51.61-.01,77.41-.02,21.31-.1,42.61-.15,63.92-1.73,1.75-3.98,1.47-6.11,1.47-55.69.03-111.38.03-167.07,0-1.97,0-4.02.21-5.78-1.05-1.77-2.11-1.55-4.68-1.55-7.15-.04-44.61-.05-89.22,0-133.83,0-7.79,1.22-8.93,9.01-9.02,8.16-.09,16.31.04,24.47-.05,6.01-.07,6.46-.5,6.47-6.65.05-34.79,0-69.58.04-104.37,0-2.82-.28-5.67.53-8.44.26-.62.61-1.18,1.06-1.68Z"/>
      <path class="cls-101" d="M115.13,770.74c-.34.04-.69.08-1.03.11-1.78-1.88-1.71-4.25-1.71-6.57-.03-32.73-.04-65.47,0-98.2,0-2.5.05-5,1.42-7.24-.02-.24,0-.48.09-.71,1.48-1.56.77-3.49.79-5.24.09-7.83,0-15.66.06-23.49.04-5.63,1.82-7.37,7.53-7.42,6.66-.06,13.33,0,19.99-.03,7.41-.04,6.49.8,6.5-6.25.05-36.32.04-72.64.07-108.96q0-7.85,7.72-7.84c14.49.04,28.99.08,43.48.12,1.77,1.9,1.58,4.31,1.6,6.62.07,7.49-.03,14.99.04,22.48.06,5.65.46,6.04,5.88,6.14,3.66.07,7.33-.03,10.99,0,3.38.03,4.77-1.56,4.78-4.87.04-7.66-.08-15.32.06-22.98.12-6.58.58-7.06,7.19-6.95,11.79.2,23.6-.57,35.38.42.01,39.1-.02,78.2.11,117.29.01,3.72-1.06,4.9-4.8,4.81-9.64-.24-19.31.19-28.94-.19-4.91-.19-6.48.96-6.45,6.23.22,44.75.11,89.51.1,134.27,0,2.5-.03,4.99-.05,7.49-1.68,1.11-3.56.55-5.33.55-33.36.04-66.71.02-100.07.05-1.81,0-3.65-.35-5.42.36Z"/>
      <path class="cls-62" d="M878.98,118.75c-38.02-1.03-76.03.81-114.05.22-2.11-2.38-1.66-5.32-1.66-8.1-.04-28.14-.05-56.28,0-84.43.01-7.63-1.89-15.24-.2-22.89.25-1.13.22-2.32.79-3.38,35.25,0,70.5-.07,105.75.05,9.29.03,9.29.32,9.29,9.77.02,36.25.05,72.5.07,108.75Z"/>
      <path class="cls-46" d="M452.79,453.2c9.34,3.13,18.54,6.68,28.14,8.96,2.56-.44,4.71-.09,5.51,2.86.02,12.45-.09,24.91.07,37.36.04,3.05-.97,4.45-3.96,5.14-5.58,1.28-6.7,2.82-6.93,8.59-.17,4.31.02,8.63-.09,12.95-.06,2.12.2,4.38-1.69,6-3.74,3.98-7.15,8.28-11.52,11.64-10.81,8.3-21.44,8.49-32.47.46-17.95-13.07-34.04-28.13-49.07-44.47-14.19-15.43-27.95-31.21-41.13-47.5-7.46-9.23-17.76-14.95-27.15-21.78-7.37-5.37-11.85-12.4-13.58-21.29,4.48-2.77,9.64-2.1,14.47-2.39,5.48-.33,10.94-1.06,16.42-1.18,3.54-.07,3.45-1.6,1.93-4.05-1.14-1.84-2.4-3.61-3.65-5.37-3.67-4.85-6.73-9.93-6.43-16.35.11-2.39.62-4.61,2.06-6.55,2.68-3.6,5.36-3.92,8.82-.98,3.84,3.27,6.6,7.46,9.64,11.42,2.53,3.29,4.75,6.84,7.92,9.61,2.78,4.36,5.77,8.55,9.82,11.87-1.79.89-1.43,2.22-.83,3.69,1.53,3.69,2.48,7.55,3.11,11.49.85,5.33,3.44,9.2,7.98,12.47,19.4,13.95,36.83,30.48,56.84,43.66,2.63,1.73,5.39,3.3,7.9,5.19,2.79,2.11,3.79.91,4.93-1.79,4.19-9.93,8.6-19.77,12.92-29.65Z"/>
      <path class="cls-60" d="M513.01,153.13c-9.27-10.35-10.08-22.28-5.9-34.78,2.4-7.17,7.29-8.54,13.92-4.7,8.83,5.12,18.67,6.32,28.55,7.32,17.29,1.75,34.88.43,51.9,5.02,10.32,2.78,20.92,5.76,26.42,15.82,3.48,6.36,7.56,11.84,12.2,17.35,6.84,8.12,5.98,18.42,3.56,28.05-6,23.8-16.75,45.68-28.2,67.24-.9,1.69-2.03,3.04-4.07,3.27-8.22.84-14.13-4.07-20.1-8.42-5.87-4.28-10.08-10.05-13.07-16.73-1.37-3.06-1.24-5.7.65-8.43,2.57-3.72,4.62-7.71,5.35-12.25,1.69-10.49-5.49-18.86-14.86-17.34-3.66.59-6.39,2.66-8.67,5.45-2.37,2.89-4.78,5.79-9.15,4.48-3.7-1.11-5.82-4.64-5.9-10-.09-5.99-.25-11.94-.94-17.91-.72-6.21-3.59-10.01-9.48-12.06-5.96-2.07-12.01-3.99-17.53-7.17-1.87-1.08-3.94-1.9-4.67-4.21Z"/>
      <path class="cls-96" d="M513.01,153.13c6.91,4.74,14.74,7.42,22.59,10,6.79,2.24,10.05,6.56,10.58,13.86.45,6.15.81,12.27.7,18.42-.07,3.72,1.27,6.43,4.92,7.75,3.64,1.32,5.39-1.05,7.3-3.5,5.31-6.82,11.92-8.85,18.27-5.82,6.2,2.96,9.82,11.68,8.05,19.21-1,4.25-2.47,8.3-5.36,11.59-2.24,2.56-1.94,4.94-.62,7.69,6.55,13.65,17.65,21.55,31.96,25.4-.39.29-1.14.64-1.1.87.94,6.39,1.16,12.98,4.74,18.7-.28,2.14-2.18,2.79-3.58,3.87-10.3,7.87-21.12,14.97-32.26,21.6-6.56,3.91-13.05,7.92-19.01,12.74-4.22,5.37-6.65,11.75-9.93,17.66-.44.8-.8,2.2-2.01,1.72-1.44-.58-1.08-1.82-.36-2.91,2.39-10.95,2.21-21.86-.5-32.73-.59-2.38-.98-4.82-1.46-7.23-.13-1.74-1.36-3.29-.85-5.14-.74-5.98,2.09-10.67,5.43-15.22,1.07-1.46,1.93-3.08,2.82-4.66.63-1.1,1.98-2.4,1.04-3.54-1.17-1.43-2.73-.02-4.05.4-3.05.97-5.55,2.77-7.52,5.31-.74-2.7-2.17-3.19-5.08-2.78-7.51,1.08-15.06,2.59-22.72.82-6.59-1.53-10.63-5.27-12.34-12.04-1.78-7.04-1.84-14.13-1.81-21.24.01-3.96-1.24-6.42-5.11-8.04-6.15-2.57-6.8-5.06-3.26-10.74,2.19-3.51,4.34-7.2,7.24-10.09,6.54-6.52,7.8-14.58,8.19-23.18.45-9.78,2.43-19.33,5.08-28.74Z"/>
      <path class="cls-29" d="M359.95,408.13c-6.06-1.2-7.67-6.36-9.85-11.03,5.65-3.13,11.97-1.92,17.96-2.56,10.08-1.06,20.26-1.02,30.36-2.06,5.21-.54,5.47-.78,4.68-6.27-3.48-24.23-6.56-48.51-9.81-72.77-3.55-26.57-6.95-53.15-10.58-79.71-.85-6.22-1.04-6.34-7.26-5.57-2.82.35-5.65.46-8.48.34-4.46-.19-8.61-.04-11.22,4.56-1.03,1.82-3.24,2.22-5.3,2.34-17.26,1-34.5,2.5-51.79,3.08-4.67.16-9.24,1.26-13.94,1.02-3.02-.15-5.56-.94-7.12-3.75-.94-1.69-2.5-2.24-4.24-1.95-4.96.84-9.98.45-14.94.94-5.18.51-5.93,1.54-5.22,6.78,3.84,28.55,7.86,57.07,11.74,85.61,2.87,21.12,5.88,42.22,8.79,63.33,1.24,9.02,1.94,9.54,11.18,8.77,13.26-1.11,26.57-1.5,39.86-2,1.47-.06,3.02-.36,4.21.91,2.92,3.36,5.12,7.14,7.02,11.41-12.65.87-24.86,1.7-37.07,2.54-7.12.54-14.26.84-21.34,1.66-10.07,1.17-12.25-.45-13.66-10.53-4.23-30.35-8.6-60.69-12.78-91.04-3.48-25.26-6.78-50.55-10.18-75.82-.22-1.64-.76-3.25-.92-4.89-.48-5.09,2.26-8.16,7.34-8.5,9.13-.62,18.25-1.44,27.38-1.88,2.75-.13,3.1-.94,2.97-3.49-.3-6.06.95-7.34,6.9-7.72,20.75-1.32,41.51-2.6,62.26-3.83,5.8-.34,8.12,1.62,7.96,7.41-.1,3.48,1.34,3.72,4.07,3.57,7.81-.44,15.64-.5,23.44-1.1,6.95-.54,9.58,3.16,10.39,8.81,2.29,16.08,4.14,32.22,6.22,48.33,2.09,16.12,4.22,32.22,6.38,48.33,2.18,16.26,4.4,32.51,6.6,48.76,1.2,8.86,2.35,17.74,3.58,26.6.65,4.65-1.76,7.89-6.3,8.19-16.43,1.08-32.87,2.13-49.3,3.19Z"/>
      <path class="cls-35" d="M473.85,535.05c.04-6.8.05-13.59.14-20.39.08-5.81,2.57-8.61,8.32-8.64,3.32-.01,3.74-1.45,3.71-4.21-.11-12.6-.05-25.2-.05-37.8.34-.39.66-.39.95.05-.05,12.28.02,24.56-.22,36.83-.07,3.79.88,5.21,4.96,5.08,8.78-.29,17.58-.01,26.37.03.45.5.8,1.06,1.05,1.68.78,2.43.56,4.95.56,7.44.02,40.3.02,80.6,0,120.9,0,2.82.25,5.67-.75,8.41-.42.95-1.09,1.67-1.99,2.18-10.28,1.24-20.57,2.09-30.79-.5-.99-.02-1.99-.06-2.98-.06-6.79-.01-9.21-2.39-9.21-9.29-.02-31.41,0-62.82,0-94.23,0-2.49-.04-4.98-.06-7.48Z"/>
      <path class="cls-38" d="M246.04,818.88c-.44-4.7.92-9.52-.99-14.12,2.44-2,5.37-1.53,8.15-1.53,31.65-.04,63.3-.09,94.95.04,5.43.02,10.41.16,11.84-6.65.2-.94,1.18-1.59,2.24-1.8,2.44-1.56,5.21-1.17,7.76-.88,16.68,1.95,33.42.39,50.12.96.29,1.34.58,2.68.87,4.02.53.56.64,1.57.1,1.71-7.34,1.91-9.92,8.24-13.07,14-2.86,5.24-4.98,10.89-8.73,15.64-1.66,2.1-3.21,4.53-5.65,5.51-3.14,1.25-.66,2.74-.65,4.12-13.7,1.14-24.67-.83-31.99-18.71-1.16-2.83-3.23-2.27-5.29-2.27-36.55-.02-73.1-.02-109.65-.03Z"/>
      <path class="cls-32" d="M938.83.21c.01,37.43,0,74.85.07,112.28,0,4.12-.7,6.6-5.72,4.87-2.09-.72-4.67-1.12-6.23,1.48-3.68.02-7.35.04-11.03.06-2.27-2.51-1.69-5.63-1.7-8.56-.04-32.88-.02-65.77-.03-98.65,0-2.49.19-4.99-.5-7.41-1.34-2.36-3.66-1.65-5.71-1.85-4.32-.43-8.85,1.2-12.95-1.31.72-1.21,1.92-1.12,3.08-1.11,13.57.06,27.15.13,40.72.2Z"/>
      <path class="cls-60" d="M486.1,646.11c10.34-.12,20.68-.25,31.02-.37,1.51-.69,3.02-1.26,4.74-1.25,15.52.11,31.04-.33,46.56.23,3.35,1.17,4.66,4.67,7.4,6.54,5.01,4.58,10.89,7.58,17.42,9.25,8.36,2.14,16.88,3.7,25.11,6.34,8.24,2.65,16.04,1.92,23.51-2.4,3.58-1.5,6.8-3.66,10.06-5.74.35-.28.73-.52,1.11-.75,2.3-1.3,4.48-2.78,6.37-4.64,1.03-.86,2.19-1.51,3.34-2.18,3.16-2.04,6.16-4.26,8.75-7.01,1.1-.8,2.01-2.1,3.68-1.37,2.2.36,1.71,2.11,1.75,3.51.35,14.54,1.41,29.11.79,43.6-.51,11.87-.69,23.8-2.5,35.67-1.04,6.84.75,14.06.72,21.11-.05,12.04.88,24.04,1.32,36.05.38,10.12,1.06,20.3,1.59,30.44.75,14.25,1.82,28.48,2.36,42.75.38,9.95,1.35,19.93,1.89,29.91-2.4-3.5-1.72-7.78-1.84-11.46-.26-8.47-1.05-16.9-1.43-25.36-.95-21.01-2.5-42-3.82-63-.45-7.13-.3-14.29-.46-21.42-.32-14.56-2.86-29.09-.83-43.71.71-5.08.93-10.23,1.19-15.36.37-7.12-.1-14.23.87-21.39,1.13-8.35-1.57-16.71-.64-26.45-8.06,9.94-17.03,16.41-27.76,20.58-6.8,2.64-13.4,3.23-20.33.83-19.44-6.73-39.21-12.33-59.39-16.36-5-1-10.16-1.73-15.25-1.72-15.79.03-31.54-.28-47.24-2.11-4.76-.56-9.52-1.08-14.25-1.85-3.65-.59-5.32.44-4.99,4.39.26,3.11.05,6.26-.69,9.4-.15-2.42-.3-4.84-.45-7.26.11-5.82.21-11.64.32-17.46Z"/>
      <path class="cls-80" d="M763.86.17c.99,1.28.92,2.78.92,4.29.04,38.17.09,76.34.15,114.52-7.35,0-14.71,0-22.06-.01,0-38.26.04-76.52-.05-114.77,0-3.18,1.2-4.06,4.08-4.01,5.65.09,11.31,0,16.97,0Z"/>
      <path class="cls-80" d="M915.76,1.94c.03,36.16.06,72.31.1,108.47,0,2.83.04,5.66.06,8.5-7.07-.03-14.15-.07-21.22-.1.06-.59.11-1.18.17-1.78,1.01-1.71.51-3.58.51-5.37.03-34.93.02-69.86.03-104.79,0-5.3.02-5.4,5.45-5.29,4.97.1,9.96-.51,14.91.36Z"/>
      <path class="cls-2" d="M559.67,314.86c3.84-4.81,9.38-7.33,14.46-10.34,14.12-8.36,27.62-17.62,40.91-27.21,6.81-1.25,9.27-.43,12.48,5.68,2.03,3.86,6.8,6.6,5.36,12.02-7.08,12.38-16.81,22.5-27.28,31.99-3.93,3.57-7.91,7.08-12.06,10.4-3.32,2.66-6.13,2.72-9.04-.57-5.73-6.49-12.9-11.48-18.77-17.82-1.73-1.87-3.93-2.94-6.07-4.15Z"/>
      <path class="cls-35" d="M338.84,622.08c-1.34,3.03-.69,6.23-.72,9.35-.09,8.8-.1,17.61.02,26.41.04,2.86-.7,4.27-3.88,4.2-7.3-.16-14.62-.14-21.92-.03-3.21.05-4.42-1.25-4.39-4.44.1-10.63.09-21.26-.04-31.89-.03-2.82.96-3.83,3.74-3.77,4.81.1,9.63-.06,14.44-.1,4.25.09,8.5.18,12.75.27Z"/>
      <path class="cls-7" d="M75.64,799.05c1.6-2.56,3.81-3.32,6.89-3.31,5.21.01,10.52,1.03,15.65-.81,3.06,11.4,3.22,22.55-3.17,33-4.65,7.6-11.52,11.59-20.48,11.99-5.16.23-10.31.33-15.45-.23,9.21-2.76,14.91-10,14.93-18.94.61-4.85,3.6-9.22,2.58-14.44-.46-2.37-1.89-4.69-.95-7.26Z"/>
      <path class="cls-84" d="M265.98,499.89c-12.16,0-24.33.13-36.49-.05-3.53-.05-4.62,1.08-4.54,4.56.2,9.16-.02,18.33.12,27.49.05,3-.91,4.18-4,4.07-5.33-.19-10.67-.26-15.99.02-3.85.21-5.26-.9-5.15-4.99.29-10.66.11-21.32.12-31.99,21.96,0,43.91.02,65.87.02.07.28.08.56.06.85Z"/>
      <path class="cls-2" d="M392.97,839.9c-.9-1.78-3.18-.24-4.57-2.14,9.61-4.54,13.54-13.53,17.78-22.29,1.72-3.57,3.37-7.23,6.02-10.21,2.42-2.74,4.77-5.73,8.78-6.32,6.35,16.66-2,35.58-17.72,40.25-3.4,1.01-6.82,1.04-10.28.72Z"/>
      <path class="cls-4" d="M559.67,314.86c2.68-.19,4.65.92,6.57,2.81,6.62,6.52,13.49,12.8,20.14,19.31,1.78,1.74,3.03,1.91,5.03.35,10.61-8.29,20.71-17.13,29.5-27.36,4.16-4.84,7.99-9.96,11.98-14.96.34.38.67.77,1.01,1.15-6.88,9.99-14.46,19.5-23.01,28.03-5.84,5.82-11.58,11.93-18.53,16.59-3.01,2.01-5.17,2.02-8.12-.82-7.3-7.02-15.11-13.49-21.39-21.54-1.05-1.35-2.66-3.36-3.96-.16-3.47,8.56-8.51,16.35-11.96,24.95-4.63,11.54-6.24,23.64-7.95,35.77-.48,3.41-1.35,6.77-1.01,11.2-2.88-2.53-2.11-4.97-1.88-6.93,1.43-12.15,2.59-24.34,6.25-36.14,2.05-6.62,3.81-13.28-.65-20-3.26-4.9-4.19-5.66-9.44-3.23-1.35.63-2.65,1.39-3.9,2.2-1.52.98-3.3,1.49-4.62.3-1.52-1.37-.51-3.03.83-4.89.33,3.3,1.71,3.35,4.16,2.21,11.49-5.32,11.55-5.26,17.16,6.44.48,1.01.92,1.71,2.05,1.83.06.79.13,1.59.25,3.11,4.41-7.01,6.45-14.5,11.52-20.23Z"/>
      <path class="cls-12" d="M115.13,770.74c1.74-1.48,3.83-.75,5.74-.75,35.03-.11,70.05-.15,105.08-.2,59.64.01,119.28.03,178.92.04.06.3.11.6.13.9-17.16.06-34.31.17-51.47.16-79.47-.03-158.94-.09-238.41-.15Z"/>
      <path class="cls-20" d="M708.1,69.11c1.37,1.59.78,3.51.78,5.28.04,88.25.05,176.51.03,264.76,0,1.92.7,4.02-.85,5.74-.06-8.66-.17-17.31-.17-25.97.02-81.11.05-162.21.09-243.32,0-2.16.08-4.33.12-6.49Z"/>
      <path class="cls-24" d="M542.82,269.16c.49-3.5,9.98-9.36,12.96-7.98,1.52.71,1.14,1.86.57,2.93-1.18,2.19-2.45,4.34-3.68,6.5-2.98,5.21-7.42,9.74-7.57,16.27-.76-5.9-1.52-11.81-2.28-17.71Z"/>
      <path class="cls-68" d="M915.76,1.94c-4.99.02-10,.31-14.96-.01-4.09-.27-5,1.3-4.98,5.13.14,27.61.08,55.23.07,82.84,0,7.49.02,14.97-.03,22.46-.01,1.59.56,3.37-.99,4.67.05-38.64.11-77.27.16-115.91,6.91.39,13.89-1.16,20.73.82Z"/>
      <path class="cls-35" d="M741,684.05c-2.84,1.27-5.85.59-8.76.61-2.51.02-3.52.8-3.43,3.43.18,5.26.09,10.53.1,15.8,0,0-.2.17-.2.17l-.2-.17c-2.14,1.25-1.03,3.31-1.03,4.94-.08,39.63-.06,79.27-.06,118.9,0,3.75.11,7.5-.29,11.24-5.99,1.88-12.14.75-18.2.78-3.01.01-1.97-2.99-1.97-4.75-.04-21.42,0-42.85.05-64.27.02-11.96.07-23.91.11-35.87.62-1.78.31-3.63.32-5.44.02-35.06.01-70.12.02-105.18,0-1.82-.17-3.66.18-5.47,0-.23,0-.46-.03-.69,1.94-4.03,6.04-5.98,8.92-9.11,3.47-3.78,7.43-7.1,11.61-11.02v85.05c4.35-.36,8.8-1.94,12.87,1.05Z"/>
      <path class="cls-88" d="M642.96,664.9c-6.69,4.83-13.97,6.22-22,4.09-9.22-2.44-18.53-4.57-27.74-7.06-6.88-1.86-13.33-4.71-18.4-9.99-.36-1.16-1.3-1.9-2.06-2.77-.83-.97-2.29-1.77-1.77-3.3.63-1.84,2.4-2.14,4.09-2.3,6.51-.62,12.96.18,19.36,1.16,6.63,1.02,13.27.59,19.91.66,1.33.01,2.68-.1,3.9-.7,2.34-1.14,4.7-2.8,4.1-5.56-.51-2.4-3.29-1.67-5.18-1.72-4.65-.12-9.31-.03-13.96-.04-1.5,0-3,.06-4.48-.15-3.44-.49-6.87-1.45-7.3-5.5-.41-3.91,2.3-6.1,5.74-7.14,6.21-1.88,12.61-3.08,19.03-3.92,9.06-1.18,18.17-2.04,27.3-.38,3.81.69,6.8-.91,9.2-3.8,3.29-3.97,6.65-7.87,9.78-11.97,1.36-1.77,2.54-4.06,5.45-3.6,1.73.13,3.82-.04,1.82,2.69-2.88,3.94-1.15,7.55-.24,11.87,1.51,7.1,9.82,12.32,5.69,20.96-.79,1.66,1.47,3.12,2.71,4.42-.92.64-1.83,1.28-2.74,1.91-1.04.73-2.07,1.47-3.11,2.2-3.09,2.29-6.36,4.37-9.01,7.2-.88.64-1.77,1.28-2.65,1.92-2.74,1.26-5.28,2.8-7.29,5.1l.08-.08c-3.62,1.56-7.1,3.36-10.22,5.8Z"/>
      <path class="cls-41" d="M727.12,838.97c-.97-.11-1.95-.22-2.92-.33,3.49-.67,2.72-3.37,2.72-5.62.02-19.3,0-38.61,0-57.91,0-21.97-.02-43.93.04-65.9,0-1.84-.89-4.11,1.54-5.32-.13,1.81-.38,3.62-.38,5.44-.08,41.48-.13,82.96-.25,124.44,0,1.73.79,3.66-.75,5.21Z"/>
      <path class="cls-46" d="M707.63,618.77c.07,12.47.19,24.94.2,37.41.02,24.45-.01,48.9-.06,73.35,0,1.79.5,3.68-.66,5.33-.06-17.62-.15-35.24-.17-52.86-.02-19.29.02-38.58.07-57.87,0-1.79-.41-3.67.62-5.36Z"/>
      <path class="cls-62" d="M844.76,175.2c14.13-.04,28.26-.11,42.39-.09,3.94,0,5.88,1.7,5.86,6.12-.16,39.57-.13,79.15-.16,118.73-1.4,1.21-3.12,1.01-4.76,1-38.56-.19-77.13-.74-115.69-.51-.51,0-.98-.14-1.47-.25-2.2-2.35-1.66-5.31-1.66-8.07-.05-34.62-.03-69.25-.03-103.87,0-1.83-.06-3.66-.02-5.49.07-3.16-1.05-5.06-4.54-5.14-1.79-.04-3.72-.13-4.92-1.89.63-.19,1.26-.55,1.89-.55,20.14,0,40.28.03,60.42.06,1.64,1.79,1.36,4.03,1.4,6.16.09,5.5.07,11,.03,16.49-.03,3.65,1.27,5.56,5.23,5.52,15.93-.17,13.35,1.71,13.61-12.93.06-3.16-.05-6.33.08-9.49.09-2.22.45-4.33,2.37-5.79Z"/>
      <path class="cls-53" d="M759.75,175.74c3.58,1.13,8.59-1.86,10.67,1.56,1.64,2.7.48,7.13.49,10.79.02,37.31.03,74.61.04,111.92.33.24.44.47.31.69-.12.21-.25.31-.37.31-10.37.26-20.73.51-31.1.77,1.69-1.45,1.01-3.42,1.02-5.16.05-38.16.15-76.31-.05-114.47-.03-5.15,1.47-6.82,6.5-6.36,4.13.38,8.32,0,12.49-.04Z"/>
      <path class="cls-53" d="M844.76,175.2c-1.48,8.27-.64,16.61-.65,24.91,0,3.94-1.11,5.4-5.1,5.07-3.81-.32-7.67-.3-11.49-.07-4.02.24-5.74-1.1-5.59-5.37.27-8.16.11-16.33.13-24.49,7.57-.48,15.13-.43,22.7-.05Z"/>
      <path class="cls-40" d="M936.83,176.97c-6.99.01-13.97.03-20.96.03q-6.97,0-6.98,6.8c0,36.76,0,73.53-.04,110.29,0,1.93.65,4.01-.79,5.77-.08-39.94-.14-79.88-.26-119.81,0-2.93.94-4.18,4.06-4.11,8.32.18,16.64.1,24.96.12.12.3.12.6.01.91Z"/>
      <path class="cls-63" d="M770.89,301c.02-.33.04-.67.06-1,40.63-.01,81.27-.03,121.9-.04.04.29.07.59.07.88-2.17,1.26-4.54.6-6.8.58-11.77-.11-23.55.46-35.31-.28-26.64-.05-53.28-.09-79.91-.14Z"/>
      <path class="cls-53" d="M850.8,301.13c14.04-.1,28.08-.2,42.12-.3,5.01.07,10.02.15,15.02.22-.74,1.27-2,.99-3.1.98-17.22-.09-34.45-.19-51.67-.32-.79,0-1.58-.38-2.37-.58Z"/>
      <path class="cls-62" d="M876.8,356.11c22.65-.01,45.31-.01,67.96-.05,4.32,0,6.18,1.74,6.16,6.34-.14,41.48-.1,82.96-.14,124.44,0,1.45.45,3.03-.81,4.26-1.79.61-3.63.31-5.45.31-42.75.02-85.5.04-128.25,0-8.31,0-16.6.91-24.91.52-1.81-.08-3.67.29-5.4-.58-1.86-1.86-1.68-4.28-1.68-6.58-.04-39.31-.1-78.61.05-117.91.01-3.61-.3-7.37,1.57-10.75,20.36,0,40.72-.01,61.08-.02,1.76,1.93,1.49,4.34,1.51,6.64.08,8.33.07,16.66.01,24.99-.03,3.99,1.56,5.76,5.63,5.65,5.33-.15,10.66-.09,15.99-.02,3.58.04,5.12-1.54,5.13-5.09.03-8.33-.04-16.66.05-24.99.03-2.46-.38-5.05,1.5-7.14Z"/>
      <path class="cls-27" d="M785.9,356.1c1.34,3.55,0,7.12,0,10.67.03,41.39.02,82.79.02,124.18-.31.95-.99,1.39-1.95,1.45-6.35.24-12.72-.4-19.06.34-.34-.02-.67-.04-1.01-.05-1.87-.6-3.92.09-6.79-.93,6.84-3.74,5.11-9.67,5.12-15.03.06-35.93.03-71.85.03-107.78,0-1.66-.07-3.33,0-4.99.13-3.33-.94-5.45-4.7-5.48-1.47-.01-3.01-.32-3.93-1.77,10.73-1.27,21.51-.56,32.26-.6Z"/>
      <path class="cls-91" d="M753.63,356.7q10.27.85,10.28,11.35c0,39.15-.05,78.3.05,117.46.01,3.78-.46,6.31-5.44,5.38,1.8,1.78,4.07.18,5.39,1.8-2.31.1-4.63.2-6.94.3-3.5-11.39-6.81-22.85-11.07-33.99,4.62-2.04,3.66-5.73,2.54-9.25-2.34-7.38-4.86-14.7-7.31-22.05.01-20.2.08-40.41.02-60.61-.04-11.97-.35-10.18,10-10.41.83-.02,1.66.02,2.49.03Z"/>
      <path class="cls-35" d="M876.8,356.11c.03,11.3-.04,22.59.15,33.89.06,3.58-1.02,5.13-4.81,5.01-6.8-.21-13.62-.2-20.43,0-3.79.11-4.88-1.47-4.83-5.04.17-11.29.09-22.59.11-33.89,9.94,0,19.88.02,29.82.03Z"/>
      <path class="cls-48" d="M785.11,491.75c.27-.26.54-.53.81-.79,52.85,0,105.71,0,158.56,0,1.83,0,3.65.09,5.48.13-.02.29-.05.57-.08.85-2.65.1-5.31.28-7.96.28-44.98-.03-89.95-.08-134.93-.13-7.3.31-14.61.97-21.89-.35Z"/>
      <path class="cls-62" d="M936.02,683.74c-8.98.04-17.95.13-26.93.12-55.74-.03-111.48-.07-167.21-.11-.2-.7.03-1.23.67-1.58.58-.3,1.18-.51,1.81-.65,7.97-.6,15.96-.21,23.94-.27,9.93-.08,9.94-.02,9.94-9.74,0-37.92-.02-75.85.03-113.77,0-2.92-.65-6.04,1.52-8.62,23.37-.05,46.74-.11,70.12-.16,1.73,1.91,1.55,4.3,1.58,6.61.06,6.64.07,13.28.01,19.92-.03,3.88,1.44,5.87,5.53,5.83,5.81-.07,11.62-.03,17.43-.01,3.37,0,4.76-1.61,4.79-4.87.06-6.8-.02-13.61.05-20.41.03-2.47-.23-5.03,1.61-7.1,21.46-.06,42.92-.08,64.38-.23,3.65-.03,5.12,1.77,5.45,5.02.1.99.05,1.99.05,2.99-.01,40.26-.09,80.52.06,120.79.02,4.3-.99,6.01-5.52,5.66-3.05-.23-6.29-.89-9.29.6Z"/>
      <path class="cls-35" d="M779.8,549.11c.06,43.2.09,86.4.23,129.6.01,3.19-.91,4.39-4.23,4.33-10.96-.2-21.93-.13-32.9-.17-1.39-1.47-1.39-3.32-1.39-5.15-.02-30.59-.05-61.18.01-91.78,0-.67.1-1.33.21-1.98.02-.32.05-.65.08-.97,1-4.11,4.51-6.44,6.8-9.63,4.94-6.86,9.99-13.64,13.75-21.27.56-1.14,1.68-2,2.54-2.98,4.96,0,9.93,0,14.89,0Z"/>
      <path class="cls-35" d="M880.91,548.9c-.01,9.66-.13,19.32.02,28.97.06,3.63-1.19,5.1-4.92,4.99-6.82-.2-13.66-.2-20.48,0-4.35.12-5.82-1.62-5.7-5.94.26-9.32.09-18.65.09-27.97,10.33-.02,20.66-.03,30.99-.05Z"/>
      <path class="cls-62" d="M667.93,600.9c-4.91,3.59-7.9,8.92-11.49,13.57-4.55,5.91-9.01,8.23-16.83,6.85-10.1-1.78-20.45.01-30.55,2.05-4.05.81-8.07,1.74-12.09,2.65-3.02.68-4.81,2.93-4.55,5.7.29,3.09,3.26,4.04,5.98,4.11,6.65.17,13.3,0,19.95.11,2.18.04,5.07-1.08,6.23,1.72,1.24,2.98-1.44,4.87-2.96,6.91-1.1,1.48-2.92,2.25-4.82,2.29-9.45.19-18.94.44-28.25-1.35-4.5-.86-8.93-.34-13.39-.59-1.29-.07-2.95-.3-3.46,1.23-.42,1.25,1.17,1.84,1.75,2.79.57.93,2.63,1.25,1.37,3.01-2.04-1.6-4.12-3.18-5.01-5.78-1.37-1.47-3.13-.74-4.7-.74-14.14-.06-28.28-.02-42.43-.06-1.61,0-3.33.53-4.84-.57.02-45.94.04-91.88.06-137.82.86-.7,1.89-.53,2.87-.53,20.6.04,41.2-.11,61.79.07,3.15,2.97,2.57,6.98,2.94,10.71.63,6.31-1.47,12.55-.35,18.93.62,3.55,1.82,5.38,5.69,5.2,4.66-.21,9.33-.19,13.99,0,4.14.17,5.6-1.67,5.54-5.65-.12-7.5-.09-15,0-22.49.03-2.29-.3-4.73,1.64-6.57,19.73-.48,39.47-.06,59.2-.23,1.78-.02,3.65.52,5.34-.55.56-.36,1.18-.52,1.84-.46,3.58,1.13,4.11,4.14,4.08,7.19-.2,22.39.89,44.78-.61,67.16-4.65,7.05-9.3,14.11-13.95,21.16Z"/>
      <path class="cls-91" d="M785.11,491.75l21.89.35c-7.2,1.4-14.49.59-21.73.72-6.78.13-13.57-.04-20.35-.08,6.66-1.78,13.49-.05,20.2-.99Z"/>
      <path class="cls-35" d="M611.96,506.91c0,10.61-.11,21.23.03,31.84.05,3.23-.99,4.39-4.26,4.3-6.63-.18-13.27-.14-19.9.04-3,.08-3.77-1.01-4.12-3.97-1.28-10.71,1.39-21.48-.71-32.14-.37-.18-.5-.38-.41-.62.09-.24.2-.36.31-.36,9.7,0,19.41,0,29.11,0,.32.22.42.42.3.62-.11.19-.23.29-.34.29Z"/>
      <path class="cls-78" d="M680.19,480.1c-.77,8.6-1.53,17.21-2.3,25.81-.36.08-.72.16-1.08.23-.46.25-.76.12-.89-.39-3.36-3.9-3.83-8.96-5.31-13.57-7.42-23.19-14.59-46.46-23.04-69.31-1.68-4.54-3.88-9.04-3.82-14.2,4.4,10.29,8.73,20.61,13.23,30.85,5.67,12.9,11.18,25.89,18.64,37.92,1.1,1.77,2.03,3.52,4.57,2.66Z"/>
      <path class="cls-5" d="M486.92,464.07l-.47-.07s-.48.02-.48.02c-1.68-.62-3.35-1.24-5.03-1.86,2.1-24.88,3.07-49.89,7.99-74.45-1.46,25.45-1.97,50.9-2.01,76.36Z"/>
      <path class="cls-72" d="M675.93,505.76c.29.14.59.27.89.39-1.43,1.25-3.16.75-4.77.75-20.03.03-40.06.02-60.09.01-.12-.31-.11-.61.04-.91,21.31-.08,42.61-.16,63.92-.25Z"/>
      <path class="cls-56" d="M582.9,506c.13.32.17.64.11.98-21.7,0-43.4,0-65.09,0-.09-.34-.05-.66.11-.97,21.62,0,43.25,0,64.87,0Z"/>
      <path class="cls-10" d="M364.61,758.95c-6.82,0-13.64-.09-20.46.03-4.11.08-6.19-1.44-6.11-5.82.15-7.98-.03-15.97.08-23.95.08-6.08,1.28-7.21,7.43-7.25,12.81-.07,25.62,0,38.42-.13,4.29-.04,6.34,1.32,6.17,6.08-.32,8.97-.18,17.96-.06,26.94.04,2.99-.95,4.14-4.03,4.07-7.15-.17-14.3-.05-21.46-.05,0,.03,0,.05,0,.08Z"/>
      <path class="cls-38" d="M113.81,658.84c1.06.77.42,1.82.42,2.75-.03,36.42-.09,72.85-.14,109.27-18.62,0-37.25-.08-55.87.1-4.18.04-5.64-.58-4.26-5.22,5.94-19.99,11.58-40.06,17.27-60.13,3.93-13.85,7.73-27.73,11.64-41.58.87-3.07.26-4.64-3.36-4.19-1.39.18-2.96.47-5.36-1h39.65Z"/>
      <g>
        <path class="cls-1" d="M77.29,659.45c.38,0,.72,0,1.06,0-.53-.08-1.06-.17-1.58-.31-.02.2.14.31.52.31Z"/>
        <path class="cls-81" d="M82.71,659.73c-.98-.23-2.4-.27-4.36-.27,1.44.21,2.91.24,4.36.27Z"/>
        <path class="cls-81" d="M452.59,780.14c-.04-7.08-2.21-9.23-9.19-9.26-12.8-.07-25.6-.11-38.4-.16-1.28-.54-2.63-.33-3.95-.33-92.65.67-185.29-1.03-277.93-.96-2.33,0-4.66,0-7,0-.63,0-1.24,0-1.87,0-17.17-.15-34.32-.02-51.48-.06-1.5,0-3,.01-4.5-.08-2.1-.12-3.02-1.14-2.61-3.26.29-1.48.76-2.9,1.15-4.35,8.51-31.52,18.5-62.61,26.63-94.23,1.38-5.37,1.75-7.15-.75-7.73-1.45-.04-2.92-.06-4.36-.27-.34,0-.68,0-1.06,0-.38,0-.54-.11-.52-.31.52.14,1.05.23,1.58.31,1.96,0,3.39.05,4.36.27.83.02,1.65.05,2.46.12,9.42.83,18.89,1.3,28.31-.29.6-.34.74-.81.43-1.43-11.99-.05-23.99-.25-35.97-.07-3.46.05-4.3-.77-4.29-4.29.07-67.46,0-134.93-.12-202.39,0-2.7.63-4.56,2.83-6.37,15.51-12.81,30.85-25.83,46.33-38.69,4.25-3.53,6.46-7.88,6.36-13.37-.15-8.32-.07-16.63-.87-24.95-1.6-16.79-15.22-30.95-32.06-31.95-20.95-1.25-41.93-1.31-62.89-.06-14.23.85-26.92,11.07-31.17,24.68-3.1,9.92-1.54,20.13-2.01,30.21-.29,6.25,1.92,11.2,6.67,15.29,14.87,12.82,29.58,25.82,44.49,38.59,3.37,2.88,4.93,5.82,4.91,10.48-.2,43.98-.1,87.95-.09,131.93,0,22.32-.03,44.64.01,66.97,0,2.47.32,4.61-3.44,4.09-3.56-.49-4.61,2.19-5.56,5.11-11.32,34.94-22.71,69.86-34.19,104.75-.41,1.25-.38,3-2.91,3.3-7.84.92-7.84,1.17-7.84,8.92,0,2,0,4,0,6,0,8.2,1.45,9.52,9.56,9.41,8.57-.12,17.15-.03,26.31-.03-2.42,4.34-2.96,8.59-3.29,12.87-1.2,15.34,10.09,29.74,24.44,31.15.77-.4,1.6-.32,2.42-.35,7.68-.28,15.07-11.02,12.77-18.57-2.39-.87-4.08.91-6.02,1.65-4.92,1.87-10.52.77-13.76-2.78-4.15-4.55-4.98-12.06-2.12-18.2,2.42-5.2,7.1-4.56,11.54-4.65,4.51-.1,8.63,1.82,12.99,2.47,4.23-2.8,9.01-1.62,13.6-1.88,2.77-.16,5.77.42,7.68-2.44h95.37c-4.99,8.1-6.38,16.51-3.81,24.74,6.27,20.08,19.96,22.89,38.62,19.31,10.42-2,14.99-10.56,17.68-20.1,2.73-4.81,1.64-9.74.45-14.67-.48-1.96-1.43-3.73-2.33-5.51-1.02-2.02-.65-3.17,1.8-3.21,1.33-.02,2.66-.02,4-.02,31.81,0,63.62-.01,95.43.01,5.66,0,11.32-.25,16.96.28,16.71.81,33.43.84,50.15.73,2.63-.02,5.35.27,7.61-1.59,5.99,0,11.97-.05,17.96-.02,14.97.07,14.61,1.2,14.53-14.74ZM77.1,353.91c5.65.15,11.31-.06,16.96.08,9.22.22,16.87,8.05,17.03,17.3.08,4.66-.32,9.35.16,13.96l-37.47,39.71c0-23.59.05-45.7-.07-67.82-.02-2.75.92-3.3,3.39-3.23ZM55.06,424.89c-12.41-10.75-23.82-20.62-35.22-30.51-1-.87-1.84-1.77-1.81-3.33.12-6.65-.36-13.35.27-19.94,1-10.53,8.91-17.13,19.56-17.15,4.66,0,9.32.08,13.97-.03,2.12-.05,3.3.16,3.28,2.85-.11,22.24-.06,44.48-.06,68.12Z"/>
      </g>
      <path class="cls-74" d="M75.64,799.05c3.68,7.55,3.75,14.83-1.63,21.7-8.37,5.49-14.86,5.58-20.28.27-5.32-5.21-6.01-15.13-1.65-22.11,1.43-2.29,3.13-3.65,6.02-3.5,3.97.21,7.95.29,11.92.13,2.84-.12,4.01,1.94,5.63,3.51Z"/>
      <path class="cls-54" d="M226.3,810.98c-.04,8.48-4.53,14.79-10.7,15.05-6.63.28-11.39-5.48-11.95-14.43-.54-8.75,4.5-16.39,10.91-16.5,6.61-.12,11.78,6.88,11.74,15.88Z"/>
      <path class="cls-86" d="M175.92,611.91c-4.82,0-9.64-.08-14.46.04-3.14.08-4.56-1.11-4.5-4.37.13-6.81.08-13.63.04-20.44-.02-3.5,1.62-5.23,5.13-5.22,8.97.02,17.95.02,26.92.04,4.27.01,6.18,1.9,6.13,6.44-.06,6.28-.65,12.58.6,18.87.6,3.02-1.36,4.61-4.41,4.63-5.15.03-10.3,0-15.45.01Z"/>
      <path class="cls-84" d="M183.05,636.63c0,4.16-.11,8.31.04,12.46.1,2.77-.89,3.94-3.73,3.8-5.95-.28-11.91.34-17.86-.84-2.39-.48-3.53-.98-3.49-3.59.11-7.64.13-15.29,0-22.94-.05-2.92,1.19-3.7,3.88-3.65,5.98.13,11.97.1,17.95,0,2.76-.04,3.77.72,3.39,3.78-.46,3.6-.11,7.3-.11,10.96h-.05Z"/>
      <path class="cls-30" d="M787.75,108.06c-3.83,0-7.66-.06-11.49.02-2.81.06-4.42-.87-4.36-3.98.1-5.83.02-11.65.09-17.48.04-3.61,1.89-5.55,5.57-5.57,6.83-.03,13.65-.09,20.48-.06,3.83.02,5.84,2.01,5.85,5.89.02,5.66-.04,11.32.04,16.98.05,2.98-1.26,4.24-4.21,4.17-3.99-.09-7.99-.02-11.99-.02v.06Z"/>
      <path class="cls-57" d="M857.62,27.56c-1.55-2.8-.45-5.88-.55-8.88-1.8,2.75-.14,6.2-2.16,8.97-1.36-4.74-1.07-9.56-.78-14.34.09-1.53,1.66-1.19,2.82-1.19,1.46,0,2.08.72,2.08,2.13,0,4.43,0,8.87,0,13.3-.47,0-.94,0-1.4.01Z"/>
      <path class="cls-51" d="M822.91,31.2c-.96-7.38-2.41-14.72-1.23-22.3,3.83,7.13,3.72,14.61,1.23,22.3Z"/>
      <path class="cls-39" d="M863.04,19.58c-1.26,2.88,1.66,7.56-1.9,7.87-2.4.2-1.05-4.8-1.04-7.38.01-2.58-1.53-7.43,1.18-7.38,3.3.06.21,4.77,1.75,6.89Z"/>
      <path class="cls-73" d="M872.01,20.12c-1.11,2.49,1.72,7.11-1.85,7.35-2.35.16-1.1-4.78-1.01-7.32.09-2.58-1.92-7.2,1.53-7.37,2.51-.12.42,4.76,1.32,7.33Z"/>
      <path class="cls-95" d="M867.3,12.73v14.83c-.32,0-.63,0-.95-.01v-14.83c.32,0,.63,0,.95.01Z"/>
      <path class="cls-45" d="M848.92,12.45c1.13,5.04,1.13,10.08-.07,15.11-1.21-5.04-1.31-10.08.07-15.11Z"/>
      <path class="cls-64" d="M864.69,13.16v14.23c-.17,0-.34,0-.51,0v-14.29c.17.02.34.05.51.07Z"/>
      <path class="cls-94" d="M852.63,12.84v14.54c-.21,0-.42,0-.62,0v-14.54h.62Z"/>
      <path class="cls-61" d="M328.99,398.16c-6.35,1.65-12.86.53-19.29,1.05-10.78.86-21.6,1.13-32.4,1.78-2.73.17-3.91-.86-4.27-3.49-3.33-24.8-6.65-49.6-10.09-74.38-3.19-22.98-6.54-45.93-9.78-68.9-.79-5.58-1.42-11.18-2.15-16.77-.29-2.18-.26-3.59,2.78-3.72,7.31-.32,14.59-1.16,21.89-1.67,1.28-.09,3.38-.84,3.3,1.68-.14,4.11,2.3,4.46,5.48,4.25,19.26-1.27,38.51-2.5,57.77-3.72,2.49-.16,4.99-.34,7.48-.27,3.5.1,6.5-.19,6.19-4.85-.12-1.85,1.36-1.64,2.41-1.7,7.64-.46,15.29-.8,22.93-1.28,2.18-.14,2.44,1.2,2.63,2.77,1.38,11.19,2.7,22.38,4.14,33.56,2.01,15.63,4.11,31.24,6.17,46.86,1.93,14.62,3.85,29.24,5.81,43.86,1.69,12.65,3.32,25.3,5.23,37.92.37,2.45-.22,2.74-2.34,2.85-17.6.98-35.2,2.06-52.8,3.11-3.82-.71-4.76-4.4-6.83-6.84-3.76-4.42-6.73-9.49-10.94-13.57-3.71-3.6-7.18-2.86-8.77,2.2-1.88,6.02.08,11.44,3.4,16.48.63.96,1.34,1.86,2.02,2.78Z"/>
      <path class="cls-23" d="M517.85,644.79c15.66.04,31.32.05,46.98.15,1.69.01,3.74-.86,4.98,1.22-15.91-.08-31.82-.14-47.73-.23-1.65,0-3.31-.13-4.96-.2.24-.32.49-.63.73-.95Z"/>
      <path class="cls-62" d="M642.96,664.9c2.39-3.72,6.22-4.92,10.22-5.8-3.09,2.5-6.46,4.48-10.22,5.8Z"/>
      <path class="cls-62" d="M663.04,652.16c1.96-3.7,5.25-5.75,9.01-7.2-2.29,3.3-5.84,5.02-9.01,7.2Z"/>
      <path class="cls-62" d="M653.1,659.19c1.42-3.14,3.96-4.68,7.29-5.1-2.09,2.18-4.58,3.8-7.29,5.1Z"/>
      <path class="cls-46" d="M667.96,624.87c-.16,1.53.11,3.58-1.95,3.45-1.7-.1-1.97-2.02-1.99-3.53-.02-1.67.96-3.26,2.46-3.29,2.45-.04.98,2.25,1.48,3.36Z"/>
      <path class="cls-17" d="M863.03,276.3c0-1.98-.02-3.96,0-5.94.01-1.02.16-2.13,1.51-2.06,1.38.07,1.27,1.28,1.28,2.23.02,4.13.02,8.26,0,12.38,0,.98-.03,2.16-1.45,2.06-1.31-.09-1.35-1.23-1.36-2.23-.02-2.15,0-4.29,0-6.44h.03Z"/>
      <path class="cls-25" d="M851.78,276.69c0,2.15.02,4.3-.01,6.45-.01.85-.24,1.71-1.27,1.78-1.04.07-1.43-.67-1.44-1.59-.02-4.47-.02-8.93,0-13.4,0-.85.21-1.77,1.24-1.8,1.36-.03,1.47,1.09,1.48,2.09.04,2.15.01,4.3.01,6.45h-.02Z"/>
      <path class="cls-100" d="M878.91,276.84c0,1.98.03,3.96-.01,5.94-.02.96.04,2.22-1.34,2.15-1.24-.07-1.37-1.24-1.38-2.26-.04-4.13-.06-8.26-.07-12.38,0-1.01.07-2.14,1.45-2.09,1.37.05,1.32,1.24,1.33,2.2.04,2.15.01,4.29.01,6.44,0,0,.01,0,.02,0Z"/>
      <path class="cls-18" d="M868.62,268.5v16.64c-.3.02-.59.04-.89.05v-16.63c.3-.02.59-.04.89-.06Z"/>
      <path class="cls-66" d="M858.54,284.62c-1.65-5.37-1.67-10.77,0-16.18v16.18Z"/>
      <path class="cls-9" d="M854.14,284.73v-16.36c.35-.01.7-.02,1.05-.03v16.38c-.35,0-.7.01-1.05.02Z"/>
      <path class="cls-75" d="M873.21,268.71c1.64,5.33,1.78,10.63,0,15.94v-15.94Z"/>
      <path class="cls-15" d="M871.02,284.32v-15.5c.2,0,.4,0,.61.01v15.65c-.2-.05-.4-.11-.61-.16Z"/>
      <path class="cls-34" d="M861.58,268.52v16c-.19,0-.39,0-.58,0v-16c.19,0,.39,0,.58,0Z"/>
      <path class="cls-33" d="M919.27,479.98c-4.67,0-9.33-.08-14,.03-3.16.07-4.54-1.22-4.49-4.44.11-7.16.09-14.33.04-21.49-.02-2.94,1.27-4.24,4.21-4.23,9.28.05,18.56.02,27.85,0,3.24,0,4.98,1.51,4.98,4.84,0,7-.07,14,.03,20.99.05,3.31-1.58,4.4-4.63,4.34-4.66-.08-9.33-.02-14-.02v-.03Z"/>
      <path class="cls-10" d="M825.93,654.79c0,2.33-.02,4.66,0,6.99.06,8.18.08,8.47-8.03,8.89-7.81.4-15.65.14-23.47.1-3.08-.02-4.49-1.78-4.49-4.78,0-7.16-.03-14.32.03-21.48.02-2.83,1.06-4.64,4.42-4.7,7.97-.14,15.93-.67,23.9-.83,6.66-.13,7.6.91,7.61,7.32,0,2.83,0,5.66,0,8.49h.02Z"/>
      <path class="cls-89" d="M741.97,682.87c.02-33.32.05-66.64.07-99.96,1.33,1.39.86,3.14.86,4.75.02,31.74.01,63.48.01,95.22,0,0-.47.05-.47.05l-.47-.06Z"/>
      <path class="cls-79" d="M553.64,635.9c-5.65,0-11.3-.06-16.94.02-3.89.06-5.83-1.48-5.76-5.6.15-8.3.18-16.61.03-24.91-.06-3.68,1.78-5.31,5.04-5.34,11.63-.12,23.25-.1,34.88-.03,2.87.02,4.84,1.64,4.88,4.59.12,9.43.09,18.86.02,28.29-.02,2.74-2.06,3.02-4.22,3.02-5.98-.01-11.96,0-17.94,0v-.02Z"/>
      <path class="cls-90" d="M360.97,740.2c0,3.33-.01,6.66,0,9.99,0,1.59-.54,2.54-2.33,2.42-1.75-.11-1.62-1.34-1.61-2.51.04-6.66.12-13.33.1-19.99,0-1.72.67-2.34,2.36-2.37,1.85-.03,2.2.85,2.15,2.47-.09,3.33-.03,6.66-.03,9.99-.22,0-.44,0-.65,0Z"/>
      <path class="cls-52" d="M352.71,740.11c0,3.32,0,6.63,0,9.95,0,1.42-.18,2.74-2.09,2.65-1.71-.09-1.57-1.4-1.57-2.55.02-6.63.08-13.27.07-19.9,0-1.56.38-2.57,2.19-2.5,2.14.09,1.62,1.68,1.64,2.89.04,3.15.01,6.3.01,9.45h-.25Z"/>
      <path class="cls-92" d="M380.75,740.24c0,3.16.03,6.33-.02,9.49-.01,1.01-.22,2.1-1.49,2.21-1.56.14-1.96-.93-1.98-2.24-.06-6.66-.12-13.32-.18-19.98-.01-1.13.41-1.97,1.62-2.1,1.51-.15,2.08.76,2.09,2.12.02,3.5,0,6.99,0,10.49h-.05Z"/>
      <path class="cls-47" d="M382.04,739.36c0-3.14,0-6.27,0-9.41,0-1.24.11-2.31,1.81-2.21,1.47.09,2.01.84,2,2.22-.04,6.27-.07,12.55-.09,18.82,0,1.35-.52,2.12-2.03,2.19-1.72.08-1.79-.97-1.79-2.2,0-3.14,0-6.27,0-9.41.03,0,.07,0,.1,0Z"/>
      <path class="cls-50" d="M363.01,740.37c0-3.32-.03-6.64.02-9.97.01-1.06-.43-2.51,1.39-2.6,1.85-.1,1.56,1.3,1.55,2.42-.02,6.64-.05,13.29-.08,19.93,0,1.17.1,2.55-1.65,2.39-1.73-.16-1.3-1.64-1.32-2.71-.05-3.15-.02-6.31-.02-9.47h.11Z"/>
      <path class="cls-6" d="M347.89,741.06c0,3.14,0,6.28,0,9.43,0,1.23-.17,2.43-1.83,2.24-1.41-.16-1.18-1.38-1.18-2.3-.01-6.78,0-13.56.04-20.34,0-.97.03-2.09,1.49-2,1.29.08,1.56.98,1.56,2.07,0,3.64,0,7.28,0,10.92h-.07Z"/>
      <path class="cls-90" d="M369.86,740.18c0,3.33-.03,6.66.02,9.99.02,1.14-.28,2.06-1.47,2.18-1.47.16-1.44-1.02-1.44-2.02,0-6.83.01-13.65.02-20.48,0-1.01-.03-2.09,1.4-2.11,1.75-.02,1.6,1.25,1.59,2.45-.02,3.33,0,6.66,0,9.99h-.11Z"/>
      <path class="cls-19" d="M375.97,740.01c0,3.32,0,6.64,0,9.95,0,1,.08,2.13-1.27,2.28-1.28.14-1.68-.72-1.68-1.87,0-6.97-.01-13.93-.03-20.9,0-1.27.66-1.74,1.85-1.67,1.16.08,1.17.92,1.17,1.75,0,3.48,0,6.97,0,10.45-.02,0-.03,0-.05,0Z"/>
      <path class="cls-90" d="M354.44,752.17v-24.22c.58.02,1.15.04,1.73.07-.09,8.07.08,16.15-1.73,24.15Z"/>
      <path class="cls-90" d="M371.77,728.09v23.92c-.21,0-.42,0-.63,0v-23.92c.21,0,.42,0,.63,0Z"/>
      <path class="cls-43" d="M164.87,597.02c0,2.31,0,4.63,0,6.94,0,1.09-.28,2-1.6,1.97-1.4-.03-1.42-1.08-1.41-2.09.07-4.63.12-9.25.23-13.88.03-1.09.54-1.93,1.82-1.78,1.15.14,1.01,1.13,1.03,1.9.04,2.31.01,4.63.01,6.94h-.08Z"/>
      <path class="cls-93" d="M178.85,597.24c0,2.32.02,4.64-.01,6.96-.02.95-.57,1.52-1.55,1.55-1.1.03-1.36-.75-1.37-1.62-.05-4.81-.08-9.62-.08-14.42,0-.85.22-1.63,1.32-1.71,1.3-.09,1.75.6,1.75,1.77,0,2.49,0,4.97,0,7.46-.02,0-.04,0-.05,0Z"/>
      <path class="cls-44" d="M185.65,587.97v17.34c-.25-.02-.51-.03-.76-.05v-17.34c.25.02.51.03.76.05Z"/>
      <path class="cls-28" d="M187.7,604.81c0-5.17,0-10.33-.01-15.5,0-.8.3-1.23,1.1-1.25.8-.01,1.21.46,1.22,1.21.02,5.18,0,10.35,0,15.53-.77,0-1.54,0-2.31.01Z"/>
      <path class="cls-31" d="M181.25,605.13v-17.1c.31.01.61.03.92.04v17.1c-.31-.01-.61-.02-.92-.03Z"/>
      <path class="cls-22" d="M170.73,588.51v16.98c-.2,0-.4,0-.6,0v-16.98c.2,0,.4,0,.6,0Z"/>
      <path class="cls-13" d="M167.15,605.17v-16.51c.23,0,.47,0,.7,0v16.54c-.23,0-.47-.02-.7-.03Z"/>
      <path class="cls-67" d="M173.1,605.46v-17.05c.22,0,.45,0,.67,0v17.05c-.22,0-.45,0-.67,0Z"/>
      <path class="cls-3" d="M787.62,96.07c-2.32,0-4.65.03-6.97-.01-1.31-.02-2.29-.6-2.28-2.05.02-1.47,1.05-1.92,2.34-1.98,4.97-.26,9.93-.55,14.9-.75,1.54-.06,3.24.15,3.17,2.23-.06,1.88-1.56,2.37-3.19,2.38-2.66.03-5.31,0-7.97,0,0,.06,0,.12,0,.19Z"/>
      <path class="cls-55" d="M787.88,90.02c-2.49,0-4.97.03-7.46-.02-.77-.01-1.79.13-1.98-.97-.2-1.2.59-1.97,1.64-2.04,5.61-.32,11.24-.55,16.86-.76.86-.03,1.74.3,1.76,1.31.02,1.18-.97,1.85-1.92,1.96-2.95.34-5.92.46-8.89.67v-.15Z"/>
      <path class="cls-37" d="M785.17,102.31c-1.94-.85-5.6,1.34-5.74-1.85-.17-3.73,3.73-2.25,5.81-2.25,2.24,0,6.39-1.74,6.21,2.24-.13,3.01-4.12.99-6.28,1.86Z"/>
      <path class="cls-70" d="M326.33,349.02c-1,0-2-.09-2.99.01-2.86.29-4.75-1.22-4.9-3.77-.18-3.07,2.26-4.06,5.02-4.28,7.76-.63,15.5-1.35,23.26-1.95,9.74-.75,19.49-1.41,29.23-2.14,2.74-.2,5.34.25,5.52,3.47.16,2.91-2.16,3.59-4.75,3.83-12.85,1.2-25.68,2.52-38.53,3.78-3.95.39-7.91.7-11.86,1.05Z"/>
      <path class="cls-8" d="M373.28,301.29c2.48-.25,4.38.75,4.61,3.32.27,3.03-2.08,3.99-4.51,4.23-8.08.8-16.17,1.44-24.25,2.14-9.73.85-19.47,1.63-29.18,2.62-3.11.32-5.01-1.15-5.56-3.72-.56-2.63,1.51-3.74,3.95-3.95,18.32-1.55,36.63-3.1,54.95-4.65Z"/>
      <path class="cls-59" d="M365.72,266.28c2.87-.2,6.2-.38,6.32,3.57.12,3.98-3.24,3.87-6.1,4.1-16.18,1.28-32.37,2.59-48.55,3.89-.99.08-1.99.15-2.99.1-2.66-.12-4.5-1.29-4.54-4.18-.04-2.85,1.95-3.54,4.31-3.72,7.76-.61,15.52-1.29,23.28-1.85,9.42-.68,18.84-1.27,28.27-1.91Z"/>
      <path class="cls-36" d="M308.17,338.61c-.33.79-.56,1.79-1.11,2.56-3.66,5.1-7.37,10.17-11.1,15.22-1.26,1.71-2.61,2.27-4.52.57-2.34-2.08-4.85-4-7.44-5.78-2.4-1.65-2.69-3.92-1.49-6.03,1.48-2.62,3.46-.72,5.04.26,1.85,1.15,4.4,4.02,5.15,3.58,2.14-1.24,3.57-3.75,5.17-5.84,1.61-2.09,3.1-4.28,4.63-6.44.84-1.19,1.47-2.82,3.4-1.92,1.5.7,1.94,2.13,2.27,3.82Z"/>
      <path class="cls-82" d="M303.08,303.26c-.4.81-.66,1.61-1.13,2.26-3.48,4.82-7,9.61-10.51,14.41-1.36,1.87-2.67,2.55-4.73.58-2.38-2.28-5.12-4.18-7.71-6.24-2.1-1.68-2.81-3.65-1.18-6.02,1.86-2.71,3.39-.21,5.03.39.15.06.28.18.44.24,2.12.82,3.26,4.37,5.28,3.58,2.01-.79,3.3-3.54,4.79-5.51,1.39-1.84,2.53-3.88,3.97-5.67.75-.93,1.4-2.79,2.98-2.02,1.46.72,2.23,2.35,2.77,4.01Z"/>
      <path class="cls-82" d="M283.59,279.69c3.16-4.33,6.2-8.46,9.2-12.62.88-1.22,1.68-2.87,3.45-1.88,1.48.83,2.67,2.72,1.92,4.23-3.31,6.7-7.86,12.58-13.1,17.91-.78.79-1.49.33-2.14-.24-3.26-2.82-6.53-5.62-9.76-8.47-1.78-1.58-1.11-3.41-.04-4.92,1.18-1.66,2.69-.61,3.93.13,2.41,1.43,4.85,2.86,6.55,5.86Z"/>
      <path class="cls-58" d="M920.38,454.93c3.49,0,6.99-.03,10.48,0,1.28.01,2.87-.31,3.04,1.65.17,1.89-1.21,2.13-2.63,2.13-7.32.04-14.64.05-21.96.07-1.24,0-2.37-.19-2.5-1.75-.16-1.93,1.14-2.11,2.59-2.11,3.66,0,7.32,0,10.98,0Z"/>
      <path class="cls-77" d="M920.6,465.9c-4.37,0-7.84-.02-11.31,0-1.53.01-2.6-.4-2.47-2.22.12-1.6,1.24-1.76,2.46-1.72,7.1.26,14.19.54,21.29.81,1.22.05,2.42.21,2.36,1.82-.07,1.84-1.5,2.02-2.84,1.95-3.46-.18-6.91-.48-9.49-.66Z"/>
      <path class="cls-99" d="M914.09,469.68c2.44,1.39,7.25-1.78,7.25,2.36,0,3.5-4.64,1.7-7.11,1.67-2.43-.02-6.99,1.73-6.93-2.03.07-3.98,4.6-.54,6.79-2.01Z"/>
      <path class="cls-58" d="M808.29,652.87c3.31,0,6.61-.01,9.92,0,1.5,0,3.25-.09,3.19,2.07-.05,1.78-1.56,1.86-2.93,1.86-6.78.02-13.55.03-20.33.07-1.74.01-3.04-.56-2.86-2.5.18-1.92,1.82-1.52,3.08-1.53,3.31-.02,6.61,0,9.92,0v.03Z"/>
      <path class="cls-83" d="M808.21,649.08c-3.49,0-6.97,0-10.46,0-1.21,0-2.46-.13-2.52-1.7-.06-1.67,1.26-1.66,2.44-1.7,7.12-.25,14.25-.51,21.37-.73,1.31-.04,2.79-.14,2.82,1.86.03,1.9-1.31,2.05-2.71,2.06-3.65.02-7.3,0-10.95,0,0,.07,0,.14,0,.22Z"/>
      <path class="cls-71" d="M802.84,660.95c1.65,0,3.3-.02,4.94,0,1.35.02,2.18.58,2.14,2.07-.05,1.55-1.05,1.87-2.32,1.87-2.97,0-5.93.01-8.9-.03-1.29-.02-2.8.15-2.89-1.79-.11-2.3,1.61-2.07,3.07-2.11,1.32-.04,2.64,0,3.96-.01Z"/>
      <path class="cls-14" d="M567.02,617.6c0-2.98,0-5.95,0-8.93,0-1.36-.09-2.74,1.95-2.62,1.62.1,1.75,1.18,1.76,2.41.01,6.12,0,12.23.06,18.35.02,1.82-.62,2.96-2.52,2.8-2.17-.18-1.2-1.98-1.25-3.08-.12-2.97-.04-5.95-.04-8.93h.04Z"/>
      <path class="cls-26" d="M535.93,617.52c0-3.15-.02-6.29.01-9.44,0-1.03.2-2.02,1.57-2.02,1.37,0,1.58.97,1.57,2.01-.03,6.29-.07,12.59-.14,18.88,0,.82-.14,1.66-1.25,1.77-1.31.13-1.79-.63-1.8-1.76-.03-3.15-.01-6.29-.01-9.44h.05Z"/>
      <path class="cls-69" d="M548.08,605.99c1.95-.2,3,.3,2.93,2.64-.2,5.92-.22,11.85-.16,17.78.02,2.24-.8,3.01-2.92,2.51-2.18-7.66-2.45-15.3.15-22.92Z"/>
      <path class="cls-42" d="M552.85,617.42c0-2.98-.03-5.96,0-8.94.01-1.12-.18-2.46,1.69-2.3,1.37.12,1.48,1.04,1.47,2.08-.04,6.29-.08,12.59-.12,18.88,0,1.11-.3,1.96-1.66,1.86-1.4-.1-1.38-1.15-1.38-2.14-.01-3.15,0-6.29,0-9.44Z"/>
      <path class="cls-21" d="M540.46,617.33c0-2.99.1-5.98-.04-8.95-.06-1.31-.22-2.38,1.5-2.4,1.42-.02,1.42.89,1.4,2.01-.14,6.31-.19,12.62-.29,18.93-.01,1.01-.01,2.12-1.46,2.04-1.35-.07-1.4-1.12-1.4-2.17.01-3.15,0-6.31,0-9.46h.28Z"/>
      <path class="cls-85" d="M561.65,628.9c-1.06-3.24-1.15-18.01-.13-22.61,1.9,2.78,1.99,18.99.13,22.61Z"/>
      <path class="cls-65" d="M548.08,605.99c-.05,7.64-.1,15.28-.15,22.92-.67-.01-1.35-.03-2.02-.04-1.66-7.61-.2-15.24-.11-22.86.76,0,1.52-.02,2.28-.03Z"/>
      <path class="cls-49" d="M557.97,628.73v-22.3c.34,0,.69,0,1.03,0v22.31c-.34,0-.69,0-1.03-.01Z"/>
      <path class="cls-97" d="M545.8,606.02c.04,7.62.08,15.24.11,22.86-.7.07-1.5-.07-1.49-.83.08-7.02.23-14.05.42-21.07,0-.33.62-.64.95-.95Z"/>
      <path class="cls-76" d="M565.02,606.63v21.78c-.23,0-.45,0-.68,0v-21.79c.23,0,.45,0,.68,0Z"/>
    </g>
  </g>
</svg>