<?xml version="1.0" encoding="UTF-8"?>
<svg id="Layer_2" data-name="Layer 2" xmlns="http://www.w3.org/2000/svg" viewBox="0 0 921.45 891.04">
  <defs>
    <style>
      .cls-1 {
        fill: #fefdfd;
      }

      .cls-2 {
        fill: #e2a2a2;
      }

      .cls-3 {
        fill: #e1a0a2;
      }

      .cls-4 {
        fill: #001819;
      }

      .cls-5 {
        fill: #a90107;
      }

      .cls-6 {
        fill: #a60204;
      }

      .cls-7 {
        fill: #a70407;
      }

      .cls-8 {
        fill: #a70105;
      }

      .cls-9 {
        fill: #f4c9cb;
      }

      .cls-10 {
        fill: #fdfbfb;
      }

      .cls-11 {
        fill: #e2a1a2;
      }

      .cls-12 {
        fill: #feb784;
      }

      .cls-13 {
        fill: #7e0000;
      }

      .cls-14 {
        fill: maroon;
      }

      .cls-15 {
        fill: #01292d;
      }

      .cls-16 {
        fill: #c84f57;
      }

      .cls-17 {
        fill: #a60104;
      }

      .cls-18 {
        fill: #a80106;
      }

      .cls-19 {
        fill: #a60205;
      }

      .cls-20 {
        fill: #b30305;
      }

      .cls-21 {
        fill: #fefefe;
      }

      .cls-22 {
        fill: #a50104;
      }

      .cls-23 {
        fill: #a90106;
      }

      .cls-24 {
        fill: #e1a1a2;
      }

      .cls-25 {
        fill: #e2a1a3;
      }

      .cls-26 {
        fill: #e2a2a3;
      }

      .cls-27 {
        fill: #f8e6e5;
      }

      .cls-28 {
        fill: #d4777b;
      }

      .cls-29 {
        fill: #ca5258;
      }
    </style>
  </defs>
  <g id="Layer_1-2" data-name="Layer 1">
    <g>
      <path class="cls-18" d="M84.34,626.96c-13.77-5.45-25.83-13.27-34.98-25.18-10.92-14.21-14.95-30.79-15.79-48.18-.98-20.13.58-40.19,2.65-60.24,2.25-21.85,3.04-43.82,2.1-65.79-.96-22.26-6.48-43.73-12.2-65.14-.94-3.5-1.9-7.01-2.58-10.56-2.49-13.08,3.15-19.5,16.53-20.07,22.8-.96,42.39,7.05,60.25,20.44,1.33.99,2.64,2.01,3.98,2.98.23.17.59.16,1.2.31-1.1-9.64-2.51-19.14-2.13-28.77.73-18.09,6.34-34,20.03-46.53,4.83-4.42,10.69-7.02,16.25-10.18,1.01-1.22,2.36-.94,3.67-.85,12.76.94,25.12-.2,36.3-7.24.56-.35,1.24-.44,1.9-.52,2.4.21,3.65,2.13,5.16,3.6,2.04,1.98,4.19,3.73,6.74,5.03,5.89,2.99,11.53,3.55,16.78-1.31,20.68,7.81,33.08,23.99,42.9,42.7,9.72,18.49,17.38,37.86,23.97,57.66.44,1.31,1.79,3.19-.84,4.03-5.35,3.69-10.64,7.56-17.73,6.53-.78-.91-1.3-1.97-1.41-3.15-1.2-12.81-4.61-25.32-5.22-36,1.2,12.57,1.8,27.36,2.04,42.18-1.5,10.29-3.9,20.41-6.19,30.54-2.01,5.88-1.55,12.49-5.26,17.87-4.87,1.18-9.54-.61-14.28-1.12-7.27-.78-14.44-2.46-21.72-3.14-5.28-.49-8.24-2.91-10.15-7.93-3.5-9.19-6.76-18.45-9.87-27.77-1.7-5.08-2.12-5.19-7.15-3.72-12.15,3.55-24.01,7.89-35.78,12.55-3.6,1.43-4.43,3.32-2.95,6.88,5.81,14.01,12.55,27.54,19.65,40.95,7.09,13.4,17.92,18.78,32.51,18.71,11.65-.06,23.23-.89,34.83-1.74,3.51-.26,7.31-1.5,10.39,1.56,1.16,5.64-.15,11.23-.6,16.79-.34,4.22.24,8.68-1.7,12.72-2.23,1.95-5.05,1.4-7.63,1.7-21.37,2.43-42.78,2.25-64.22,1.02-19.32-1.1-38.32-4.28-57.3-7.74-2.83-.52-5.15-.76-6.32,2.78-7.72,23.37-11.22,47.26-8.6,71.83,2.08,19.53,13.31,31.17,31.83,36.6,14.93,4.37,30.19,6.73,45.6,8.22,23.86,2.3,47.83,2.81,71.74,1.84,15.43-.63,30.91-.18,46.32-1.71,2.56-.25,5.38-.54,7.6,1.52,1.74,6.86,1.6,13.72.12,20.6-.7,1.03-1.78,1.48-2.92,1.7-11.81,2.26-23.52,5.18-35.66,5.11-5.64,1.33-11.36,1.05-17.08.93-3.09-.07-6.22-.29-9.24.74-3.96.67-7.95.32-11.93.42-20.04.52-40.09.51-60.12-.22-4.72-.92-9.52-.78-14.28-1.13-11.46-1.54-23.02-2.37-34.35-4.87-1.78-.39-3.56-.75-5.32-1.23-4.59-1.15-9.21-2.24-13.74-3.65-2.18-.68-4.45-1.24-5.8-3.36Z"/>
      <path class="cls-23" d="M416.94,432.82c.03-60.49.07-120.97.08-181.46.01-80.48,0-160.96,0-241.45,0-7.75,2.24-9.91,10.11-9.91C588.6,0,750.07,0,911.55,0c7.2,0,9.9,2.62,9.9,9.78,0,188.79,0,377.58,0,566.38,0,7.15-2.61,9.69-9.92,9.7-38.62.05-77.23.09-115.85.14-2.43,1.84-5.29,1.42-8.03,1.43-5.38.01-10.77.16-16.15-.09-34.84.31-69.69.11-104.53.1-1.83,0-3.66-.1-5.25-1.21-2.46-6.5-2.36-13.01-.06-19.53,2.81-2.04,6.07-1.46,9.18-1.46,73.41-.03,146.82-.02,220.23-.03q9.78,0,9.78-9.82c0-175.29,0-350.57,0-525.86q0-8.96-8.94-8.95c-148.48,0-296.96,0-445.45,0-.67,0-1.33,0-2,0q-7.41.02-7.9,7.3c-.07,1-.15,1.99-.34,2.97-1.04,3.07-.78,6.25-.78,9.41,0,132.4,0,264.8,0,397.19,0,2.33.08,4.67-.1,6.99-.24,2.95-1.47,4.76-4.79,4.07-2.56-6.54-8.09-10.3-13.38-14.31-.39-.29-.34-.89-.21-1.38Z"/>
      <path class="cls-27" d="M850.61,862.76c17.05.37,33.96,2.35,50.73,5.3,2.99.53,8.15.71,8.06,4.24-.06,2.39-5.33,2.87-8.52,3.46-19.21,3.56-38.67,4.66-58.11,6.1-16.5,1.22-32.99,2.38-49.54,3.08-19.55.83-39.1,1.38-58.65,2.13-9.95.38-19.92,0-29.83.8-13.93,1.11-27.93.08-41.79,1.15-12.97,1-25.89.47-38.83.74-102.28,2.19-204.58.94-306.87.74-28.06-.06-56.18.21-84.23-.96-12.95-.54-25.9-.06-38.82-.82-19.87-1.17-39.76-1.51-59.65-2.09-13.72-.4-27.46-1.21-41.18-1.99-19.95-1.12-39.88-2.92-59.76-5.01-9.82-1.03-19.72-2.08-29.28-4.86-1.85-.54-4.49-.7-4.34-3.2.12-2.01,2.52-2.34,4.28-2.76,6.59-1.6,13.18-3.27,20.05-3.07,1.52,2.35.64,6.82,5.89,5.81,2.74-.53,4.59-1.29,5.39-4.06.59-2.04,1.14-4.2,3.65-4.84,15.41-2.09,30.94-2.58,46.43-3.33,5.89-.29,11.78-2.17,17.72-.43,1.97.94,1.45,2.72,1.37,4.31-.11,2.04-.46,4.28,2.58,4.16,2.75-.11,6.23,1.27,7.52-2.76.7-2.18.93-4.55,2.96-6.09,1.61-1.05,3.44-1.27,5.26-1.25,6.15.05,12.28-.9,18.37-.87,15.27.09,30.49-1.02,45.74-1.36,25.87-.58,51.74-.87,77.61-.87,1.98,0,3.99-.35,5.89.49,3.91,2.9,2.98,7.48,3.83,11.41.55,2.55.88,4.84,4.19,5.27,5.48.72,6.58-.25,5.95-5.73-.39-3.42-1.74-6.87.18-10.26,4.52-2.74,6.08-2.48,9.12,1.49,1.28,5.05.59,10.2.64,15.3.04,3.41,1.03,5.2,4.81,5.16,12.72-.13,11.01.88,11.22-10.65.07-3.78-.58-7.61.73-11.32,1.88-2.42,4.43-2.17,6.76-1.21,2.57,1.06,1.85,3.45,1.64,5.63-.6,6.27,1.72,10.08,6.77,11.43,5.82,1.64,11.74,2.3,17.77,2.03,16.13-.7,32.2,1.03,48.32,1.06,13.3.03,26.57-.37,39.85-.94,16.3-.34,32.59.13,48.87.95,1.83.09,3.67.08,5.49-.08,6.22-.57,9.46-4.96,8.24-11.09-.36-1.81-1.39-3.4-1.69-5.21,1.64-2.75,2.87-5.96,6.8-6.27,2.13.45,4.28.57,6.44.58,41.48.26,82.96,1.53,124.45,1.02,10.97-.14,11.02.1,11.1,11.1.03,3.98-.38,7.96.22,11.9.21.15.39.33.59.48.24.1.46.22.7.32,4.44.81,8.92.22,13.37.35,1.4.04,2.66-.22,3.08-1.87.4-22.13.04-44.24.19-66.36.02-2.44-.53-5.03,1.14-7.23,2.91-.19,2.64,2.31,2.63,3.77-.17,16.6,1.27,33.21-.74,49.8-.62,5.11-.05,10.31-.19,15.46-.04,1.41.6,2.97.06,3.59,0-4.97.14-10.63-.05-16.27-.1-3.01.92-4.23,3.94-4.14,17.43.54,34.9-.91,52.31.87,1.49.15,2.99.21,4.48.16,19.12-.67,38.19.93,57.29,1.22,14.58.23,29.18,1.25,43.77,1.77.47.09,1.16.08,1.33.49,2.04,4.95,6.18,4.9,10.55,4.71,4.57-.2,9.17.16,13.72-.62Z"/>
      <path class="cls-15" d="M182.15,261.72c-12.91,9.21-27.43,10.2-42.51,8.33-22.45-3.68-32.16-18.9-32.15-36.48,0-10.88,5.9-19.41,13.59-26.69,1.81-1.71,3.69-3.37,5.69-4.86,10.25-7.64,13.68-18.09,14.76-30.56,2.24-25.89,16.73-50.45,42.99-57.22,23.17-5.98,43.84-.33,62.41,14.11,1.88,1.46,3.82,2.5,5.96,3.31,17.61,6.64,21.78,25.28,8.58,38.51-1.63,1.64-3.36,3.18-5.04,4.77-2.96-3.25-2.6-7.76-4.35-11.5-3.29-7-3.1-7.02-8.51-1.62-5.04,5.03-11.56,7.77-17.65,11.16-4.65,2.59-9.33,5.03-13.26,8.78-5.65,5.4-8.65,11.79-8.07,19.61,1.28,17.23-3.54,32.99-11.68,47.84-2.64,4.81-4.79,10.4-10.76,12.49Z"/>
      <path class="cls-12" d="M416.94,432.82c3.46,2.56,7.01,5.01,10.35,7.72,1.95,1.58,3.73,3.51,1.98,6.37-.47,2.13-2.31,2.4-3.88,2.36-21.52-.45-43,2.3-64.53.82-2.47-.89-4.76-.53-7.19.51-16.38,7.04-33.45,10.38-51.33,10.9-19.55.57-38.96,3.32-58.42,5.28-2.31.23-4.63.85-6.66-.91-13.79.31-27.52,2.13-41.34,1.96-5.99-.07-11.91-.58-17.81-1.75-4.81-.96-8.53-3.46-11.63-7.12-4.64-5.49-8.29-11.63-11.67-17.94-6.27-11.71-11.48-23.91-16.67-36.13-1.15-2.7-1.01-3.95,2-5.12,13.72-5.36,27.6-10.25,41.66-14.65,3.15-.99,4.23-.05,5.11,3,3.22,11.14,7.46,21.94,11.67,32.74.98,2.5,2.07,3.76,5.2,4.16,12.82,1.63,25.56,3.84,38.33,5.84,4.48-1.56,8.77.39,13.16.7,1.81.13,3.58.52,5.16.82-4.61-6.38-11.37-11.33-13.99-19.32,2.19-10.08,4.37-20.16,6.56-30.25,1.49-2.2,3.44-3.45,6.21-3.02,5.67-2.2,11.34-4.41,17.01-6.61,3.52,11.96,8.88,23.23,13.12,34.91.72,1.98,1.94,2.68,4.03,2.94,11.99,1.49,23.97,3.16,35.94,4.78,13.29,1.79,26.53,3.96,39.54,7.25,3.03.77,5.53.69,7.99-.99,10.12-6.94,19.35-5.79,28.3,2.46,3.5,3.23,7.83,5.57,11.78,8.31Z"/>
      <path class="cls-3" d="M850.61,862.76c-.17,2.53-2.05,2.1-3.66,2.1-4.14,0-8.32-.37-12.41.06-5.04.54-8.55-.37-8.9-6.21-1.74-1.37-1.92-3.43-2.29-5.37-4.75-24.87-9.69-49.7-14.75-74.5-12.48-61.2-24.88-122.42-37.06-183.68-.59-2.98-2.24-6.09-.02-9.13,8.05-.01,16.1-.02,24.14-.04,6.11,31.2,12.18,62.41,18.34,93.6,6.81,34.45,13.74,68.88,20.55,103.33,5.14,25.99,10.15,52.01,15.25,78.01.12.64.53,1.22.8,1.82Z"/>
      <path class="cls-12" d="M182.15,261.72c13.85-15.81,21.77-34.23,20.85-55.25-.72-16.42,6.13-26.85,20.26-33.63,3.43-1.65,6.7-3.6,10.06-5.38,6.1-3.23,11.57-7.11,14.52-14.37,4.87,6.93,7.61,14.03,8.58,21.86-.29,10.58-1.51,21.09,4.41,31.03,3.21,5.39,1.19,8.05-5.19,9.04-2.12.33-3.05,1.05-3.53,3.29-1.4,6.64-2.94,13.27-4.86,19.77-2.31,7.83-6.51,10.67-14.66,10.89-6.18.17-12.26-.46-18.27-1.82-2.46-.56-3.99-.37-4.14,2.93-.29,6.24-2.07,12.46.02,18.7-4.19,5.82-5.36,6.15-12.46,4.32-6.74-1.73-11.71-5.77-15.59-11.37Z"/>
      <path class="cls-11" d="M38.32,863.76c-.28.58-.66,1.13-.82,1.74-1.95,7.35-4.4,8.78-11.98,7.3-1.79-.35-2.16-1.2-1.93-2.71.23-1.46.49-2.9.74-4.36,5.69-22.3,11.43-44.58,17.06-66.89,14.3-56.63,28.54-113.27,42.8-169.91.16-.63.1-1.32.15-1.98,6.38,1.94,12.75,3.87,19.13,5.81-10.33,35.65-19.84,71.53-29.88,107.27-10.99,39.1-21.65,78.3-32.47,117.45-.61,2.21-.9,4.62-2.8,6.29Z"/>
      <path class="cls-15" d="M293.95,611.68c-28.91.99-57.82,2.66-86.76,2.01-27.88-.62-55.73-1.93-82.75-9.89-7.35-2.17-14.45-4.97-20.49-9.89-10.38-8.46-13.36-20.37-14.39-32.8-2.02-24.21,2.58-47.58,9.86-70.55.64-2.03,1.25-2.48,3.46-2.01,17.19,3.68,34.54,6.49,52.04,8.04,20.04,1.78,40.16,2.15,60.26.63,6.62-.5,13.24-1.05,19.86-1.58,1.87.94,2.18,2.82,2.73,4.55,1.53,4.76,3.22,9.49,4.21,14.37.92,4.53,3.5,6.27,7.84,6.85,12.37,1.63,24.6,4.15,36.93,6.11,2.6.41,5.33.53,7.57,2.25,1.25,1.52,1.4,3.36,1.41,5.19.11,23.75.09,47.51,0,71.26,0,1.96.04,4.05-1.79,5.46Z"/>
      <path class="cls-28" d="M293.95,611.68c.02-26.36.05-52.72.08-79.08,0-1.02-.05-1.99-.85-2.74-.53-.65-1.13-1.33-1.17-2.17-.44-10.28-1.33-20.56.52-30.8,4.5-3.6,15.73-3.77,20.34-.32,1.4,3.53.73,7.23.85,10.86.28,8.8-.54,17.63.57,26.42.59,6.71-.01,13.44.41,20.15.02,18.86.23,37.72-.08,56.58-.14,5.16-.04,10.33-.05,15.49-.05,31.33.01,62.65.14,93.98.01,2.77,1.11,6.16-2.45,7.94-1.32-4.56-.46-9.23-.55-13.84-.16-7.77-.06-15.55-.03-22.81-.54.74-.04,2.21,0,3.55,1.22,49.78.83,99.56.9,149.34,0,1.67.04,3.33.56,4.94.37,1.94.55,3.86-.78,5.57-.03,6.79-.2,13.59-.03,20.38.07,2.88-.88,3.78-3.67,3.62-4.93-.28-11.18,1.49-14.43-.92-3.17-2.35-.7-8.97-1.03-13.7-.17-2.47-.15-4.96-.21-7.45-.88-2.69-1.46-5.41-1.45-8.29.05-24.12-.02-48.24.09-72.36.01-2.61-.89-5.8,2.48-7.4,1.16,2.71.52,5.57.54,8.34.08,12.37.04,24.73.27,37.1-1.78-59.8-.87-119.62-1.22-179.42-.03-.67.14-1.28.5-1.84-.07-7.04-.15-14.08-.22-21.13Z"/>
      <path class="cls-24" d="M256.3,637.98c1.42,11.48,2.79,22.97,4.28,34.45,2.18,16.73,4.44,33.45,6.67,50.17,2.23,16.72,4.51,33.43,6.71,50.15,2.14,16.23,4.13,32.49,6.31,48.71,1.54,11.45,3.29,22.87,4.95,34.31-.4,4.69.76,9.25,1.49,13.8.44,2.72-.42,3.06-2.71,3.21-9.36.59-9.19.62-11.1-8.78-.55-2.73-.15-5.7-1.73-8.22-.83-13.1-3.61-25.92-5.45-38.88-2.67-18.86-5.73-37.66-8.59-56.5-3.09-20.31-6.1-40.63-9.23-60.93-2.83-18.33-5.99-36.62-8.49-54.99-.54-3.98-1.54-5.25-5.32-4.6-1.27.22-2.64-.09-3.96-.16,5.17-1.66,10.52-.53,15.77-.99,3.46-.3,6.93-.5,10.4-.75Z"/>
      <path class="cls-24" d="M104.15,859.72c5.33-29.98,10.73-59.94,15.96-89.94,4.5-25.75,8.77-51.54,13.21-77.31,2.95-17.12,6.02-34.22,9.07-51.32.14-.79.61-1.53.93-2.29,4.72-.17,9.45-.44,14.05,1.02,1.83.98,1.52,2.33,1.17,4.13-4.25,21.79-8.38,43.6-12.52,65.41-6.24,32.87-12.42,65.74-18.71,98.6-3.08,16.11-6.35,32.18-9.51,48.27-.22,1.13-.2,2.3-.29,3.46-.36,1.27-1.08,2.57-1.01,3.82.24,4.32-1.9,5.25-5.78,5.16-8.64-.19-8.65-.02-6.57-9.01Z"/>
      <path class="cls-14" d="M112.16,338.7c2.34,6.33,4.8,12.61,7.01,18.98,4.46,12.84,8.81,25.72,13.14,38.61.64,1.89,2.27,4.31-1,5.38-2.91.95-4.88-.51-5.64-3.34-2.11-7.82-4.26-15.64-6.11-23.52-2.8-11.87-5.37-23.8-8.04-35.71.22-.13.43-.27.65-.4Z"/>
      <path class="cls-14" d="M259.23,379.77c-2.07,1.01-4.14,2.01-6.21,3.02-.81-.77-.84-1.78-.79-2.78.67-12.81-1.52-25.55-1.07-38.36.09-2.57-.52-5.16.27-8,.59,3.16,1.25,6.3,1.77,9.47,2.03,12.22,4.03,24.44,6.03,36.66Z"/>
      <path class="cls-21" d="M435.05,30.96c.09-.49.2-.98.26-1.47.37-3.56-1.56-8.33.94-10.36,2.13-1.73,6.68-.54,10.16-.54,150.48-.02,300.95-.02,451.43-.12,3.66,0,4.95.61,4.95,4.72-.13,179.78-.13,359.56,0,539.35,0,4.18-1.55,4.35-4.84,4.35-78.73-.07-157.47-.05-236.2-.05-.21-.23-.43-.47-.65-.7-.9-1.7-.74-3.56-.74-5.38-.02-19.49-.04-38.97,0-58.46.02-6.88.98-7.82,7.71-8.01,3.33-.1,6.66.17,9.98-.19,4.9-.54,7.57-3.15,7.96-8.03.33-4.15.35-8.33-.01-12.48-.45-5.2-3.79-8.42-9.03-9.01-2.15-.24-4.32-.15-6.48-.15-39.27,0-78.53,0-117.8-.02-2.8,0-5.68.42-8.32-1-1.61-2.14.42-3.09,1.57-3.88,4.51-3.08,6.75-7.6,8.75-12.45,15.56-37.72,31.62-75.23,47.03-113.01,4.33-10.61,2.87-12.47-8.5-12.77-8.85-.24-17.58,1.51-26.41,1.07-16.78-.83-33.58-.86-50.37-1.16-8.39-.15-13.01,3.5-15.94,10.77-7.02,17.46-14.18,34.87-21.26,52.3-7.71,18.98-15.59,37.89-23.19,56.91-2.97,7.44-12.36,11-19.63,7.55-1.17-.55-1.87-1.31-1.88-2.64,0-1.33-.01-2.67-.01-4,0-135.26,0-270.53.03-405.79,0-1.78-.53-3.66.5-5.36Z"/>
      <path class="cls-13" d="M435.05,30.96c.08,20.98.23,41.95.24,62.93.03,116.25.06,232.5-.09,348.75,0,4.57,1.24,5.44,5.48,5.32,11.01-.31,11.02-.1,15.18-10.32,14.44-35.49,28.82-71,43.34-106.45,3.21-7.84,5.91-11.61,16.68-11.46,26.77.38,53.57,1.7,80.34.07,9.45-.58,11.26,4.9,8.19,12.17-10.75,25.46-21.36,50.98-32,76.49-5.32,12.74-10.82,25.42-15.79,38.29-2.66,6.9-6.24,12.68-13,16.07-5.11,3-10.68,1.09-16.03,1.53-52.94-.17-105.87-.01-158.81-.09-2.64,0-5.34.43-7.88-.74-.24-.23-.49-.45-.73-.68-.75-.83-1.47-1.68-2.25-2.48-4.56-4.66-3.77-8.73,2.3-11.69,21.61-.24,43.21-.49,64.82-.73,1.5-.02,3,.04,4.24-1.03,4.86,2.62,4.78-.59,4.77-3.96-.02-53.31-.01-106.62-.01-159.93,0-81.96,0-163.93.04-245.89,0-2.06-.86-4.36.98-6.17Z"/>
      <path class="cls-28" d="M661.74,585.85c-.05,15.69-.11,31.38-.16,47.08-.68,1.95-.33,3.97-.33,5.95-.02,77.46-.02,154.93-.02,232.39q0,6.49-6.64,6.52-11.31.05-11.31-11.37c0-27.64,0-55.28-.01-82.92-.02,29.64,0,59.27-.04,88.91,0,1.79.51,3.66-.45,5.38l-.48.03-.48-.07c-.2-.45-.53-.84-.5-1.38.79-13.48-1.27-26.86-1.25-40.33.13-81.29.06-162.57.07-243.86,0-2-.1-4,.15-5.99-.16-6.49-.18-12.99,0-19.49-.3-21.92-.11-43.83-.1-65.75,0-1.83.1-3.67,1.26-5.24,5.55-2.62,11.34-1.45,17.06-1.01,2.63.2,2.74,2.33,2.73,4.47-.04,10.95-.02,21.9-.02,32.85,0,9.96-.04,19.91.04,29.87.01,1.57-.69,3.33.71,4.73l-.23.24c0,6.33,0,12.67,0,19Z"/>
      <path class="cls-3" d="M550.93,585.96c-2.33,11.66-4.68,23.32-6.99,34.98-8.19,41.38-16.4,82.75-24.54,124.14-6.83,34.73-13.57,69.48-20.34,104.23-.16.81-.09,1.66-.12,2.49-1.21,2.17-.92,5.83-5.06,5.07-5.78-2.15-11.25-5.04-17.01-7.26-.97-.37-1.43-1.31-1.46-2.39,1.27-11.94,4.13-23.6,6.41-35.36,14.28-73.54,28.57-147.07,42.72-220.63.44-2.27.65-4.67,2.86-6.13,7.89-.89,15.79-2.35,23.53.86Z"/>
      <path class="cls-5" d="M432.94,874.56c-32.12,2.89-64.25-.19-96.38.07-3.94.03-7.84-.9-11.48-2.61-2.78-.59-4.54-2.72-4.94-5.09-1.88-11.2-.03-21.96,4.63-32.27,1.82-.61,3.22.46,4.61,1.27,13.26,7.76,27.69,11.97,42.87,13.18,9.4.74,18.9.32,27.5-4.58,8.79,1.91,17.05,5.2,23.98,10.97,5.03,4.18,5.85,11.04,2.92,17.11,2.13.51,5-1.34,6.27,1.95Z"/>
      <path class="cls-14" d="M432.94,874.56c-2.4-1.64-5.2-.13-8.08-1.1,2.82-3.33,2.7-7.26,1.8-11.02-.91-3.81-3.52-6.57-7-8.59-6.3-3.67-13.26-5.82-19.82-8.89-4,1.32-6.67.05-7.89-4.06-.1-2.33.33-4.51,1.93-6.33,2.04-.95,3.49.38,4.99,1.36,15.03,9.85,31.69,13.15,49.37,12.45,4.95-.2,9.31-2.2,13.57-4.48,5.03.09,9.81,1.02,13.93,4.16,6.18,2.66,12.97,4.04,18.13,8.8,1.96,2.9,3.46,5.84,3.14,9.61-.48,5.64-3.84,9.31-9.45,9.22-18.21-.3-36.42-.74-54.63-1.13Z"/>
      <path class="cls-29" d="M642.77,877.78v-99.91c1.42,2.71.94,4.53.94,6.26.04,29.16.11,58.32-.07,87.47-.03,4.21,1.26,5.35,5.36,5.29,11.76-.17,11.76,0,11.76-11.76,0-75.48,0-150.96.03-226.44,0-1.92-.69-4.02.79-5.77.06,36.47.11,72.93.18,109.4.04,19.81.1,39.63.16,59.44-.04,23.5-.08,47.01-.14,70.51,0,1.82-.1,3.63-.16,5.45-6.28.91-12.56.84-18.85.05h0Z"/>
      <path class="cls-28" d="M642.77,877.78c6.28-.02,12.57-.03,18.85-.05-6.28,1.31-12.56,1.18-18.85.05Z"/>
      <path class="cls-15" d="M327.1,815.15c-2-.22-3.13-.83-3.05-3.36.63-19.48-1.62-38.83-3.05-58.21-1.27-17.21-3.6-34.35-4.64-51.57-1.35-22.39-3.56-44.79-1.4-67.28.28-2.97.04-5.98.04-8.97-1.56-2.74-.54-5.74-.83-8.61-.21-2.06.56-4.26-.9-6.13.03-19.08.05-38.15.08-57.23.74-4.96.34-9.96.26-14.93-.06-3.48,1.66-4.65,4.56-4.16,8.17,1.38,17.06,1.01,24.33,4.7,13.39,6.8,27.26,13.35,37.05,25.55,5.57,6.95,6.89,15.4,7.88,23.84,2.21,18.99-.19,37.83-2.3,56.67-2.87,25.62-5.61,51.26-9.42,76.76-.3,1.98-.05,3.99-.18,5.99-1.02,14.91-3.02,29.73-4.39,44.61-1.19,12.9-2.69,25.77-3.53,38.71-.21,3.23-.29,6.47-4.31,7.47-10.22.89-20.38.25-30.5-1.23-2.13-.31-4.22-.82-5.7-2.61Z"/>
      <path class="cls-24" d="M266.12,475.87c.03-8.97,3.97-12.99,13.13-13,26.97-.06,53.94-.03,80.91-.03,0,0-.08-.06-.08-.06,1.15.98,2.54.58,3.83.58,53.49.02,106.98.02,160.47.01,1.15,0,2.33.17,3.44-.33,5.26-.07,10.52-.14,15.78-.22,43.93-.05,87.86-.13,131.79-.13,8.38,0,12.34,4.21,12.38,12.72.01,3.66.1,7.33-.02,10.99-.2,5.55-3.91,9.36-9.43,9.57-4.32.17-8.66.19-12.98,0-2.83-.12-3.75.85-3.73,3.69.19,22.31.25,44.63.36,66.94-2.07-1.26-1.1-3.31-1.11-4.97-.09-20.24-.17-40.49-.03-60.73.03-3.77-.8-5.45-4.93-5.13-4.78.37-9.61.12-14.42.13-2.73,2.29-6.02,1.53-9.1,1.53-61.51.05-123.02.03-184.53.04-11.13,0-10.19-.41-10.21,10.4-.04,16.97.01,33.95-.03,50.92,0,2.63.4,5.36-1.24,7.75-2.36.81-2.28-1.21-2.6-2.43-.55-2.1-.34-4.3-.34-6.45-.01-17.95.04-35.9-.03-53.85-.02-5.8-.56-6.27-6.23-6.37-3.49-.06-6.98-.09-10.42.62-2.47.46-4.96.41-7.45.41-29.56,0-59.13.02-88.69-.02-2.77,0-5.69.53-8.19-1.33-6.36-2.25-12.77-1.61-19.18-.28-4.99-.02-9.99.05-14.98-.1"/>
      <path class="cls-4" d="M374.27,728.25c-.91-7.55,1.55-14.77,2.27-22.16.96-9.86,2.35-19.67,3.53-29.51,1.58-13.11,3.52-26.2,4.6-39.36,1.17-14.29,3.37-28.57,1.56-43.02-.57-4.58-.88-9.17-1.64-13.77-1.5-9.11-6.06-16.08-13.05-21.56-10.29-8.06-21.21-15.29-33.67-19.42-6.2-2.06-12.96-2.42-19.46-3.54-3.25-.56-4.31.79-4.37,4.1-.08,4.58,1.08,9.27-.71,13.77-.05-6.64-.09-13.29-.14-19.93,1.86-1.37,3.89-.55,5.78-.28,23.08,3.27,45.68,8.48,67.38,17.15,5.56,2.22,10.75,5.2,15.83,8.37,7.47,4.65,12.42,11.37,15.9,19.3,1.03,2.06,1.92,4.17,2.36,6.44,3.12,10.27,4.43,20.82,5.15,31.48,1.62,24.09,1.58,48.23,2.29,72.35.45,15.32-.02,30.64.81,45.92,1.2,21.93.97,43.91,2.64,65.82.41,5.32,1.68,10.97-1.53,16.06-4.1,2.7-8.9,2.45-13.42,2.7-7.91.44-15.86.45-23.79-.09-3.52-.47-3.75-3.26-4.11-5.92-2.44-17.77-5.45-35.45-8.8-53.07-2.01-10.57-4.67-21.04-5.41-31.84Z"/>
      <path class="cls-16" d="M294.04,768.62c.09-44.9.18-89.81.27-134.71,1.29,1.21.84,2.8.84,4.24,0,58.37,0,116.73-.02,175.1,0,.8-.08,1.61-1.09,2.4v-47.03Z"/>
      <path class="cls-20" d="M313.26,611.02c2.22.19,1.94,1.85,1.92,3.32-.05,3.81-.12,7.62-.19,11.42-.61.09-1.22.18-1.83.26.03-5,.07-10,.1-15Z"/>
      <path class="cls-26" d="M668.72,231.95c-60.59,0-121.17,0-181.76,0-5.31,0-8.68-2.51-8.93-6.58-.24-4.01,2.88-6.65,8.02-6.65,26.47-.01,52.93,0,79.4,0,94.71,0,189.42,0,284.13,0,1.33,0,2.67-.06,3.99.03,3.74.26,5.78,2.38,5.95,6.06.18,3.84-1.66,6.37-5.55,7.06-1.29.23-2.66.08-3.99.08-60.42,0-120.84,0-181.26,0Z"/>
      <path class="cls-26" d="M623.6,282.08c-45.26,0-90.52,0-135.78.02-3.04,0-6.02.14-7.99-2.87-2.67-4.08-.7-9.33,4.22-10.74,1.56-.45,3.28-.42,4.93-.43,89.85-.02,179.71-.02,269.56-.02,7.37,0,10.46,2.41,10.2,7.83-.18,3.75-2.2,5.77-5.87,6.16-1.15.12-2.33.05-3.49.05-45.26,0-90.52,0-135.78,0Z"/>
      <path class="cls-25" d="M748.9,333.97c-33.79,0-67.57,0-101.36,0-6.05,0-8.82-2.22-8.78-7.03.03-4.08,2.12-6.53,6.22-7.05,1.15-.15,2.33-.05,3.49-.05,67.07,0,134.15,0,201.22.02,1.81,0,3.82-.16,5.38.55,3.3,1.5,5.21,4.23,4.37,8.06-.89,4.02-3.62,5.55-7.68,5.54-23.63-.07-47.27-.03-70.9-.03-10.65,0-21.3,0-31.96,0Z"/>
      <path class="cls-2" d="M749.65,384.05c-34.29,0-68.58,0-102.87,0-5.34,0-8.48-2.77-7.94-7.18.42-3.4,2.02-6.01,6.01-6.05,1-.01,2-.06,3-.06,67.91,0,135.82.03,203.73-.02,3.43,0,6.19.62,7.92,3.9,1.24,2.37.74,4.47-.51,6.58-1.74,2.94-4.59,2.86-7.47,2.86-22.3-.02-44.61-.01-66.91-.01-11.65,0-23.3,0-34.95,0Z"/>
      <path class="cls-22" d="M523.71,154.93c-11.8,0-23.61.02-35.41,0-6.79-.02-10.33-3.57-10.33-10.41-.02-23.13-.02-46.27,0-69.4,0-6.95,3.59-10.98,10.54-11.03,23.11-.15,46.22-.13,69.33,0,5.92.03,11.29,3.17,11.15,11.56-.36,22.96-.12,45.93-.13,68.9,0,7.15-3.18,10.37-10.23,10.38-11.64.02-23.28,0-34.92,0Z"/>
      <path class="cls-17" d="M631.09,141.66c-2.48,7.09-5.03,14.16-7.4,21.28-.81,2.44-2.13,3.29-4.66,3.04-2.29-.22-4.36.22-5.34-2.94-2.17-6.99-4.83-13.82-7.88-20.64,0,6.69-.24,13.4.1,20.07.18,3.65-1.65,3.48-4.17,3.51-2.6.03-4.21,0-4.12-3.56.28-10.48.16-20.97.05-31.46-.03-2.32.53-3.07,2.99-3.14,8.52-.25,8.5-.37,11.32,7.95,2.11,6.21,4.24,12.4,6.44,18.83,2.33-2.73,2.58-6.42,3.87-9.6,1.79-4.41,3.25-8.96,4.59-13.53.82-2.79,2.17-3.76,5.19-3.67,7.69.22,7.69.04,7.69,7.9,0,8.99-.22,17.99.1,26.96.14,3.95-2.15,3.11-4.37,3.29-2.54.2-3.92-.16-3.81-3.34.25-6.98.08-13.98.08-20.97-.23,0-.46,0-.69,0Z"/>
      <path class="cls-17" d="M614.92,110.07c-11.73.03-19.07-7.35-19.11-19.22-.04-13.16,6.97-20.88,19.01-20.93,11.89-.05,19.68,8.19,19.6,20.71-.08,11.99-7.51,19.4-19.51,19.43Z"/>
      <path class="cls-8" d="M766.55,126.92c11.93,0,19.08,7.66,19.06,20.42-.02,11.91-7.68,19.62-19.46,19.58-11.41-.04-19.13-7.86-19.26-19.52-.14-12.61,7.42-20.49,19.66-20.49Z"/>
      <path class="cls-17" d="M799.59,141.29c0,7.9-.25,14.67.09,21.4.2,3.96-2.17,3.08-4.38,3.27-2.55.22-3.87-.19-3.8-3.35.22-9.65-.01-19.3.16-28.95.03-1.89-1.54-5.17,1.2-5.51,3.33-.41,7.29-1.88,9.92,2.92,3.87,7.06,8.66,13.6,13.77,21.47,0-7.8.24-14.49-.09-21.15-.18-3.58,1.55-3.52,4.13-3.56,2.7-.05,4.16.15,4.06,3.61-.27,9.81,0,19.63-.19,29.45-.03,1.62,1.63,4.7-1.4,4.84-2.93.14-6.43,1.84-8.86-2.17-4.37-7.22-9.24-14.13-14.62-22.27Z"/>
      <path class="cls-17" d="M702.84,94.65c2.62,4.86,5.25,9.73,7.95,14.75-9.18.79-8.97.67-13.16-6.8-1.7-3.04-1.54-8.31-7.44-7.67-1.88.21-2.63.55-2.51,2.53.15,2.48-.21,5.01.09,7.47.48,3.9-.87,5.17-4.85,4.93-2.94-.18-4.39-.37-4.3-3.95.26-10.46.18-20.94.03-31.4-.04-2.73.59-3.88,3.51-3.62,5.92.53,11.9-.67,17.82.69,5.12,1.17,8.78,3.9,9.64,9.24,1.13,6.93-.79,10.53-6.79,13.84Z"/>
      <path class="cls-8" d="M639.76,84.91c0-2.83,0-5.65,0-8.48,0-5.38,2.17-6.87,7.51-5.55,2.09.52,1.46,1.91,1.47,3.06.06,6.81,0,13.63.04,20.45.03,5.24,2.28,7.76,6.83,7.81,4.57.05,7.02-2.44,7.1-7.62.11-6.81.27-13.64-.07-20.44-.2-3.97,2.17-3.2,4.38-3.21,2.24,0,4.6-.71,4.38,3.25-.42,7.62.04,15.3-.51,22.91-.66,9.13-6.39,13.23-16.96,12.92-8.15-.24-13.79-5.81-14.13-14.13-.15-3.65-.02-7.31-.03-10.97Z"/>
      <path class="cls-6" d="M711.71,126.9c5.03-.08,9.58.97,12.36,5.68.74,1.25,2.92,3.24.9,4.09-2.06.86-4.58,4-7.33.6-2.13-2.63-4.95-3.87-8.35-2.81-1.68.53-3.53.97-3.63,3.44-.09,2.36,1.42,3.29,3.15,3.89,2.48.86,5.06,1.39,7.58,2.13,7.06,2.07,9.78,5.07,9.78,10.67,0,6.31-2.89,9.7-9.95,11.69-7.05,1.98-15.22-.44-18.64-5.73-.8-1.24-3.36-3.3-.64-4.26,2.16-.76,4.8-4.8,7.53-.52,2.47,3.88,6.21,3.85,10.12,3.22,1.58-.26,2.86-.9,3.05-2.73.18-1.76-.68-2.82-2.28-3.37-2.47-.85-4.94-1.73-7.43-2.53-8.97-2.86-11.51-6.13-10.45-13.5.96-6.65,5.68-9.95,14.22-9.96Z"/>
      <path class="cls-19" d="M677.33,126.92c5.17-.28,9.51,1.35,12.38,5.81.73,1.14,2.64,3.11.28,4.03-1.86.73-3.83,3.59-6.39.77-2.45-2.7-5.33-4.39-9.25-2.95-1.87.69-3.44,1.65-3.4,3.7.03,1.78,1.46,2.94,3.13,3.46,2.5.78,5.06,1.38,7.59,2.11,7.07,2.03,10.09,5.37,10.05,11.07-.03,5.76-3.59,9.71-10.37,11.51-6.63,1.77-14.93-.78-18.29-5.87-.83-1.26-3.12-3.48-.47-4.41,2.09-.73,4.59-4.41,7.25-.6,2.51,3.6,6.03,4.36,10.09,3.5,1.58-.33,2.73-1.04,2.89-2.87.16-1.78-.68-2.91-2.21-3.47-2.3-.85-4.66-1.58-7.01-2.29-8.95-2.73-11.84-6.4-10.85-13.85.81-6.17,6.12-9.68,14.58-9.65Z"/>
      <path class="cls-7" d="M732.62,146.75c0-5.3.22-10.62-.08-15.91-.21-3.69,2.1-3.12,4.1-2.87,1.85.22,4.88-1.66,4.82,2.68-.16,10.77-.19,21.55,0,32.32.08,4.65-3.15,2.57-5.14,2.94-2.45.45-3.97-.01-3.78-3.25.3-5.29.08-10.6.08-15.91Z"/>
      <path class="cls-17" d="M647.32,147.3c0-5.48.31-10.98-.12-16.42-.26-3.26,1.39-3.38,3.39-2.9,1.87.45,5.37-2.26,5.32,2.56-.1,10.95-.09,21.91-.02,32.86.03,4.4-3.18,2.14-4.96,2.44-1.73.29-3.94.88-3.73-2.62.33-5.29.09-10.62.09-15.93,0,0,.01,0,.02,0Z"/>
      <path class="cls-9" d="M527.82,463.04c-1.58,1.39-3.5.78-5.25.79-52.46.04-104.92.05-157.37.02-1.74,0-3.71.67-5.12-1.07,53.09.04,106.18.07,159.26.11,2.83,0,5.65.09,8.48.15Z"/>
      <path class="cls-21" d="M436.06,566.75c-.01-21.96.09-43.93-.14-65.89-.04-4.11,1.32-4.87,5.09-4.86,64.66.1,129.33.06,193.99.05,2.16,0,4.32-.09,6.48-.14.09,23.64.18,47.28.28,70.91-1.91,1.73-4.29,1.64-6.61,1.64-64.19.03-128.37.04-192.56-.01-2.29,0-4.72.25-6.54-1.7Z"/>
      <path class="cls-23" d="M436.06,566.75c68.57.03,137.14.05,205.71.08,0,6.36,0,12.71,0,19.07-30.28.02-60.56.04-90.84.06-8.04.01-16.07.02-24.11.03-1.96,1.68-4.36,1.45-6.66,1.45-30.58.03-61.17.05-91.75-.01-3.63,0-7.5.26-9.45-3.93-.69-1.59-1.38-3.17-2.07-4.76.02-27.28.04-54.57.07-81.85,5.47-1.66,11.07-.64,16.6-.64,2.52,0,1.43,2.58,1.43,3.98.07,20.56,0,41.11.11,61.67,0,1.58-1.21,3.62.96,4.85Z"/>
      <path class="cls-12" d="M327.1,815.15c11.87,2.75,23.97,2.7,36.05,2.81,1.4,1.5,1.46,3.45,1.1,5.17-.91,4.37,1.17,6.83,4.71,8.76,7.57,4.14,15.37,7.63,23.95,9.1.84,3.92,4.48,2.9,6.94,3.95-2.11,4.54-6.75,4.24-10.42,4.71-23.19,3.01-44.6-2.25-64.24-14.87.83-6.53,1.91-13.03,1.92-19.64Z"/>
      <path class="cls-12" d="M394.17,834.75c-.02-4.13-.08-8.26-.05-12.39.01-1.7-.04-3.29-1.74-4.25,12.28.01,24.54-.03,36.71-1.93-.13,15.72.21,16.27,14.69,22.3,5.88,2.45,11.73,5.04,18.07,6.12-3.96,4.16-9.17,4.94-14.48,5.22-19.43,1.01-37.14-4.13-53.19-15.07Z"/>
      <path class="cls-21" d="M523.91,149.04c-11.14,0-22.29-.09-33.43.03-4.6.05-6.61-1.77-6.58-6.52.12-21.98.1-43.95.02-65.93-.02-4.58,1.9-6.71,6.51-6.7,22.12.05,44.24.07,66.37-.02,4.22-.02,6.21,1.95,6.21,5.96.03,22.64,0,45.29-.02,67.93,0,3.77-2,5.29-5.65,5.27-11.14-.06-22.29-.02-33.43-.03Z"/>
      <path class="cls-1" d="M614.68,101.97c-6.65-.12-10.19-4.55-10-12.52.16-6.72,4.42-11.39,10.42-11.43,6-.04,10.83,5.7,10.56,12.55-.28,7.02-4.6,11.52-10.97,11.41Z"/>
      <path class="cls-1" d="M776.61,147.22c-.04,6.71-4.29,11.56-10.2,11.64-6.07.08-10.59-4.96-10.7-11.94-.11-6.74,4.45-11.91,10.58-12,6.54-.09,10.37,4.47,10.32,12.29Z"/>
      <path class="cls-10" d="M687.77,83.69c-.08-3.15-1.02-6.07,3.78-5.73,6.51.46,9.31,1.79,9.13,5.72-.25,5.57-4.53,4.76-8.25,5.34-5.35.84-5.14-2.24-4.67-5.33Z"/>
      <path class="cls-22" d="M550.86,90.72c.22,1.28-.53,2.19-1.24,3.11-9.37,12.01-18.79,23.98-28.1,36.03-2.97,3.85-5.58,3.72-8.91.34-4.54-4.61-9.42-8.88-14.19-13.25-1.89-1.74-3.23-3.6-1.06-5.88,2.2-2.31,4.46-1.46,6.52.39,3.58,3.21,7.28,6.31,10.66,9.73,1.96,1.98,2.76,1.78,4.42-.42,8.02-10.55,16.31-20.88,24.39-31.39,1.5-1.95,3.04-3.08,5.41-2.22,1.51.55,2.34,1.81,2.11,3.56Z"/>
    </g>
  </g>
</svg>