<?xml version="1.0" encoding="UTF-8"?>
<svg id="Layer_2" data-name="Layer 2" xmlns="http://www.w3.org/2000/svg" viewBox="0 0 810.64 1305.47">
  <defs>
    <style>
      .cls-1 {
        fill: #ac0309;
      }

      .cls-2 {
        fill: #fbe7e6;
      }

      .cls-3 {
        fill: #ad040a;
      }

      .cls-4 {
        fill: #ee9f74;
      }

      .cls-5 {
        fill: #ac0108;
      }

      .cls-6 {
        fill: #e9a6a8;
      }

      .cls-7 {
        fill: #ab0107;
      }

      .cls-8 {
        fill: #fae6e6;
      }

      .cls-9 {
        fill: #ac0208;
      }

      .cls-10 {
        fill: #aa0008;
      }

      .cls-11 {
        fill: #01292d;
      }

      .cls-12 {
        fill: #fae5e5;
      }

      .cls-13 {
        fill: #f9bb95;
      }

      .cls-14 {
        fill: #ed9f75;
      }

      .cls-15 {
        fill: #fbe8e7;
      }

      .cls-16 {
        fill: #ab0208;
      }

      .cls-17 {
        fill: #ab0108;
      }

      .cls-18 {
        fill: #ab0209;
      }

      .cls-19 {
        fill: #ac0209;
      }

      .cls-20 {
        fill: #e89998;
      }
    </style>
  </defs>
  <g id="Layer_1-2" data-name="Layer 1">
    <g>
      <path class="cls-11" d="M754.99,548.77c4.38,26.16,6.05,52.55,6.67,79.04,1.58,67.15-.19,134.29-1.42,201.42-1,54.7,2.52,109.24,4.78,163.83,2.33,56.44,2.89,112.92,4.2,169.39.24,10.49.69,20.98,1.06,31.47.06,1.81.62,3.86-1.87,4.49-3.54.89-3.14,3.1-2.25,5.76,2.88,8.56,7.07,16.44,11.97,23.99,3.4,5.25,5.78,10.82,5.03,17.35-.73,6.39-3.59,9.29-9.92,9.35-17.31.17-34.62.3-51.93.39-2.49.01-5-.11-7.47-.42-7.91-.98-11.91-5.06-11.12-13.04,1.18-12.08,3.2-24.07,5.01-36.08.44-2.94,1.29-5.65-2.97-6.2-1.83-.23-2.17-1.55-2.37-3.23-2.38-20.67-4.79-41.34-7.31-61.99-2.98-24.45-6.12-48.88-9.09-73.33-2.37-19.5-4.47-39.03-6.91-58.52-2.41-19.33-5.06-38.62-7.67-57.92-2.68-19.79-5.4-39.57-8.16-59.35-2.8-20.11-5.67-40.21-8.51-60.31-2.51-17.79-5.01-35.59-7.55-53.38-1.01-7.08-2.09-14.14-3.23-21.2-.2-1.23-.3-2.66-2-3.71-1.6,9.91-3.2,19.61-4.74,29.32-5.89,37.13-11.68,74.28-16.9,111.52-2.65,18.89-1.81,37.91-2.73,56.87-2.12,43.6-5.43,87.09-9.95,130.5-3.5,33.62-8.26,67.07-12.67,100.57-.91,6.93-1.91,13.85-2.94,20.76-.24,1.6-.22,4.01-2.16,4.08-6.34.22-3.57,4.38-3.01,7.02,1.6,7.47,5.12,14.4,6.1,22.09.74,5.82.85,11.63.54,17.45-.33,6.29-1.93,7.93-8.23,7.94-31.13.04-62.25-.04-93.38-.05-8.65,0-17.31.19-25.96.13-4.47-.03-8.85-.62-10.14-6.06-1.04-4.39,1.38-8.26,7.01-10.66,12.19-5.2,25.05-8.81,36.44-15.89,8.94-5.56,17.19-11.96,24.66-19.36,1.41-1.39,4.27-2.93-.04-4.8-1.71-.74-.8-3.39-.72-5.15,2.3-50.79,1.96-101.62,1.31-152.43-.76-59.32-1.01-118.63.56-177.94,1.48-55.95,3.28-111.91,7.07-167.76,2.83-41.7,5.65-83.42,9.82-125.02.86-8.61,1.95-17.2,2.93-25.79,2.49-1.77,5.14-.87,7.71-.39,13.08,2.47,26.17,4.94,39.42,6.32,12.23,1.28,24.54,1.6,36.8,2.71,21.91,1.99,43.9.88,65.85,1.05,17.85.14,35.5-2.12,53.08-4.98,2.43-.39,4.88-1.33,7.28.15Z"/>
      <path class="cls-20" d="M150.51,338.36c42.11,0,84.22.27,126.32-.18,11.94-.13,24.15,9.98,24.09,24.16-.35,80.8-.17,161.6-.17,242.4,0,15.69-9.46,25.3-25.04,25.31-83.55.02-167.09-.11-250.64.15-13.49.04-24.99-10.5-24.94-25.05.3-81.3.14-162.6.14-243.9,0-13.41,9.45-22.88,22.92-22.88,42.44-.02,84.88,0,127.32,0Z"/>
      <path class="cls-15" d="M150.53,676.17c42.61,0,85.22.29,127.83-.18,12.63-.14,22.49,10.69,22.49,23.35-.04,66.65-.02,133.29-.02,199.94,0,13.5-.19,27,.05,40.49.31,17.66-10.6,27.5-27.29,27.46-82.89-.22-165.78-.29-248.67.1C12.2,967.39-.06,955.74,0,942.53c.38-81.14.19-162.29.19-243.43,0-12.92,10.05-22.93,23.01-22.93,42.44,0,84.89,0,127.33,0Z"/>
      <path class="cls-6" d="M150.08,1305.25c-42.45,0-84.9-.35-127.33.22-12.33.17-22.5-10.92-22.5-22.89.04-81.81,0-163.63.01-245.44,0-12.52,9.63-21.98,22.19-21.98,85.39-.01,170.78.15,256.17-.18,13.44-.05,22.3,12.45,22.27,22.46-.23,81.15-.27,162.29,0,243.44.05,13.42-9.82,24.8-24.48,24.59-42.1-.6-84.22-.21-126.34-.21Z"/>
      <path class="cls-15" d="M150.53.25c42.77,0,85.55.37,128.31-.25,11.07-.16,22.05,11.97,22.02,21.97-.08,23.8-.03,47.59-.03,71.39,0,17.38,0,34.76,0,52.15,0,37.73.11,75.47-.11,113.2-.04,6.63.85,13.42-2.41,19.9-3.3,6.57-9.88,11.59-17.08,11.6-86.54.01-173.08-.11-259.62.16-10.48.03-21.6-12.56-21.57-21.92C.3,186.66.31,104.86.07,23.06.03,9.39,11.43-.11,23.22.04c42.43.54,84.87.21,127.31.21Z"/>
      <path class="cls-10" d="M492.74,361.14c-2.83-2.06-2.99-4.16-1.64-7.62,7.74-19.8,14.84-39.86,23.47-59.3,8.11-18.27,18.49-34.62,37.31-43.88,10.22-5.04,21.16-7.79,31.96-11.07,7.15-2.17,14.31-4.3,21.49-6.36,3.61-1.04,6.33-2.76,8.52-6.15,3.76-5.81,9.17-10.03,15.62-12.76,3.97-2.04,4.18.49,3.96,3.34-.41,5.32-2.84,10.27-3.03,15.62-.43,12.23,1.47,24.12,5.44,35.69.82,2.39,2.24,2.58,4.18,1.24,16.8-11.62,33.55-23.3,48.85-36.89,5.61-4.99,8.44-11.35,9.19-18.78.34-3.39.52-3.37,3.17-3.9,5.94,5.02,10.88,10.77,12.83,18.52.63,2.49,2.58,3.33,4.43,4.37,14.57,8.11,30.55,12.85,45.91,19.07,9.1,3.68,18.13,7.5,25.75,13.87,13.2,11.03,19.13,25.68,20.23,42.41,1.61,24.36-4.47,47.5-12.01,70.32-3.33,10.09-7.45,19.89-11.8,29.59-1.57,3.5-3.25,4.81-6.39,1.77-3.01-1-5.66-2.59-8.29-4.39-12.65-8.67-26.75-14.1-41.46-18.06-3.86-1.04-7.69-2.19-11.59-3.05-8.28-1.82-8.36-1.76-11.26,6.02-3.38,9.05-6.55,18.18-9.82,27.27-2.07,5.75-3.08,6.59-9.02,6.61-31.13.07-62.26.42-93.38-.19-10.46-.2-20.93-.62-31.41-.81-7.33-.14-13.95-2.96-20.58-5.67-3.54-1.45-4.12-4.28-3.52-7.83,1.74-10.36,2.22-20.82,2.32-31.32.04-4.36-1.78-6.52-5.78-8.05-12.26-4.71-25.09-6.48-37.99-7.98-1.99-.23-4.01-.23-5.65-1.62Z"/>
      <path class="cls-13" d="M539.68,467.68c.13-4.53-1.34-6.48-5.69-7.48-5.47-1.26-11.22-.74-16.5-2.91,1.58-1.74,3.7-1.53,5.57-1.09,4.16.98,5.27-1.58,6.01-4.73,1.69-7.25,4.21-14.26,5.33-19.79-3.2,9.55-10.29,18.07-20.23,24.15.72.3,3.39-1.92,3.37,1.45-3.65-.17-7.06.08-10.54,1.86-12.6,6.44-23.75,3.04-33.79-5.87-9.92-8.8-17.67-19.29-24.46-30.66-17.11-28.61-30.17-59.1-42.24-90.06-9.64-24.75-17.73-50.01-23.34-75.99-1.57-7.25-3.89-14.47-3.5-22.09.28-5.48,2.6-9.48,7.74-11.61,1.93-.8,3.33-2.05,4.43-3.83,1.34-2.17,3.23-4.08,5.75-4.5,2.7-.46,4.53-1.86,6.21-3.77,2.2-2.5,4.85-4.14,8.31-3.66,3.43.49,3.95-1.31,3.64-4.09-1.05-9.58-1.63-19.18-1.19-28.82.14-3.08.3-6.36,4.24-6.81,4.02-.46,5.72,2.54,6.25,5.78,1.37,8.34,2.87,16.71,3.38,25.13.69,11.5,3.73,22.64,4.62,34.03.88,11.3,2.56,22.68-.98,34.06-1.91,6.14-.26,12.48,2.4,18.45,8.47,19.03,19.58,36.56,30.55,54.17,6.76,10.84,13.77,21.52,21.72,31.56,1.95,2.46,3.23,2.88,4.28-.3.97-2.94,2.54-5.82,1.73-9.12,15.87.6,31.33,3.14,46.23,8.94,3.36,1.31,4.57,2.94,4.42,6.54-.5,12.11.42,24.31-2.76,36.21-.53,1.98.62,2.74,2.09,3.34,7.38,3.03,14.73,6.04,22.94,6.11,41.58.36,83.17.78,124.75,1.27,3,.04,4.32-.98,5.3-3.86,4.03-11.77,8.41-23.42,12.57-35.15.85-2.41,1.79-3.28,4.67-2.66,23.74,5.12,46.56,12.39,66.29,27.23.38.28.62.75.93,1.13-2.7-.37-3.16,1.7-3.95,3.53-4.67,10.88-9.93,21.55-11.74,33.43-2.58.03-3.01,2.39-4,3.94-6.35,10-13.1,19.68-22.64,26.96-7.51,5.74-16.02,8.5-25.52,8.59-19.2.17-38.07-2.92-56.98-5.55-23.87-3.31-47.46-8.28-71.29-11.84-9.52-1.42-18.97-3.39-28.47-5.04-13.13-2.28-13.68-1.78-13.54,11.27.21,19.13-1.73,38.22-1.07,57.37.06,1.8.14,3.7-1.32,5.16-2.04-1.69-1.2-4.03-1.18-6.05"/>
      <path class="cls-17" d="M537.93,536.72c-1.09-16.81,1.17-32.48,1.35-49.28.08-7.16-.51-12.36-.71-19.51-.1-3.61,3.16-6.13,6.52-6.13,9.4,0,18.41,2.49,27.57,3.96,37.52,6.02,74.81,13.52,112.57,17.97,10.36,1.22,20.83,2.26,31.34,1.33,15.67-1.39,25.79-11.29,34.6-22.91,4.47-5.9,10.39-15.43,14.8-22.04.27,1.72-1.66,5.96-1.49,7.07-3.1,25.7-2.8,51.35,1.25,76.93,1.68,10.58-1.34,18.97-10.74,24.65-38.09,8.23-76.71,7.44-115.23,5.92-21.69-.85-43.49-1.92-65-5.5-9.99-1.66-19.94-3.51-29.91-5.28-2.08-1.65-5.86-4.64-6.92-7.19Z"/>
      <path class="cls-13" d="M701.22,210.3c-1.97-.2-2.05,1.07-2.02,2.52.16,10.16-4.81,17.6-12.35,23.82-15.13,12.48-30.94,24.03-47.15,35.06-2.42,1.65-3.67,2.28-4.8-1.32-4.21-13.41-7.3-26.94-5.27-41.11.59-4.09,1.67-8.11,2.66-12.14.64-2.61-.02-3.79-2.84-3.15,2.52-2.23,4.42-12.84,2.82-15.55-.49-.82-1.24-1-2.08-1.09-13.83-1.59-19.49-10.73-21.9-23.24-4.04-21-1.19-41.56,3.34-62.08,1.75-7.94,4.53-15.52,7.68-22.95,1.37-3.24,1.57-5.99-.47-8.83.56-.42,1.24-.69,1.86-.4,10.63,4.86,21.92,2.55,32.94,3.03,5.12.22,10.22-.31,15.2,1.82,10.64,4.56,15.82,14.04,12.02,26.18-2.64,8.44.88,14.03,5.13,20.08,1.25,1.77,2.18,1.72,3.39.13.4-.53.88-1,1.32-1.49,3.54-3.88,7.81-5.94,12.93-3.88,5.1,2.06,8.36,6,8.93,11.66.87,8.69-3.29,15.69-8.86,21.45-4.49,4.64-5.65,9.45-4.72,15.34-2.14,1.88-2.72,4.23-2.57,7.05.4,7.6-.52,15.24.95,22.81.52,2.69,1.29,4.99,3.88,6.28Z"/>
      <path class="cls-11" d="M698.96,174.16c-.72-.23-2.1.1-1.91-1.03.79-4.69-.46-9.63,4.1-13.69,5.87-5.24,10.22-11.85,10.13-20.34-.07-6.2-3.46-10.97-8.77-12.48-4.82-1.37-9.39.79-12.9,6.21-.72,1.11-1.23,2.33-2.84,3.24-1.29-5.62-6.24-9.06-7.91-14.53-.77-2.51-1.14-4.5-.14-7.1,4-10.42,2.05-19.99-4.89-25.51-3.9-3.1-8.41-4.6-13.39-4.59-7.15.01-14.3-.04-21.44.18-7.11.21-13.83-1.05-20.17-4.29-1.95-2.89-4-5.71-5.05-9.12-3.65-11.81,2.68-22.07,14.99-24.27,12.95-2.32,25.49.35,38.01,3.08,16.95,3.69,32.37,10.71,46.28,21.16,6.91,5.18,11.27,11.61,12.01,20.33.06.66.03,1.46.38,1.93,8.31,11.03,4.15,22.42.22,33.25-6.26,17.24-14.76,33.43-26.71,47.57Z"/>
      <path class="cls-17" d="M223.76,465.14c0,19.16-.07,38.32.05,57.48.03,4.17-.76,7.61-4.75,9.61-4.01,2.01-7.82,1.33-11.19-1.35-8.72-6.95-17.73-13.45-27.42-18.99-17.49-10-35.91-17.24-56.18-18.9-2.9-.24-4.04-1.27-4.03-4.29.06-16.16-.02-32.32-.14-48.48-.02-2.66.83-3.75,3.61-4.14,29.08-4.08,55.19-15.32,78.61-32.97,2.26-1.7,4.44-3.56,6.9-4.91,7.22-3.99,14.53.3,14.55,8.46.03,19.49.01,38.98.01,58.48h-.02Z"/>
      <path class="cls-17" d="M95.47,497.07c3.34.27,8.35-1.6,11.75.71,3.18,2.16,3.27,7.32,4.71,11.16,3.67,9.78,7.23,19.6,10.75,29.44,1.09,3.04,2.58,5.63,5.26,7.64,3.51,2.63,5.06,6.28,3.42,10.56-1.53,4-4.88,5.71-9.07,5.77-4.49.07-8.97.17-13.46.11-5.31-.07-8.79-2.69-10.36-7.68-5.5-17.56-10.87-35.16-16.53-52.67-1.28-3.95-.88-5.53,3.61-5.09,2.96.29,5.98.05,9.92.05Z"/>
      <path class="cls-1" d="M228.22,464.95c0-4.32.05-8.65-.02-12.97-.04-2.58.5-3.82,3.45-2.54,6.28,2.71,11.09,9.56,10.96,15.97-.13,5.92-5.39,12.78-11.39,15.18-2.59,1.04-2.75-.07-2.69-2.19.11-4.48.03-8.97.03-13.46-.11,0-.23,0-.34,0Z"/>
      <path class="cls-17" d="M238.77,846.18c0,18.3,0,36.61,0,54.91,0,6.1-1.13,7.25-7.27,7.29-7.48.04-14.96-.07-22.44.03-4.42.06-6.42-2-6.42-6.32,0-37.44,0-74.88-.07-112.33,0-4.12,1.53-6.11,5.89-6.03,7.81.15,15.63-.07,23.44,0,5.09.04,6.83,1.85,6.84,7.02.04,18.47.01,36.94.01,55.41h.03Z"/>
      <path class="cls-5" d="M217.64,724.26c4.33,0,8.66.07,12.98-.02,4.16-.09,5.91,1.83,5.06,5.87-1.82,8.63-3.64,17.25-5.65,25.83-.87,3.71-3.26,4.12-6.22,1.68-2.33-1.92-3.1-6.55-6.67-5.75-2.6.58-4.68,3.53-6.98,5.43-32.89,27.16-69.06,48.37-110.07,60.83-10.05,3.05-20.27,5.24-30.64,6.79-5.3.79-8.63-1.38-9.35-5.78-.69-4.22,2.19-7.85,7.03-8.65,38.06-6.28,72.27-21.92,104.27-42.91,11.27-7.4,21.72-15.9,32.3-24.23,3.94-3.1,3.98-5.6.47-8.77-1.23-1.11-2.22-2.47-3.36-3.69-1.17-1.26-2.31-2.58-1.37-4.4.85-1.64,2.42-2.17,4.2-2.17,4.66,0,9.32,0,13.98,0v-.05Z"/>
      <path class="cls-5" d="M191.89,861.96c0,13.16.02,26.32,0,39.48,0,5.66-1.11,6.89-6.55,6.93-7.82.07-15.64-.04-23.47,0-3.92.02-5.75-1.71-5.75-5.74.05-26.99,0-53.98.04-80.96,0-5.35,1.54-6.78,6.85-6.81,7.32-.05,14.65-.05,21.97-.03,5.78.02,6.87,1.12,6.88,7.14.03,13.33.01,26.66.02,39.98Z"/>
      <path class="cls-5" d="M108.33,873.15c0-9.66.07-19.31-.03-28.97-.05-4.63,1.91-6.61,6.61-6.51,7.48.16,14.97-.08,22.45-.07,5.66,0,7.58,1.83,7.6,7.39.08,18.98.03,37.96.15,56.94.03,4.4-1.76,6.44-6.22,6.39-7.98-.09-15.97-.02-23.95.03-4.55.03-6.68-2.19-6.66-6.73.04-9.49.01-18.98.01-28.47h.04Z"/>
      <path class="cls-9" d="M97.16,883.1c0,6.32-.1,12.64.03,18.96.09,4.47-2,6.37-6.32,6.33-7.64-.06-15.28-.08-22.92-.03-4.28.03-6.53-1.86-6.52-6.26.04-12.97.02-25.94.07-38.91.02-4.24,2.03-6.36,6.48-6.28,7.8.15,15.62.17,23.42.02,4.11-.08,5.75,1.93,5.76,5.72.03,6.82,0,13.63,0,20.45h-.02Z"/>
      <path class="cls-7" d="M135.5,1095.52c-5.74,3.56-10.77,7.12-16.19,9.94-6.09,3.18-9.46,8-11.12,14.47-1.49,5.79-3.28,11.51-5.03,17.23-1.4,4.57-2.89,9.15,1.92,12.7,4.81,3.55,10.14,4.23,15.5,1.62,6.44-3.14,9.96-9.21,13.37-15.07,5.26-9.04,17.65-11.8,26.18-5.55,19.43,14.24,38.93,28.39,58.37,42.62,3.53,2.58,6.93,5.44,6.76,10.39-.25,7.29-8.26,11.39-15.2,7.68-10.99-5.89-21.23-13.02-31.68-19.78-2.08-1.34-4.83-4.57-6.71-1.93-1.66,2.34,2.22,3.93,4.16,5.2,9.18,5.98,18.32,12.05,27.8,17.52,3.88,2.24,6.89,4.11,5.36,9.08-1.22,3.98-5.79,6.2-10.62,5.19-5.77-1.2-11-3.64-15.94-6.84-5.99-3.88-12.08-7.61-18.13-11.4-1.45-.91-3.17-1.99-4.35-.08-1.3,2.11.82,2.9,2.22,3.62,9.73,5.02,18.03,12.49,28.42,16.41,3.69,1.39,3.18,7.01-.83,9.71-3.21,2.16-6.79,2.54-10.5,1.37-9.76-3.06-18.75-7.68-26.88-13.86-3.52-2.67-6.83-5.37-11.6-4.7-2.36.33-2.58-1.1-2.83-2.98-1.08-7.95-3.91-10.79-12.14-11.87-2.46-.32-2.38-1.26-2.21-3.25.81-9.78-9.04-16.61-17.74-12.11-2.9,1.5-3.62.81-5.23-1.62-5.61-8.44-14.71-9.48-22.15-2.65-2.14,1.97-3.51,1.97-5.25-.17-3.25-4-6.51-8-9.87-11.91-1.68-1.96-1.56-3.79-.36-5.93,9.17-16.39,18.29-32.8,27.4-49.22,1.03-1.86,2.27-3.18,4.65-3.09,12.98.52,25.91-.11,38.8-1.67.25-.03.53.27,1.67.89Z"/>
      <path class="cls-17" d="M161.46,1091.23c8.58.35,20.09,2.91,31.63,5.24,3.99.8,8,1.17,11.86.28,3.38-.78,4.82.57,6.29,3.18,8.91,15.72,17.87,31.42,26.97,47.04,1.84,3.16,2.08,5.47-.66,8.3-4.04,4.17-7.69,8.73-11.4,13.21-2.05,2.48-3.77,2.85-6.62.74-20.28-15.03-40.71-29.86-61.09-44.76-1.61-1.18-3.16-2.55-5.36-2.28-6.83.83-13.16,3.29-19.36,6.1-1.28.58-1.53,2.06-2.09,3.28-2.37,5.21-5.96,9.55-9.89,13.65-3.45,3.61-7.74,3.62-12.05,2.58-2.75-.66-4.05-2.7-3.15-5.74,2.45-8.27,4.77-16.58,7.27-24.83,1.12-3.7,3.8-6.2,7.17-7.9,8.03-4.05,15.41-9.14,22.94-13.99,6.55-4.22,6.47-4.35,17.52-4.09Z"/>
      <path class="cls-17" d="M270.48,1139.48c.33,2.48-.79,3.52-2.03,4.39-5.17,3.61-10.38,7.17-15.58,10.73-3.63,2.49-5.37.15-7-2.7-9.39-16.42-18.89-32.77-28.2-49.24-6.19-10.97-6.11-11.09,4.53-18.05,12.99-8.5,10.41-8.92,18.25,4.12,9.41,15.64,18.71,31.33,28.04,47.01.84,1.41,1.54,2.89,1.99,3.74Z"/>
      <path class="cls-17" d="M51.23,1155.67c-.71-.37-1.79-.8-2.74-1.43-5.27-3.49-10.49-7.03-15.75-10.53-2.6-1.73-2.85-3.72-1.2-6.35,11.74-18.72,23.4-37.49,35.13-56.22,1.63-2.61,3.64-3.59,6.62-1.43,4.3,3.12,8.81,5.95,13.28,8.82,2.47,1.58,2.7,3.51,1.38,5.94-10.57,19.6-21.05,39.25-32.62,58.29-.87,1.43-1.7,2.92-4.1,2.91Z"/>
      <path class="cls-16" d="M111.61,1174.07c6.44.16,10.5,5.96,7.63,11.53-4.41,8.57-9.97,16.47-17.09,23.08-3.32,3.09-6.93,2.67-10.36-.06-3.33-2.65-5.1-6-2.84-10,4.33-7.66,9.66-14.67,15.46-21.27,1.83-2.09,4.32-3.7,7.2-3.28Z"/>
      <path class="cls-19" d="M114.44,1222.45c-6.12-.02-10.38-5.67-7.77-10.96,3.76-7.62,9.57-13.9,15.71-19.71,2.57-2.43,5.9-1.76,8.72.35,3.05,2.29,4.06,5.61,2.73,8.89-3.02,7.47-7.66,13.97-13.64,19.42-1.63,1.49-3.72,2.17-5.76,2.01Z"/>
      <path class="cls-18" d="M98.22,1173.59c-.23,6.67-9.45,18.82-14.22,19.98-4.13,1.01-7.43-.23-10.11-3.56-2.53-3.15-2.51-6.48-.75-9.79,2.28-4.3,5.43-8,9-11.26,3.18-2.91,7.15-2.94,10.74-1.24,2.8,1.32,5.39,3.46,5.34,5.87Z"/>
      <path class="cls-19" d="M133.44,1230.04c-3.65.03-5.76-1.48-7.27-3.83-1.52-2.37-1.22-4.8.5-6.95,3.1-3.89,6.18-7.81,9.47-11.53,2.74-3.1,6.25-3.92,9.81-1.53,3.85,2.58,3.98,6.18,1.95,10.07-2.01,3.85-4.42,7.4-7.61,10.4-2.14,2.02-4.63,3.15-6.85,3.37Z"/>
      <path class="cls-3" d="M157.7,1228.38c-.99,0-1.99.07-2.97-.01-7.75-.62-8.12-1.31-4.34-8.1.32-.58.67-1.15.96-1.74,3.47-6.93,3.42-6.86,10.37-2.55,3.35,2.09,6.83,4,10.38,5.74,2.82,1.38,2.14,2.41,0,3.57-4.49,2.43-9.37,3.13-14.38,3.09Z"/>
      <path class="cls-7" d="M131.05,215.18c-4.82-4.58-11.12-6.1-17.14-8.1-1.91-.64-3.38.85-4.72,2.16-2.69,2.66-5.43,5.27-8.15,7.9-2.63,1.09-5.28,1.27-7.96.16-2.33-.6-3.59-2.58-5.23-4.08-4.11-3.76-8.12-7.63-11.76-11.86-2.85-3.74-2.8-7.48,0-11.21,1.68-2.27,3.66-4.25,5.93-5.93,2.87-2.24,4.11-4.3,1.8-8.21-2.57-4.36-3.64-9.58-6.72-13.79-3.81-1.78-7.95-.94-11.92-1.43-1.81-.23-3.5-.45-5.05-1.42-2.27-.99-2.2-3.75-3.9-5.18-1.07-8.32-.88-16.65-.07-24.98.76-2.1,2.16-3.7,3.94-5,2.56-2.19,5.65-1.27,8.55-1.49,2.76-.21,5.58.56,8.29-.51,4.43-4.76,5.31-11.3,8.37-16.76.94-1.68-.94-2.95-2.12-4.1-2.13-2.09-4.49-4-6.34-6.32-3.86-4.83-3.76-8.53.48-13.08,4.08-4.38,8.52-8.42,12.74-12.66,3.71-3.71,7.78-2.53,11.91-1.04,3.38,2.38,6.05,5.51,8.94,8.42,6.05,1.14,10.81-2.45,16.01-4.42.74-.28,1.4-.75,2.1-1.13,2.4-1.03,2.45-3.05,2.55-5.29.18-3.86-.83-7.78.57-11.57,2.62-5.56,7.09-7.34,13.02-6.88,4.46.35,8.97.03,13.45.09,6.89.09,11.5,3.57,10.71,10.19-1.27,10.64,3.6,15.07,12.92,18.03,5.42,1.72,9.1,1.51,12.73-2.72,1.39-1.62,3.14-2.97,4.89-4.21,3.49-2.46,7.21-2.72,10.6.03,5.03,4.08,9.78,8.54,13.8,13.63,3.99,5.05,2.73,9.89-3.56,15.61-1.21,1.1-2.37,2.28-3.68,3.26-1.59,1.2-2.05,2.78-1.19,4.38,2.56,4.75,3.58,10.19,6.71,14.67,1.9,2.44,4.44,3,7.41,2.95,3.31-.06,6.77-.62,9.81,1.41,1.68,1.84,3.36,3.68,5.04,5.52.68,7.98,1.3,15.96-.29,23.91-2.85,5.06-7.22,7.2-12.88,6.25-6.43-1.08-9.95,1.81-11.76,7.74-.77,2.52-1.76,5.07-3.16,7.28-2.57,4.06-.91,6.75,2.23,9.35,1.66,1.37,3.28,2.86,4.58,4.56,4.23,5.52,3.84,9.59-1.15,14.48-3.44,3.37-6.87,6.77-10.31,10.15-5.07,4.97-10.3,5.61-14.65.29-5.97-7.3-11.63-7.55-19.76-3.43-5.75,2.91-8.76,5.75-8.03,12.29.59,5.26-1.1,9.82-5.75,12.91-8.61,1.61-17.23,1.6-25.88.37-3.25-1.3-5.05-3.83-5.94-7.11-1.51-4.6.34-9.45-1.06-14.06Z"/>
      <path class="cls-8" d="M138.05,236.35c8.63-.12,17.25-.24,25.88-.37-.67,1.56-2.27,1.51-3.42,1.46-7.49-.34-15.15,2.69-22.47-1.09Z"/>
      <path class="cls-2" d="M239.8,124.7c-3.55-1.29-7.23-.73-10.85-.69-2.96.03-5.19-.78-6.37-3.66,2.95,2.26,6.4,1.93,9.79,1.9,2.75-.03,5.53-.11,7.42,2.46Z"/>
      <path class="cls-8" d="M60.14,159.38c3.93,1.25,8,.79,12.02.95,1.82.07,4.05-.66,4.95,1.9-4.81.61-9.46-.97-14.22-1.04-1.28-.02-2.14-.74-2.75-1.81Z"/>
      <path class="cls-12" d="M56.18,129.23c.02,8.33.04,16.65.07,24.98-2.14-2.06-1.16-4.71-1.04-7.02.32-5.99-1.33-12.09.97-17.96Z"/>
      <path class="cls-2" d="M244.55,154.13c.1-7.97.19-15.94.29-23.91,1.51,7.99,2.18,15.97-.29,23.91Z"/>
      <path class="cls-8" d="M76.1,201.37c4.11,3.77,8.35,7.4,11.76,11.86-4.96-2.92-8.96-6.79-11.76-11.86Z"/>
      <path class="cls-12" d="M132.17,54.28c0,4.06.07,8.13-.05,12.19-.06,2.08-.12,4.39-3.07,4.67,2.31-2.2,1.83-5.07,2.04-7.85.23-3.01-1.19-6.25,1.08-9.01Z"/>
      <path class="cls-12" d="M76.96,122.24c-1.79,2.28-4.31,1.07-6.49,1.26-3.44.29-6.94-.15-10.35.74.93-2.05,2.74-2.01,4.58-2,4.09.03,8.17,0,12.26.01Z"/>
      <path class="cls-12" d="M110.93,76.69c-3.63-2.12-5.81-5.77-8.94-8.42,4.22,1.49,6.77,4.75,8.94,8.42Z"/>
      <path class="cls-8" d="M131.05,215.18c2.06,4.56.87,9.36,1.06,14.06-2.26-4.54-.55-9.39-1.06-14.06Z"/>
      <path class="cls-8" d="M93.09,217.31c2.65-.05,5.3-.11,7.96-.16-2.61,2.08-5.25,2.94-7.96.16Z"/>
      <path class="cls-8" d="M82.02,184.23c-1.98,1.98-3.95,3.95-5.93,5.93.89-3.06,2.87-5.04,5.93-5.93Z"/>
      <path class="cls-4" d="M517.54,457.28c-1.25-1.92-3.44-.53-5.16-1.48,5.76-3.3,9.79-8.26,14.28-12.85,4.68-4.79,5.2-11.62,10.04-16.24-1.16,5.3-1.6,10.89-3.69,15.79-1.78,4.17-1.89,8.67-3.81,12.74-1.14,2.41-2.13,3.48-4.79,2.43-2.21-.87-4.59-.48-6.9-.39,0,0,.04,0,.04,0Z"/>
      <path class="cls-14" d="M633.51,203.05c-.78-4.56,1.23-5.79,5.55-5.92,12.62-.37,24.24-4.19,34.64-11.48.27-.19.56-.39.87-.48,1.28-.4,2.3-2.83,3.76-1.12,1.43,1.67-.46,3-1.48,4.17-4.53,5.17-9.88,9.36-15.9,12.62-7.6,4.12-15.61,6.77-24.42,6.91-4.25.07-2.53-2.9-3.03-4.71Z"/>
      <path class="cls-15" d="M106.97,142.41c.08-24.18,19.65-43.85,43.67-43.89,23.81-.04,43.9,20.14,43.75,43.96-.15,24.55-19.51,44.14-43.5,44.01-24.62-.14-44-19.58-43.92-44.07Z"/>
    </g>
  </g>
</svg>