<?xml version="1.0" encoding="UTF-8"?>
<svg id="Layer_2" data-name="Layer 2" xmlns="http://www.w3.org/2000/svg" viewBox="0 0 766.41 902.26">
  <defs>
    <style>
      .cls-1 {
        fill: #e9a5aa;
      }

      .cls-2 {
        fill: #fcf9f4;
      }

      .cls-3 {
        fill: #b40008;
      }

      .cls-4 {
        fill: #b20106;
      }

      .cls-5 {
        fill: #b20206;
      }

      .cls-6 {
        fill: #b10006;
      }

      .cls-7 {
        fill: #161936;
      }

      .cls-8 {
        fill: #fbf8f4;
      }

      .cls-9 {
        fill: #b30007;
      }

      .cls-10 {
        fill: #f88b57;
      }

      .cls-11 {
        fill: #9e000b;
      }

      .cls-12 {
        fill: #e8a6ab;
      }

      .cls-13 {
        fill: #9f010a;
      }

      .cls-14 {
        fill: #febd9d;
      }

      .cls-15 {
        fill: #01292d;
      }

      .cls-16 {
        fill: #fcf8f4;
      }

      .cls-17 {
        fill: #fefaf2;
      }

      .cls-18 {
        fill: #febc9c;
      }

      .cls-19 {
        fill: #9f0009;
      }

      .cls-20 {
        fill: #ae0104;
      }

      .cls-21 {
        fill: #fcf9f5;
      }

      .cls-22 {
        fill: #f4d9d9;
      }

      .cls-23 {
        fill: #b20207;
      }
    </style>
  </defs>
  <g id="Layer_1-2" data-name="Layer 1">
    <g>
      <path class="cls-15" d="M547.35,650.59c-10.31-.62-10.2-.63-11.03-10.89-2.16-26.66-4.59-53.31-6.61-79.98-2.31-30.41-2.06-60.79,2.5-91.03,1.37-9.12,1.42-8.99,10.77-7.49,4.74.76,9.56,1.23,14.36,1.38,6.03.2,9.32-2.71,9.83-8.82,1.21-14.57,2.15-29.16,3.23-43.74.38-5.13.86-10.26,1.29-15.38,1.25-1.36,2.92-1.59,4.57-1.37,9.22,1.26,18.5.45,27.74.73,1.82.05,3.65.07,5.26,1.12,1.33,1.24,1.52,2.91,1.58,4.57.61,15.24,1.25,30.47,2.08,45.7.07,1.32,0,2.66.05,3.98.38,10.08,2.92,12.35,12.95,12.62,15.84.42,31.42-2.06,47.08-3.64,2.7-.27,5.52-1.58,8.12.44,0,.92,0,1.85,0,2.77-.96,2.83.27,5.51.48,8.27.51,6.75,1.58,13.46,2.01,20.19,1.32,20.36,3.02,40.72,2.61,61.16-.47,23.24-1.07,46.48-2.68,69.67-.66,9.52-.49,19.12-2.08,28.58-.77.33-1.54.66-2.31.98-1.75,1.63-3.96,1.47-6.11,1.58-17.73.87-35.46,1.33-53.21.78-2.49-.08-4.98-.06-7.39.74-5.72.74-11.45.55-17.18.16-11.26-1.42-22.57-.33-33.85-.71-4.79-.16-9.65-.03-14.09-2.37Z"/>
      <path class="cls-9" d="M681.13,458.79c-18.73,2.48-37.45,4.88-56.43,4.93-10.73.03-12.85-4.08-13.3-13.07-.93-18.4-1.49-36.82-2.21-55.23-1.74-1.94-1.4-4.36-1.41-6.64-.04-18.77-.71-37.57.13-56.3,1.62-36.26,5.52-72.22,20.05-106.1,1.06-1.97,1.67-4.19,3.2-5.92,1.8-1.19,3.81-1.12,5.79-.8,10.9,1.79,21.23,5.48,31.39,9.66,1.51.62,3.06,1.39,3.74,3.1,7.09,3.6,13.93,7.61,20.39,12.27,11.72,8.45,15.01,21.18,17.76,34.27,6.07,28.9,12.18,57.79,18.37,86.67,2.75,12.85,1.57,25.82,1.27,38.75-.3,12.47-1.15,24.92-1.64,37.39-.52,13.46-.88,26.93-1.36,40.4-.05,1.47-.46,2.94-.7,4.4-11.27,2.86-22.56,1.74-33.85.13-1.04-.58-1.04-1.59-1.08-2.6-.66-18.59-1.56-37.18-1.95-55.77-.75-35.83-3.83-71.29-15.75-105.43-1.74,5.25-2.73,10.9-3.67,16.55-.95,5.7-1.54,11.46-2.64,17.13-4.05,20.97,4.03,40.06,9.05,59.63,3.07,11.94,6.21,23.86,9.39,35.77,1.54,5.79,1.39,6.1-4.55,6.8Z"/>
      <path class="cls-22" d="M690.18,887.9c.05.16.05.35.15.47.17.21.4.38.6.56-.3-6.09,4.1-5.01,7.65-4.85,20.84.94,41.7,1.58,62.44,4,.81.1,1.63.31,2.39.61,1.15.46,3.17.22,2.99,1.96-.17,1.64-2.06,1.19-3.32,1.44-12.85,2.64-25.91,3.14-38.95,4.02-17.39,1.17-34.79,1.62-52.2,2.2-7.78.26-15.58.33-23.36.73-16.6.85-33.26.33-49.81,1.25-15.14.85-30.24.36-45.35.71-93.01,2.11-186.04.92-279.05.75-23.92-.04-47.89.12-71.79-.99-12.63-.58-25.25-.13-37.85-.81-20.89-1.12-41.8-1.26-62.69-2.1-12.57-.51-25.15-1.22-37.72-1.94-9.06-.52-18.07-1.85-27.09-2.95-1.89-.23-3.72-1.02-6.4-1.78,5.03-3.75,10.22-3.35,14.86-3.91,10.34-1.25,20.78-1.77,31.2-2.2,22.05-.93,44.1-1.97,66.18-2.3,6.75-.1,13.57-.63,20.36-.72,7.22-.1,7.22-.02,8.64,6.88.02.1.25.21.38.2.15,0,.3-.13.45-.2,2.09-.29,3.9-1.3,5.74-2.22.37.56,1.31,2.55,1.06.08-.53-5.27,1.94-5.9,6.37-5.82,13.3.24,26.62.34,39.91.02,89.61-2.14,179.22-.35,268.83-1.01,4.9-.04,9.35-.57,7.7,6.59-.03.11.11.38.18.38.29,0,.58-.07.87-.12,17.46,2.62,34.82,4.12,51.54-3.72,5.41-2.54,11-4.68,16.81-6.08,4.34-1.05,5.4-.17,5.86,4.14.9,8.29,4.27,9.67,11.63,4.78,1.94-5.83,6.33-6.65,11.83-6.54,5.8.12,11.55,1.04,17.35.87,1.22-.04,2.26.45,3.03,1.43,1.52,7.84,1.52,7.97,10.02,7.83,9.63-.16,19.26.45,28.9-.68,4.9-.58,8.38-2.73,11.48-6.16,1.86-2.05,3.44-2.31,4.83.65,3.43,7.33,3.79,7.42,11.85,4.66.48-.17.97-.18,1.47-.12Z"/>
      <path class="cls-9" d="M229.71,145.07c-.53,23.91-8.93,43.47-24.9,59.84-7.41,7.6-15.01,15.03-20.08,24.59-3.2,6.04-5.17,12.46-6.71,19.05-.36,1.54-.69,3.29.58,4.76.31.36.31.98.61,1.35,3.01,3.75-3.43,6.38-1.32,9.6,2.24,3.42,2.72,6.32-.28,9.29-1.61,1.6.02,2.17.74,3.15,2.09,2.81,2.11,5.88-.57,8.01-2.56,2.05-3.81,4.37-4.69,7.45-1.47,5.08-5.47,7.7-10.52,8.67-2.4.46-3.87,1.53-5.27,3.73-7.28,11.43-23.56,11.08-30.47-.57-1.13-1.9-2.41-2.91-4.53-3.28-4.01-.7-7.15-3.09-9.01-6.47-1.99-3.62-3.23-7.46-6.37-10.6-3.15-3.16,2.01-6.54,1.47-9.04-.65-2.95-4.06-5.67-1.39-8.83,1.94-2.29,1.86-3.6-.05-5.52-1.28-1.28-1.66-3.35-.77-4.65,2.74-4.05,1-7.83-.03-11.75-3.43-13.05-10.78-23.66-20.45-32.78-12.22-11.53-21.92-24.62-27.02-40.91-14.74-47.14,16.31-98.48,64.97-107.17,42.57-7.6,81.09,11.68,98.68,49.45,4.96,10.65,7.13,21.94,7.38,32.63Z"/>
      <path class="cls-15" d="M672.08,232.43c-10.94-4.88-22.14-8.95-33.97-11.14-2.16-.4-4.26-.66-6.42-.19-2.28-.89-2.54-2.99-2.63-4.94-.58-12.69.49-25.23,3.77-37.54.74-2.78,2.45-5.07,4.14-7.35,2.93-3.96,4.76-8.4,5.43-13.25.93-6.69-2.99-11.45-9.73-11.62-6.52-.16-12.94-.85-19.22-2.55-10.17-2.75-17.75-8.92-22.65-18.17-1.75-3.3-3.09-3.77-5.75-.99-3.19,3.33-5.66,7.1-6.84,11.45-3.17,11.72-6.17,23.49-5.4,35.82.52,8.23,3.52,15.47,8.48,21.99,3.2,4.22,8.49,5.02,12.54,7.84.93,1.49.97,3.17,1,4.85-.43,5.25-.11,10.69-3.83,15.11-.53.33-1.05.3-1.54-.09-4.77-.98-8.97,1.6-13.48,2.2-5.61-.39-11.24.51-16.87-.86-10.54-2.58-17.93-10.94-18.73-21.71-.79-10.63,1.43-20.39,7.98-28.99.7-.92,1.21-2.01,1.98-2.86,9.29-10.29,12.65-22.25,12.08-36.12-.72-17.45,8.63-29.01,24.39-35.54,23.18-9.59,47.28-5.18,62.96,12.28,11.17,12.44,17.45,27.44,17.36,44.32-.05,9.69,2.55,17.78,8.79,25.08,4.73,5.54,9.04,11.51,11.13,18.63,4.1,13.96-1.25,26.05-14.97,34.34Z"/>
      <path class="cls-18" d="M547.35,650.59c16.03.53,32.07,1.06,48.1,1.59,2.01,1.38,2.53,3.47,2.46,5.69-.59,18.96,1.88,37.89.96,56.84-1.36,27.9-3.77,55.72-7.21,83.45-1.84,14.85-4.04,29.68-1.65,44.68-.14,1.71-1.38,2.6-2.69,3.32-15.24,8.42-30.23,17.35-46.77,23.13-2.67.93-5.44,1.73-8.17.13-.75-.44-1.13-1.19-1.08-2.1,5.48-5.29,10.76-10.81,16.49-15.82,7.99-6.99,11.12-15.63,9.39-25.88-1.36-8.08-.77-16.22-1.54-24.33-1.36-14.2-1.42-28.51-2.33-42.76-1.77-27.51-2.79-55.05-4.25-82.57-.36-6.84.52-13.88-1.57-20.62-.04-1.58-.09-3.17-.13-4.75Z"/>
      <path class="cls-18" d="M612.49,652.11c6.63-.22,13.25-.5,19.88-.66,15.6-.38,31.2-.7,46.8-1.05,2.31,9.52,3.08,19.28,4,28.98,2.68,28.13,3.65,56.37,2.8,84.59-.71,23.61-.5,47.21-.67,70.81-.02,2.16-.09,4.33.83,6.37.88,5.8-3.84,8.62-6.95,11.91-5.93,6.28-12.82,11.49-20.86,15-4.68,2.05-9.55,2.69-14.58,2.27-1.79-.15-3.8-.24-3.95-2.81,1.12-3.74,4.38-5.76,6.86-8.38,4.04-4.26,7.57-8.78,9.65-14.37,2.4-6.45.9-12.89-.06-19.22-6.12-40.61-13.1-81.08-19.64-121.62-2.3-14.28-4.72-28.54-6.66-42.88-.97-7.11-1.09-7.09-8.49-7.27-3.03-.07-6.37.99-8.96-1.67Z"/>
      <path class="cls-11" d="M150.87,461.55c-10.41-4.11-20.31-9.32-30.34-14.21-2.44-1.19-4.84-2.05-7.56-1.77-9.87,2.59-19.43,6.15-28.92,9.83-3.47,1.34-6.25,1.08-9.27-.91-13.4-8.83-26.87-17.57-40.3-26.36-1.81-1.18-3.82-2.35-3.41-4.99.36-2.26,2.19-3,4.1-3.85,9.8-4.33,19.48-8.92,29.31-13.18,2.67-1.16,3.63-2.56,3.58-5.51-.19-11.31-.07-22.63-.09-33.95,0-1.86-.16-3.75,1.9-4.72,1.82-.87,3.13.32,4.51,1.24,14.33,9.51,28.67,19,43,28.51,3.12,2.07,4.48,4.89,4.64,8.78.28,6.78,1.2,13.53,1.86,20.3-.36,7.22,2.25,11.9,9.34,15.26,8.99,4.26,17.14,10.27,25.66,15.53,1.07.75,2.21,1.43,3.12,2.35,2.19,2.19,1.81,3.56-1.17,4.3-1.07.27-2.59-.13-2.98,1.16-1.3,4.25-4.07,3.27-6.96,2.19Z"/>
      <path class="cls-1" d="M132.96,743.17c-10.47.95-20.42-1.48-29.91-5.42-24.14-10.01-35.91-29.9-41.99-54.02-1.25-4.96-1.85-10.08-2.74-15.12-.53-2.99.71-4.33,3.75-4.36,21.55-.21,41.4,5.29,58.81,18.17,6.3,4.66,9.75,11.71,12.4,18.94,4.22,11.48,6.03,23.39,5.66,35.63-.04,1.29.21,2.76-1.54,3.26-2.36-.02-3.42-1.84-4.57-3.42-7.01-9.71-15.77-17.86-23.93-26.56,4.82,6.55,10.2,12.65,15.33,18.95,2.52,3.09,4.88,6.29,7.29,9.46.98,1.3,2.15,2.61,1.45,4.49Z"/>
      <path class="cls-1" d="M150.98,822.04c-14.93,6.82-29.82,4.76-44.49-.68-14.65-5.44-24.45-16.76-33.41-28.91-2.66-3.61-5.2-7.29-7.28-11.29-1.41-2.69-.86-4.6,1.79-5.63,22.84-8.9,45.39-10.48,66.26,4.8,11.32,8.29,16.74,20.74,19.92,34.14.28,1.17.19,2.36-1.33,2.77-2.32,1.01-3.74-.82-5.34-1.82-6.35-3.94-12.21-8.67-19.07-11.8,7.25,4.47,14.16,9.42,20.71,14.86,1.11.92,2.57,1.7,2.25,3.56Z"/>
      <path class="cls-15" d="M531.3,867.32c1.85,2.61,4.4,1.78,6.79,1.25,7.02-1.56,13.4-4.75,19.72-8.01,10.55-5.45,21.01-11.08,31.51-16.63,2.72,1.06,3.25,3.62,3.98,5.96,3.19,10.27,1.09,20.4-1.18,30.46-.42,1.86-.71,3.92-1.78,5.64-1.73,3.46-9.16,5.76-12.62,3.83-2.3-1.28-1.29-3.56-1.3-5.4-.05-7.48-.01-7.54-7.26-5.16-3.61,1.19-7.38,2.2-10.64,4.04-15.97,9.04-33.41,6.67-50.53,6.92-2.46.04-3.41-1.63-4.41-3.36-.16-2.73.07-5.38,2.4-7.23,7.53-5.96,16.15-9.73,25.33-12.31Z"/>
      <path class="cls-14" d="M441.56,207.93c-8.52,2.51-17.14,4.62-25.92,6-5.46-8.98-9.67-18.56-12.62-28.6-2.66-9.03,6.4-20.86,17.09-22.33,3.51-.48,3.95-1.69,3.48-4.71-.79-5.07-1.22-10.19-1.81-15.28-.06-.5-.16-1-.13-1.49.14-2.79-.21-6.44,2.93-7.23,3.37-.85,4.59,2.72,5.59,5.26,2.64,6.68,3.26,13.84,4.33,20.86.58,3.8,1.5,7.12,4.04,10.36,3.83,4.89,3.28,11.31,3.92,17.19.62,5.65-.56,11.24-1.41,16.82-.17,1.15-.71,2.27.51,3.16Z"/>
      <path class="cls-15" d="M640.13,868.18c7.04,2.65,13.68.74,19.91-2.39,9.46-4.74,17-11.94,23.96-19.81,1.3-1.48.88-3.47,2.13-4.82,6.25,9.51,6.97,20.06,5.76,30.96-.58,5.26-1.14,10.52-1.71,15.78-2.65,4.84-7.43,3.3-11.12,2.92-5.37-.55-1.41-6.41-4.14-8.96-.03,0-.47-.06-.56.09-4.4,7.32-11.37,8.87-19.21,8.84-9.13-.04-18.27.2-27.4.23-6.96.02-8.46-2.14-6.47-8.98-.04-1.88,1.2-2.97,2.46-4.09,3.98-3.55,8.52-6.32,12.87-9.34,1.03-.72,2.19-1.7,3.53-.41Z"/>
      <path class="cls-18" d="M692.33,486.7c11.28-.04,22.56-.09,33.85-.13-5.27,1.8-4.38,5.94-3.49,9.81,3.11,13.67,4.35,27.18-2.35,40.27-2.95,5.77-6.03,11.44-9.96,16.61-1.6,2.1-3.63,4.04-6.26,2.9-2.8-1.22-3.12-4.05-2.3-6.87,2.88-9.88,3.55-19.86,1.44-29.98-.24-1.13-.3-2.33-1.71-2.99-.53,4.65-1.33,9.18-3.35,13.36-.74,1.54-1.31,3.99-3.65,3.25-1.88-.6-2.45-2.94-2.1-4.67,1.52-7.55.03-15.26,1.48-22.82.74-3.89.97-7.88,1.28-11.84.16-2.04.49-3.94,2.01-5.47-1.38-1.33-3.64.29-4.88-1.45Z"/>
      <path class="cls-20" d="M150.98,822.04c-8.16-7.71-17.88-13.36-26.64-20.37,10.7,2.8,18.77,10.32,28.09,15.56,6.14,5.48,12.45,10.78,18.66,18.09-6.08-34.54-17.33-65.33-38.14-92.15-6.94-10.75-15.55-20.17-23.73-29.94-.43-.51-.96-.94-1.31-1.49-.7-1.1-2.85-2.07-.95-3.61,1.79-1.45,2.45.83,3.52,1.59.66.47,1.09,1.24,1.67,1.83,8.94,9.11,17.12,18.88,25.24,28.7,13.3,18.91,24.57,38.83,30.79,61.3.9,3.26,1.89,6.5,3.16,9.73.53-6.18,1.56-12.19,3.35-18.06-.74-4.08,1.51-7.35,3.05-10.77,1.92-4.24,4.13-8.33,6.97-12.04.79-1.03,1.93-2,3.42-1.08,1.19.75,1.3,2.05.73,3.1-3.32,6.1-5.05,12.95-8.99,18.75-4.16,11.21-4.6,22.88-4.17,34.64.61,17.02,3.78,33.88,3.13,50.98-.13,3.31-.14,6.62-.21,9.93-.71,3.84-2.76,4.25-5.74,2.22,1.4-11.75.81-23.48.1-35.26-.44-7.32-2.53-13.46-7.7-18.63-4.57-4.57-9.01-9.27-14.32-13.03Z"/>
      <path class="cls-12" d="M179.89,791.19c1.16-6.23,4.18-11.72,6.83-17.37.6-1.28,2.94-2.95.94-4.04-1.63-.89-2.26,1.8-3.11,3.05-4.3,6.3-6.9,13.44-9.84,20.4-4.72-2.46-3.58-7.38-3.48-10.92.28-9.97,2.21-19.7,8.47-28.06,5.59-7.48,20.51-12.7,29.21-10.01,1.34.41,1.96,1.19,1.97,2.47.1,10,.08,20.13-5.94,28.7-6.05,8.63-14.94,13.32-25.06,15.78Z"/>
      <path class="cls-4" d="M241.83,36.93c.12.93-1.01,1.83-1.86,2.78-7.62,8.57-15.28,17.11-22.97,25.61-1.53,1.69-3.14,3.91-5.76,1.58-2.46-2.19-1.6-4.2.36-6.36,7.69-8.5,15.29-17.09,22.85-25.7,1.49-1.7,3.1-2.51,5.22-1.65,1.31.53,1.97,1.69,2.15,3.74Z"/>
      <path class="cls-5" d="M76.65,64.01c-.17,1.43-.94,2.61-2.33,3.41-2.19,1.26-3.45-.34-4.62-1.64-5.66-6.27-11.23-12.63-16.85-18.93-2.09-2.35-4.31-4.6-6.33-7.01-1.57-1.87-2.75-4.28-.54-6.14,2.29-1.93,4.43-.73,6.33,1.46,7.07,8.12,14.28,16.12,21.48,24.14,1.23,1.37,2.44,2.69,2.85,4.71Z"/>
      <path class="cls-6" d="M139.89,21.46c0-5.65.02-11.3-.01-16.95-.02-2.36.27-4.41,3.28-4.51,3.22-.1,3.75,1.88,3.74,4.56-.06,11.47-.08,22.94.02,34.41.02,2.71-.75,4.94-3.55,4.9-2.76-.03-3.58-2.25-3.52-4.96.14-5.81.04-11.63.04-17.45Z"/>
      <path class="cls-5" d="M251.11,129.75c-2.16.55-3.64-.61-4.2-2.45-.68-2.25.49-3.93,2.79-4.44,6.1-1.35,12.21-2.64,18.33-3.84,4.84-.95,9.75-1.56,14.56-2.66,2.64-.61,4.32.19,5.05,2.51.8,2.55-.7,4.3-3.08,4.76-11.13,2.13-22.3,4.1-33.45,6.12Z"/>
      <path class="cls-23" d="M37.36,130c-12.29-2.24-23.29-4.17-34.24-6.34-1.97-.39-3.61-2.02-2.99-4.44.54-2.12,1.94-3.43,4.36-2.95,10.79,2.14,21.57,4.32,32.37,6.43,2.61.51,3.67,1.97,3.22,4.56-.41,2.32-2.04,2.77-2.72,2.73Z"/>
      <path class="cls-7" d="M681.48,649.42c-.98-.07-1.96-.14-3.89-.28,1.89-1.04,3.89-1.09,3.63-3.11-.45-3.52,1.12-6.88.98-10.34-.38-9.63.6-19.23,1.27-28.76,1.92-27.48,2.17-54.98,1.61-82.47-.33-16.14-1.75-32.27-3.49-48.37-.51-4.71-2.92-9.64-.45-14.53,1.96,14.7,3.25,29.47,4.34,44.26,2.89,38.97,1.03,77.9-1.37,116.79-.53,8.61-.09,17.32-1.68,25.86-.07.36-.63.64-.96.96Z"/>
      <path class="cls-17" d="M166.71,454.53c28.6-56.75,74-92.48,136.25-104.38,56.48-10.8,108.11,2.78,153.24,38.77,33.15,26.43,55.42,60.27,65.53,101.59,6.14,25.06,7.64,50.54,2.81,76.01-15.29,80.58-62.88,133.04-141.89,152.96-69.41,17.5-131.16-1.21-181.68-52.69-28.52-29.05-45.29-64.31-51.18-104.67-4.7-32.17-.94-63.35,10.76-93.63.86-2.68,2.91-1.97,4.4-1.14,13.55,7.47,27.72,13.7,41.3,21.11.44.24.74.66,1.04,1.06,1.01,2.21-.01,4.24-.63,6.28-4.25,13.94-6.85,28.19-6.37,42.76,1.01,31.27,11.32,59.33,30.96,83.68,23.6,29.26,54.45,46.31,91.7,50.15,40.94,4.23,77.39-6.99,107.79-35.67,23.06-21.75,37.74-48.03,42.47-79.47,5.93-39.38-3.13-75.14-28.04-106.29-24.34-30.43-56.15-48.44-95.09-51.63-37.16-3.04-70.78,7.3-99.86,31.2-14.74,12.12-26.58,26.51-34.78,43.81-.78,1.64-1.52,3.36-3.2,4.36-1.81.61-3.15-.55-4.61-1.26-12.46-6.07-24.46-13.06-36.94-19.09-1.66-.8-3.94-1.23-3.97-3.83Z"/>
      <path class="cls-17" d="M589.46,221.66c.25.04.49.03.73-.03,1.33.81,1.32,2.2,1.48,3.49.18,1.48.42,2.94.87,4.37,3.67,11.58,10.02,13.85,20.15,7.13,5.37-3.56,10.79-7.05,15.4-11.62.31-.3.89-.49,1.31.03.18.23.17.52-.01.86-5.51,15.34-10.77,30.75-13.58,46.87-2.65,15.19-4.42,30.46-5.52,45.85-1.83,25.59-.7,51.2-1.09,76.8-12.51.09-25.02.43-37.5-.78,1.59-16.86,2.12-33.78,2.48-50.68.48-22.9.78-45.81,3.33-68.57,1.76-15.7,3.83-31.42,8.77-46.56.82-2.5,1.5-5.06,3.18-7.17Z"/>
      <path class="cls-9" d="M586.85,220.07c-3.8.71-7.93.6-10.88,3.79-.39.28-.75.7-1.19.83-16.71,5.02-32.36,12.35-46.87,21.99-18.34,12.17-36.62,24.44-54.68,37.01-4.2,2.92-5.04,1.6-6.29-2.36-7.17-22.57-14.29-45.15-20.55-68-.64-2.34-.34-6.21-4.83-5.42-6.88-.73-13.12,2.34-19.7,3.4-2.22.36-4.59.69-6.22,2.6-2.44,1.14-5.94.95-5.06,5.54,3.64,18.98,6.88,38.04,10.6,57,2.42,12.38,5.41,24.66,8.2,37.24-23.03-9.28-46.72-14.96-71.18-16.82-26.27-1.99-52.39-.36-78.08,5.87-52.2,12.67-95.41,39.86-130.15,80.75-9.87,11.61-18.04,24.38-26.1,37.24-2.14,5.33-.89,10.93,3.73,13.4,10.58,5.64,20.25,12.78,30.9,18.27,2.86,1.05,5.41,3.28,8.81,2.32,1.19-.74,1.8-1.92,2.42-3.11,11.29-21.59,25.61-40.74,44.18-56.76,33.65-29.02,72.61-44.67,116.86-46.68,22.27-1.01,44.21,2.25,65.37,9.36,32.03,10.78,59.4,28.76,82.02,54,13.12,14.64,23.78,30.87,31.8,48.72,14.26,31.73,18.43,65.01,14.23,99.46-5.9,48.35-27.8,88.28-64.69,119.56-41.95,35.57-91.1,49.8-145.48,43.15-48.76-5.96-89.33-28.35-120.92-66.31-26.28-31.59-40.82-68.08-43.6-108.94-1.58-23.23,1.24-46.19,8.87-68.39,1.13-3.29,2.64-6.48,3.09-9.99-.18-2.74-1.84-4.35-4.16-5.46-2.03-.97-4.21-1.61-6.16-2.76-10.08-4.94-20.29-9.61-30.36-14.57-2.46-1.21-5.06-2.77-7.81-.48-.02.49.1,1.03-.07,1.46-8.83,22.6-14.29,45.92-16.21,70.18-2,25.23-.12,50.09,5.88,74.57,12.76,52.04,39.87,95.31,81.42,129.11,51.45,41.85,110.19,61.16,176.71,55.41,25.4-2.19,49.79-8.31,73.06-18.59,49.06-21.67,86.76-56.08,113.72-102.36,1.49-1.74,1.32-3.52.08-5.3-.55-.4-1.13-.72-1.78-.87q-7.31-1.74-7.85-9.5c-.05-.66-.11-1.32-.18-1.99-3.2-31.9-5.66-63.87-7.47-95.86-1.41-25.06-.05-50.15,3.58-75.07.58-4.01,2.34-5,5.96-4.46,4.76.71,9.51,1.65,14.34,1.81,10.46.36,14.59-3.53,14.81-14.06.16-7.48,1.24-14.9,1.64-22.35.59-10.95,2.18-21.81,2.37-32.78.37-1.95.89-3.87.96-5.89.79-22.07,1.99-44.11,2.24-66.21.16-14.08.81-28.21,2.38-42.25,2.21-19.67,5.01-39.23,11.29-58.11-.03-2.01-1.43-2.66-2.99-2.37ZM534.79,396.09c-16.76-22.63-36.88-42.18-60.71-58.91,22.44-7.84,43.46-17.18,63.73-28.54,2.66,29.52,4.66,58.66-3.02,87.45Z"/>
      <path class="cls-13" d="M206.67,489.59c-14.1-6.24-27.59-13.71-41.39-20.54-1.4-.69-2.89-2.82-4.73-.55-.71-2.6-2.79-3.73-5.06-4.59-1.63-.62-3.46-.81-4.61-2.35,2.34-.28,5.33,1.46,5.43-3.56.06-3.02,3.8-.5,6.11-1.01.03-2.65-2.9-3.36-3.55-5.44,2.61.99,5.23,1.99,7.84,2.98,13.4,7.06,26.8,14.1,40.19,21.17,1.59.84,3.12,1.81,4.68,2.71,1.12-.64,2.22-.5,3.32.05,11.56,5.75,22.73,12.21,34.23,18.08.74.38,1.24,1.08,1.66,1.81,3.39,7.79,4.18,8.31,12.61,8.16,2.09-.04,4.26.1,4.7,2.58.44,2.46-1.56,3.51-3.48,4.15-2.92.98-5.95.91-8.77-.31-2.85-1.23-5.75-1.4-8.75-1.19-3.73-.46-6.83-2.52-10.04-4.19-8.68-4.51-17.74-8.3-26.1-13.44-1.87-1.15-3.4-2.51-4.29-4.53Z"/>
      <path class="cls-18" d="M629.39,225.9c-4.87,4.47-10.32,8.17-15.8,11.83-13.03,8.7-19.96,3.49-23.21-11.65-.31-1.43-.13-2.96-.19-4.44,2.6-4.56,2.67-9.72,3.52-14.7,5.02-.82,10.39-.69,14.17-5.3-4.88-.08-9.6,3.21-14.42.37-13.07-2.15-18.14-11.86-20.97-23.07-3.14-12.46.09-24.63,2.58-36.86,1.92-9.44,6.25-17,14.06-22.93,1.82,3.86,3.4,7.79,6.07,11.2,8.86,11.3,21.29,14.83,34.55,14.21,11.5-.54,16.91,7.07,12.98,18.64-1.02,3.01-2.67,5.66-4.3,8.37-9.32,15.53-8.84,32.43-6.74,49.54-.46,1.75-.96,3.48-2.31,4.8Z"/>
      <path class="cls-2" d="M126.91,214.04c0,10.15-.09,20.3.05,30.45.04,2.94-.26,4.42-3.91,4.29-7.46-.25-7.49.02-9.49-7.2-3.92-14.13-11.86-25.79-22.34-35.77-11.31-10.77-20.69-22.69-25.39-37.93-13.56-44,16.55-91.12,62.14-98.03,45.67-6.92,79.63,20.8,90.08,52.83,9.51,29.16,2.23,54.77-18.47,76.8-7.73,8.23-15.96,15.96-21.33,26.11-3.42,6.47-5.97,13.23-7.38,20.41-1.1,5.6-5.31,1.77-7.95,2.62-2.66.85-2.78-1.25-2.78-3.26-.07-20.8-.12-41.6-.34-62.4-.03-2.9.91-3.76,3.65-3.59,1.97.12,3.98-.26,5.97-.4,6.7-.47,11-4.24,13.35-10.23,2.49-6.34.98-12.16-3.62-16.96-4.49-4.69-10.03-6.19-16.35-4-6.38,2.22-9.54,7.19-9.91,15.58q-.39,8.98-9.67,8.79c-2.83-.06-6.23.78-8.33-.5-2.41-1.47-.54-5.2-1.09-7.88-.46-2.27-.64-4.62-1.33-6.82-1.72-5.41-5.06-9.22-11.02-10.07-7.01-.99-12.86.78-16.7,7.14-3.26,5.4-2.72,13.11.99,18.27,4.17,5.79,10.09,7.2,16.65,6.63,3.81-.33,4.71.96,4.61,4.66-.27,10.14-.09,20.3-.09,30.45Z"/>
      <path class="cls-16" d="M152.88,214.19c0,10.32-.1,20.64.07,30.96.05,2.84-.78,3.74-3.61,3.55-3.81-.25-7.67-.33-11.48-.02-3.33.27-3.74-1.13-3.73-4.01.06-20.31.04-40.62-.22-60.93-.05-3.65,1.07-4.55,4.44-4.15,4.72.56,11.1-1.9,13.78,1.13,2.34,2.65.71,8.86.74,13.49.05,6.66.01,13.32.01,19.98Z"/>
      <path class="cls-21" d="M121.16,171.88c-7.83-.02-12.11-4.09-11.19-10.95.56-4.21,2.94-6.88,7.5-7.09,4.78-.21,7.61,1.92,8.4,6.45.29,1.63.42,3.28.7,4.91q1.15,6.69-5.41,6.67Z"/>
      <path class="cls-8" d="M164.87,171.88c-5.26,1.98-5.5-1.5-4.99-5.66.2-1.63.41-3.27.76-4.88,1.14-5.24,4.15-7.9,8.19-7.32,4.59.65,8,4.81,7.77,9.45-.23,4.5-3.73,8.1-8.19,8.4-.99.06-1.99,0-3.53,0Z"/>
      <path class="cls-10" d="M593.47,201.99c5.95.06,11.73-1.07,17.81-3.32-3.57,7.34-10.45,10.34-17.56,8.25-.08-1.65-.17-3.29-.25-4.94Z"/>
      <path class="cls-9" d="M206.67,489.59c12.53,8.57,26.36,14.65,40.1,20.91,2.89,1.01,6.04,1.69,6.82,5.38-.8,7.75-1.71,15.47-1.49,23.32.62,21.22,8.33,39.37,22.73,54.91,14.25,15.37,31.48,24.75,52.36,27.26,25.05,3.01,47.07-4.04,66.15-20.29,16.35-13.93,26.57-31.56,29.24-52.92,3.36-26.87-3.78-50.72-22.55-70.7-13.68-14.56-30.26-24.05-50.06-26.76-26.12-3.57-49.39,3.23-69.14,21.17-9.49,8.62-16.98,18.66-22.38,30.27-3.54.34-6.58-.52-8.7-3.61-12.73-6.69-25.46-13.39-38.18-20.08,7.71-16.36,17.77-31.05,31.17-43.31,20.52-18.77,44.29-31.08,71.85-35.49,50.08-8.02,92.28,7.33,126.51,44.23,18.41,19.84,29.38,43.62,33.47,70.54,6.29,41.4-4.32,78.19-30.58,110.36-21.64,26.51-49.62,43.46-83.57,48.25-49.05,6.92-91.59-7.23-125.35-44.1-20.54-22.43-32.14-49.21-35.37-79.67-2.09-19.69.61-38.6,6.8-57.2.25-.75.11-1.62.16-2.44Z"/>
      <path class="cls-19" d="M252.59,515.5c-1.14-2.61-4-3.21-5.83-5.01,3.46-.37,6.77-.37,10.06,1.38,2.36,1.26,5.18.96,7.73.11,1.32-.44,3.24-.99,2.68-2.92-.51-1.75-2.31-1.83-3.77-1.29-3.4,1.26-6.32.71-9.35-1.29-2.99-1.98-3.57-4.96-4.35-7.98,2.66,1.33,5.33,2.66,7.99,3.99,2.53-1.57,4.45.33,6.42,1.28,12.87,6.17,25.96,11.84,39.02,17.6,7.9,3.1,15.44,6.99,23.17,10.45,3.21,1.43,6.12,3.39,8.38,6.14,1.79,2.17,2.82,4.65,1.4,7.36-1.39,2.66-3.98,3.32-6.79,3.32-1.35,0-2.63-.36-3.88-.83-7.92-3.02-15.67-6.48-23.84-8.8-1.17-.33-1.91-1.3-2.89-1.91-13.83-7.03-28.25-12.79-42.14-19.68-1.32-.66-2.58-1.47-4.01-1.91Z"/>
      <path class="cls-17" d="M302.77,522.5c-14.39-6.45-28.78-12.9-43.17-19.34-.59-.27-1.23-.44-1.84-.66,2.03-8.64,7.36-15.46,12.78-22.04,14.86-18.04,34.07-29.11,57.24-31.66,45.74-5.03,84.76,25.92,94.58,66.55,11.39,47.12-16.61,92.94-63.47,105.46-46.1,12.32-95.99-18.23-106.18-64.87-2.96-13.52-2.61-26.95-.11-40.43,1.61-2.55,3.01,0,4.04.48,14.33,6.59,28.47,13.63,43.13,19.5,1.99,4.2,2.31,8.91,4.08,13.17,5.27,12.71,14.57,20.67,28.3,22.23,15.35,1.74,27.83-3.67,35.86-17.34,7.56-12.87,6.86-25.79-1.24-38.12-14.07-21.4-46.15-20.62-59.52,1.28-1.27,2.08-1.9,4.7-4.47,5.79Z"/>
      <path class="cls-3" d="M302.77,522.5c7.05-16.41,21.35-25.33,38.44-23.97,14.68,1.16,27.81,12.36,31.98,27.28,5.78,20.67-7.89,42.49-29.13,46.52-20.9,3.96-40.82-10.42-43.53-31.42-.23-1.81-.5-3.61-.75-5.42,2.13,3.76,6.5,2.96,9.7,4.59,5.27,2.69,11.06,4.37,16.59,6.56,3.39,1.34,6.95,1.56,8.97-1.6,2.09-3.27-.49-5.88-3.04-7.94-7.33-5.95-16.57-8.19-24.7-12.58-1.45-.78-3.02-1.35-4.53-2.02Z"/>
    </g>
  </g>
</svg>