<?xml version="1.0" encoding="UTF-8"?>
<svg id="Layer_2" data-name="Layer 2" xmlns="http://www.w3.org/2000/svg" viewBox="0 0 638.89 873.58">
  <defs>
    <style>
      .cls-1 {
        fill: #a70104;
      }

      .cls-2 {
        fill: #820000;
      }

      .cls-3 {
        fill: #fcb086;
      }

      .cls-4 {
        fill: #a70004;
      }

      .cls-5 {
        fill: #c21e26;
      }

      .cls-6 {
        fill: #c21e27;
      }

      .cls-7 {
        fill: #fdaf84;
      }

      .cls-8 {
        fill: #930000;
      }

      .cls-9 {
        fill: #ad0004;
      }

      .cls-10 {
        fill: #01292d;
      }

      .cls-11 {
        fill: #830000;
      }

      .cls-12 {
        fill: #feaf84;
      }
    </style>
  </defs>
  <g id="Layer_1-2" data-name="Layer 1">
    <g>
      <path class="cls-5" d="M332.93,576.92c-.11-2.65-.31-5.3-.31-7.95-.01-60.53-.02-121.06.04-181.58,0-1.86-.93-4.02,1.01-5.58,4.81.52,9.58-.36,14.39-.35,47,.08,94,0,141,.11,3.92,0,7.92-1.36,11.81.33,1.71,2.14,1.43,4.71,1.44,7.18.06,8.99.02,17.97.02,26.96,0,148.11,0,296.22,0,444.33,0,3.96-.49,8.05,2.49,11.37-.96.31-1.91.61-2.87.92-1.77.73-3.62.37-5.43.37-41.25.02-82.5,0-123.75.04-4.13,0-8.55.77-7.8-5.74.04-.36-.54-.81-.83-1.22-1.36-3.01-.93-6.22-.93-9.35-.02-89.44-.02-178.88-.03-268.33,0-2.81.3-5.66-.59-8.4-1.29-2.14-3.39-1.68-5.33-1.64-6.1.13-12.2.08-18.31.03-2.1-.02-4.34.25-6.04-1.5Z"/>
      <path class="cls-6" d="M364.94,866.58c1.15-.41,2.3-.81,3.6-1.27q-2.9,7.26,4.93,7.26c42.83.03,85.66.06,128.49.1-1.62,1.29-3.53.69-5.3.69-98.87.03-197.74,0-296.61.02-64.75,0-129.5.01-194.25.2-4.54.01-5.82-1.06-5.81-5.72.15-59.09.1-118.18,0-177.27,0-3.19.48-5.28,4.23-4.9,4.09,1.27,8-.67,12.08-.62,19.45.25,38.91.19,58.36.09,14.63-.07,29.3-.43,43.88.3,17.74.88,35.4-.95,53.11-.3,7.96.3,8.8.96,8.81,8.99.04,54.54-.02,109.08.04,163.61.15,3.3.15,6.62-.09,9.91-.2,2.64.78,3.56,3.35,3.49,5.11-.14,10.23.19,15.24-1.43,2.46-.79,5.1-1.64,7.71-.2,2.78,2.15,6.05,1.4,9.12,1.41,36.54.06,73.09.04,109.63.05,2.49,0,4.98-.11,7.46.11,11.01.95,21.57-1.35,32.01-4.5Z"/>
      <path class="cls-10" d="M107.36,637.22c-2.48-1.11-3.03-3.05-2.94-5.66,1.45-41.18,2.08-82.38,3.87-123.55.92-21.24.49-42.53.69-63.8.19-19.73-.58-39.53,4.25-58.92,1.15-7.74,4.81-14.14,10.45-19.49,2.31-1.09,4.57-.33,6.83.15,19.76,4.18,39.59,3.49,59.46,1,2.24-.28,4.53-1.43,6.72.19,12.72,10.18,26.91,18.17,40.46,27.12,9.96,6.57,20.14,12.79,29.77,19.87,8.18,6.02,12.06,13.68,10.87,24.01-1.7,14.69-4.67,29.16-7.52,43.63-3.29,16.74-6.63,33.48-10.87,50.03-.67,2.61-1.87,3.88-3.78,5.1-1.42,1.17-2.9,2.25-4.83,2.35-7.49.37-14.9.09-21.94-2.93-1.99-4.16-2.33-8.67-2.25-13.12.37-22.11.52-44.23,3.26-66.22.73-5.86.69-5.87-4.98-7.73-16.28-5.35-32.59-10.6-48.9-15.87-5.84-1.88-6.31-1.35-7.37,4.75-4.98,28.7-8.56,57.6-12.57,86.43-2.95,21.25-5.51,42.56-8.5,63.81-2.06,14.66-4.21,29.32-6.75,43.91-.63,3.61-1.18,7.4-5.58,8.64-7.43,1.08-14.71-.66-22.07-1.11-2.21-.13-3.96-1.47-5.78-2.58Z"/>
      <path class="cls-11" d="M504.83,871.75c-4.2.32-4.13-2.38-4.13-5.44.05-85.52.05-171.03.04-256.55-.01-75.87-.05-151.73-.08-227.6.92-1.33,2.37-1.76,3.8-2.06,7.52-1.53,14.58-4.78,22.19-5.92,4.32-1.07,5.62.47,5.61,5-.08,160.81-.03,321.62.06,482.43,0,2.83-.34,4.45-3.68,5.09-7.96,1.55-15.72,4.1-23.82,5.04Z"/>
      <path class="cls-9" d="M196.71,367.14c-23.44,4.24-46.84,5.2-70.19-.68-.89-.22-1.93.15-2.9.24-1.69-.18-1.83-1.64-2.35-2.79-.66-2.8-.39-5.59-.08-8.42,1.3-11.72,2.01-23.48,2.6-35.25.05-1,.08-2.01-.05-2.99-.21-1.58.39-3.77-1.43-4.41-1.48-.52-2.55,1.27-3.6,2.27-3.01,2.87-5.84,5.92-8.86,8.78-3.4,3.22-4.33,6.67-2.57,11.21,2.41,6.21,5.02,12.31,8.22,18.15.96,1.75,2.03,3.44,2.45,5.44-.87,6.47-6.52,11.95-13.82,13.41-3.38-.55-4.68-3.59-6.46-5.81-7.49-9.32-14.08-19.27-19.86-29.76-3.5-6.35-3.6-12.5-.62-18.99,4.52-9.84,10.43-18.86,16.07-28.04,2.07-1.26,3.86.02,5.64.72,14.11,5.57,26.36,2.67,36.93-8,3.97-4.01,8.19-7.79,11.57-12.36,1.94-2.61,4.8-4.08,7.54-5.62,7.39-4.16,13.49-9.65,17.81-17.01.84-1.44,1.79-2.82,3.43-3.49,2.33-.49,4.71-.05,6.93.34,11.38,2.02,21.56-2.57,32.06-5.46,4.81-1.33,9.43-3.3,14.28-4.48,3.05-.74,2.77-2.02,1.24-4.13-4.78-6.59-9.33-13.36-14.73-19.49-1.63-1.84-3.63-3.5-3.92-6.22.43-5.03,2.97-9.1,5.94-12.96,1.78-2.31,3.97-3.53,6.92-2.04,14.97,11.28,28.26,24.23,39.39,39.34.88,1.2,1.74,2.43,2.55,3.68,5.35,8.36,4.97,12.15-2.77,18.32-15.29,12.19-32.34,21.59-50.24,29.2-7.83,3.33-10.56,7.27-10.26,15.91.56,16.3-2.77,32.43-4.74,48.6-.92,7.59.16,15.34-2.12,22.78Z"/>
      <path class="cls-9" d="M526.66,374.18c-8.31,3.81-17.01,6.35-25.99,7.97-4.72,1.22-9.54.95-14.34.95-49.04,0-98.09.02-147.13,0-1.88,0-4.06.78-5.51-1.29,7.88-2.38,15.78-4.74,23.65-7.16,2.44-.75,4.91-.75,7.41-.75,20.14,0,40.27-.1,60.41.1,3.94.04,4.96-1.02,4.96-4.97-.11-118.99-.09-237.98-.09-356.97,0-1-.02-2,0-3,.04-1.52.88-2.54,2.28-2.91,1.16-.31,2.69-.14,3.13.95,1.52,3.72,4.78,2.96,7.62,3.23,17.36,1.69,34.02-1.84,50.6-6.45,12.91-3.59,26.06-5.35,39.43-2.36,8.31,1.85,8.88,2.56,8.87,10.8,0,4.16.11,8.33-.07,12.48-.08,1.81.83,2.71,2.05,3.59-1.31,7.57-.64,15.2-.71,22.81-.11,12.92.08,25.84-.09,38.75-.07,5.85-.99,6.48-6.43,4.44-3.35-1.26-6.86-1.02-10.25-1.71-4.21-2.12-8.5-.73-12.56.17-13.6,3.02-26.84,7.47-40.63,9.79-10.73,1.81-21.48,2.69-32.26,1.16-3.97-.56-5.05.15-5.04,4.3.1,69.03.05,138.06.03,207.09,0,18.13.09,36.26-.09,54.39-.04,3.55.98,4.42,4.45,4.41,26.78-.15,53.56-.1,80.34-.09,1.99,0,3.97.19,5.96.28Z"/>
      <path class="cls-10" d="M175.99,244.53c-5.46,9.87-13.16,17.37-23.25,22.48-3.48,1.76-5.49,5.25-8.1,8.01-4.33,4.57-8.49,9.29-13.62,13.07-9.92,7.32-20.57,7.42-31.7,3.68-2.04-.69-4.03-1.51-6.05-2.27-15.43-9.25-17.27-27.67-4.03-39.88,4.22-3.89,9.17-6.63,14.26-9.03,12.2-5.76,17.9-15.78,19.53-28.67.65-5.11,1.49-10.21,1.99-15.33,1.3-13.39,12.82-26.14,29.21-28.49,9.71-1.39,19.22-.4,28.2,4.07,2.62,1.31,4.43,3.45,6.48,5.36,2.55,2.03,2.66,4.9,2.31,7.7-.58,4.66-2.26,8.95-5.02,12.8-1.54,2.15-3.65,3.14-6.16,3.78-5.47,1.41-7.35,5.11-5.63,10.54.2.63.37,1.29.72,1.85,4.47,7.11,4.78,14.97,4.21,23.01-.39,2.77-1.22,5.34-3.33,7.32Z"/>
      <path class="cls-8" d="M526.46,92.67c5.42-3.26,10,.17,15.19,2.15,0-14,0-27.69,0-41.39,0-6.95,0-13.9,0-20.86,0-1.8-.32-3.8,2.28-4.2,19.96,8.4,40.56,7.51,61.35,4.27,7.72-1.2,15.49-2.31,23.33-1.01,1.43.24,3.29.07,3.69,1.88.32,1.45-1.2,2.23-2.1,3.15-9.8,9.95-19.68,19.85-27.95,31.16-4.1,5.61-3.96,5.65,1.92,9.56,12.41,8.26,23.21,18.32,32.71,29.78.86,1.04,2.68,2.14,1.77,3.75-.75,1.33-2.44.41-3.69.34-11.76-.65-23.14,2.12-34.6,3.92-21.35,3.35-42.63,4.78-63.86-.7-.16-.04-.33-.04-.49-.08-9.36-2.28-9.72-2.71-9.73-12.26,0-3.16.13-6.31.2-9.47Z"/>
      <path class="cls-1" d="M332.93,576.92c9.08,0,18.16-.03,27.24.02,1.56,0,3.35-.62,4.6,1-6.14,4.39-13.61,5.19-20.54,7.33-7.57,2.34-7.73,2.07-7.73,10.23,0,88.37,0,176.75,0,265.12,0,2.5.19,5.01-.21,7.48-.24,1.5-.09,3.53-2.58,3.44-2.19-2.97-1.42-6.41-1.42-9.67-.04-87.34-.03-174.68-.04-262.02,0-12.49.85-11.28-11.31-11.29-48.24-.04-96.49,0-144.73-.05-3.08,0-6.38.74-9.07-1.63-.44-2.27,1.37-2.76,2.83-3.33,17.61-6.85,35.86-8.63,54.55-6.7,1.39.41,2,1.55,2.73,2.71,2.48,3.92,7.49,4.29,10.16.46,1.59-2.28,3.22-2.9,5.37-1.64,6.26,3.67,13.1,3.19,19.92,3.16,4.32-.02,8.65-.23,12.95.52,4.3.76,7.89-.42,10.4-4.2,13.95.06,27.91.15,41.86.14,1.69,0,3.71.86,5.03-1.08Z"/>
      <path class="cls-4" d="M179.13,858.57c-.02-55.03-.04-110.06-.06-165.1,0-6.68-.01-6.84-6.75-6.65-10.94.31-21.92.51-32.81.47-23.99-.1-47.99-.49-71.99-.49-17.62,0-35.25-.06-52.87.05-4.09.03-8.17.63-12.56,1,.89-.9,1.52-1.54,2.15-2.17,8.02-2.54,16.02-5.15,24.08-7.56,1.7-.51,3.6-.42,5.41-.42,23.38-.04,46.77-.06,70.15-.08,2.01,3.38,4.36,8.04,8.74,5.41,5.56-3.34,10.05-1.02,15.24-.09,6.67,1.19,13.56.39,20.35.34,4.19-.03,4.45-3.83,6.3-6.14,3.52-1.44,7.2-.74,10.83-.82,12.71.36,25.35-1.66,38.06-1.08,2.45.11,5.43-.75,6.78,2.51-5.53,4.43-12.66,4.69-18.91,7.26-1.22.5-2.53.85-3.84,1.06-4.46.71-6.14,3.39-5.81,7.72.14,1.82.01,3.65.01,5.48,0,50.34.03,100.69-.07,151.03,0,2.85,1.34,6.41-2.45,8.27Z"/>
      <path class="cls-12" d="M178.34,236.84c.69-8.15-.83-15.67-4.91-22.96-3.6-6.45-.35-12.02,6.93-13.26,2.18-.37,3.59-1.61,4.74-3.3,4.12-6.04,6.13-12.5,3.79-19.79,8.72-1.8,17-.37,24.66,3.99,3.97,2.26,7.58,5.17,11.35,7.79-3.94-.72-5.45,2.29-7.29,4.76-2.3,3.07-3.94,6.46-4.67,10.25-3.39.23-4.72-2.7-6.72-4.49-3.43-3.07-6.57-6.49-11.8-7.51.55,4.82,1.97,9.05,3.27,13.27,1.61,5.18,2.08,10.44,1.49,15.77-.98,8.81-6.2,12.96-14.88,11.75-2.44-.34-3.83,0-4.32,2.56-.14.72-.45,1.68-1.63,1.19Z"/>
      <path class="cls-10" d="M154.24,677.56c1.48,4.58-.85,7.04-4.99,6.96-9.84-.2-20,2.27-29.37-2.88-.79-.43-1.94-1.31-2.47.13-2.3,6.21-7.36,2.96-10.92,2.67-3.2-.26-1.62-4.5-2.6-6.82-1.19-8.16-1.05-16.19,2.26-23.93,4.75-2,8.65.4,12.38,2.7,3.35,2.06,6.57,4.37,9.77,6.67,3.48,2.49,7.23,3.83,11.54,3.45,6.98.84,10.95,5.62,14.41,11.06Z"/>
      <path class="cls-10" d="M286.04,577.87c.94,2.26.46,3.88-2.05,4.6-.48.14-.96.45-1.42.43-12.93-.53-26.12,2.38-38.71-2.67-2.52-1.01-4.55-3.31-5.71,1.81-.85,3.73-5.12,1.44-7.84,1.85-1.88.29-3.74-.14-4.09-2.57-.19-1.31-.14-2.68-1.2-3.7-2.72-7.01-1.93-13.9.69-20.73,2.49-2.62,5.1-1.47,7.7-.21,5.35,2.6,10.45,5.68,15.59,8.65,7.4,4.28,15.41,4.33,23.51,4.29,4.51,2.75,9.03,5.5,13.54,8.25Z"/>
      <path class="cls-7" d="M272.49,569.62c-12.61,3.57-22.91-2.01-33.25-8.08-3.67-2.15-7.02-5.76-12.04-4.71-1.53-1.38-.88-3.13-.59-4.67,1.02-5.35,1.24-10.84,2.75-16.11,8.72,1.25,17.44,2.65,26.26.85-1.22,6.16-2.36,12.32-3.08,18.58-.27,2.31.83,3.44,2.09,4.66,5.03,4.87,10.56,8.85,17.86,9.48Z"/>
      <path class="cls-7" d="M140.04,667.65c-7.12,1.63-11.95-2.98-16.93-6.6-5.17-3.76-10.31-7.18-16.96-7.36.48-3.91.85-7.83,1.5-11.71.28-1.67.62-3.22-.29-4.76,9.02,1.92,18.21,2.21,27.36,2.77-1.71,3.23-3.06,6.48-3.81,10.18-1.17,5.73.49,9.64,5.14,12.81,1.67,1.14,3.95,2.02,3.99,4.66Z"/>
      <path class="cls-3" d="M122.3,364.03c1.13.55,1.02,1.71,1.32,2.67-4.56,5.58-7.39,12.13-10.39,18.58-3.03-4.39-6.07-8.79-9.1-13.19,5.33-3.29,11.06-6.17,13.08-12.84,3.22-.04,2.15,4.51,5.09,4.77Z"/>
      <path class="cls-2" d="M333.93,871.59c1.69-1.86.91-4.14.91-6.21.04-90.99.09-181.99-.09-272.98-.01-5.02,1.64-7.02,6.21-8.1,8-1.88,15.89-4.21,23.82-6.36.03,74.57.05,149.14.09,223.72.01,21.64.05,43.28.08,64.92-.12,2.03-1.84,2.13-3.19,2.5-9.08,2.45-18.24,4.33-27.74,3.42-.31-.18-.42-.37-.34-.58.08-.22.17-.33.26-.33Z"/>
      <path class="cls-6" d="M333.93,871.59c-.03.31,0,.61.08.91-41.18.02-82.37.05-123.55.07-2.09,0-4.63.57-4.42-2.94,3.09-3.06,3.42-6.87,3.42-10.99-.07-57.98-.04-115.96-.04-173.94,0-2.32-.26-4.66.61-6.9-7.58-2.11-15.39-1.3-22.94-.68-7.42.61-14.78.43-22.17.6-1.67-1.95-1.45-4.35-1.45-6.65-.04-26.06-.1-52.12.1-78.17.02-2.54-1.85-6.83,3.51-7.05,1.6,1.83,3.74,1.03,5.64,1.03,51.77.04,103.54.1,155.3-.08,4.91-.02,5.99,1.45,5.99,6.16-.13,92.88-.08,185.76-.07,278.65Z"/>
      <path class="cls-11" d="M210.03,677.79c1.61,1.49.93,3.44.93,5.18.03,60.14-.02,120.27.13,180.41,0,4.02-1.36,5.78-5.05,6.24-7.84,2.07-15.73,3.59-23.91,3.07-2.27-.15-3.62-.13-3.2-3.21.5-3.57.17-7.26.2-10.9,1.61-1.7.89-3.81.89-5.72.04-53.43.11-106.86-.09-160.29-.02-5.11,1.76-6.84,6.42-7.94,6.87-1.62,13.73-3.55,20.25-6.43,1.01-.44,2.28-.28,3.43-.4Z"/>
    </g>
  </g>
</svg>