<?xml version="1.0" encoding="UTF-8"?>
<svg version="1.1" xmlns="http://www.w3.org/2000/svg" width="1000" height="250">
<path d="M0 0 C330 0 660 0 1000 0 C1000 82.5 1000 165 1000 250 C670 250 340 250 0 250 C0 167.5 0 85 0 0 Z " fill="#FEFEFE" transform="translate(0,0)"/>
<path d="M0 0 C62.9421797 0 62.9421797 0 80.75 16.72265625 C93.75342896 29.88411299 98.236593 46.00227525 98.1809082 64.07714844 C98.09919109 69.34882364 97.65432025 74.00257424 96 79 C95.67 80.01578125 95.34 81.0315625 95 82.078125 C89.84412269 96.66383056 79.96404158 109.76637486 66 117 C42.92527662 126.39798336 30.70444458 123 0 123 C0 82.41 0 41.82 0 0 Z " fill="#A5020E" transform="translate(261,58)"/>
<path d="M0 0 C32.67 0 65.34 0 99 0 C99 6.93 99 13.86 99 21 C73.26 21 47.52 21 21 21 C21 31.56 21 42.12 21 53 C24.58875 52.84917969 28.1775 52.69835937 31.875 52.54296875 C35.36654739 52.44146892 38.85792818 52.36260593 42.35009766 52.28588867 C44.76979584 52.22066203 47.18898442 52.13205054 49.60693359 52.01928711 C69.19015792 51.12914055 69.19015792 51.12914055 73.85839844 54.23736572 C77.07499693 57.65907395 78.4906193 61.5831682 80 66 C80.99190114 67.6714993 81.98981359 69.33948767 83 71 C83 71.66 83 72.32 83 73 C62.21 73 41.42 73 20 73 C20 83.23 20 93.46 20 104 C46.07 104 72.14 104 99 104 C99 110.6 99 117.2 99 124 C66.33 124 33.66 124 0 124 C0 83.08 0 42.16 0 0 Z " fill="#A70712" transform="translate(139,57)"/>
<path d="M0 0 C32.34 0 64.68 0 98 0 C98 6.93 98 13.86 98 21 C72.26 21 46.52 21 20 21 C20 31.23 20 41.46 20 52 C37.16 52 54.32 52 72 52 C82 70 82 70 82 72 C61.54 72 41.08 72 20 72 C20 82.56 20 93.12 20 104 C45.74 104 71.48 104 98 104 C98 110.6 98 117.2 98 124 C65.66 124 33.32 124 0 124 C0 83.08 0 42.16 0 0 Z " fill="#A70612" transform="translate(771,57)"/>
<path d="M0 0 C3.59043892 -0.07736673 7.17337017 -0.18684312 10.75987911 -0.37446404 C33.96616568 -1.55925419 33.96616568 -1.55925419 39.72612667 2.65739632 C43.77494946 7.25487449 47.41149044 13.67126533 47.41149044 19.96293831 C46.61048916 19.96658394 45.80948788 19.97022957 44.98421383 19.97398567 C37.42171407 20.01191108 29.85970447 20.06881468 22.29752064 20.14684105 C18.4100381 20.18628782 14.52278112 20.21848974 10.63512325 20.2339344 C6.88064468 20.2491199 3.1267863 20.28359772 -0.62741566 20.33124733 C-2.05702023 20.34604186 -3.48671336 20.35397822 -4.91639423 20.35482216 C-6.92455529 20.35719899 -8.93262853 20.38660418 -10.94056034 20.41703987 C-12.08195469 20.42592232 -13.22334904 20.43480476 -14.39933109 20.44395638 C-18.91279276 21.17844179 -22.21773827 23.21832031 -25.04944706 26.82231331 C-27.46676788 31.82224184 -28.21598404 35.40530716 -27.58850956 40.96293831 C-26.00216443 45.16675291 -24.52701909 47.77141201 -20.58850956 49.96293831 C-17.61457858 50.24169822 -14.84176989 50.35644345 -11.86975956 50.33403206 C-10.11454948 50.35143467 -8.35934119 50.36901879 -6.60413456 50.38676643 C-3.85735276 50.39677159 -1.11069932 50.40045223 1.63609982 50.39872932 C16.00793155 50.41824213 28.32379766 50.7591685 39.21227169 61.31450081 C47.53284682 71.33466056 49.56311181 82.36413772 48.41149044 94.96293831 C46.26508755 104.37031553 40.4436426 112.13207323 32.63024044 117.64653206 C25.43571844 121.9151129 18.21796351 124.09233997 9.89879513 124.0764637 C8.93231548 124.07668274 8.93231548 124.07668274 7.946311 124.0769062 C5.82529441 124.07621181 3.70436661 124.06844167 1.58336544 124.06059456 C0.10934656 124.0587287 -1.36467294 124.05730559 -2.83869267 124.05630684 C-6.71189947 124.05249492 -10.58506859 124.04267596 -14.45826054 124.03160286 C-18.41313002 124.02136024 -22.36800562 124.01680311 -26.32288456 124.01176643 C-34.07811005 124.00105248 -41.83330452 123.983992 -49.58850956 123.96293831 C-47.97243869 119.75317899 -45.91914679 116.02312103 -43.52600956 112.21293831 C-43.1618494 111.62383675 -42.79768925 111.03473518 -42.42249393 110.42778206 C-39.74074645 106.1151752 -39.74074645 106.1151752 -38.58850956 104.96293831 C-36.99399163 104.85578504 -35.39483449 104.81671328 -33.79676151 104.80522346 C-32.77512409 104.79496132 -31.75348667 104.78469917 -30.70089054 104.77412605 C-29.58743763 104.76682472 -28.47398472 104.75952339 -27.32679081 104.75200081 C-24.98759121 104.72392325 -22.6483986 104.69525873 -20.30921268 104.66606331 C-16.60714827 104.62483929 -12.90521299 104.58796828 -9.20301151 104.56157112 C-5.63982711 104.53393661 -2.07724344 104.48805108 1.48570919 104.43950081 C2.58904095 104.43624794 3.6923727 104.43299507 4.82913876 104.42964363 C10.38553447 104.34091218 14.68346079 104.22978692 19.41149044 100.96293831 C24.15009023 94.81556561 25.26346037 89.57150313 24.41149044 81.96293831 C22.76530065 78.54861875 21.64672886 76.63329594 18.30431271 74.81938362 C14.46150629 73.6816872 10.78192619 73.72327392 6.81383419 73.75981331 C5.1074464 73.74925545 3.4010657 73.73749738 1.69469357 73.72465706 C-0.96898493 73.71440369 -3.63166568 73.71279186 -6.29529667 73.73295784 C-19.87202123 73.81141407 -30.75883551 72.30049794 -41.13147831 62.58403206 C-48.95258988 53.88225913 -51.62458974 43.63410615 -51.12366581 32.10746956 C-50.29381482 23.19957039 -45.60268849 15.40878897 -39.15100956 9.33793831 C-27.23388008 -0.17539411 -14.53042583 0.30684156 0 0 Z " fill="#A6020E" transform="translate(942.5885095596313,57.03706169128418)"/>
<path d="M0 0 C1.97626122 -0.05198799 1.97626122 -0.05198799 3.9924469 -0.10502625 C6.76843796 -0.16921623 9.54405318 -0.212761 12.32055664 -0.24731445 C15.15321783 -0.28734314 17.97723047 -0.37793926 20.80688477 -0.51391602 C43.65712399 -1.5894513 43.65712399 -1.5894513 49.4241333 2.69244385 C53.45136267 7.29028301 57.12890625 13.70652557 57.12890625 19.98828125 C56.32568436 19.99414749 55.52246246 20.00001373 54.69490051 20.00605774 C47.1174349 20.06401242 39.54029706 20.13610466 31.96312428 20.22399616 C28.06780385 20.26868348 24.17258761 20.30794298 20.27709961 20.3347168 C16.51622404 20.36076649 12.75574975 20.40118005 8.99512291 20.45146751 C7.56189664 20.46812509 6.12860097 20.4796463 4.69529152 20.48589516 C2.68452544 20.49554736 0.67388663 20.52531777 -1.33666992 20.5559082 C-2.48028488 20.56701126 -3.62389984 20.57811432 -4.8021698 20.58955383 C-9.05305227 21.14184624 -11.7791653 22.62134859 -14.453125 25.96875 C-17.43289472 31.31341632 -18.67403279 34.86587111 -17.87109375 40.98828125 C-16.28474862 45.19209585 -14.80960328 47.79675495 -10.87109375 49.98828125 C-7.89716277 50.26704116 -5.12435408 50.38178639 -2.15234375 50.359375 C-0.39713367 50.37677761 1.35807462 50.39436173 3.11328125 50.41210938 C5.86006305 50.42211453 8.60671649 50.42579517 11.35351562 50.42407227 C25.78618803 50.44366768 38.01824385 50.79741557 48.9296875 61.41015625 C57.1523117 71.04946703 59.02370532 80.66881684 58.35107422 92.94921875 C57.39206235 101.75105073 52.46087884 109.08302856 46.12890625 114.98828125 C45.36320312 115.70951172 45.36320312 115.70951172 44.58203125 116.4453125 C34.99684169 124.29852474 22.20561393 124.55929912 10.421875 124.37890625 C8.96072677 124.37142271 7.49956833 124.36573981 6.03840637 124.36175537 C2.2390346 124.34666468 -1.55970099 124.30753224 -5.35882568 124.26293945 C-9.2541036 124.22162327 -13.14948683 124.20366773 -17.04492188 124.18359375 C-24.65393223 124.14101656 -32.26242302 124.07297407 -39.87109375 123.98828125 C-38.25502289 119.77852194 -36.20173098 116.04846397 -33.80859375 112.23828125 C-33.44443359 111.64917969 -33.08027344 111.06007813 -32.70507812 110.453125 C-30.02333064 106.14051814 -30.02333064 106.14051814 -28.87109375 104.98828125 C-27.27657582 104.88112798 -25.67741868 104.84205622 -24.0793457 104.83056641 C-23.05770828 104.82030426 -22.03607086 104.81004211 -20.98347473 104.79946899 C-19.87002182 104.79216766 -18.75656891 104.78486633 -17.609375 104.77734375 C-15.2701754 104.7492662 -12.93098279 104.72060168 -10.59179688 104.69140625 C-6.88973246 104.65018223 -3.18779718 104.61331122 0.5144043 104.58691406 C4.0775887 104.55927955 7.64017237 104.51339402 11.203125 104.46484375 C12.30645676 104.46159088 13.40978851 104.45833801 14.54655457 104.45498657 C20.10295028 104.36625512 24.4008766 104.25512986 29.12890625 100.98828125 C34.09378257 94.54736062 34.96823638 88.95026012 34.12890625 80.98828125 C31.82204048 76.80174708 29.60917216 75.38042213 25.12890625 73.98828125 C22.28184362 73.80172312 19.52552677 73.71117808 16.6796875 73.71484375 C15.00975907 73.69454249 13.33983725 73.67369149 11.66992188 73.65234375 C9.06122244 73.62984442 6.45278583 73.61330692 3.84399414 73.60742188 C-10.35442051 73.55352261 -21.20612167 72.32635763 -31.87109375 61.98828125 C-39.3523752 53.20022575 -41.50259044 43.76501822 -41.21875 32.38671875 C-40.286468 23.2734003 -35.74598691 15.44061496 -29.0234375 9.30078125 C-19.94816245 2.08386272 -11.47456919 0.29848807 0 0 Z " fill="#A6020E" transform="translate(446.87109375,57.01171875)"/>
<path d="M0 0 C9.34524353 -0.09302318 18.69032562 -0.16392786 28.03593254 -0.20724869 C32.37633593 -0.22804935 36.71642061 -0.2562278 41.05664062 -0.30175781 C45.25177227 -0.34548621 49.44659896 -0.36919356 53.64194107 -0.37950897 C55.23580851 -0.38685225 56.82966083 -0.40119107 58.42339706 -0.42292023 C71.14921721 -0.58939314 80.56305945 0.8487471 90.08984375 9.921875 C96.687606 17.09980857 98.4953145 25.4502056 98.31640625 35.00390625 C97.83345935 39.57699605 96.30060252 43.06155131 94 47 C93.67257813 47.61488281 93.34515625 48.22976562 93.0078125 48.86328125 C88.79162836 55.80305879 80.91533166 60.4773339 73.20074463 62.5934906 C68.4976016 63.46222922 63.7069002 63.24017169 58.94140625 63.1953125 C57.92622925 63.19329834 56.91105225 63.19128418 55.8651123 63.18920898 C52.09752846 63.17879857 48.33000937 63.15087622 44.5625 63.125 C36.126875 63.08375 27.69125 63.0425 19 63 C19 82.8 19 102.6 19 123 C12.4 123 5.8 123 -1 123 C-1 96.27 -1 69.54 -1 42 C33.625 42.25 33.625 42.25 44.53369141 42.36035156 C47.77750397 42.37373424 47.77750397 42.37373424 51.02133179 42.3817749 C52.45945188 42.38789322 53.89755222 42.40191193 55.33554077 42.42230225 C57.52174182 42.45173626 59.70669586 42.45561923 61.89306641 42.45410156 C63.12328522 42.46298401 64.35350403 42.47186646 65.6210022 42.48101807 C69.66660291 41.90510558 71.83400547 40.53517205 75 38 C76.84438013 34.31123973 76.48788734 30.02669687 76 26 C74.11484777 23.42362529 72.80665143 22.40332572 70 21 C68.17718465 20.97190121 66.35318733 21.01047047 64.53149414 21.08032227 C58.79673024 21.27131889 53.06504707 21.39311042 47.32773685 21.45933628 C43.85777548 21.5039177 40.3946277 21.58055071 36.92749023 21.73022461 C14.49464223 22.66310174 14.49464223 22.66310174 8.62371826 18.18914795 C4.47058047 13.44927627 0 6.53131782 0 0 Z " fill="#A60410" transform="translate(18,58)"/>
<path d="M0 0 C3.25815073 2.63307867 4.35164635 5.98396137 5.72265625 9.8046875 C5.97994003 10.49874695 6.23722382 11.1928064 6.50230408 11.90789795 C7.06461207 13.42545154 7.62351279 14.94427092 8.17944336 16.46417236 C9.71476223 20.65573721 11.28085184 24.83574641 12.84765625 29.015625 C13.17996246 29.9029129 13.51226868 30.79020081 13.85464478 31.70437622 C17.7534441 42.07083102 21.8697958 52.34903963 26 62.625 C26.37744354 63.56532074 26.75488708 64.50564148 27.14376831 65.47445679 C30.11922163 72.88655267 33.10357179 80.29505192 36.08947754 87.70294189 C38.12719382 92.75884185 40.16262247 97.81564705 42.19433594 102.8739624 C43.10587419 105.13995514 44.02154635 107.40424622 44.9375 109.66845703 C45.48196516 111.02238281 46.02624757 112.37638209 46.5703125 113.73046875 C47.04227051 114.89989014 47.51422852 116.06931152 48.00048828 117.27416992 C49 120 49 120 49 122 C41.41 122 33.82 122 26 122 C17.42 100.55 8.84 79.1 0 57 C-12.41204804 84.81031595 -12.41204804 84.81031595 -24.45605469 112.78027344 C-25.14103027 114.39530762 -25.14103027 114.39530762 -25.83984375 116.04296875 C-26.23550537 116.98164795 -26.63116699 117.92032715 -27.03881836 118.88745117 C-28 121 -28 121 -29 122 C-30.70772358 122.08713831 -32.41898649 122.10700007 -34.12890625 122.09765625 C-35.68061523 122.09282227 -35.68061523 122.09282227 -37.26367188 122.08789062 C-38.35228516 122.07951172 -39.44089844 122.07113281 -40.5625 122.0625 C-42.2012207 122.05573242 -42.2012207 122.05573242 -43.87304688 122.04882812 C-46.58208495 122.03699826 -49.29101599 122.02051543 -52 122 C-51.33146017 117.62528813 -49.77168992 113.79450527 -48.0078125 109.76953125 C-47.70658981 109.07128738 -47.40536713 108.37304352 -47.09501648 107.65364075 C-46.10941797 105.37132557 -45.11721727 103.09194452 -44.125 100.8125 C-43.08240733 98.40344296 -42.04145001 95.99368377 -41.00062561 93.5838623 C-40.30451182 91.97237715 -39.60784568 90.36113048 -38.91062927 88.75012207 C-36.57925395 83.35929331 -34.29053586 77.95207032 -32.02734375 72.53222656 C-21.84045428 48.15411567 -11.00755182 24.01809383 0 0 Z " fill="#A6030F" transform="translate(579,59)"/>
<path d="M0 0 C33.95634328 0 33.95634328 0 45.375 10.8671875 C54.6174607 21.10571984 57.58558865 33.61059457 57 47 C55.93982566 57.81030233 50.123058 68.8363583 42 76 C28.39019445 85.83418208 18.23247499 84 0 84 C0 56.28 0 28.56 0 0 Z " fill="#FEFDFD" transform="translate(280,78)"/>
<path d="M0 0 C6.6 0 13.2 0 20 0 C20 34.32 20 68.64 20 104 C40.81082222 103.25031598 40.81082222 103.25031598 61.61206055 102.28833008 C81.70138163 101.67881047 81.70138163 101.67881047 87.7144165 105.91009521 C91.74914669 110.12307565 98 117.76770161 98 124 C65.66 124 33.32 124 0 124 C0 83.08 0 42.16 0 0 Z " fill="#A60410" transform="translate(650,57)"/>
<path d="M0 0 C7.63095178 -1.8412213 15.56421731 -3.0592383 23 0 C29.94472055 6.5691873 33.96325956 15.83275424 38.13378906 24.30908203 C40.77738541 29.6337346 43.9256411 34.64327638 47.0625 39.6875 C48.03733692 41.29267679 49.00792065 42.90045069 49.97265625 44.51171875 C50.36718994 45.16615967 50.76172363 45.82060059 51.16821289 46.49487305 C52 48 52 48 52 49 C44.40191817 50.32915311 36.47080364 51.37436101 29 49 C23.35107974 44.53706939 20.57596277 37.49172466 17.55957031 31.12841797 C14.85121904 25.69560438 11.54337395 20.6328908 8.3125 15.5 C7.13549535 13.59771452 5.96447862 11.69170504 4.80078125 9.78125 C4.30747314 8.97751953 3.81416504 8.17378906 3.3059082 7.34570312 C1.97547837 4.95595367 0.95899339 2.55882935 0 0 Z " fill="#A60410" transform="translate(64,132)"/>
</svg>
